<?xml version="1.0" encoding="utf-8" standalone="no"?>
<!DOCTYPE svg PUBLIC "-//W3C//DTD SVG 1.1//EN"
  "http://www.w3.org/Graphics/SVG/1.1/DTD/svg11.dtd">
<!-- Created with matplotlib (https://matplotlib.org/) -->
<svg height="288pt" version="1.1" viewBox="0 0 432 288" width="432pt" xmlns="http://www.w3.org/2000/svg" xmlns:xlink="http://www.w3.org/1999/xlink">
 <defs>
  <style type="text/css">
*{stroke-linecap:butt;stroke-linejoin:round;}
  </style>
 </defs>
 <g id="figure_1">
  <g id="patch_1">
   <path d="M 0 288 
L 432 288 
L 432 0 
L 0 0 
z
" style="fill:#ffffff;"/>
  </g>
  <g id="axes_1">
   <g id="patch_2">
    <path d="M 54 252 
L 388.8 252 
L 388.8 34.56 
L 54 34.56 
z
" style="fill:#ffffff;"/>
   </g>
   <g id="matplotlib.axis_1">
    <g id="xtick_1">
     <g id="line2d_1">
      <defs>
       <path d="M 0 0 
L 0 3.5 
" id="mdbb2886463" style="stroke:#000000;stroke-width:0.8;"/>
      </defs>
      <g>
       <use style="stroke:#000000;stroke-width:0.8;" x="69.218182" xlink:href="#mdbb2886463" y="252"/>
      </g>
     </g>
     <g id="text_1">
      <!-- $0$ -->
      <defs>
       <path d="M 42 31.640625 
C 42 37.75 41.90625 48.125 37.703125 56.109375 
C 34 63.109375 28.09375 65.59375 22.90625 65.59375 
C 18.09375 65.59375 12 63.40625 8.203125 56.203125 
C 4.203125 48.71875 3.796875 39.4375 3.796875 31.640625 
C 3.796875 25.953125 3.90625 17.28125 7 9.671875 
C 11.296875 -0.609375 19 -2 22.90625 -2 
C 27.5 -2 34.5 -0.109375 38.59375 9.375 
C 41.59375 16.28125 42 24.359375 42 31.640625 
z
M 22.90625 -0.40625 
C 16.5 -0.40625 12.703125 5.078125 11.296875 12.6875 
C 10.203125 18.5625 10.203125 27.15625 10.203125 32.75 
C 10.203125 40.4375 10.203125 46.828125 11.5 52.921875 
C 13.40625 61.390625 19 64 22.90625 64 
C 27 64 32.296875 61.296875 34.203125 53.125 
C 35.5 47.4375 35.59375 40.734375 35.59375 32.75 
C 35.59375 26.25 35.59375 18.265625 34.40625 12.375 
C 32.296875 1.484375 26.40625 -0.40625 22.90625 -0.40625 
z
" id="CMR17-48"/>
      </defs>
      <g transform="translate(66.727514 265.918498)scale(0.1 -0.1)">
       <use transform="scale(0.996264)" xlink:href="#CMR17-48"/>
      </g>
     </g>
    </g>
    <g id="xtick_2">
     <g id="line2d_2">
      <g>
       <use style="stroke:#000000;stroke-width:0.8;" x="130.151843" xlink:href="#mdbb2886463" y="252"/>
      </g>
     </g>
     <g id="text_2">
      <!-- $200$ -->
      <defs>
       <path d="M 41.703125 15.453125 
L 39.90625 15.453125 
C 38.90625 8.375 38.09375 7.171875 37.703125 6.5625 
C 37.203125 5.765625 30 5.765625 28.59375 5.765625 
L 9.40625 5.765625 
C 13 9.671875 20 16.75 28.5 24.953125 
C 34.59375 30.734375 41.703125 37.53125 41.703125 47.421875 
C 41.703125 59.21875 32.296875 66 21.796875 66 
C 10.796875 66 4.09375 56.3125 4.09375 47.34375 
C 4.09375 43.4375 7 42.9375 8.203125 42.9375 
C 9.203125 42.9375 12.203125 43.546875 12.203125 47.03125 
C 12.203125 50.109375 9.59375 51 8.203125 51 
C 7.59375 51 7 50.90625 6.59375 50.703125 
C 8.5 59.21875 14.296875 63.40625 20.40625 63.40625 
C 29.09375 63.40625 34.796875 56.515625 34.796875 47.421875 
C 34.796875 38.734375 29.703125 31.25 24 24.75 
L 4.09375 2.28125 
L 4.09375 0 
L 39.296875 0 
z
" id="CMR17-50"/>
      </defs>
      <g transform="translate(122.67984 265.918498)scale(0.1 -0.1)">
       <use transform="scale(0.996264)" xlink:href="#CMR17-50"/>
       <use transform="translate(45.690477 0)scale(0.996264)" xlink:href="#CMR17-48"/>
       <use transform="translate(91.380954 0)scale(0.996264)" xlink:href="#CMR17-48"/>
      </g>
     </g>
    </g>
    <g id="xtick_3">
     <g id="line2d_3">
      <g>
       <use style="stroke:#000000;stroke-width:0.8;" x="191.085504" xlink:href="#mdbb2886463" y="252"/>
      </g>
     </g>
     <g id="text_3">
      <!-- $400$ -->
      <defs>
       <path d="M 33.59375 64.40625 
C 33.59375 66.5 33.5 66.5 31.703125 66.5 
L 2 19.59375 
L 2 17 
L 27.796875 17 
L 27.796875 7.140625 
C 27.796875 3.5 27.59375 2.5 20.59375 2.5 
L 18.703125 2.5 
L 18.703125 0 
C 21.90625 0 27.296875 0 30.703125 0 
C 34.09375 0 39.5 0 42.703125 0 
L 42.703125 2.5 
L 40.796875 2.5 
C 33.796875 2.5 33.59375 3.5 33.59375 7.140625 
L 33.59375 17 
L 43.796875 17 
L 43.796875 19.59375 
L 33.59375 19.59375 
z
M 28.09375 57.859375 
L 28.09375 19.59375 
L 4 19.59375 
z
" id="CMR17-52"/>
      </defs>
      <g transform="translate(183.613501 265.918498)scale(0.1 -0.1)">
       <use transform="scale(0.996264)" xlink:href="#CMR17-52"/>
       <use transform="translate(45.690477 0)scale(0.996264)" xlink:href="#CMR17-48"/>
       <use transform="translate(91.380954 0)scale(0.996264)" xlink:href="#CMR17-48"/>
      </g>
     </g>
    </g>
    <g id="xtick_4">
     <g id="line2d_4">
      <g>
       <use style="stroke:#000000;stroke-width:0.8;" x="252.019165" xlink:href="#mdbb2886463" y="252"/>
      </g>
     </g>
     <g id="text_4">
      <!-- $600$ -->
      <defs>
       <path d="M 10.59375 34 
C 10.59375 57.65625 21.796875 63 28.296875 63 
C 30.40625 63 35.5 62.640625 37.5 59 
C 35.90625 59 32.90625 59 32.90625 55.515625 
C 32.90625 52.828125 35.09375 51.921875 36.5 51.921875 
C 37.40625 51.921875 40.09375 52.3125 40.09375 55.625 
C 40.09375 61.78125 35.09375 65.296875 28.203125 65.296875 
C 16.296875 65.296875 3.796875 52.96875 3.796875 31 
C 3.796875 3.953125 15.09375 -2 23.09375 -2 
C 32.796875 -2 42 6.671875 42 20.046875 
C 42 32.515625 33.90625 41.59375 23.703125 41.59375 
C 17.59375 41.59375 13.09375 37.609375 10.59375 30.625 
z
M 23.09375 0.390625 
C 10.796875 0.390625 10.796875 18.75 10.796875 22.4375 
C 10.796875 29.625 14.203125 40 23.5 40 
C 25.203125 40 30.09375 40 33.40625 33.125 
C 35.203125 29.21875 35.203125 25.140625 35.203125 20.140625 
C 35.203125 14.75 35.203125 10.78125 33.09375 6.78125 
C 30.90625 2.671875 27.703125 0.390625 23.09375 0.390625 
z
" id="CMR17-54"/>
      </defs>
      <g transform="translate(244.547162 265.918498)scale(0.1 -0.1)">
       <use transform="scale(0.996264)" xlink:href="#CMR17-54"/>
       <use transform="translate(45.690477 0)scale(0.996264)" xlink:href="#CMR17-48"/>
       <use transform="translate(91.380954 0)scale(0.996264)" xlink:href="#CMR17-48"/>
      </g>
     </g>
    </g>
    <g id="xtick_5">
     <g id="line2d_5">
      <g>
       <use style="stroke:#000000;stroke-width:0.8;" x="312.952826" xlink:href="#mdbb2886463" y="252"/>
      </g>
     </g>
     <g id="text_5">
      <!-- $800$ -->
      <defs>
       <path d="M 27.203125 35.375 
C 33.5 38.546875 39.90625 43.328125 39.90625 50.984375 
C 39.90625 60.015625 31.09375 65.296875 23 65.296875 
C 13.90625 65.296875 5.90625 58.734375 5.90625 49.6875 
C 5.90625 47.203125 6.5 42.921875 10.40625 39.140625 
C 11.40625 38.15625 15.59375 35.171875 18.296875 33.28125 
C 13.796875 30.984375 3.296875 25.53125 3.296875 14.59375 
C 3.296875 4.359375 13.09375 -2 22.796875 -2 
C 33.5 -2 42.5 5.65625 42.5 15.78125 
C 42.5 24.84375 36.40625 29.015625 32.40625 31.703125 
z
M 14.09375 44.09375 
C 13.296875 44.59375 9.296875 47.671875 9.296875 52.359375 
C 9.296875 58.421875 15.59375 63 22.796875 63 
C 30.703125 63 36.5 57.4375 36.5 50.96875 
C 36.5 41.703125 26.09375 36.421875 25.59375 36.421875 
C 25.5 36.421875 25.40625 36.421875 24.59375 37.03125 
z
M 32.5 23.734375 
C 34 22.640625 38.796875 19.375 38.796875 13.296875 
C 38.796875 5.953125 31.40625 0.390625 23 0.390625 
C 13.90625 0.390625 7 6.84375 7 14.6875 
C 7 22.546875 13.09375 29.09375 20 32.1875 
z
" id="CMR17-56"/>
      </defs>
      <g transform="translate(305.480823 265.918498)scale(0.1 -0.1)">
       <use transform="scale(0.996264)" xlink:href="#CMR17-56"/>
       <use transform="translate(45.690477 0)scale(0.996264)" xlink:href="#CMR17-48"/>
       <use transform="translate(91.380954 0)scale(0.996264)" xlink:href="#CMR17-48"/>
      </g>
     </g>
    </g>
    <g id="xtick_6">
     <g id="line2d_6">
      <g>
       <use style="stroke:#000000;stroke-width:0.8;" x="373.886486" xlink:href="#mdbb2886463" y="252"/>
      </g>
     </g>
     <g id="text_6">
      <!-- $1000$ -->
      <defs>
       <path d="M 26.59375 63.40625 
C 26.59375 65.5 26.5 65.5 25.09375 65.5 
C 21.203125 61.1875 15.296875 59.796875 9.703125 59.796875 
C 9.40625 59.796875 8.90625 59.796875 8.796875 59.5 
C 8.703125 59.296875 8.703125 59.09375 8.703125 57 
C 11.796875 57 17 57.59375 21 59.984375 
L 21 7.203125 
C 21 3.6875 20.796875 2.5 12.203125 2.5 
L 9.203125 2.5 
L 9.203125 0 
C 14 0 19 0 23.796875 0 
C 28.59375 0 33.59375 0 38.40625 0 
L 38.40625 2.5 
L 35.40625 2.5 
C 26.796875 2.5 26.59375 3.59375 26.59375 7.15625 
z
" id="CMR17-49"/>
      </defs>
      <g transform="translate(363.923816 265.918498)scale(0.1 -0.1)">
       <use transform="scale(0.996264)" xlink:href="#CMR17-49"/>
       <use transform="translate(45.690477 0)scale(0.996264)" xlink:href="#CMR17-48"/>
       <use transform="translate(91.380954 0)scale(0.996264)" xlink:href="#CMR17-48"/>
       <use transform="translate(137.071431 0)scale(0.996264)" xlink:href="#CMR17-48"/>
      </g>
     </g>
    </g>
   </g>
   <g id="matplotlib.axis_2">
    <g id="ytick_1">
     <g id="line2d_7">
      <defs>
       <path d="M 0 0 
L -3.5 0 
" id="m902c8bae51" style="stroke:#000000;stroke-width:0.8;"/>
      </defs>
      <g>
       <use style="stroke:#000000;stroke-width:0.8;" x="54" xlink:href="#m902c8bae51" y="235.839431"/>
      </g>
     </g>
     <g id="text_7">
      <!-- $-0.25$ -->
      <defs>
       <path d="M 65.90625 23 
C 67.59375 23 69.40625 23 69.40625 25 
C 69.40625 27 67.59375 27 65.90625 27 
L 11.796875 27 
C 10.09375 27 8.296875 27 8.296875 25 
C 8.296875 23 10.09375 23 11.796875 23 
z
" id="CMSY10-0"/>
       <path d="M 18.40625 4.796875 
C 18.40625 7.6875 16 9.671875 13.59375 9.671875 
C 10.703125 9.671875 8.703125 7.28125 8.703125 4.890625 
C 8.703125 2 11.09375 0 13.5 0 
C 16.40625 0 18.40625 2.390625 18.40625 4.796875 
z
" id="CMMI12-58"/>
       <path d="M 11.40625 57.6875 
C 12.40625 57.28125 16.5 56 20.703125 56 
C 30 56 35.09375 61.109375 38 64.0625 
C 38 64.953125 38 65.5 37.40625 65.5 
C 37.296875 65.5 37.09375 65.5 36.296875 65.046875 
C 32.796875 63.40625 28.703125 62.078125 23.703125 62.078125 
C 20.703125 62.078125 16.203125 62.484375 11.296875 64.671875 
C 10.203125 65.171875 10 65.171875 9.90625 65.171875 
C 9.40625 65.171875 9.296875 65.0625 9.296875 63.078125 
L 9.296875 34.421875 
C 9.296875 32.640625 9.296875 32.140625 10.296875 32.140625 
C 10.796875 32.140625 11 32.34375 11.5 33.03125 
C 14.703125 37.515625 19.09375 39.40625 24.09375 39.40625 
C 27.59375 39.40625 35.09375 37.21875 35.09375 20.140625 
C 35.09375 16.953125 35.09375 11.171875 32.09375 6.578125 
C 29.59375 2.484375 25.703125 0.390625 21.40625 0.390625 
C 14.796875 0.390625 8.09375 5 6.296875 12.71875 
C 6.703125 12.609375 7.5 12.421875 7.90625 12.421875 
C 9.203125 12.421875 11.703125 13.125 11.703125 16.21875 
C 11.703125 18.90625 9.796875 20 7.90625 20 
C 5.59375 20 4.09375 18.59375 4.09375 15.796875 
C 4.09375 7.09375 11 -2 21.59375 -2 
C 31.90625 -2 41.703125 6.875 41.703125 19.75 
C 41.703125 31.71875 33.90625 41 24.203125 41 
C 19.09375 41 14.796875 39.109375 11.40625 35.53125 
z
" id="CMR17-53"/>
      </defs>
      <g transform="translate(21.539842 239.29868)scale(0.1 -0.1)">
       <use transform="scale(0.996264)" xlink:href="#CMSY10-0"/>
       <use transform="translate(77.487468 0)scale(0.996264)" xlink:href="#CMR17-48"/>
       <use transform="translate(123.177945 0)scale(0.996264)" xlink:href="#CMMI12-58"/>
       <use transform="translate(150.275122 0)scale(0.996264)" xlink:href="#CMR17-50"/>
       <use transform="translate(195.965599 0)scale(0.996264)" xlink:href="#CMR17-53"/>
      </g>
     </g>
    </g>
    <g id="ytick_2">
     <g id="line2d_8">
      <g>
       <use style="stroke:#000000;stroke-width:0.8;" x="54" xlink:href="#m902c8bae51" y="211.021018"/>
      </g>
     </g>
     <g id="text_8">
      <!-- $0.00$ -->
      <g transform="translate(29.288586 214.480267)scale(0.1 -0.1)">
       <use transform="scale(0.996264)" xlink:href="#CMR17-48"/>
       <use transform="translate(45.690477 0)scale(0.996264)" xlink:href="#CMMI12-58"/>
       <use transform="translate(72.787654 0)scale(0.996264)" xlink:href="#CMR17-48"/>
       <use transform="translate(118.478131 0)scale(0.996264)" xlink:href="#CMR17-48"/>
      </g>
     </g>
    </g>
    <g id="ytick_3">
     <g id="line2d_9">
      <g>
       <use style="stroke:#000000;stroke-width:0.8;" x="54" xlink:href="#m902c8bae51" y="186.202605"/>
      </g>
     </g>
     <g id="text_9">
      <!-- $0.25$ -->
      <g transform="translate(29.288586 189.661854)scale(0.1 -0.1)">
       <use transform="scale(0.996264)" xlink:href="#CMR17-48"/>
       <use transform="translate(45.690477 0)scale(0.996264)" xlink:href="#CMMI12-58"/>
       <use transform="translate(72.787654 0)scale(0.996264)" xlink:href="#CMR17-50"/>
       <use transform="translate(118.478131 0)scale(0.996264)" xlink:href="#CMR17-53"/>
      </g>
     </g>
    </g>
    <g id="ytick_4">
     <g id="line2d_10">
      <g>
       <use style="stroke:#000000;stroke-width:0.8;" x="54" xlink:href="#m902c8bae51" y="161.384192"/>
      </g>
     </g>
     <g id="text_10">
      <!-- $0.50$ -->
      <g transform="translate(29.288586 164.843441)scale(0.1 -0.1)">
       <use transform="scale(0.996264)" xlink:href="#CMR17-48"/>
       <use transform="translate(45.690477 0)scale(0.996264)" xlink:href="#CMMI12-58"/>
       <use transform="translate(72.787654 0)scale(0.996264)" xlink:href="#CMR17-53"/>
       <use transform="translate(118.478131 0)scale(0.996264)" xlink:href="#CMR17-48"/>
      </g>
     </g>
    </g>
    <g id="ytick_5">
     <g id="line2d_11">
      <g>
       <use style="stroke:#000000;stroke-width:0.8;" x="54" xlink:href="#m902c8bae51" y="136.565779"/>
      </g>
     </g>
     <g id="text_11">
      <!-- $0.75$ -->
      <defs>
       <path d="M 45.09375 61.578125 
L 45.09375 63.765625 
L 21.59375 63.765625 
C 9.90625 63.765625 9.703125 65.078125 9.296875 67 
L 7.5 67 
L 4.59375 48.34375 
L 6.40625 48.34375 
C 6.703125 50.234375 7.40625 55.3125 8.59375 57.203125 
C 9.203125 58 16.59375 58 18.296875 58 
L 40.296875 58 
L 29.203125 41.578125 
C 21.796875 30.53125 16.703125 15.609375 16.703125 2.578125 
C 16.703125 1.390625 16.703125 -2 20.296875 -2 
C 23.90625 -2 23.90625 1.390625 23.90625 2.671875 
L 23.90625 7.265625 
C 23.90625 23.5625 26.703125 34.3125 31.296875 41.1875 
z
" id="CMR17-55"/>
      </defs>
      <g transform="translate(29.288586 140.025029)scale(0.1 -0.1)">
       <use transform="scale(0.996264)" xlink:href="#CMR17-48"/>
       <use transform="translate(45.690477 0)scale(0.996264)" xlink:href="#CMMI12-58"/>
       <use transform="translate(72.787654 0)scale(0.996264)" xlink:href="#CMR17-55"/>
       <use transform="translate(118.478131 0)scale(0.996264)" xlink:href="#CMR17-53"/>
      </g>
     </g>
    </g>
    <g id="ytick_6">
     <g id="line2d_12">
      <g>
       <use style="stroke:#000000;stroke-width:0.8;" x="54" xlink:href="#m902c8bae51" y="111.747367"/>
      </g>
     </g>
     <g id="text_12">
      <!-- $1.00$ -->
      <g transform="translate(29.288586 115.206616)scale(0.1 -0.1)">
       <use transform="scale(0.996264)" xlink:href="#CMR17-49"/>
       <use transform="translate(45.690477 0)scale(0.996264)" xlink:href="#CMMI12-58"/>
       <use transform="translate(72.787654 0)scale(0.996264)" xlink:href="#CMR17-48"/>
       <use transform="translate(118.478131 0)scale(0.996264)" xlink:href="#CMR17-48"/>
      </g>
     </g>
    </g>
    <g id="ytick_7">
     <g id="line2d_13">
      <g>
       <use style="stroke:#000000;stroke-width:0.8;" x="54" xlink:href="#m902c8bae51" y="86.928954"/>
      </g>
     </g>
     <g id="text_13">
      <!-- $1.25$ -->
      <g transform="translate(29.288586 90.388203)scale(0.1 -0.1)">
       <use transform="scale(0.996264)" xlink:href="#CMR17-49"/>
       <use transform="translate(45.690477 0)scale(0.996264)" xlink:href="#CMMI12-58"/>
       <use transform="translate(72.787654 0)scale(0.996264)" xlink:href="#CMR17-50"/>
       <use transform="translate(118.478131 0)scale(0.996264)" xlink:href="#CMR17-53"/>
      </g>
     </g>
    </g>
    <g id="ytick_8">
     <g id="line2d_14">
      <g>
       <use style="stroke:#000000;stroke-width:0.8;" x="54" xlink:href="#m902c8bae51" y="62.110541"/>
      </g>
     </g>
     <g id="text_14">
      <!-- $1.50$ -->
      <g transform="translate(29.288586 65.56979)scale(0.1 -0.1)">
       <use transform="scale(0.996264)" xlink:href="#CMR17-49"/>
       <use transform="translate(45.690477 0)scale(0.996264)" xlink:href="#CMMI12-58"/>
       <use transform="translate(72.787654 0)scale(0.996264)" xlink:href="#CMR17-53"/>
       <use transform="translate(118.478131 0)scale(0.996264)" xlink:href="#CMR17-48"/>
      </g>
     </g>
    </g>
    <g id="ytick_9">
     <g id="line2d_15">
      <g>
       <use style="stroke:#000000;stroke-width:0.8;" x="54" xlink:href="#m902c8bae51" y="37.292128"/>
      </g>
     </g>
     <g id="text_15">
      <!-- $1.75$ -->
      <g transform="translate(29.288586 40.751377)scale(0.1 -0.1)">
       <use transform="scale(0.996264)" xlink:href="#CMR17-49"/>
       <use transform="translate(45.690477 0)scale(0.996264)" xlink:href="#CMMI12-58"/>
       <use transform="translate(72.787654 0)scale(0.996264)" xlink:href="#CMR17-55"/>
       <use transform="translate(118.478131 0)scale(0.996264)" xlink:href="#CMR17-53"/>
      </g>
     </g>
    </g>
   </g>
   <g id="line2d_16">
    <path clip-path="url(#pcad53d8bb8)" d="M 69.218182 230.813034 
L 69.52285 206.763396 
L 70.132187 182.517099 
L 70.436855 173.030727 
L 70.741523 167.160858 
L 71.046192 169.329888 
L 71.655528 155.837225 
L 72.264865 150.601536 
L 72.569533 151.170323 
L 72.874201 151.023811 
L 73.483538 145.476936 
L 73.788206 146.720453 
L 74.092875 144.521965 
L 74.397543 145.455774 
L 74.702211 144.374888 
L 75.00688 148.021977 
L 75.311548 145.296353 
L 75.616216 144.434527 
L 75.920885 146.360711 
L 76.225553 143.660687 
L 76.530221 145.109996 
L 76.834889 141.475798 
L 77.139558 142.210687 
L 77.748894 141.77595 
L 78.053563 143.789548 
L 78.358231 140.834852 
L 78.662899 141.556423 
L 78.967568 139.475676 
L 79.576904 146.791597 
L 79.881572 139.561179 
L 80.186241 143.436622 
L 80.490909 145.433571 
L 80.795577 138.376694 
L 81.100246 144.607151 
L 81.404914 143.135298 
L 81.709582 138.510541 
L 82.318919 143.340956 
L 82.623587 142.388729 
L 82.928256 139.113878 
L 83.232924 143.444917 
L 83.537592 139.25643 
L 83.84226 142.620565 
L 84.146929 137.477043 
L 84.451597 139.76233 
L 84.756265 140.853498 
L 85.060934 140.776502 
L 85.365602 141.344981 
L 85.67027 144.777664 
L 85.974939 143.492873 
L 86.279607 140.093438 
L 86.584275 138.864109 
L 86.888943 142.590116 
L 87.193612 143.308508 
L 87.49828 139.34639 
L 87.802948 140.233937 
L 88.107617 137.76789 
L 88.412285 141.412491 
L 88.716953 139.290814 
L 89.021622 139.685451 
L 89.32629 140.399039 
L 89.630958 136.697094 
L 90.240295 140.550002 
L 90.544963 138.631905 
L 90.849631 138.635146 
L 91.1543 145.015495 
L 91.458968 142.946001 
L 91.763636 142.958586 
L 92.068305 142.318181 
L 92.372973 138.40133 
L 92.677641 141.5931 
L 92.98231 141.677588 
L 93.286978 136.768548 
L 93.591646 144.012878 
L 93.896314 138.764023 
L 94.200983 143.616864 
L 94.505651 140.778208 
L 94.810319 142.71869 
L 95.114988 142.138999 
L 95.419656 139.337845 
L 95.724324 139.562656 
L 96.028993 139.021712 
L 96.333661 139.738638 
L 96.638329 139.11034 
L 96.942998 142.924576 
L 97.247666 140.934613 
L 97.552334 144.006887 
L 97.857002 142.237376 
L 98.161671 139.186985 
L 98.466339 141.145316 
L 99.075676 142.860407 
L 99.380344 139.827001 
L 99.685012 141.825388 
L 99.989681 142.665749 
L 100.294349 142.368788 
L 100.599017 139.028444 
L 100.903686 138.612207 
L 101.208354 140.283246 
L 101.513022 134.628198 
L 101.81769 142.557946 
L 102.122359 139.965189 
L 102.427027 140.253651 
L 102.731695 145.351448 
L 103.036364 140.849938 
L 103.341032 142.262993 
L 103.6457 138.717946 
L 103.950369 141.60272 
L 104.255037 141.148558 
L 104.559705 139.025969 
L 104.864373 140.679915 
L 105.169042 138.622707 
L 105.47371 139.99122 
L 105.778378 138.727087 
L 106.083047 139.013101 
L 106.387715 141.714559 
L 106.692383 142.251168 
L 106.997052 143.720807 
L 107.30172 138.182697 
L 107.606388 142.784551 
L 107.911057 141.384868 
L 108.215725 137.409232 
L 108.520393 138.663953 
L 108.825061 145.393877 
L 109.434398 138.636443 
L 109.739066 135.601957 
L 110.043735 139.746584 
L 110.348403 138.192506 
L 110.653071 141.475189 
L 111.262408 143.585646 
L 111.567076 139.306328 
L 111.871744 137.523871 
L 112.481081 140.14726 
L 112.785749 135.795609 
L 113.090418 139.161122 
L 113.395086 137.221043 
L 113.699754 138.985516 
L 114.004423 144.464402 
L 114.309091 138.630962 
L 114.918428 139.965312 
L 115.223096 137.33802 
L 115.527764 140.453512 
L 115.832432 138.914107 
L 116.137101 144.667869 
L 116.441769 141.637573 
L 116.746437 140.332529 
L 117.051106 140.777635 
L 117.355774 139.265036 
L 117.660442 140.461611 
L 117.965111 143.31447 
L 118.269779 142.649233 
L 118.574447 137.710886 
L 118.879115 144.387125 
L 119.183784 138.826818 
L 119.488452 143.577054 
L 119.79312 142.417642 
L 120.097789 140.241741 
L 120.402457 135.226103 
L 120.707125 139.388567 
L 121.011794 140.789085 
L 121.316462 142.940858 
L 121.62113 138.627082 
L 121.925799 140.930379 
L 122.230467 141.321038 
L 122.535135 139.67044 
L 122.839803 139.766664 
L 123.144472 144.135964 
L 123.44914 139.621156 
L 123.753808 139.206181 
L 124.058477 141.236851 
L 124.363145 138.499928 
L 124.667813 140.266247 
L 124.972482 139.37926 
L 125.27715 139.497377 
L 125.581818 136.988602 
L 125.886486 143.961106 
L 126.191155 137.906239 
L 126.800491 142.133096 
L 127.10516 139.402624 
L 127.409828 138.069 
L 128.019165 138.759837 
L 128.323833 143.458899 
L 128.628501 140.756229 
L 128.93317 139.995622 
L 129.237838 141.476747 
L 129.542506 143.56809 
L 129.847174 142.219016 
L 130.151843 142.481243 
L 130.456511 140.297259 
L 130.761179 142.114538 
L 131.065848 139.289644 
L 131.370516 140.694038 
L 131.675184 137.951608 
L 132.284521 140.968112 
L 132.589189 139.888755 
L 132.893857 139.937437 
L 133.198526 138.627803 
L 133.807862 139.642113 
L 134.112531 141.143545 
L 134.417199 139.904133 
L 134.721867 139.631815 
L 135.026536 142.351048 
L 135.331204 142.52013 
L 135.635872 141.179298 
L 135.940541 138.606184 
L 136.245209 144.913931 
L 136.549877 140.045882 
L 136.854545 140.275143 
L 137.159214 140.105783 
L 137.463882 142.788905 
L 137.76855 139.077864 
L 138.073219 137.292543 
L 138.377887 141.995819 
L 138.682555 142.684622 
L 139.291892 138.254748 
L 139.59656 138.318739 
L 139.901229 143.044595 
L 140.205897 140.891576 
L 140.510565 141.723241 
L 140.815233 137.027503 
L 141.119902 138.044301 
L 141.42457 140.079155 
L 142.033907 139.571647 
L 142.338575 140.435004 
L 142.643243 144.116352 
L 142.947912 137.951919 
L 143.25258 140.917858 
L 143.557248 139.706202 
L 143.861916 141.564848 
L 144.166585 140.865684 
L 144.471253 138.770469 
L 144.775921 143.312852 
L 145.08059 140.058249 
L 145.385258 144.194953 
L 145.689926 140.301174 
L 145.994595 141.751534 
L 146.299263 140.257668 
L 146.603931 140.819926 
L 146.9086 139.056071 
L 147.213268 139.085742 
L 147.517936 140.50593 
L 147.822604 141.039942 
L 148.127273 140.535188 
L 148.736609 138.191866 
L 149.041278 143.795771 
L 149.345946 143.174274 
L 149.650614 136.411364 
L 149.955283 139.653728 
L 150.259951 140.624271 
L 150.564619 140.892803 
L 150.869287 140.2312 
L 151.173956 138.921072 
L 151.478624 140.227012 
L 151.783292 133.637067 
L 152.087961 136.170399 
L 152.392629 141.785971 
L 152.697297 140.758511 
L 153.306634 143.948671 
L 153.611302 141.372025 
L 153.915971 135.752216 
L 154.220639 143.851802 
L 154.525307 141.952371 
L 154.829975 138.377086 
L 155.134644 141.69362 
L 155.439312 137.706105 
L 155.74398 137.435688 
L 156.048649 142.085761 
L 156.353317 140.082381 
L 156.657985 140.208459 
L 156.962654 141.394173 
L 157.267322 140.251006 
L 157.57199 141.410193 
L 157.876658 140.121963 
L 158.181327 139.61585 
L 158.485995 137.578442 
L 158.790663 142.848174 
L 159.095332 140.795482 
L 159.4 141.642084 
L 159.704668 141.247378 
L 160.009337 138.280673 
L 160.314005 142.179392 
L 160.618673 139.890576 
L 160.923342 141.421844 
L 161.22801 141.805591 
L 161.532678 139.109765 
L 161.837346 142.578373 
L 162.142015 139.865803 
L 162.446683 139.430691 
L 162.751351 142.741445 
L 163.05602 142.442405 
L 163.360688 142.83654 
L 163.665356 144.696745 
L 163.970025 138.648568 
L 164.274693 137.16157 
L 164.579361 142.406192 
L 164.884029 141.74297 
L 165.188698 138.070146 
L 165.493366 139.20603 
L 165.798034 143.761999 
L 166.102703 139.841522 
L 166.407371 142.512375 
L 166.712039 137.982067 
L 167.016708 139.55306 
L 167.321376 144.461558 
L 167.626044 139.971106 
L 167.930713 140.499772 
L 168.235381 143.329159 
L 168.540049 139.791552 
L 168.844717 137.862366 
L 169.149386 140.085076 
L 169.454054 140.22611 
L 169.758722 138.246943 
L 170.063391 141.779241 
L 170.368059 143.712667 
L 170.672727 137.943038 
L 170.977396 143.721206 
L 171.282064 140.698744 
L 171.586732 140.536889 
L 171.8914 140.911637 
L 172.196069 141.885393 
L 172.500737 137.395389 
L 172.805405 139.680174 
L 173.110074 140.254828 
L 173.414742 135.893133 
L 173.71941 138.888561 
L 174.024079 138.056985 
L 174.328747 138.426495 
L 174.633415 147.606481 
L 174.938084 137.719114 
L 175.242752 141.145279 
L 175.852088 136.510225 
L 176.156757 136.443365 
L 176.461425 138.058732 
L 176.766093 137.401836 
L 177.070762 140.617098 
L 177.37543 142.153913 
L 177.680098 141.741893 
L 177.984767 142.529339 
L 178.289435 137.895803 
L 178.594103 141.250998 
L 178.898771 140.781818 
L 179.20344 137.272182 
L 179.508108 137.547469 
L 179.812776 138.042308 
L 180.117445 141.389269 
L 180.422113 139.437018 
L 181.03145 141.428512 
L 181.336118 137.841254 
L 181.640786 138.85857 
L 181.945455 139.20766 
L 182.250123 140.032971 
L 182.554791 140.35115 
L 182.859459 142.33445 
L 183.164128 141.044173 
L 183.468796 144.627917 
L 183.773464 139.130195 
L 184.078133 143.199038 
L 184.382801 141.974981 
L 184.687469 139.167154 
L 184.992138 142.707125 
L 185.296806 141.664137 
L 185.906143 140.638396 
L 186.210811 143.852499 
L 186.515479 142.509034 
L 186.820147 139.451582 
L 187.124816 139.242976 
L 187.429484 144.987032 
L 187.734152 138.244808 
L 188.038821 140.055385 
L 188.343489 141.115692 
L 188.648157 138.550063 
L 188.952826 141.034256 
L 189.257494 141.674086 
L 189.562162 142.65123 
L 189.86683 138.545832 
L 190.476167 141.332172 
L 190.780835 138.316859 
L 191.085504 141.633699 
L 191.390172 141.562396 
L 191.69484 138.587702 
L 191.999509 140.532437 
L 192.304177 136.608069 
L 192.608845 138.686157 
L 192.913514 137.760414 
L 193.218182 140.934245 
L 193.52285 139.021702 
L 193.827518 140.308313 
L 194.132187 144.35184 
L 194.436855 136.504812 
L 195.046192 144.094871 
L 195.35086 137.535101 
L 195.960197 142.928996 
L 196.569533 136.830737 
L 196.874201 141.377524 
L 197.17887 139.3323 
L 197.483538 139.627836 
L 197.788206 140.381676 
L 198.092875 140.773806 
L 198.397543 137.412019 
L 198.702211 142.198738 
L 199.00688 144.722101 
L 199.616216 143.128355 
L 199.920885 135.044851 
L 200.530221 143.325719 
L 200.834889 135.526211 
L 201.139558 137.057344 
L 201.444226 141.487067 
L 201.748894 138.569424 
L 202.053563 139.590326 
L 202.358231 137.873589 
L 202.662899 139.548689 
L 202.967568 137.652861 
L 203.272236 142.023732 
L 203.576904 135.817216 
L 203.881572 139.581171 
L 204.186241 141.34106 
L 204.490909 144.058539 
L 204.795577 138.874992 
L 205.100246 138.913719 
L 205.404914 142.953381 
L 205.709582 141.853486 
L 206.014251 141.975858 
L 206.318919 140.50235 
L 206.623587 138.122522 
L 206.928256 141.251762 
L 207.232924 142.021621 
L 207.537592 140.900692 
L 207.84226 143.115841 
L 208.146929 141.374755 
L 208.756265 140.517548 
L 209.060934 138.31382 
L 209.365602 137.642832 
L 209.67027 138.27007 
L 209.974939 142.024275 
L 210.279607 138.964762 
L 210.888943 140.194075 
L 211.193612 138.938763 
L 211.49828 139.694818 
L 211.802948 137.177387 
L 212.107617 144.895324 
L 212.412285 140.503262 
L 212.716953 138.097066 
L 213.021622 140.360216 
L 213.32629 141.626882 
L 213.630958 139.217572 
L 213.935627 138.833391 
L 214.240295 141.113242 
L 214.544963 141.821095 
L 214.849631 140.151156 
L 215.1543 142.344716 
L 215.458968 139.013916 
L 215.763636 142.014712 
L 216.068305 139.318002 
L 216.372973 142.716576 
L 216.677641 141.960902 
L 216.98231 139.14105 
L 217.286978 139.091615 
L 217.591646 137.810103 
L 217.896314 141.056161 
L 218.200983 142.094997 
L 218.505651 138.647374 
L 218.810319 143.872671 
L 219.114988 135.677778 
L 219.419656 139.196659 
L 219.724324 137.430297 
L 220.028993 141.465051 
L 220.333661 137.010696 
L 220.638329 139.803848 
L 220.942998 144.196206 
L 221.247666 140.370266 
L 221.552334 138.963109 
L 221.857002 138.746906 
L 222.161671 141.81456 
L 222.466339 137.547178 
L 222.771007 137.713836 
L 223.075676 140.580056 
L 223.380344 140.094901 
L 223.685012 138.099823 
L 223.989681 143.214624 
L 224.294349 137.99528 
L 224.903686 140.155491 
L 225.208354 138.18092 
L 225.513022 140.437381 
L 225.81769 138.362531 
L 226.122359 139.30922 
L 226.427027 142.067668 
L 226.731695 141.755107 
L 227.036364 138.988281 
L 227.341032 137.644119 
L 227.6457 136.95637 
L 227.950369 139.223579 
L 228.255037 136.434155 
L 228.559705 141.139023 
L 228.864373 141.373184 
L 229.47371 138.517701 
L 229.778378 137.610315 
L 230.083047 147.805927 
L 230.387715 139.880105 
L 230.692383 138.747868 
L 230.997052 138.653848 
L 231.30172 138.734038 
L 231.606388 144.073638 
L 231.911057 140.957109 
L 232.215725 141.091913 
L 232.520393 138.593472 
L 232.825061 139.463279 
L 233.12973 141.802779 
L 233.434398 139.829022 
L 233.739066 140.098548 
L 234.043735 141.917008 
L 234.348403 141.367656 
L 234.653071 142.252507 
L 234.95774 139.731585 
L 235.262408 139.701007 
L 235.567076 138.050112 
L 235.871744 142.423697 
L 236.176413 138.125936 
L 236.481081 138.500609 
L 236.785749 138.355883 
L 237.090418 138.925506 
L 237.395086 138.097062 
L 237.699754 141.81741 
L 238.004423 142.342329 
L 238.309091 141.484246 
L 238.613759 140.980877 
L 238.918428 143.696011 
L 239.223096 142.518855 
L 239.527764 140.283479 
L 239.832432 137.197132 
L 240.137101 140.04159 
L 240.441769 140.913735 
L 240.746437 142.176465 
L 241.051106 142.106162 
L 241.355774 141.328587 
L 241.660442 141.069529 
L 241.965111 142.925562 
L 242.269779 134.426769 
L 242.574447 141.595517 
L 242.879115 139.620065 
L 243.183784 136.050752 
L 243.488452 140.470823 
L 243.79312 136.162054 
L 244.097789 140.932949 
L 244.402457 140.097962 
L 244.707125 141.009825 
L 245.011794 141.05083 
L 245.62113 137.088075 
L 245.925799 137.387184 
L 246.230467 139.335694 
L 246.535135 139.317048 
L 246.839803 141.131144 
L 247.144472 140.236129 
L 247.44914 137.736297 
L 247.753808 140.934742 
L 248.058477 135.01782 
L 248.363145 139.009193 
L 248.667813 139.145496 
L 248.972482 134.418553 
L 249.27715 138.573949 
L 249.581818 139.664021 
L 249.886486 137.430022 
L 250.191155 144.186305 
L 250.495823 144.911929 
L 250.800491 140.900538 
L 251.409828 138.531267 
L 251.714496 139.167082 
L 252.019165 138.449255 
L 252.323833 141.945323 
L 252.628501 137.61188 
L 252.93317 141.682642 
L 253.237838 140.515293 
L 253.542506 142.780552 
L 253.847174 137.44681 
L 254.151843 137.740224 
L 254.456511 143.120432 
L 254.761179 138.576107 
L 255.065848 139.527998 
L 255.370516 139.614565 
L 255.675184 142.531361 
L 255.979853 139.901316 
L 256.284521 141.027571 
L 256.589189 141.237258 
L 256.893857 137.733507 
L 257.503194 144.004742 
L 257.807862 140.970854 
L 258.112531 140.202055 
L 258.417199 138.944713 
L 258.721867 141.131453 
L 259.026536 141.730312 
L 259.331204 139.20916 
L 259.635872 142.380298 
L 259.940541 140.539931 
L 260.245209 137.72008 
L 260.549877 139.970423 
L 260.854545 140.559538 
L 261.159214 137.867358 
L 261.463882 138.212614 
L 261.76855 140.219638 
L 262.073219 141.193272 
L 262.377887 138.035332 
L 262.682555 140.35091 
L 262.987224 141.049282 
L 263.291892 142.298766 
L 263.59656 142.996256 
L 263.901229 139.904281 
L 264.205897 142.834791 
L 264.510565 139.38194 
L 264.815233 139.35754 
L 265.42457 138.735923 
L 265.729238 140.271744 
L 266.033907 138.139531 
L 266.338575 139.873298 
L 266.643243 139.590693 
L 266.947912 142.416066 
L 267.25258 141.333532 
L 267.557248 142.839261 
L 267.861916 137.700008 
L 268.166585 137.986444 
L 268.471253 141.880005 
L 268.775921 141.467775 
L 269.08059 139.203981 
L 269.385258 140.320639 
L 269.689926 138.032688 
L 269.994595 139.689356 
L 270.299263 140.42156 
L 270.603931 139.992346 
L 270.9086 142.46081 
L 271.213268 139.581319 
L 271.517936 133.391924 
L 271.822604 141.281379 
L 272.127273 142.473145 
L 272.431941 140.345727 
L 272.736609 136.828632 
L 273.041278 139.338743 
L 273.345946 138.876731 
L 273.650614 142.680606 
L 273.955283 139.020017 
L 274.259951 140.86654 
L 274.564619 141.305237 
L 274.869287 143.452525 
L 275.173956 140.639181 
L 275.478624 144.668736 
L 275.783292 140.044584 
L 276.087961 137.306561 
L 276.392629 138.752612 
L 277.001966 142.991717 
L 277.306634 140.343127 
L 277.611302 144.357893 
L 277.915971 142.08472 
L 278.220639 142.736593 
L 278.525307 139.73137 
L 278.829975 139.455896 
L 279.134644 137.981797 
L 279.439312 142.508457 
L 279.74398 139.145659 
L 280.048649 138.766139 
L 280.657985 141.323864 
L 280.962654 140.985474 
L 281.57199 136.494998 
L 281.876658 141.724065 
L 282.181327 139.444429 
L 282.485995 138.061594 
L 282.790663 143.169589 
L 283.095332 137.431577 
L 283.4 142.87595 
L 283.704668 143.273724 
L 284.009337 141.752055 
L 284.314005 137.972519 
L 284.618673 140.780167 
L 284.923342 141.924825 
L 285.22801 136.964123 
L 286.142015 142.800884 
L 286.446683 138.269212 
L 286.751351 139.617105 
L 287.05602 137.838288 
L 287.360688 137.75309 
L 287.665356 142.365437 
L 287.970025 142.858711 
L 288.274693 142.500303 
L 288.579361 139.369719 
L 288.884029 137.655387 
L 289.188698 138.423441 
L 289.493366 135.559103 
L 289.798034 139.383005 
L 290.102703 140.81947 
L 290.407371 144.929696 
L 290.712039 140.265425 
L 291.016708 140.702337 
L 291.321376 135.155076 
L 291.626044 140.793836 
L 291.930713 144.058273 
L 292.235381 142.374076 
L 292.540049 143.341882 
L 292.844717 143.874622 
L 293.149386 139.638731 
L 293.454054 140.517272 
L 293.758722 139.528862 
L 294.063391 135.680012 
L 294.368059 141.529695 
L 294.672727 140.639408 
L 294.977396 137.272451 
L 295.282064 137.259559 
L 295.586732 141.271843 
L 295.8914 139.968135 
L 296.196069 142.486927 
L 296.500737 141.594138 
L 296.805405 141.247892 
L 297.110074 138.192949 
L 297.414742 141.091397 
L 297.71941 138.304359 
L 298.024079 139.588191 
L 298.328747 144.395375 
L 298.633415 140.348543 
L 298.938084 139.563835 
L 299.242752 137.415625 
L 299.54742 137.155538 
L 300.156757 142.449703 
L 300.461425 140.310446 
L 300.766093 144.210239 
L 301.070762 142.843101 
L 301.680098 136.312771 
L 301.984767 140.832632 
L 302.289435 136.758142 
L 302.594103 135.597904 
L 302.898771 135.737785 
L 303.20344 142.186871 
L 303.508108 143.817751 
L 303.812776 142.727721 
L 304.117445 138.662912 
L 304.422113 140.362854 
L 304.726781 137.772895 
L 305.03145 137.991201 
L 305.336118 137.395335 
L 305.640786 140.726926 
L 305.945455 139.44101 
L 306.250123 138.830178 
L 306.554791 140.468355 
L 306.859459 138.292665 
L 307.164128 137.840494 
L 307.468796 141.194749 
L 307.773464 139.883603 
L 308.078133 135.468404 
L 308.687469 140.152201 
L 308.992138 137.38542 
L 309.296806 137.270118 
L 309.601474 139.225033 
L 309.906143 137.569254 
L 310.210811 139.847315 
L 310.515479 139.21957 
L 310.820147 139.937239 
L 311.124816 144.808703 
L 311.734152 136.465894 
L 312.038821 141.491329 
L 312.343489 140.80422 
L 312.648157 142.420865 
L 312.952826 142.144596 
L 313.257494 139.903315 
L 313.562162 144.628833 
L 313.86683 141.475379 
L 314.171499 136.410438 
L 314.476167 139.223439 
L 314.780835 138.113775 
L 315.085504 139.510937 
L 315.390172 138.833898 
L 315.69484 142.486054 
L 315.999509 143.184616 
L 316.304177 140.083186 
L 316.608845 141.578498 
L 316.913514 140.066303 
L 317.52285 142.583295 
L 317.827518 139.975239 
L 318.132187 143.464721 
L 318.436855 138.364587 
L 318.741523 136.93448 
L 319.046192 141.325373 
L 319.35086 140.902461 
L 319.655528 139.654123 
L 319.960197 141.255081 
L 320.264865 139.665994 
L 320.569533 136.938074 
L 320.874201 138.664294 
L 321.17887 138.964165 
L 321.483538 140.224355 
L 321.788206 142.378346 
L 322.092875 143.045961 
L 322.397543 138.435875 
L 322.702211 138.806612 
L 323.00688 138.862287 
L 323.311548 143.067975 
L 323.616216 138.786435 
L 323.920885 138.921198 
L 324.225553 136.559189 
L 324.530221 136.426015 
L 324.834889 138.625773 
L 325.139558 137.913599 
L 325.444226 140.172361 
L 325.748894 138.079947 
L 326.053563 142.344885 
L 326.358231 141.501776 
L 326.662899 135.766009 
L 326.967568 139.391363 
L 327.576904 141.827485 
L 327.881572 139.306818 
L 328.186241 141.736036 
L 328.490909 138.92833 
L 328.795577 140.546415 
L 329.100246 137.903318 
L 329.404914 147.307388 
L 330.014251 138.056596 
L 330.318919 141.714093 
L 330.623587 136.514827 
L 330.928256 138.091696 
L 331.232924 142.837512 
L 331.537592 137.355549 
L 331.84226 137.74588 
L 332.146929 134.769012 
L 332.451597 139.631326 
L 332.756265 137.879465 
L 333.060934 139.307698 
L 333.365602 142.90961 
L 333.67027 140.306543 
L 333.974939 142.033163 
L 334.279607 137.131371 
L 334.584275 140.250661 
L 334.888943 141.51013 
L 335.193612 137.423151 
L 335.49828 138.015058 
L 335.802948 138.278083 
L 336.107617 137.789441 
L 336.412285 138.359464 
L 336.716953 139.84456 
L 337.021622 139.298738 
L 337.32629 141.526805 
L 337.630958 140.632207 
L 337.935627 136.111955 
L 338.240295 140.176055 
L 338.544963 140.321039 
L 338.849631 136.737411 
L 339.1543 138.352296 
L 339.458968 141.882492 
L 339.763636 140.385 
L 340.068305 140.600353 
L 340.372973 138.879011 
L 340.677641 141.239502 
L 340.98231 138.933198 
L 341.286978 138.969594 
L 341.591646 137.253519 
L 341.896314 141.616624 
L 342.200983 136.909448 
L 342.505651 139.345054 
L 342.810319 138.789391 
L 343.114988 142.217378 
L 343.419656 140.43946 
L 343.724324 139.5858 
L 344.028993 142.156985 
L 344.333661 140.817642 
L 344.638329 138.322818 
L 344.942998 143.570649 
L 345.247666 140.280311 
L 345.552334 141.009095 
L 345.857002 137.998094 
L 346.161671 143.564964 
L 346.466339 139.902603 
L 346.771007 141.022341 
L 347.075676 138.740757 
L 347.380344 141.344736 
L 347.685012 142.741469 
L 347.989681 140.159771 
L 348.294349 143.124703 
L 348.599017 136.986471 
L 349.208354 144.983573 
L 349.81769 138.113149 
L 350.122359 138.463931 
L 350.427027 135.775319 
L 350.731695 138.79654 
L 351.036364 139.519344 
L 351.341032 140.669047 
L 351.6457 140.804613 
L 351.950369 140.035413 
L 352.255037 138.41515 
L 352.559705 140.513281 
L 352.864373 141.009492 
L 353.169042 137.256209 
L 353.47371 140.424573 
L 353.778378 138.260623 
L 354.083047 140.902614 
L 354.387715 136.384698 
L 354.692383 139.048674 
L 355.30172 141.118622 
L 355.606388 137.269655 
L 355.911057 137.423472 
L 356.215725 146.770505 
L 356.520393 137.316746 
L 356.825061 138.303656 
L 357.12973 141.433917 
L 357.434398 134.483693 
L 357.739066 140.076893 
L 358.043735 140.999225 
L 358.348403 138.377021 
L 358.653071 140.570331 
L 358.95774 138.417004 
L 359.262408 140.927142 
L 359.567076 141.462819 
L 359.871744 143.262738 
L 360.176413 140.131736 
L 360.481081 143.235505 
L 361.090418 139.156688 
L 361.395086 139.990352 
L 361.699754 141.435388 
L 362.004423 139.965767 
L 362.613759 143.741449 
L 362.918428 141.505562 
L 363.223096 140.706891 
L 363.527764 137.550708 
L 363.832432 136.305436 
L 364.441769 140.994043 
L 365.051106 143.658985 
L 365.355774 139.354729 
L 365.660442 140.249941 
L 365.965111 146.941093 
L 366.269779 139.508168 
L 366.574447 141.836598 
L 366.879115 141.728608 
L 367.488452 139.928264 
L 367.79312 137.048009 
L 368.097789 140.15032 
L 368.402457 137.023397 
L 368.707125 136.479369 
L 369.011794 136.752187 
L 369.316462 145.444426 
L 369.62113 138.80039 
L 369.925799 141.82387 
L 370.230467 137.936133 
L 370.535135 142.660901 
L 370.839803 138.149705 
L 371.144472 139.764091 
L 371.44914 139.428662 
L 371.753808 141.327786 
L 372.058477 140.230681 
L 372.363145 139.609757 
L 372.667813 142.048276 
L 372.972482 140.086524 
L 373.27715 140.983814 
L 373.581818 137.869089 
L 373.581818 137.869089 
" style="fill:none;stroke:#1f77b4;stroke-linecap:square;stroke-width:1.5;"/>
   </g>
   <g id="line2d_17">
    <path clip-path="url(#pcad53d8bb8)" d="M 69.218182 242.116364 
L 69.52285 193.491648 
L 70.132187 141.226766 
L 70.741523 127.123595 
L 71.046192 124.802062 
L 71.35086 120.89401 
L 71.655528 110.044151 
L 71.960197 111.615976 
L 72.264865 115.421604 
L 72.874201 104.576775 
L 73.17887 111.269493 
L 73.483538 105.344405 
L 73.788206 104.982151 
L 74.092875 108.546993 
L 74.397543 103.050113 
L 74.702211 103.488607 
L 75.00688 99.858098 
L 75.311548 103.124505 
L 75.616216 97.549202 
L 75.920885 98.177881 
L 76.225553 100.843669 
L 76.530221 97.648809 
L 76.834889 104.842742 
L 77.139558 103.794278 
L 77.444226 104.563696 
L 77.748894 99.183294 
L 78.053563 100.780236 
L 78.358231 96.590822 
L 78.662899 100.032149 
L 79.272236 97.733899 
L 79.576904 95.850603 
L 79.881572 97.996211 
L 80.186241 92.764962 
L 80.490909 94.24407 
L 80.795577 94.03686 
L 81.100246 91.105667 
L 81.404914 91.98329 
L 81.709582 96.264078 
L 82.014251 91.41778 
L 82.318919 97.035544 
L 82.623587 92.728897 
L 82.928256 93.467708 
L 83.232924 93.112107 
L 83.84226 88.828468 
L 84.146929 90.773094 
L 84.451597 87.824033 
L 85.060934 92.592918 
L 85.365602 89.136066 
L 85.67027 88.901389 
L 85.974939 89.072741 
L 86.279607 90.353417 
L 86.584275 82.123635 
L 86.888943 86.861297 
L 87.193612 85.885038 
L 87.49828 87.931838 
L 87.802948 84.911147 
L 88.412285 85.590805 
L 88.716953 83.448543 
L 89.021622 83.205541 
L 89.32629 84.902036 
L 89.630958 87.965597 
L 89.935627 81.010954 
L 90.544963 85.298539 
L 90.849631 81.831772 
L 91.1543 82.237216 
L 91.458968 89.05717 
L 91.763636 87.330476 
L 92.372973 78.676788 
L 92.677641 81.610794 
L 92.98231 79.626157 
L 93.286978 79.27325 
L 93.591646 76.304285 
L 93.896314 80.043951 
L 94.200983 75.057395 
L 94.505651 81.053006 
L 94.810319 81.16888 
L 95.114988 80.426672 
L 95.419656 77.718392 
L 95.724324 78.693094 
L 96.028993 79.025437 
L 96.333661 76.826553 
L 96.638329 80.805121 
L 96.942998 74.671196 
L 97.247666 77.426794 
L 97.552334 73.03267 
L 97.857002 77.957258 
L 98.466339 79.383388 
L 98.771007 78.319621 
L 99.075676 76.846874 
L 99.380344 78.52757 
L 99.685012 72.326889 
L 99.989681 82.001612 
L 100.294349 75.151554 
L 100.599017 74.331342 
L 100.903686 71.790735 
L 101.208354 75.606544 
L 101.81769 73.179853 
L 102.122359 79.618262 
L 102.427027 73.004158 
L 102.731695 75.885923 
L 103.036364 76.650726 
L 103.341032 72.48165 
L 103.6457 69.92513 
L 104.255037 76.296725 
L 104.559705 71.383035 
L 104.864373 70.80497 
L 105.169042 76.249706 
L 105.47371 72.595748 
L 105.778378 71.78207 
L 106.387715 75.710446 
L 106.692383 73.249326 
L 106.997052 74.740034 
L 107.30172 71.186085 
L 107.606388 74.086173 
L 107.911057 68.793566 
L 108.215725 73.280164 
L 108.520393 71.565504 
L 108.825061 72.842449 
L 109.12973 78.206289 
L 109.434398 65.422088 
L 110.043735 76.009197 
L 110.348403 71.791218 
L 110.653071 69.46777 
L 110.95774 70.753898 
L 111.262408 70.824095 
L 111.567076 68.508431 
L 111.871744 67.326466 
L 112.176413 68.26612 
L 112.481081 70.434329 
L 112.785749 70.412477 
L 113.090418 71.587046 
L 113.395086 70.33765 
L 113.699754 70.842094 
L 114.004423 66.996568 
L 114.309091 68.921678 
L 114.613759 73.837289 
L 114.918428 65.059012 
L 115.223096 67.649953 
L 115.527764 65.240962 
L 115.832432 68.596322 
L 116.746437 64.345813 
L 117.051106 66.456645 
L 117.355774 72.188524 
L 117.660442 65.153897 
L 117.965111 61.517903 
L 118.269779 68.205688 
L 118.574447 67.687247 
L 118.879115 64.682168 
L 119.183784 65.096747 
L 119.488452 72.154107 
L 119.79312 65.720284 
L 120.097789 67.61536 
L 120.402457 71.406811 
L 120.707125 68.002732 
L 121.011794 67.651777 
L 121.316462 66.93077 
L 121.62113 67.699747 
L 121.925799 66.776796 
L 122.230467 63.59968 
L 122.535135 64.271764 
L 122.839803 63.967213 
L 123.144472 63.140069 
L 123.44914 67.329663 
L 123.753808 65.548555 
L 124.058477 60.811803 
L 124.667813 72.525244 
L 124.972482 62.384759 
L 125.581818 66.591211 
L 125.886486 69.402555 
L 126.191155 65.384419 
L 126.495823 68.874319 
L 126.800491 63.951858 
L 127.10516 63.193672 
L 127.409828 64.646744 
L 127.714496 64.474838 
L 128.019165 60.234888 
L 128.323833 65.914775 
L 128.628501 64.17353 
L 128.93317 67.699558 
L 129.542506 61.769802 
L 129.847174 65.193953 
L 130.151843 65.297853 
L 130.456511 60.31208 
L 131.065848 64.736471 
L 131.675184 58.359412 
L 131.979853 60.475844 
L 132.284521 58.794677 
L 132.589189 68.174175 
L 132.893857 60.52169 
L 133.198526 63.900526 
L 133.503194 60.919443 
L 133.807862 71.79459 
L 134.417199 58.28246 
L 134.721867 62.868333 
L 135.026536 56.363265 
L 135.331204 58.382917 
L 135.635872 62.304509 
L 135.940541 60.118192 
L 136.245209 61.365846 
L 136.549877 66.149018 
L 136.854545 64.927243 
L 137.159214 65.694568 
L 137.463882 65.525633 
L 137.76855 57.172292 
L 138.073219 65.401025 
L 138.377887 59.634503 
L 138.682555 58.340905 
L 138.987224 61.079713 
L 139.291892 67.031444 
L 139.59656 63.869502 
L 139.901229 66.564681 
L 140.205897 65.439967 
L 140.510565 60.903604 
L 140.815233 60.709614 
L 141.119902 65.535452 
L 141.42457 60.161325 
L 141.729238 64.448747 
L 142.033907 60.114614 
L 142.338575 62.675491 
L 142.643243 62.410367 
L 142.947912 63.124153 
L 143.25258 61.405737 
L 143.557248 63.663193 
L 143.861916 68.111133 
L 144.166585 60.120119 
L 144.471253 60.416137 
L 144.775921 64.316757 
L 145.08059 61.829895 
L 145.385258 62.90018 
L 145.994595 56.609206 
L 146.299263 62.182495 
L 146.603931 61.867726 
L 146.9086 57.809361 
L 147.213268 64.122949 
L 147.517936 61.754656 
L 147.822604 61.862725 
L 148.127273 59.062088 
L 148.431941 57.406356 
L 148.736609 63.458026 
L 149.041278 57.2497 
L 149.345946 62.101628 
L 149.650614 58.45618 
L 149.955283 52.711322 
L 150.564619 63.899546 
L 150.869287 57.887118 
L 151.173956 56.511072 
L 151.478624 59.652653 
L 151.783292 58.738653 
L 152.087961 64.216977 
L 152.392629 58.515123 
L 152.697297 61.514931 
L 153.001966 60.527647 
L 153.306634 63.382659 
L 153.611302 61.494172 
L 153.915971 62.341019 
L 154.220639 61.581688 
L 154.525307 57.218603 
L 154.829975 59.908616 
L 155.134644 58.990804 
L 155.439312 57.114301 
L 155.74398 58.237768 
L 156.048649 58.364542 
L 156.353317 59.464095 
L 156.657985 56.369594 
L 156.962654 60.134103 
L 157.57199 60.785313 
L 157.876658 59.879994 
L 158.181327 63.517144 
L 158.485995 62.047216 
L 158.790663 64.632465 
L 159.095332 65.406291 
L 159.4 58.582557 
L 159.704668 63.16416 
L 160.009337 59.161825 
L 160.314005 59.808008 
L 160.618673 60.867468 
L 160.923342 56.783438 
L 161.532678 59.398887 
L 161.837346 57.833858 
L 162.142015 55.394403 
L 162.446683 58.740063 
L 162.751351 58.463472 
L 163.05602 55.292322 
L 163.360688 63.47075 
L 163.665356 56.837201 
L 163.970025 59.60831 
L 164.274693 63.936475 
L 164.884029 57.662748 
L 165.188698 60.292686 
L 165.493366 59.312537 
L 165.798034 59.568227 
L 166.102703 62.468679 
L 166.407371 60.509064 
L 166.712039 60.864292 
L 167.016708 60.949587 
L 167.321376 59.582473 
L 167.626044 53.665908 
L 167.930713 58.606884 
L 168.235381 58.278313 
L 168.540049 59.254034 
L 168.844717 58.161345 
L 169.149386 54.483493 
L 169.454054 55.962224 
L 169.758722 55.733031 
L 170.063391 56.443819 
L 170.368059 60.746062 
L 170.672727 58.526127 
L 170.977396 52.203687 
L 171.282064 53.502211 
L 171.586732 60.994798 
L 171.8914 60.285532 
L 172.196069 58.285308 
L 172.500737 61.675777 
L 172.805405 57.163981 
L 173.110074 57.385029 
L 173.414742 53.83082 
L 173.71941 59.385297 
L 174.024079 61.689883 
L 174.328747 60.762986 
L 174.938084 55.394058 
L 175.242752 60.105281 
L 175.54742 54.967804 
L 175.852088 61.022868 
L 176.156757 58.051284 
L 176.461425 59.132935 
L 176.766093 53.267823 
L 177.070762 62.169789 
L 177.37543 63.254677 
L 177.680098 63.151029 
L 177.984767 57.224854 
L 178.289435 57.766967 
L 178.594103 58.70441 
L 178.898771 58.33208 
L 179.20344 53.466309 
L 179.508108 56.780966 
L 179.812776 57.615667 
L 180.117445 59.604364 
L 180.422113 54.758005 
L 180.726781 54.857774 
L 181.03145 60.032622 
L 181.336118 59.879981 
L 181.945455 55.834834 
L 182.250123 57.806428 
L 182.554791 61.215988 
L 182.859459 56.811032 
L 183.164128 58.621867 
L 183.468796 56.9537 
L 183.773464 53.800862 
L 184.078133 55.314172 
L 184.382801 57.693975 
L 184.687469 53.576185 
L 184.992138 56.579299 
L 185.601474 58.687248 
L 185.906143 52.665757 
L 186.210811 59.548871 
L 186.515479 60.084102 
L 186.820147 54.286813 
L 187.124816 68.175048 
L 187.429484 56.776398 
L 187.734152 56.53175 
L 188.038821 53.896933 
L 188.343489 53.623301 
L 188.648157 59.293813 
L 188.952826 53.370689 
L 189.257494 58.766575 
L 189.562162 54.129241 
L 189.86683 60.654741 
L 190.171499 59.768004 
L 190.476167 57.099096 
L 190.780835 57.561246 
L 191.085504 59.679657 
L 191.390172 50.56743 
L 191.69484 53.94485 
L 191.999509 55.326834 
L 192.304177 58.539923 
L 192.913514 51.13247 
L 193.218182 53.076294 
L 193.52285 54.298174 
L 193.827518 54.984305 
L 194.132187 58.146323 
L 194.436855 55.985754 
L 194.741523 57.182491 
L 195.046192 58.83359 
L 195.35086 53.41077 
L 195.655528 58.874135 
L 195.960197 55.917242 
L 196.264865 57.546969 
L 196.569533 61.114321 
L 196.874201 59.484405 
L 197.17887 54.785212 
L 197.483538 57.287195 
L 197.788206 58.720259 
L 198.092875 58.389492 
L 198.397543 60.156359 
L 198.702211 54.52623 
L 199.00688 51.782328 
L 199.311548 54.550461 
L 199.616216 47.81244 
L 200.225553 58.459946 
L 200.530221 54.293667 
L 200.834889 58.221274 
L 201.139558 49.283316 
L 201.444226 54.261865 
L 201.748894 54.320878 
L 202.053563 60.267343 
L 202.358231 54.623079 
L 202.967568 62.969964 
L 203.272236 53.119835 
L 203.576904 53.307789 
L 203.881572 59.0857 
L 204.490909 53.30438 
L 204.795577 53.617434 
L 205.100246 62.901668 
L 205.404914 54.49526 
L 205.709582 60.16559 
L 206.014251 55.06988 
L 206.318919 55.205696 
L 206.623587 54.212401 
L 206.928256 59.538186 
L 207.537592 54.256126 
L 207.84226 61.146528 
L 208.146929 57.551832 
L 208.451597 59.33418 
L 208.756265 58.872291 
L 209.67027 51.87603 
L 209.974939 57.147023 
L 210.279607 53.577991 
L 210.584275 52.016409 
L 210.888943 56.153947 
L 211.193612 49.825412 
L 211.49828 52.873197 
L 211.802948 54.14556 
L 212.107617 49.627693 
L 212.412285 56.144222 
L 212.716953 58.541662 
L 213.021622 58.244373 
L 213.630958 55.144059 
L 213.935627 61.706479 
L 214.240295 55.926087 
L 214.544963 54.044244 
L 214.849631 56.403308 
L 215.1543 56.326558 
L 215.458968 51.685011 
L 215.763636 55.395038 
L 216.068305 50.795824 
L 216.372973 57.666166 
L 216.677641 56.235478 
L 216.98231 55.441469 
L 217.286978 56.160648 
L 217.591646 54.108299 
L 217.896314 48.965575 
L 218.200983 56.556403 
L 218.505651 50.457539 
L 218.810319 57.632685 
L 219.114988 54.757916 
L 219.724324 57.263502 
L 220.028993 50.655507 
L 220.333661 56.665312 
L 220.638329 53.999389 
L 220.942998 54.370605 
L 221.247666 54.202913 
L 221.552334 53.889746 
L 221.857002 56.305314 
L 222.161671 52.681418 
L 222.466339 54.577945 
L 222.771007 55.542322 
L 223.075676 49.730282 
L 223.380344 55.628296 
L 223.685012 57.293565 
L 223.989681 52.70638 
L 224.294349 51.697649 
L 224.903686 57.285998 
L 225.208354 54.191618 
L 225.81769 59.031863 
L 226.122359 55.271908 
L 226.427027 58.832964 
L 226.731695 50.708846 
L 227.036364 55.313621 
L 227.341032 52.64538 
L 227.6457 59.126224 
L 227.950369 57.485353 
L 228.255037 50.283868 
L 228.559705 55.669365 
L 228.864373 54.559617 
L 229.169042 54.081108 
L 229.47371 54.097811 
L 229.778378 54.280264 
L 230.083047 55.441495 
L 230.387715 59.880806 
L 230.692383 55.590957 
L 230.997052 54.173133 
L 231.30172 52.199821 
L 231.606388 57.477232 
L 231.911057 51.836479 
L 232.215725 53.641365 
L 232.520393 54.436753 
L 232.825061 54.607699 
L 233.12973 55.94527 
L 233.434398 50.535027 
L 233.739066 56.214627 
L 234.043735 56.428937 
L 234.348403 55.765158 
L 234.653071 55.560335 
L 234.95774 55.584034 
L 235.262408 52.900556 
L 235.567076 51.670459 
L 235.871744 55.305221 
L 236.176413 52.986835 
L 236.481081 55.935263 
L 236.785749 53.379196 
L 237.090418 58.307896 
L 237.395086 53.291313 
L 237.699754 55.613636 
L 238.004423 55.471412 
L 238.309091 59.035117 
L 238.918428 54.710436 
L 239.223096 59.402922 
L 239.527764 52.78923 
L 239.832432 58.649257 
L 240.137101 49.309117 
L 240.441769 58.640789 
L 240.746437 54.172301 
L 241.051106 55.326425 
L 241.355774 54.812032 
L 241.660442 55.469827 
L 241.965111 53.202324 
L 242.269779 53.834688 
L 242.574447 53.160697 
L 242.879115 51.22178 
L 243.183784 50.206459 
L 243.488452 52.664602 
L 243.79312 56.778414 
L 244.097789 53.226197 
L 244.402457 56.125801 
L 244.707125 57.484674 
L 245.011794 51.298568 
L 245.316462 53.134711 
L 245.62113 48.066715 
L 245.925799 56.546638 
L 246.230467 56.907704 
L 246.535135 55.606988 
L 246.839803 50.565415 
L 247.144472 47.437644 
L 247.44914 54.706703 
L 247.753808 56.567491 
L 248.058477 51.404467 
L 248.363145 55.044142 
L 248.667813 54.689953 
L 248.972482 49.706165 
L 249.27715 57.707156 
L 249.581818 57.06016 
L 249.886486 56.974013 
L 250.191155 53.705475 
L 250.495823 58.086579 
L 250.800491 55.123162 
L 251.10516 56.034313 
L 251.409828 55.825548 
L 251.714496 57.980472 
L 252.019165 56.856103 
L 252.323833 55.290716 
L 252.628501 57.293523 
L 252.93317 56.363045 
L 253.237838 50.655887 
L 253.542506 55.657602 
L 253.847174 44.443636 
L 254.151843 49.388238 
L 254.456511 51.058093 
L 254.761179 57.84786 
L 255.370516 50.683516 
L 255.675184 51.580066 
L 255.979853 52.863702 
L 256.284521 57.439223 
L 256.589189 51.649187 
L 256.893857 55.035301 
L 257.198526 54.447844 
L 257.503194 54.118535 
L 258.112531 56.728045 
L 258.417199 54.339352 
L 259.026536 52.352516 
L 259.331204 61.075585 
L 259.635872 58.610607 
L 259.940541 47.603188 
L 260.245209 54.054182 
L 260.549877 53.629759 
L 260.854545 55.678394 
L 261.159214 51.628531 
L 261.463882 56.914633 
L 261.76855 58.40969 
L 262.073219 57.539923 
L 262.377887 51.433621 
L 262.682555 53.680034 
L 262.987224 53.155132 
L 263.291892 51.211266 
L 263.59656 58.824686 
L 263.901229 51.908532 
L 264.205897 52.652291 
L 264.510565 49.796378 
L 265.119902 53.906643 
L 265.42457 48.969427 
L 265.729238 53.241273 
L 266.033907 54.972187 
L 266.338575 48.910723 
L 266.947912 53.378408 
L 267.25258 51.587333 
L 267.557248 54.20474 
L 267.861916 50.103391 
L 268.471253 57.234956 
L 268.775921 51.214725 
L 269.08059 51.617482 
L 269.689926 54.000106 
L 269.994595 51.576369 
L 270.299263 57.325454 
L 270.603931 51.68374 
L 270.9086 56.993355 
L 271.213268 52.434005 
L 271.517936 58.471136 
L 271.822604 58.779565 
L 272.127273 52.895723 
L 272.431941 49.654491 
L 272.736609 50.279633 
L 273.041278 53.333683 
L 273.345946 52.236642 
L 273.650614 57.647449 
L 273.955283 55.32654 
L 274.259951 51.470149 
L 274.564619 52.573954 
L 274.869287 52.71588 
L 275.173956 53.500125 
L 275.478624 58.226301 
L 275.783292 49.867047 
L 276.087961 54.157238 
L 276.697297 57.355095 
L 277.001966 54.206631 
L 277.306634 53.135708 
L 277.611302 53.719186 
L 277.915971 55.180868 
L 278.220639 51.060013 
L 278.525307 55.052496 
L 278.829975 50.137374 
L 279.134644 50.269631 
L 279.439312 53.616598 
L 279.74398 47.572126 
L 280.048649 56.282235 
L 280.353317 48.09454 
L 280.657985 53.548214 
L 280.962654 55.412989 
L 281.267322 55.35973 
L 281.57199 57.231756 
L 281.876658 55.413764 
L 282.181327 54.93629 
L 282.485995 53.291038 
L 282.790663 52.738431 
L 283.095332 52.917318 
L 283.4 56.489468 
L 283.704668 52.472925 
L 284.009337 52.988863 
L 284.314005 51.033702 
L 284.618673 53.099421 
L 284.923342 51.617608 
L 285.22801 56.811523 
L 285.532678 54.56189 
L 286.142015 55.409264 
L 286.446683 54.904342 
L 286.751351 54.065368 
L 287.05602 49.988343 
L 287.360688 49.14232 
L 287.665356 49.860691 
L 287.970025 54.115967 
L 288.274693 53.358487 
L 288.579361 54.973771 
L 288.884029 51.713763 
L 289.188698 50.358475 
L 289.493366 54.050249 
L 289.798034 53.72795 
L 290.102703 52.781792 
L 290.407371 53.326359 
L 290.712039 51.983211 
L 291.016708 57.60329 
L 291.321376 53.265391 
L 291.626044 51.755711 
L 291.930713 47.268572 
L 292.235381 52.86441 
L 292.540049 54.787337 
L 292.844717 53.909398 
L 293.149386 51.721019 
L 293.454054 51.174369 
L 293.758722 59.825976 
L 294.063391 50.140284 
L 294.368059 56.579669 
L 294.672727 50.145743 
L 294.977396 52.474242 
L 295.282064 50.047746 
L 295.586732 54.885512 
L 295.8914 55.799087 
L 296.196069 53.4157 
L 296.500737 55.423968 
L 296.805405 56.210806 
L 297.110074 60.378124 
L 297.414742 60.948704 
L 298.024079 54.704238 
L 298.328747 56.140714 
L 298.633415 56.203828 
L 298.938084 57.276836 
L 299.242752 51.895852 
L 299.54742 57.793643 
L 299.852088 52.800659 
L 300.461425 49.778875 
L 300.766093 56.010686 
L 301.070762 52.432877 
L 301.37543 59.261255 
L 301.680098 52.031777 
L 301.984767 54.22214 
L 302.289435 52.429366 
L 302.594103 53.183009 
L 302.898771 51.431774 
L 303.20344 47.8606 
L 303.508108 57.219503 
L 303.812776 51.068648 
L 304.117445 50.675299 
L 304.422113 50.695453 
L 304.726781 53.988183 
L 305.03145 49.007193 
L 305.336118 58.457388 
L 305.640786 54.447005 
L 305.945455 54.126442 
L 306.250123 53.639645 
L 306.554791 50.572808 
L 306.859459 58.464201 
L 307.468796 48.56543 
L 307.773464 46.546261 
L 308.382801 56.646424 
L 308.687469 52.672905 
L 308.992138 55.590233 
L 309.296806 54.558434 
L 309.601474 55.96093 
L 309.906143 55.791863 
L 310.515479 51.592709 
L 310.820147 51.843538 
L 311.124816 50.973732 
L 311.429484 50.998153 
L 311.734152 54.002704 
L 312.038821 52.270019 
L 312.343489 55.708423 
L 312.648157 56.166022 
L 312.952826 55.749218 
L 313.257494 51.73607 
L 313.562162 52.97808 
L 313.86683 50.885909 
L 314.171499 53.501432 
L 314.476167 54.108267 
L 314.780835 52.79516 
L 315.085504 52.508304 
L 315.390172 45.634887 
L 315.69484 57.43953 
L 316.304177 54.883911 
L 316.608845 50.332078 
L 316.913514 54.19418 
L 317.218182 54.058082 
L 317.52285 47.638815 
L 318.132187 52.341886 
L 318.436855 56.320966 
L 318.741523 52.831737 
L 319.046192 51.589724 
L 319.35086 49.452687 
L 319.655528 54.30093 
L 319.960197 55.341148 
L 320.264865 45.458463 
L 320.569533 54.101342 
L 320.874201 55.231949 
L 321.17887 49.350439 
L 321.483538 49.512432 
L 321.788206 52.521754 
L 322.092875 60.820451 
L 322.397543 58.168034 
L 322.702211 50.653226 
L 323.00688 53.511809 
L 323.311548 50.597131 
L 323.616216 55.84786 
L 323.920885 48.899964 
L 324.225553 49.429385 
L 324.530221 56.002683 
L 324.834889 51.384948 
L 325.139558 51.354933 
L 325.748894 57.173795 
L 326.053563 49.765822 
L 326.662899 55.707945 
L 327.272236 50.990966 
L 327.576904 51.795634 
L 327.881572 54.098319 
L 328.186241 49.528284 
L 328.490909 54.166934 
L 328.795577 55.906678 
L 329.404914 49.411642 
L 329.709582 48.950316 
L 330.014251 52.717266 
L 330.318919 54.033279 
L 330.623587 56.411512 
L 330.928256 56.247041 
L 331.232924 52.942246 
L 331.84226 58.455242 
L 332.146929 57.59582 
L 332.451597 54.593779 
L 332.756265 55.284896 
L 333.060934 52.564643 
L 333.365602 56.225411 
L 333.67027 53.566309 
L 333.974939 52.611017 
L 334.279607 53.529711 
L 334.584275 55.879933 
L 334.888943 51.928562 
L 335.193612 54.506691 
L 335.49828 52.9761 
L 335.802948 55.666613 
L 336.107617 47.810838 
L 336.412285 55.234732 
L 336.716953 52.54188 
L 337.32629 54.620697 
L 337.630958 52.735899 
L 337.935627 53.829171 
L 338.240295 52.148596 
L 338.544963 47.049095 
L 338.849631 56.767958 
L 339.1543 52.283985 
L 339.458968 52.234058 
L 339.763636 51.633133 
L 340.068305 52.070583 
L 340.372973 55.085849 
L 340.677641 54.292572 
L 340.98231 54.039895 
L 341.286978 48.020668 
L 341.591646 53.787674 
L 341.896314 56.398364 
L 342.200983 57.504906 
L 342.810319 49.467218 
L 343.114988 50.444576 
L 343.724324 58.444625 
L 344.028993 54.57829 
L 344.333661 52.192783 
L 344.638329 52.592886 
L 344.942998 55.280399 
L 345.247666 47.181399 
L 345.552334 52.040552 
L 345.857002 51.588035 
L 346.161671 53.870353 
L 346.466339 55.198892 
L 346.771007 54.85764 
L 347.075676 50.527858 
L 347.380344 52.329254 
L 347.685012 50.554439 
L 347.989681 55.544681 
L 348.294349 57.327293 
L 348.599017 50.760883 
L 349.513022 57.363052 
L 349.81769 51.50002 
L 350.122359 51.586702 
L 350.427027 51.140667 
L 350.731695 54.133758 
L 351.036364 53.542992 
L 351.341032 53.325983 
L 351.6457 52.88856 
L 351.950369 49.348351 
L 352.255037 55.064368 
L 352.864373 53.685152 
L 353.169042 53.424719 
L 353.47371 53.450942 
L 353.778378 55.698315 
L 354.083047 51.756236 
L 354.387715 52.03722 
L 354.692383 50.832047 
L 355.30172 57.342046 
L 355.606388 53.490137 
L 355.911057 55.509329 
L 356.215725 53.963205 
L 356.520393 54.347074 
L 356.825061 51.697776 
L 357.12973 53.226192 
L 357.434398 53.174745 
L 357.739066 54.741033 
L 358.043735 47.780624 
L 358.348403 47.447328 
L 358.653071 56.595693 
L 358.95774 55.217544 
L 359.567076 53.628972 
L 359.871744 57.817247 
L 360.481081 48.591834 
L 360.785749 52.982394 
L 361.090418 53.394913 
L 361.395086 56.886141 
L 361.699754 52.703994 
L 362.004423 50.099459 
L 362.309091 52.459254 
L 362.613759 53.112798 
L 362.918428 55.749918 
L 363.223096 54.367471 
L 363.527764 49.554396 
L 363.832432 59.417904 
L 364.137101 51.730144 
L 364.441769 57.393274 
L 364.746437 53.449393 
L 365.051106 51.285787 
L 365.355774 55.521984 
L 365.660442 52.333029 
L 365.965111 53.01893 
L 366.269779 53.124425 
L 366.574447 53.507208 
L 366.879115 51.740105 
L 367.183784 54.122109 
L 367.488452 51.672848 
L 367.79312 53.985773 
L 368.097789 51.665708 
L 368.402457 52.726887 
L 368.707125 50.401943 
L 369.011794 54.295338 
L 369.316462 52.794467 
L 369.62113 54.418988 
L 369.925799 48.997618 
L 370.230467 51.133815 
L 370.535135 47.880373 
L 370.839803 54.796721 
L 371.144472 50.27148 
L 371.44914 52.010765 
L 371.753808 48.688947 
L 372.058477 51.933719 
L 372.363145 46.649163 
L 372.667813 56.232144 
L 373.27715 49.188065 
L 373.581818 54.247507 
L 373.581818 54.247507 
" style="fill:none;stroke:#ff7f0e;stroke-linecap:square;stroke-width:1.5;"/>
   </g>
   <g id="line2d_18">
    <path clip-path="url(#pcad53d8bb8)" d="M 69.218182 227.665091 
L 69.52285 206.320636 
L 70.741523 172.327334 
L 71.35086 168.660222 
L 71.960197 161.844726 
L 72.264865 162.697908 
L 72.569533 156.922135 
L 72.874201 157.569805 
L 73.17887 155.344674 
L 73.788206 158.492604 
L 74.397543 148.640706 
L 75.00688 155.020785 
L 75.311548 150.219299 
L 75.616216 149.964258 
L 75.920885 148.566595 
L 76.225553 149.213817 
L 76.530221 147.122933 
L 76.834889 148.493104 
L 77.139558 146.679125 
L 77.444226 148.739412 
L 77.748894 148.860802 
L 78.053563 150.524933 
L 78.662899 146.12708 
L 78.967568 144.810795 
L 79.272236 147.32474 
L 79.576904 146.985328 
L 79.881572 142.814661 
L 80.186241 146.936362 
L 80.490909 145.866572 
L 80.795577 147.327053 
L 81.100246 147.3452 
L 81.404914 145.744398 
L 81.709582 147.876541 
L 82.014251 143.784248 
L 82.318919 142.600381 
L 82.623587 147.214244 
L 82.928256 144.541052 
L 83.232924 144.218502 
L 83.537592 148.688976 
L 83.84226 143.9138 
L 84.146929 144.236689 
L 84.451597 148.171483 
L 84.756265 141.42238 
L 85.060934 149.0435 
L 85.365602 140.541414 
L 85.67027 145.515684 
L 85.974939 147.600668 
L 86.279607 144.635466 
L 86.584275 145.603351 
L 86.888943 145.844204 
L 87.193612 146.244526 
L 87.49828 143.692557 
L 87.802948 147.798081 
L 88.107617 147.383375 
L 88.412285 144.625234 
L 89.021622 147.535291 
L 89.32629 145.400559 
L 89.630958 145.442931 
L 89.935627 146.654458 
L 90.240295 144.012491 
L 90.544963 144.309374 
L 90.849631 146.569764 
L 91.1543 147.992573 
L 91.458968 145.335253 
L 91.763636 144.596546 
L 92.068305 146.973702 
L 92.677641 144.901463 
L 92.98231 146.216905 
L 93.286978 150.112387 
L 93.591646 145.104425 
L 93.896314 148.813227 
L 94.200983 146.377814 
L 94.505651 138.699523 
L 94.810319 145.665894 
L 95.114988 149.567467 
L 95.419656 144.988933 
L 96.028993 142.497263 
L 96.333661 143.977692 
L 96.638329 142.71697 
L 96.942998 142.470658 
L 97.247666 141.719299 
L 97.552334 144.549719 
L 97.857002 141.189294 
L 98.161671 149.921383 
L 98.466339 145.905817 
L 98.771007 144.673409 
L 99.075676 149.920417 
L 99.380344 145.406176 
L 99.989681 147.075011 
L 100.294349 142.825256 
L 100.599017 143.615315 
L 100.903686 145.48481 
L 101.208354 142.426345 
L 101.513022 145.825851 
L 101.81769 145.454555 
L 102.122359 139.589398 
L 102.427027 142.093458 
L 102.731695 148.020568 
L 103.036364 144.554382 
L 103.341032 145.841107 
L 103.6457 142.806147 
L 103.950369 144.763326 
L 104.255037 140.784283 
L 104.559705 145.068245 
L 104.864373 141.982322 
L 105.169042 147.864642 
L 105.47371 142.3502 
L 105.778378 145.076188 
L 106.083047 146.769764 
L 106.692383 142.11615 
L 106.997052 146.644599 
L 107.30172 138.331287 
L 107.606388 145.014554 
L 107.911057 144.279588 
L 108.215725 145.519019 
L 108.520393 144.886645 
L 108.825061 148.411845 
L 109.12973 143.245221 
L 109.434398 141.517991 
L 110.043735 145.0612 
L 110.348403 145.092932 
L 110.653071 146.760848 
L 110.95774 146.566856 
L 111.262408 145.21261 
L 111.567076 140.983095 
L 111.871744 147.257926 
L 112.176413 144.528008 
L 112.481081 145.212577 
L 112.785749 147.055556 
L 113.090418 148.011248 
L 113.395086 144.357698 
L 113.699754 145.366199 
L 114.004423 142.63289 
L 114.309091 144.591347 
L 114.613759 144.618429 
L 114.918428 147.789096 
L 115.223096 142.572936 
L 115.527764 144.221111 
L 115.832432 144.763071 
L 116.137101 144.103967 
L 116.441769 142.738291 
L 116.746437 139.705833 
L 117.051106 148.683299 
L 117.355774 143.347718 
L 117.660442 144.700932 
L 118.269779 141.263524 
L 118.879115 144.60104 
L 119.183784 145.122031 
L 119.488452 141.639424 
L 119.79312 146.650068 
L 120.402457 140.213798 
L 121.011794 145.749686 
L 121.316462 146.326735 
L 121.62113 139.843911 
L 122.230467 146.21108 
L 122.839803 141.103926 
L 123.144472 142.042102 
L 123.44914 143.474843 
L 123.753808 141.050495 
L 124.058477 140.919797 
L 124.363145 139.767506 
L 124.667813 146.277738 
L 124.972482 140.98157 
L 125.27715 143.704335 
L 125.581818 143.911248 
L 125.886486 142.46187 
L 126.191155 145.99094 
L 126.495823 143.05255 
L 126.800491 148.742531 
L 127.10516 142.984408 
L 127.409828 144.546905 
L 127.714496 140.210059 
L 128.019165 145.982643 
L 128.323833 141.362479 
L 128.628501 145.801601 
L 128.93317 142.551454 
L 129.237838 147.548282 
L 129.542506 146.646302 
L 129.847174 145.306573 
L 130.151843 145.295548 
L 130.456511 144.905901 
L 130.761179 142.775344 
L 131.065848 147.268536 
L 131.370516 144.044975 
L 131.675184 138.579195 
L 131.979853 139.808473 
L 132.284521 145.072772 
L 132.589189 142.063836 
L 132.893857 140.234208 
L 133.198526 141.712618 
L 133.503194 142.295714 
L 133.807862 143.191802 
L 134.112531 146.150758 
L 134.417199 144.715498 
L 134.721867 142.213432 
L 135.026536 143.992338 
L 135.331204 142.330221 
L 135.635872 142.98509 
L 135.940541 140.919556 
L 136.245209 143.495927 
L 136.549877 142.486578 
L 136.854545 145.759903 
L 137.159214 144.578419 
L 137.463882 145.684147 
L 137.76855 140.077682 
L 138.073219 138.166216 
L 138.377887 143.526357 
L 138.682555 138.246731 
L 138.987224 143.197476 
L 139.291892 143.423143 
L 139.59656 139.958901 
L 139.901229 144.577223 
L 140.205897 142.523511 
L 140.510565 144.670154 
L 140.815233 142.116757 
L 141.119902 145.637535 
L 141.42457 144.190894 
L 141.729238 138.848577 
L 142.033907 142.755197 
L 142.338575 142.758668 
L 142.643243 140.088393 
L 142.947912 140.774128 
L 143.25258 140.694754 
L 143.557248 142.34378 
L 143.861916 144.792346 
L 144.166585 144.739934 
L 144.471253 143.04698 
L 144.775921 142.968934 
L 145.08059 144.085651 
L 145.385258 144.359653 
L 145.689926 143.065525 
L 145.994595 145.652261 
L 146.299263 141.080604 
L 146.603931 138.699065 
L 147.517936 144.563753 
L 147.822604 143.389701 
L 148.127273 143.230315 
L 148.431941 144.275234 
L 148.736609 140.347897 
L 149.041278 140.852876 
L 149.345946 146.075929 
L 149.650614 141.470744 
L 149.955283 141.145014 
L 150.259951 140.202133 
L 150.564619 142.267799 
L 150.869287 139.276366 
L 151.173956 142.189583 
L 151.478624 143.120472 
L 151.783292 140.203123 
L 152.087961 138.934733 
L 152.392629 147.932714 
L 152.697297 142.980285 
L 153.001966 145.408956 
L 153.306634 142.469363 
L 153.611302 141.450642 
L 153.915971 141.425403 
L 154.220639 145.095306 
L 154.525307 142.426347 
L 154.829975 142.331814 
L 155.134644 146.028593 
L 155.439312 140.464565 
L 155.74398 141.782281 
L 156.048649 138.929239 
L 156.353317 141.265077 
L 156.657985 144.471237 
L 156.962654 141.692756 
L 157.267322 140.707348 
L 157.57199 145.128471 
L 157.876658 144.075868 
L 158.181327 143.428529 
L 158.485995 139.849773 
L 158.790663 147.210226 
L 159.095332 141.563972 
L 159.4 139.05484 
L 159.704668 141.923654 
L 160.009337 140.051637 
L 160.314005 141.258498 
L 160.618673 140.466843 
L 160.923342 142.155881 
L 161.22801 141.741159 
L 161.532678 137.635847 
L 161.837346 138.569022 
L 162.446683 143.410257 
L 162.751351 141.561462 
L 163.05602 143.961673 
L 163.360688 142.777038 
L 163.665356 137.109821 
L 163.970025 145.759194 
L 164.579361 142.060966 
L 164.884029 142.967339 
L 165.188698 138.2383 
L 165.493366 139.816789 
L 165.798034 139.799345 
L 166.102703 138.960324 
L 166.407371 144.427833 
L 166.712039 138.867239 
L 167.016708 139.091559 
L 167.321376 138.646746 
L 167.626044 143.84155 
L 167.930713 141.002538 
L 168.235381 140.527529 
L 168.844717 142.976354 
L 169.149386 134.398401 
L 169.758722 143.288281 
L 170.063391 142.173338 
L 170.368059 141.573808 
L 170.672727 139.699019 
L 170.977396 142.192867 
L 171.586732 141.279096 
L 171.8914 139.136545 
L 172.196069 137.951999 
L 172.500737 142.19915 
L 172.805405 137.751956 
L 173.110074 141.298663 
L 173.414742 136.120005 
L 173.71941 142.809688 
L 174.024079 140.437436 
L 174.328747 136.192216 
L 174.633415 141.181391 
L 174.938084 141.425152 
L 175.242752 142.096096 
L 175.54742 143.594654 
L 175.852088 142.334219 
L 176.156757 142.060634 
L 176.461425 143.879594 
L 176.766093 136.532702 
L 177.070762 137.505126 
L 177.37543 139.929371 
L 177.680098 140.965745 
L 178.289435 145.323707 
L 178.594103 139.409554 
L 178.898771 141.341619 
L 179.20344 141.846958 
L 179.508108 140.016416 
L 179.812776 144.087885 
L 180.117445 143.926348 
L 180.422113 137.227244 
L 180.726781 143.136526 
L 181.03145 140.281815 
L 181.336118 140.187658 
L 181.640786 138.659412 
L 181.945455 139.406737 
L 182.250123 143.969969 
L 182.554791 139.095616 
L 182.859459 142.150137 
L 183.164128 142.255548 
L 183.468796 138.91606 
L 183.773464 141.45799 
L 184.078133 140.719481 
L 184.382801 143.220898 
L 184.687469 139.463846 
L 184.992138 140.338337 
L 185.296806 138.662707 
L 185.601474 141.268085 
L 185.906143 141.593529 
L 186.210811 138.741245 
L 186.515479 143.850817 
L 186.820147 143.185538 
L 187.124816 142.85972 
L 187.429484 142.283946 
L 187.734152 141.249322 
L 188.038821 142.161141 
L 188.343489 141.947287 
L 188.648157 138.59008 
L 188.952826 139.208544 
L 189.257494 142.355297 
L 189.562162 139.045085 
L 189.86683 142.202743 
L 190.171499 138.501018 
L 190.476167 138.671394 
L 190.780835 137.754919 
L 191.085504 140.289883 
L 191.390172 136.647456 
L 191.69484 139.793815 
L 191.999509 145.101231 
L 192.304177 139.789359 
L 192.608845 140.985106 
L 192.913514 140.39608 
L 193.218182 141.46725 
L 193.52285 143.712195 
L 193.827518 142.118813 
L 194.132187 143.873813 
L 194.436855 144.445245 
L 194.741523 141.713766 
L 195.046192 136.278796 
L 195.655528 145.708136 
L 195.960197 138.503195 
L 196.264865 136.974087 
L 196.569533 141.641235 
L 196.874201 141.102893 
L 197.17887 141.629329 
L 197.483538 137.817735 
L 197.788206 142.479919 
L 198.092875 141.771912 
L 198.397543 139.580422 
L 198.702211 138.31166 
L 199.00688 144.747878 
L 199.311548 139.337309 
L 199.616216 142.294584 
L 199.920885 139.276573 
L 200.225553 142.772266 
L 200.530221 140.941709 
L 200.834889 139.873599 
L 201.139558 139.703749 
L 201.444226 142.731227 
L 201.748894 141.391329 
L 202.053563 145.097391 
L 202.358231 140.630961 
L 202.662899 141.672681 
L 202.967568 141.318557 
L 203.272236 144.45374 
L 203.576904 141.587202 
L 203.881572 143.58579 
L 204.186241 143.006191 
L 204.490909 140.663742 
L 204.795577 144.160605 
L 205.100246 140.835652 
L 205.404914 141.302398 
L 205.709582 141.306402 
L 206.014251 140.032085 
L 206.318919 141.016904 
L 206.623587 139.995109 
L 206.928256 142.148937 
L 207.232924 140.540164 
L 207.537592 141.802302 
L 207.84226 141.408992 
L 208.146929 142.379991 
L 208.451597 140.205921 
L 208.756265 142.724204 
L 209.060934 142.83009 
L 209.365602 137.131042 
L 209.67027 138.993045 
L 209.974939 143.413319 
L 210.279607 139.71411 
L 210.584275 142.708706 
L 210.888943 137.695143 
L 211.193612 142.9274 
L 211.49828 140.608442 
L 211.802948 143.0878 
L 212.107617 138.660447 
L 212.412285 140.179929 
L 212.716953 145.985964 
L 213.021622 139.815966 
L 213.32629 140.840319 
L 213.630958 141.341117 
L 213.935627 142.27232 
L 214.240295 140.396077 
L 214.544963 143.592767 
L 214.849631 141.05163 
L 215.1543 140.303223 
L 215.458968 140.215676 
L 215.763636 141.678239 
L 216.068305 140.544199 
L 216.372973 138.350061 
L 216.98231 144.058818 
L 217.286978 139.213503 
L 217.591646 139.478753 
L 217.896314 135.370829 
L 218.200983 141.799969 
L 218.505651 143.118855 
L 218.810319 138.817138 
L 219.114988 137.837429 
L 219.419656 138.111647 
L 219.724324 141.356397 
L 220.028993 139.506261 
L 220.333661 144.034947 
L 220.638329 137.933005 
L 220.942998 138.614561 
L 221.247666 136.572906 
L 221.857002 140.946601 
L 222.161671 139.956041 
L 222.466339 140.923479 
L 223.380344 137.69792 
L 223.685012 140.196395 
L 223.989681 139.913052 
L 224.294349 140.026907 
L 224.599017 143.85523 
L 224.903686 141.770821 
L 225.208354 138.006328 
L 225.513022 142.747353 
L 225.81769 142.99895 
L 226.122359 140.091721 
L 226.427027 142.006317 
L 226.731695 139.478989 
L 227.036364 140.714351 
L 227.341032 143.410347 
L 227.6457 139.954632 
L 227.950369 141.763973 
L 228.255037 138.510855 
L 228.559705 137.872577 
L 228.864373 137.770149 
L 229.169042 139.297475 
L 229.47371 135.844392 
L 229.778378 138.373862 
L 230.083047 134.398529 
L 230.387715 139.351442 
L 230.692383 140.593159 
L 230.997052 136.775879 
L 231.606388 141.948331 
L 231.911057 141.552708 
L 232.215725 141.621284 
L 232.520393 138.206232 
L 232.825061 137.245406 
L 233.12973 137.525455 
L 233.434398 139.842497 
L 233.739066 138.091498 
L 234.348403 140.924409 
L 234.653071 142.130308 
L 234.95774 137.999508 
L 235.262408 143.565478 
L 235.567076 138.949639 
L 235.871744 140.796971 
L 236.176413 141.202729 
L 236.481081 143.384165 
L 236.785749 142.978754 
L 237.090418 137.389225 
L 237.395086 141.523331 
L 237.699754 143.266471 
L 238.004423 142.023104 
L 238.309091 142.369853 
L 238.613759 140.591992 
L 238.918428 140.141915 
L 239.223096 139.213678 
L 239.527764 136.659752 
L 239.832432 141.974243 
L 240.137101 141.951289 
L 240.441769 136.414378 
L 240.746437 137.597375 
L 241.051106 137.62633 
L 241.660442 141.467028 
L 241.965111 142.772049 
L 242.269779 142.019491 
L 242.574447 140.750156 
L 242.879115 136.705612 
L 243.183784 143.867781 
L 243.488452 142.928284 
L 243.79312 138.381302 
L 244.097789 142.069121 
L 244.402457 143.629241 
L 244.707125 142.948554 
L 245.011794 138.808038 
L 245.316462 138.161708 
L 245.62113 139.791484 
L 245.925799 139.097185 
L 246.535135 138.565843 
L 246.839803 142.311966 
L 247.144472 141.313879 
L 247.44914 139.65426 
L 247.753808 139.721243 
L 248.058477 138.053325 
L 248.363145 145.090056 
L 248.667813 140.240336 
L 248.972482 138.887379 
L 249.27715 141.460382 
L 249.581818 140.441218 
L 249.886486 142.732603 
L 250.191155 135.864129 
L 250.495823 139.428276 
L 250.800491 138.290802 
L 251.10516 137.896541 
L 251.409828 139.408439 
L 251.714496 138.045076 
L 252.019165 140.210865 
L 252.628501 136.813335 
L 252.93317 141.779135 
L 253.237838 137.766889 
L 253.542506 140.280689 
L 253.847174 136.676283 
L 254.151843 143.128173 
L 254.456511 140.135313 
L 254.761179 139.604063 
L 255.065848 135.819613 
L 255.370516 142.3257 
L 255.675184 139.225668 
L 255.979853 139.421323 
L 256.284521 145.032864 
L 256.589189 140.520414 
L 256.893857 139.550968 
L 257.198526 136.68244 
L 257.503194 136.034733 
L 257.807862 138.650145 
L 258.112531 139.835036 
L 258.417199 136.805509 
L 258.721867 139.7425 
L 259.026536 134.290334 
L 259.331204 136.560004 
L 259.635872 141.87975 
L 259.940541 136.308854 
L 260.245209 140.737379 
L 260.549877 140.939229 
L 261.159214 137.254269 
L 261.76855 141.997237 
L 262.073219 136.959673 
L 262.377887 140.612406 
L 262.682555 139.781996 
L 262.987224 141.775428 
L 263.291892 138.16945 
L 263.59656 136.46609 
L 263.901229 141.387574 
L 264.510565 136.590926 
L 264.815233 140.356911 
L 265.119902 142.370583 
L 265.42457 138.866195 
L 265.729238 138.553318 
L 266.033907 141.41203 
L 266.338575 141.589901 
L 266.643243 138.314423 
L 266.947912 138.931143 
L 267.25258 142.240401 
L 267.557248 134.843726 
L 267.861916 139.899046 
L 268.166585 139.576493 
L 268.471253 140.749186 
L 268.775921 137.403368 
L 269.08059 139.447222 
L 269.385258 144.813055 
L 269.994595 137.758964 
L 270.299263 143.526565 
L 270.603931 141.756946 
L 270.9086 137.080488 
L 271.213268 138.853942 
L 271.517936 138.565299 
L 271.822604 143.608194 
L 272.127273 143.065211 
L 272.431941 142.063301 
L 272.736609 140.164451 
L 273.041278 139.295958 
L 273.345946 135.368599 
L 273.650614 143.671409 
L 273.955283 138.615552 
L 274.259951 139.4713 
L 274.564619 143.260564 
L 274.869287 138.170151 
L 275.173956 138.943157 
L 275.478624 138.629631 
L 275.783292 138.73715 
L 276.087961 139.773375 
L 276.392629 137.458982 
L 276.697297 139.418457 
L 277.001966 142.869185 
L 277.306634 142.468654 
L 277.611302 138.192892 
L 277.915971 140.531832 
L 278.220639 140.521348 
L 278.525307 140.236408 
L 279.134644 142.194015 
L 279.74398 140.733322 
L 280.048649 138.349274 
L 280.353317 141.835716 
L 280.962654 134.49918 
L 281.267322 143.031947 
L 281.57199 139.707321 
L 281.876658 141.190409 
L 282.181327 136.438364 
L 282.485995 142.341915 
L 282.790663 143.092827 
L 283.095332 138.763738 
L 283.4 139.12556 
L 283.704668 137.956655 
L 284.009337 140.697824 
L 284.314005 139.599883 
L 284.618673 141.552862 
L 284.923342 139.886777 
L 285.22801 136.790343 
L 285.532678 141.66587 
L 285.837346 142.815592 
L 286.142015 142.987096 
L 286.751351 134.991077 
L 287.05602 141.378364 
L 287.360688 139.357983 
L 287.665356 140.639981 
L 287.970025 139.049398 
L 288.274693 140.302401 
L 288.579361 140.605821 
L 288.884029 139.041828 
L 289.188698 138.893667 
L 289.798034 141.913286 
L 290.102703 137.280425 
L 290.407371 136.587152 
L 290.712039 137.289465 
L 291.016708 137.002852 
L 291.321376 137.34155 
L 291.626044 138.295325 
L 291.930713 136.40408 
L 292.235381 141.543828 
L 292.540049 134.860121 
L 292.844717 141.861507 
L 293.454054 136.052989 
L 293.758722 139.98465 
L 294.063391 138.367224 
L 294.368059 138.529555 
L 294.672727 138.297403 
L 294.977396 140.992558 
L 295.282064 135.947537 
L 295.586732 136.656057 
L 295.8914 139.052607 
L 296.196069 138.213379 
L 296.500737 141.231418 
L 296.805405 136.535064 
L 297.110074 135.902008 
L 297.414742 136.292348 
L 297.71941 137.95392 
L 298.024079 137.532345 
L 298.328747 139.764257 
L 298.633415 136.836502 
L 298.938084 136.992398 
L 299.242752 138.863648 
L 299.54742 143.784908 
L 299.852088 136.321151 
L 300.156757 139.876572 
L 300.461425 136.363408 
L 300.766093 139.864094 
L 301.070762 137.794371 
L 301.37543 139.029103 
L 301.680098 142.902748 
L 301.984767 137.54409 
L 302.289435 134.755185 
L 302.594103 136.815691 
L 302.898771 139.819308 
L 303.20344 137.146191 
L 303.508108 136.839004 
L 303.812776 140.359579 
L 304.117445 141.895182 
L 304.422113 133.665486 
L 304.726781 141.225553 
L 305.03145 135.842228 
L 305.336118 143.836885 
L 305.640786 138.747445 
L 305.945455 135.906641 
L 306.250123 138.341915 
L 306.554791 139.36187 
L 306.859459 137.941055 
L 307.164128 138.614205 
L 307.468796 138.583075 
L 307.773464 135.525068 
L 308.078133 142.329322 
L 308.382801 140.639955 
L 308.687469 137.286534 
L 308.992138 137.415816 
L 309.296806 140.208701 
L 309.601474 140.338282 
L 309.906143 138.693778 
L 310.210811 138.186839 
L 310.515479 143.034643 
L 310.820147 135.401108 
L 311.429484 136.466184 
L 311.734152 139.194001 
L 312.038821 138.801588 
L 312.343489 136.066297 
L 312.648157 141.427471 
L 312.952826 137.43992 
L 313.257494 139.252088 
L 313.562162 142.717545 
L 313.86683 144.250448 
L 314.171499 140.999573 
L 314.476167 136.389078 
L 314.780835 133.972411 
L 315.085504 135.362178 
L 315.390172 136.151884 
L 315.69484 138.456095 
L 315.999509 134.60743 
L 316.304177 139.365098 
L 316.608845 138.012077 
L 316.913514 140.327631 
L 317.827518 134.56545 
L 318.132187 135.931561 
L 318.436855 133.845519 
L 318.741523 140.228675 
L 319.046192 135.204829 
L 319.35086 140.891677 
L 319.960197 135.668288 
L 320.264865 139.987931 
L 320.569533 138.84508 
L 320.874201 139.618935 
L 321.17887 139.051798 
L 321.788206 136.240532 
L 322.092875 140.507365 
L 322.397543 135.173555 
L 322.702211 141.801355 
L 323.00688 135.952691 
L 323.311548 136.660936 
L 323.616216 138.610534 
L 323.920885 136.877561 
L 324.225553 139.670537 
L 324.530221 138.752685 
L 324.834889 137.129733 
L 325.139558 137.837073 
L 325.444226 142.861217 
L 325.748894 137.778248 
L 326.053563 138.570447 
L 326.358231 141.770719 
L 327.272236 137.111574 
L 327.576904 139.617646 
L 327.881572 135.167975 
L 328.186241 134.910677 
L 328.490909 138.601609 
L 328.795577 139.596397 
L 329.100246 139.907865 
L 329.404914 137.18362 
L 329.709582 139.206267 
L 330.014251 137.052345 
L 330.318919 141.196078 
L 330.623587 135.492997 
L 330.928256 136.033801 
L 331.232924 135.171391 
L 331.537592 138.200172 
L 331.84226 136.488274 
L 332.451597 139.033462 
L 332.756265 135.078118 
L 333.060934 140.180373 
L 333.365602 137.661663 
L 333.67027 137.611855 
L 333.974939 138.979139 
L 334.279607 135.049239 
L 334.584275 142.470225 
L 334.888943 140.111537 
L 335.193612 135.709351 
L 335.49828 141.301788 
L 335.802948 133.273551 
L 336.107617 140.284135 
L 336.412285 143.101121 
L 337.021622 133.546398 
L 337.32629 143.443606 
L 337.935627 136.270232 
L 338.240295 135.719237 
L 338.544963 136.622911 
L 338.849631 137.034277 
L 339.1543 139.77692 
L 339.458968 136.790963 
L 339.763636 138.901306 
L 340.068305 139.752343 
L 340.372973 138.55362 
L 340.677641 141.763178 
L 340.98231 139.381986 
L 341.286978 141.844556 
L 341.591646 136.338608 
L 341.896314 138.449889 
L 342.200983 138.170611 
L 342.505651 143.378602 
L 342.810319 138.907726 
L 343.114988 141.132041 
L 343.419656 137.791273 
L 343.724324 138.209768 
L 344.028993 135.822024 
L 344.333661 141.550749 
L 344.638329 137.765755 
L 344.942998 136.457787 
L 345.552334 140.304879 
L 346.161671 134.918142 
L 346.466339 138.413281 
L 346.771007 138.216942 
L 347.075676 139.345358 
L 347.380344 137.756844 
L 347.685012 137.411107 
L 347.989681 142.183736 
L 348.294349 141.774729 
L 348.599017 135.591549 
L 348.903686 136.547421 
L 349.208354 139.95195 
L 349.513022 138.999271 
L 349.81769 140.157923 
L 350.122359 135.372962 
L 350.731695 141.912888 
L 351.036364 139.129371 
L 351.341032 138.075528 
L 351.6457 138.026438 
L 351.950369 134.924333 
L 352.255037 139.445526 
L 352.559705 138.100437 
L 352.864373 138.566449 
L 353.169042 137.845908 
L 353.47371 133.962008 
L 353.778378 136.860123 
L 354.083047 137.973195 
L 354.387715 140.137933 
L 354.692383 135.639736 
L 354.997052 140.753047 
L 355.606388 136.683164 
L 355.911057 137.429149 
L 356.215725 135.161326 
L 356.520393 134.729154 
L 356.825061 134.74926 
L 357.12973 137.125941 
L 357.434398 140.568535 
L 357.739066 138.295619 
L 358.043735 140.449439 
L 358.348403 144.844903 
L 358.653071 141.084582 
L 358.95774 135.660823 
L 359.262408 139.707534 
L 359.567076 137.700894 
L 359.871744 138.680047 
L 360.176413 138.938975 
L 360.481081 136.09944 
L 360.785749 139.162069 
L 361.090418 135.848575 
L 361.395086 138.863732 
L 361.699754 140.657116 
L 362.004423 138.436616 
L 362.309091 139.057214 
L 362.613759 137.498506 
L 362.918428 139.48844 
L 363.223096 138.610415 
L 363.527764 138.732309 
L 364.137101 143.229081 
L 364.441769 138.845794 
L 364.746437 136.715842 
L 365.051106 138.921067 
L 365.355774 136.524887 
L 365.660442 138.667921 
L 365.965111 133.343439 
L 366.574447 140.550339 
L 367.183784 136.809477 
L 367.488452 138.759776 
L 367.79312 136.53478 
L 368.097789 133.44524 
L 368.402457 138.729323 
L 368.707125 135.72122 
L 369.011794 141.321865 
L 369.316462 137.054689 
L 369.925799 133.594159 
L 370.230467 140.769466 
L 370.535135 134.855867 
L 370.839803 138.984727 
L 371.144472 136.67173 
L 371.44914 140.784611 
L 371.753808 138.488293 
L 372.058477 137.333275 
L 372.363145 139.26996 
L 372.667813 139.225349 
L 372.972482 133.258438 
L 373.27715 142.373967 
L 373.581818 142.189726 
L 373.581818 142.189726 
" style="fill:none;stroke:#2ca02c;stroke-linecap:square;stroke-width:1.5;"/>
   </g>
   <g id="patch_3">
    <path d="M 54 252 
L 54 34.56 
" style="fill:none;stroke:#000000;stroke-linecap:square;stroke-linejoin:miter;stroke-width:0.8;"/>
   </g>
   <g id="patch_4">
    <path d="M 388.8 252 
L 388.8 34.56 
" style="fill:none;stroke:#000000;stroke-linecap:square;stroke-linejoin:miter;stroke-width:0.8;"/>
   </g>
   <g id="patch_5">
    <path d="M 54 252 
L 388.8 252 
" style="fill:none;stroke:#000000;stroke-linecap:square;stroke-linejoin:miter;stroke-width:0.8;"/>
   </g>
   <g id="patch_6">
    <path d="M 54 34.56 
L 388.8 34.56 
" style="fill:none;stroke:#000000;stroke-linecap:square;stroke-linejoin:miter;stroke-width:0.8;"/>
   </g>
   <g id="legend_1">
    <g id="patch_7">
     <path d="M 327.660747 247 
L 381.8 247 
Q 383.8 247 383.8 245 
L 383.8 204.188465 
Q 383.8 202.188465 381.8 202.188465 
L 327.660747 202.188465 
Q 325.660747 202.188465 325.660747 204.188465 
L 325.660747 245 
Q 325.660747 247 327.660747 247 
z
" style="fill:#ffffff;opacity:0.8;stroke:#cccccc;stroke-linejoin:miter;"/>
    </g>
    <g id="line2d_19">
     <path d="M 329.660747 209.688465 
L 349.660747 209.688465 
" style="fill:none;stroke:#1f77b4;stroke-linecap:square;stroke-width:1.5;"/>
    </g>
    <g id="line2d_20"/>
    <g id="text_16">
     <!-- e0 -->
     <defs>
      <path d="M 38.09375 23 
C 38.5 23.40625 38.5 23.609375 38.5 24.625 
C 38.5 34.96875 33.09375 44 21.703125 44 
C 11.09375 44 2.703125 33.890625 2.703125 21.609375 
C 2.703125 8.609375 12.203125 -1 22.796875 -1 
C 34 -1 38.40625 9.484375 38.40625 11.5625 
C 38.40625 12.25 37.796875 12.25 37.59375 12.25 
C 36.90625 12.25 36.796875 12.046875 36.40625 10.875 
C 34.203125 4.140625 28.703125 0.796875 23.5 0.796875 
C 19.203125 0.796875 14.90625 3.171875 12.203125 7.5 
C 9.09375 12.546875 9.09375 18.375 9.09375 23 
z
M 9.203125 24.5 
C 9.90625 39.140625 17.59375 42.40625 21.59375 42.40625 
C 28.40625 42.40625 33 35.890625 33.09375 24.5 
z
" id="CMR17-101"/>
     </defs>
     <g transform="translate(357.660747 213.188465)scale(0.1 -0.1)">
      <use transform="scale(0.996264)" xlink:href="#CMR17-101"/>
      <use transform="translate(40.48566 0)scale(0.996264)" xlink:href="#CMR17-48"/>
     </g>
    </g>
    <g id="line2d_21">
     <path d="M 329.660747 223.625643 
L 349.660747 223.625643 
" style="fill:none;stroke:#ff7f0e;stroke-linecap:square;stroke-width:1.5;"/>
    </g>
    <g id="line2d_22"/>
    <g id="text_17">
     <!-- e0.1 -->
     <defs>
      <path d="M 16.59375 4.078125 
C 16.59375 6.5625 14.59375 8.15625 12.5 8.15625 
C 10.5 8.15625 8.40625 6.5625 8.40625 4.078125 
C 8.40625 1.59375 10.40625 0 12.5 0 
C 14.5 0 16.59375 1.59375 16.59375 4.078125 
z
" id="CMR17-46"/>
     </defs>
     <g transform="translate(357.660747 227.125643)scale(0.1 -0.1)">
      <use transform="scale(0.996264)" xlink:href="#CMR17-101"/>
      <use transform="translate(40.48566 0)scale(0.996264)" xlink:href="#CMR17-48"/>
      <use transform="translate(86.176138 0)scale(0.996264)" xlink:href="#CMR17-46"/>
      <use transform="translate(111.047196 0)scale(0.996264)" xlink:href="#CMR17-49"/>
     </g>
    </g>
    <g id="line2d_23">
     <path d="M 329.660747 237.562822 
L 349.660747 237.562822 
" style="fill:none;stroke:#2ca02c;stroke-linecap:square;stroke-width:1.5;"/>
    </g>
    <g id="line2d_24"/>
    <g id="text_18">
     <!-- e0.01 -->
     <g transform="translate(357.660747 241.062822)scale(0.1 -0.1)">
      <use transform="scale(0.996264)" xlink:href="#CMR17-101"/>
      <use transform="translate(40.48566 0)scale(0.996264)" xlink:href="#CMR17-48"/>
      <use transform="translate(86.176138 0)scale(0.996264)" xlink:href="#CMR17-46"/>
      <use transform="translate(111.047196 0)scale(0.996264)" xlink:href="#CMR17-48"/>
      <use transform="translate(156.737673 0)scale(0.996264)" xlink:href="#CMR17-49"/>
     </g>
    </g>
   </g>
  </g>
 </g>
 <defs>
  <clipPath id="pcad53d8bb8">
   <rect height="217.44" width="334.8" x="54" y="34.56"/>
  </clipPath>
 </defs>
</svg>
