<?xml version="1.0" encoding="utf-8" standalone="no"?>
<!DOCTYPE svg PUBLIC "-//W3C//DTD SVG 1.1//EN"
  "http://www.w3.org/Graphics/SVG/1.1/DTD/svg11.dtd">
<!-- Created with matplotlib (https://matplotlib.org/) -->
<svg height="288pt" version="1.1" viewBox="0 0 432 288" width="432pt" xmlns="http://www.w3.org/2000/svg" xmlns:xlink="http://www.w3.org/1999/xlink">
 <defs>
  <style type="text/css">
*{stroke-linecap:butt;stroke-linejoin:round;}
  </style>
 </defs>
 <g id="figure_1">
  <g id="patch_1">
   <path d="M 0 288 
L 432 288 
L 432 0 
L 0 0 
z
" style="fill:#ffffff;"/>
  </g>
  <g id="axes_1">
   <g id="patch_2">
    <path d="M 54 252 
L 388.8 252 
L 388.8 34.56 
L 54 34.56 
z
" style="fill:#ffffff;"/>
   </g>
   <g id="matplotlib.axis_1">
    <g id="xtick_1">
     <g id="line2d_1">
      <defs>
       <path d="M 0 0 
L 0 3.5 
" id="m4e65072e93" style="stroke:#000000;stroke-width:0.8;"/>
      </defs>
      <g>
       <use style="stroke:#000000;stroke-width:0.8;" x="69.218182" xlink:href="#m4e65072e93" y="252"/>
      </g>
     </g>
     <g id="text_1">
      <!-- $0$ -->
      <defs>
       <path d="M 42 31.640625 
C 42 37.75 41.90625 48.125 37.703125 56.109375 
C 34 63.109375 28.09375 65.59375 22.90625 65.59375 
C 18.09375 65.59375 12 63.40625 8.203125 56.203125 
C 4.203125 48.71875 3.796875 39.4375 3.796875 31.640625 
C 3.796875 25.953125 3.90625 17.28125 7 9.671875 
C 11.296875 -0.609375 19 -2 22.90625 -2 
C 27.5 -2 34.5 -0.109375 38.59375 9.375 
C 41.59375 16.28125 42 24.359375 42 31.640625 
z
M 22.90625 -0.40625 
C 16.5 -0.40625 12.703125 5.078125 11.296875 12.6875 
C 10.203125 18.5625 10.203125 27.15625 10.203125 32.75 
C 10.203125 40.4375 10.203125 46.828125 11.5 52.921875 
C 13.40625 61.390625 19 64 22.90625 64 
C 27 64 32.296875 61.296875 34.203125 53.125 
C 35.5 47.4375 35.59375 40.734375 35.59375 32.75 
C 35.59375 26.25 35.59375 18.265625 34.40625 12.375 
C 32.296875 1.484375 26.40625 -0.40625 22.90625 -0.40625 
z
" id="CMR17-48"/>
      </defs>
      <g transform="translate(66.727514 265.918498)scale(0.1 -0.1)">
       <use transform="scale(0.996264)" xlink:href="#CMR17-48"/>
      </g>
     </g>
    </g>
    <g id="xtick_2">
     <g id="line2d_2">
      <g>
       <use style="stroke:#000000;stroke-width:0.8;" x="130.151843" xlink:href="#m4e65072e93" y="252"/>
      </g>
     </g>
     <g id="text_2">
      <!-- $200$ -->
      <defs>
       <path d="M 41.703125 15.453125 
L 39.90625 15.453125 
C 38.90625 8.375 38.09375 7.171875 37.703125 6.5625 
C 37.203125 5.765625 30 5.765625 28.59375 5.765625 
L 9.40625 5.765625 
C 13 9.671875 20 16.75 28.5 24.953125 
C 34.59375 30.734375 41.703125 37.53125 41.703125 47.421875 
C 41.703125 59.21875 32.296875 66 21.796875 66 
C 10.796875 66 4.09375 56.3125 4.09375 47.34375 
C 4.09375 43.4375 7 42.9375 8.203125 42.9375 
C 9.203125 42.9375 12.203125 43.546875 12.203125 47.03125 
C 12.203125 50.109375 9.59375 51 8.203125 51 
C 7.59375 51 7 50.90625 6.59375 50.703125 
C 8.5 59.21875 14.296875 63.40625 20.40625 63.40625 
C 29.09375 63.40625 34.796875 56.515625 34.796875 47.421875 
C 34.796875 38.734375 29.703125 31.25 24 24.75 
L 4.09375 2.28125 
L 4.09375 0 
L 39.296875 0 
z
" id="CMR17-50"/>
      </defs>
      <g transform="translate(122.67984 265.918498)scale(0.1 -0.1)">
       <use transform="scale(0.996264)" xlink:href="#CMR17-50"/>
       <use transform="translate(45.690477 0)scale(0.996264)" xlink:href="#CMR17-48"/>
       <use transform="translate(91.380954 0)scale(0.996264)" xlink:href="#CMR17-48"/>
      </g>
     </g>
    </g>
    <g id="xtick_3">
     <g id="line2d_3">
      <g>
       <use style="stroke:#000000;stroke-width:0.8;" x="191.085504" xlink:href="#m4e65072e93" y="252"/>
      </g>
     </g>
     <g id="text_3">
      <!-- $400$ -->
      <defs>
       <path d="M 33.59375 64.40625 
C 33.59375 66.5 33.5 66.5 31.703125 66.5 
L 2 19.59375 
L 2 17 
L 27.796875 17 
L 27.796875 7.140625 
C 27.796875 3.5 27.59375 2.5 20.59375 2.5 
L 18.703125 2.5 
L 18.703125 0 
C 21.90625 0 27.296875 0 30.703125 0 
C 34.09375 0 39.5 0 42.703125 0 
L 42.703125 2.5 
L 40.796875 2.5 
C 33.796875 2.5 33.59375 3.5 33.59375 7.140625 
L 33.59375 17 
L 43.796875 17 
L 43.796875 19.59375 
L 33.59375 19.59375 
z
M 28.09375 57.859375 
L 28.09375 19.59375 
L 4 19.59375 
z
" id="CMR17-52"/>
      </defs>
      <g transform="translate(183.613501 265.918498)scale(0.1 -0.1)">
       <use transform="scale(0.996264)" xlink:href="#CMR17-52"/>
       <use transform="translate(45.690477 0)scale(0.996264)" xlink:href="#CMR17-48"/>
       <use transform="translate(91.380954 0)scale(0.996264)" xlink:href="#CMR17-48"/>
      </g>
     </g>
    </g>
    <g id="xtick_4">
     <g id="line2d_4">
      <g>
       <use style="stroke:#000000;stroke-width:0.8;" x="252.019165" xlink:href="#m4e65072e93" y="252"/>
      </g>
     </g>
     <g id="text_4">
      <!-- $600$ -->
      <defs>
       <path d="M 10.59375 34 
C 10.59375 57.65625 21.796875 63 28.296875 63 
C 30.40625 63 35.5 62.640625 37.5 59 
C 35.90625 59 32.90625 59 32.90625 55.515625 
C 32.90625 52.828125 35.09375 51.921875 36.5 51.921875 
C 37.40625 51.921875 40.09375 52.3125 40.09375 55.625 
C 40.09375 61.78125 35.09375 65.296875 28.203125 65.296875 
C 16.296875 65.296875 3.796875 52.96875 3.796875 31 
C 3.796875 3.953125 15.09375 -2 23.09375 -2 
C 32.796875 -2 42 6.671875 42 20.046875 
C 42 32.515625 33.90625 41.59375 23.703125 41.59375 
C 17.59375 41.59375 13.09375 37.609375 10.59375 30.625 
z
M 23.09375 0.390625 
C 10.796875 0.390625 10.796875 18.75 10.796875 22.4375 
C 10.796875 29.625 14.203125 40 23.5 40 
C 25.203125 40 30.09375 40 33.40625 33.125 
C 35.203125 29.21875 35.203125 25.140625 35.203125 20.140625 
C 35.203125 14.75 35.203125 10.78125 33.09375 6.78125 
C 30.90625 2.671875 27.703125 0.390625 23.09375 0.390625 
z
" id="CMR17-54"/>
      </defs>
      <g transform="translate(244.547162 265.918498)scale(0.1 -0.1)">
       <use transform="scale(0.996264)" xlink:href="#CMR17-54"/>
       <use transform="translate(45.690477 0)scale(0.996264)" xlink:href="#CMR17-48"/>
       <use transform="translate(91.380954 0)scale(0.996264)" xlink:href="#CMR17-48"/>
      </g>
     </g>
    </g>
    <g id="xtick_5">
     <g id="line2d_5">
      <g>
       <use style="stroke:#000000;stroke-width:0.8;" x="312.952826" xlink:href="#m4e65072e93" y="252"/>
      </g>
     </g>
     <g id="text_5">
      <!-- $800$ -->
      <defs>
       <path d="M 27.203125 35.375 
C 33.5 38.546875 39.90625 43.328125 39.90625 50.984375 
C 39.90625 60.015625 31.09375 65.296875 23 65.296875 
C 13.90625 65.296875 5.90625 58.734375 5.90625 49.6875 
C 5.90625 47.203125 6.5 42.921875 10.40625 39.140625 
C 11.40625 38.15625 15.59375 35.171875 18.296875 33.28125 
C 13.796875 30.984375 3.296875 25.53125 3.296875 14.59375 
C 3.296875 4.359375 13.09375 -2 22.796875 -2 
C 33.5 -2 42.5 5.65625 42.5 15.78125 
C 42.5 24.84375 36.40625 29.015625 32.40625 31.703125 
z
M 14.09375 44.09375 
C 13.296875 44.59375 9.296875 47.671875 9.296875 52.359375 
C 9.296875 58.421875 15.59375 63 22.796875 63 
C 30.703125 63 36.5 57.4375 36.5 50.96875 
C 36.5 41.703125 26.09375 36.421875 25.59375 36.421875 
C 25.5 36.421875 25.40625 36.421875 24.59375 37.03125 
z
M 32.5 23.734375 
C 34 22.640625 38.796875 19.375 38.796875 13.296875 
C 38.796875 5.953125 31.40625 0.390625 23 0.390625 
C 13.90625 0.390625 7 6.84375 7 14.6875 
C 7 22.546875 13.09375 29.09375 20 32.1875 
z
" id="CMR17-56"/>
      </defs>
      <g transform="translate(305.480823 265.918498)scale(0.1 -0.1)">
       <use transform="scale(0.996264)" xlink:href="#CMR17-56"/>
       <use transform="translate(45.690477 0)scale(0.996264)" xlink:href="#CMR17-48"/>
       <use transform="translate(91.380954 0)scale(0.996264)" xlink:href="#CMR17-48"/>
      </g>
     </g>
    </g>
    <g id="xtick_6">
     <g id="line2d_6">
      <g>
       <use style="stroke:#000000;stroke-width:0.8;" x="373.886486" xlink:href="#m4e65072e93" y="252"/>
      </g>
     </g>
     <g id="text_6">
      <!-- $1000$ -->
      <defs>
       <path d="M 26.59375 63.40625 
C 26.59375 65.5 26.5 65.5 25.09375 65.5 
C 21.203125 61.1875 15.296875 59.796875 9.703125 59.796875 
C 9.40625 59.796875 8.90625 59.796875 8.796875 59.5 
C 8.703125 59.296875 8.703125 59.09375 8.703125 57 
C 11.796875 57 17 57.59375 21 59.984375 
L 21 7.203125 
C 21 3.6875 20.796875 2.5 12.203125 2.5 
L 9.203125 2.5 
L 9.203125 0 
C 14 0 19 0 23.796875 0 
C 28.59375 0 33.59375 0 38.40625 0 
L 38.40625 2.5 
L 35.40625 2.5 
C 26.796875 2.5 26.59375 3.59375 26.59375 7.15625 
z
" id="CMR17-49"/>
      </defs>
      <g transform="translate(363.923816 265.918498)scale(0.1 -0.1)">
       <use transform="scale(0.996264)" xlink:href="#CMR17-49"/>
       <use transform="translate(45.690477 0)scale(0.996264)" xlink:href="#CMR17-48"/>
       <use transform="translate(91.380954 0)scale(0.996264)" xlink:href="#CMR17-48"/>
       <use transform="translate(137.071431 0)scale(0.996264)" xlink:href="#CMR17-48"/>
      </g>
     </g>
    </g>
   </g>
   <g id="matplotlib.axis_2">
    <g id="ytick_1">
     <g id="line2d_7">
      <defs>
       <path d="M 0 0 
L -3.5 0 
" id="m6e567578e9" style="stroke:#000000;stroke-width:0.8;"/>
      </defs>
      <g>
       <use style="stroke:#000000;stroke-width:0.8;" x="54" xlink:href="#m6e567578e9" y="242.066096"/>
      </g>
     </g>
     <g id="text_7">
      <!-- $0.2$ -->
      <defs>
       <path d="M 18.40625 4.796875 
C 18.40625 7.6875 16 9.671875 13.59375 9.671875 
C 10.703125 9.671875 8.703125 7.28125 8.703125 4.890625 
C 8.703125 2 11.09375 0 13.5 0 
C 16.40625 0 18.40625 2.390625 18.40625 4.796875 
z
" id="CMMI12-58"/>
      </defs>
      <g transform="translate(34.269921 245.525345)scale(0.1 -0.1)">
       <use transform="scale(0.996264)" xlink:href="#CMR17-48"/>
       <use transform="translate(45.690477 0)scale(0.996264)" xlink:href="#CMMI12-58"/>
       <use transform="translate(72.787654 0)scale(0.996264)" xlink:href="#CMR17-50"/>
      </g>
     </g>
    </g>
    <g id="ytick_2">
     <g id="line2d_8">
      <g>
       <use style="stroke:#000000;stroke-width:0.8;" x="54" xlink:href="#m6e567578e9" y="214.64897"/>
      </g>
     </g>
     <g id="text_8">
      <!-- $0.4$ -->
      <g transform="translate(34.269921 218.10822)scale(0.1 -0.1)">
       <use transform="scale(0.996264)" xlink:href="#CMR17-48"/>
       <use transform="translate(45.690477 0)scale(0.996264)" xlink:href="#CMMI12-58"/>
       <use transform="translate(72.787654 0)scale(0.996264)" xlink:href="#CMR17-52"/>
      </g>
     </g>
    </g>
    <g id="ytick_3">
     <g id="line2d_9">
      <g>
       <use style="stroke:#000000;stroke-width:0.8;" x="54" xlink:href="#m6e567578e9" y="187.231845"/>
      </g>
     </g>
     <g id="text_9">
      <!-- $0.6$ -->
      <g transform="translate(34.269921 190.691094)scale(0.1 -0.1)">
       <use transform="scale(0.996264)" xlink:href="#CMR17-48"/>
       <use transform="translate(45.690477 0)scale(0.996264)" xlink:href="#CMMI12-58"/>
       <use transform="translate(72.787654 0)scale(0.996264)" xlink:href="#CMR17-54"/>
      </g>
     </g>
    </g>
    <g id="ytick_4">
     <g id="line2d_10">
      <g>
       <use style="stroke:#000000;stroke-width:0.8;" x="54" xlink:href="#m6e567578e9" y="159.814719"/>
      </g>
     </g>
     <g id="text_10">
      <!-- $0.8$ -->
      <g transform="translate(34.269921 163.273968)scale(0.1 -0.1)">
       <use transform="scale(0.996264)" xlink:href="#CMR17-48"/>
       <use transform="translate(45.690477 0)scale(0.996264)" xlink:href="#CMMI12-58"/>
       <use transform="translate(72.787654 0)scale(0.996264)" xlink:href="#CMR17-56"/>
      </g>
     </g>
    </g>
    <g id="ytick_5">
     <g id="line2d_11">
      <g>
       <use style="stroke:#000000;stroke-width:0.8;" x="54" xlink:href="#m6e567578e9" y="132.397594"/>
      </g>
     </g>
     <g id="text_11">
      <!-- $1.0$ -->
      <g transform="translate(34.269921 135.856843)scale(0.1 -0.1)">
       <use transform="scale(0.996264)" xlink:href="#CMR17-49"/>
       <use transform="translate(45.690477 0)scale(0.996264)" xlink:href="#CMMI12-58"/>
       <use transform="translate(72.787654 0)scale(0.996264)" xlink:href="#CMR17-48"/>
      </g>
     </g>
    </g>
    <g id="ytick_6">
     <g id="line2d_12">
      <g>
       <use style="stroke:#000000;stroke-width:0.8;" x="54" xlink:href="#m6e567578e9" y="104.980468"/>
      </g>
     </g>
     <g id="text_12">
      <!-- $1.2$ -->
      <g transform="translate(34.269921 108.439717)scale(0.1 -0.1)">
       <use transform="scale(0.996264)" xlink:href="#CMR17-49"/>
       <use transform="translate(45.690477 0)scale(0.996264)" xlink:href="#CMMI12-58"/>
       <use transform="translate(72.787654 0)scale(0.996264)" xlink:href="#CMR17-50"/>
      </g>
     </g>
    </g>
    <g id="ytick_7">
     <g id="line2d_13">
      <g>
       <use style="stroke:#000000;stroke-width:0.8;" x="54" xlink:href="#m6e567578e9" y="77.563343"/>
      </g>
     </g>
     <g id="text_13">
      <!-- $1.4$ -->
      <g transform="translate(34.269921 81.022592)scale(0.1 -0.1)">
       <use transform="scale(0.996264)" xlink:href="#CMR17-49"/>
       <use transform="translate(45.690477 0)scale(0.996264)" xlink:href="#CMMI12-58"/>
       <use transform="translate(72.787654 0)scale(0.996264)" xlink:href="#CMR17-52"/>
      </g>
     </g>
    </g>
    <g id="ytick_8">
     <g id="line2d_14">
      <g>
       <use style="stroke:#000000;stroke-width:0.8;" x="54" xlink:href="#m6e567578e9" y="50.146217"/>
      </g>
     </g>
     <g id="text_14">
      <!-- $1.6$ -->
      <g transform="translate(34.269921 53.605466)scale(0.1 -0.1)">
       <use transform="scale(0.996264)" xlink:href="#CMR17-49"/>
       <use transform="translate(45.690477 0)scale(0.996264)" xlink:href="#CMMI12-58"/>
       <use transform="translate(72.787654 0)scale(0.996264)" xlink:href="#CMR17-54"/>
      </g>
     </g>
    </g>
   </g>
   <g id="line2d_15">
    <path clip-path="url(#p80e297f1ca)" d="M 69.218182 210.127498 
L 69.827518 127.528238 
L 70.436855 103.205293 
L 70.741523 102.72932 
L 71.046192 90.931004 
L 71.35086 90.414533 
L 71.655528 85.379704 
L 71.960197 94.417859 
L 72.264865 85.171299 
L 72.569533 84.996241 
L 72.874201 91.075258 
L 73.17887 87.580478 
L 73.483538 87.492744 
L 73.788206 83.808814 
L 74.092875 82.88958 
L 74.397543 83.741116 
L 74.702211 89.051452 
L 75.00688 83.548095 
L 75.311548 81.918359 
L 75.616216 86.264572 
L 75.920885 84.649877 
L 76.225553 82.149915 
L 76.530221 86.347663 
L 76.834889 78.76054 
L 77.444226 86.307823 
L 77.748894 88.48541 
L 78.053563 87.099181 
L 78.358231 80.722993 
L 78.662899 82.461718 
L 78.967568 89.382787 
L 79.272236 90.214718 
L 79.576904 84.703363 
L 79.881572 85.658613 
L 80.186241 84.307254 
L 80.490909 85.14662 
L 80.795577 83.195321 
L 81.100246 85.658638 
L 81.404914 79.114637 
L 82.014251 85.410012 
L 82.318919 80.293986 
L 82.623587 84.937446 
L 82.928256 81.618477 
L 83.232924 82.673234 
L 83.537592 82.836167 
L 83.84226 81.982666 
L 84.146929 82.257801 
L 84.451597 85.800463 
L 84.756265 84.119259 
L 85.060934 86.710734 
L 85.365602 87.910459 
L 85.67027 82.493159 
L 85.974939 86.173192 
L 86.279607 78.75463 
L 86.584275 84.964804 
L 86.888943 77.760574 
L 87.193612 84.171439 
L 87.49828 81.11212 
L 87.802948 83.871172 
L 88.107617 83.430873 
L 88.412285 85.093492 
L 88.716953 82.773744 
L 89.021622 82.423946 
L 89.32629 82.786513 
L 89.630958 84.347832 
L 89.935627 79.351361 
L 90.240295 87.975415 
L 90.544963 88.907046 
L 90.849631 88.488131 
L 91.1543 85.582308 
L 91.458968 81.060365 
L 91.763636 80.918278 
L 92.068305 86.611209 
L 92.372973 79.181777 
L 92.677641 83.296049 
L 92.98231 82.560819 
L 93.286978 84.224489 
L 93.591646 83.741737 
L 93.896314 84.244803 
L 94.200983 82.32269 
L 94.505651 86.916833 
L 94.810319 86.359267 
L 95.114988 91.679841 
L 95.419656 83.089477 
L 95.724324 82.942672 
L 96.028993 82.953258 
L 96.638329 86.161386 
L 96.942998 84.408029 
L 97.247666 81.996891 
L 97.552334 83.799988 
L 97.857002 79.342704 
L 98.161671 83.063509 
L 98.466339 88.446607 
L 98.771007 79.198552 
L 99.075676 83.32758 
L 99.380344 77.715151 
L 99.685012 87.088798 
L 100.294349 78.654496 
L 100.599017 76.130871 
L 100.903686 81.633193 
L 101.208354 74.554617 
L 101.513022 84.520514 
L 101.81769 77.211779 
L 102.122359 82.363187 
L 102.427027 82.586072 
L 102.731695 78.569896 
L 103.036364 78.816279 
L 103.341032 83.499042 
L 103.6457 83.114729 
L 103.950369 80.239359 
L 104.255037 84.674441 
L 104.559705 79.306457 
L 104.864373 81.241404 
L 105.169042 82.325573 
L 105.47371 80.764998 
L 105.778378 83.71681 
L 106.083047 84.035064 
L 106.387715 84.989764 
L 106.692383 89.811091 
L 106.997052 91.940444 
L 107.606388 79.846491 
L 107.911057 85.321048 
L 108.215725 82.020184 
L 108.520393 80.168524 
L 108.825061 86.715668 
L 109.12973 85.978201 
L 109.739066 77.183626 
L 110.043735 86.227763 
L 110.348403 79.79067 
L 110.653071 84.432735 
L 110.95774 86.204877 
L 111.262408 82.530614 
L 111.567076 80.504427 
L 111.871744 88.352262 
L 112.176413 84.4518 
L 112.481081 88.650082 
L 112.785749 77.788121 
L 113.090418 89.554058 
L 113.395086 83.204562 
L 113.699754 82.556692 
L 114.004423 81.164735 
L 114.309091 84.933908 
L 114.613759 84.06041 
L 114.918428 84.370642 
L 115.527764 81.994094 
L 115.832432 80.280473 
L 116.137101 82.760853 
L 116.441769 83.727753 
L 116.746437 78.885969 
L 117.051106 81.507301 
L 117.355774 82.256872 
L 117.660442 81.573766 
L 117.965111 87.442452 
L 118.269779 84.737323 
L 118.574447 78.375152 
L 118.879115 84.34034 
L 119.183784 81.368447 
L 119.488452 81.270681 
L 119.79312 88.104781 
L 120.402457 75.03861 
L 121.011794 90.218917 
L 121.316462 86.521423 
L 121.62113 79.567781 
L 121.925799 84.704418 
L 122.230467 83.063099 
L 122.535135 84.001287 
L 122.839803 80.70078 
L 123.144472 80.36724 
L 123.44914 85.846834 
L 123.753808 85.154732 
L 124.058477 87.647639 
L 124.363145 83.087141 
L 124.667813 83.957328 
L 124.972482 74.555553 
L 125.27715 81.776764 
L 125.581818 81.775911 
L 125.886486 80.136965 
L 126.191155 80.817388 
L 126.495823 81.187799 
L 126.800491 80.989979 
L 127.10516 81.819742 
L 127.409828 86.09195 
L 127.714496 83.589976 
L 128.019165 79.397555 
L 128.323833 85.627596 
L 128.628501 86.98547 
L 128.93317 91.136443 
L 129.542506 78.997926 
L 129.847174 79.999227 
L 130.151843 87.354568 
L 130.456511 79.905291 
L 130.761179 85.651189 
L 131.065848 81.042321 
L 131.370516 79.552305 
L 131.675184 79.083505 
L 131.979853 85.509366 
L 132.284521 89.47082 
L 132.589189 88.009693 
L 132.893857 83.219023 
L 133.198526 91.15939 
L 133.503194 79.305286 
L 133.807862 87.077893 
L 134.112531 83.110677 
L 134.417199 86.355424 
L 134.721867 83.632574 
L 135.026536 84.438153 
L 135.331204 80.421075 
L 135.635872 87.484891 
L 136.245209 78.679854 
L 136.549877 78.021345 
L 136.854545 86.482984 
L 137.159214 86.519923 
L 137.463882 81.111827 
L 137.76855 81.60728 
L 138.682555 84.395441 
L 138.987224 89.411374 
L 139.291892 82.089704 
L 139.59656 84.824151 
L 139.901229 81.854956 
L 140.205897 79.992974 
L 140.510565 81.029719 
L 140.815233 89.045081 
L 141.42457 85.314805 
L 141.729238 87.254806 
L 142.033907 83.994717 
L 142.338575 82.947469 
L 142.643243 84.304794 
L 142.947912 87.105233 
L 143.25258 80.803991 
L 143.557248 83.075405 
L 143.861916 78.46402 
L 144.166585 84.51174 
L 144.471253 85.416342 
L 144.775921 77.417749 
L 145.08059 78.419373 
L 145.385258 81.619737 
L 145.689926 82.48223 
L 145.994595 87.645682 
L 146.299263 84.982022 
L 146.603931 85.494962 
L 146.9086 90.086177 
L 147.213268 85.024241 
L 147.517936 84.580382 
L 147.822604 88.787753 
L 148.127273 82.794221 
L 148.431941 82.787223 
L 148.736609 81.618407 
L 149.041278 81.427821 
L 149.345946 77.336807 
L 149.650614 75.988733 
L 149.955283 82.836933 
L 150.259951 82.919716 
L 150.564619 84.597743 
L 150.869287 82.831147 
L 151.173956 84.921836 
L 151.478624 79.608759 
L 151.783292 84.080559 
L 152.087961 85.174879 
L 152.392629 81.055719 
L 152.697297 82.869115 
L 153.001966 83.199914 
L 153.306634 84.166407 
L 153.611302 83.31919 
L 153.915971 84.821943 
L 154.525307 78.404706 
L 154.829975 84.472479 
L 155.134644 77.911151 
L 155.74398 85.399607 
L 156.048649 80.770172 
L 156.353317 84.248802 
L 156.657985 83.542733 
L 156.962654 82.142398 
L 157.267322 85.114417 
L 157.57199 79.999204 
L 157.876658 83.384207 
L 158.181327 83.041319 
L 158.485995 82.432553 
L 158.790663 80.096096 
L 159.095332 81.251923 
L 159.4 81.34365 
L 159.704668 77.23166 
L 160.009337 77.240507 
L 160.314005 87.443363 
L 160.618673 87.07975 
L 160.923342 83.023901 
L 161.22801 87.048218 
L 161.532678 77.455273 
L 161.837346 90.089858 
L 162.446683 79.404656 
L 162.751351 84.135042 
L 163.05602 81.463641 
L 163.360688 87.934043 
L 163.665356 81.533847 
L 163.970025 80.54181 
L 164.274693 80.999032 
L 164.579361 87.742402 
L 164.884029 82.514218 
L 165.188698 87.968872 
L 165.798034 84.517735 
L 166.102703 86.705867 
L 166.407371 83.171111 
L 166.712039 77.48671 
L 167.321376 88.107012 
L 167.626044 81.963361 
L 167.930713 86.710091 
L 168.235381 81.302106 
L 168.540049 88.843141 
L 168.844717 84.741592 
L 169.149386 82.878728 
L 169.454054 83.420413 
L 169.758722 85.212797 
L 170.063391 85.605146 
L 170.368059 88.38688 
L 170.672727 85.586862 
L 170.977396 81.438755 
L 171.586732 86.873885 
L 171.8914 81.68069 
L 172.196069 87.868321 
L 172.500737 79.708991 
L 172.805405 82.336788 
L 173.110074 81.295306 
L 173.414742 87.655303 
L 173.71941 88.250092 
L 174.024079 84.862032 
L 174.328747 86.125034 
L 174.633415 88.872731 
L 174.938084 84.322657 
L 175.242752 87.797135 
L 175.54742 87.716027 
L 175.852088 82.549313 
L 176.156757 87.487755 
L 176.461425 82.757746 
L 176.766093 84.276606 
L 177.37543 80.732703 
L 177.984767 86.784995 
L 178.289435 86.76858 
L 178.594103 84.220893 
L 178.898771 83.580989 
L 179.20344 84.821354 
L 179.508108 84.141967 
L 179.812776 85.373031 
L 180.117445 82.30962 
L 180.422113 87.557325 
L 180.726781 87.724521 
L 181.03145 88.09905 
L 181.336118 83.145506 
L 181.945455 83.835995 
L 182.250123 84.660752 
L 182.554791 78.535203 
L 182.859459 83.693125 
L 183.164128 82.748385 
L 183.468796 89.070781 
L 183.773464 81.227062 
L 184.078133 82.844488 
L 184.382801 80.702291 
L 184.687469 87.188171 
L 184.992138 78.359321 
L 185.296806 85.092635 
L 185.906143 89.679493 
L 186.515479 81.922848 
L 186.820147 90.573021 
L 187.124816 79.428167 
L 187.734152 87.175241 
L 188.343489 77.660776 
L 188.952826 85.923956 
L 189.257494 84.241805 
L 189.86683 84.019761 
L 190.171499 83.09803 
L 190.476167 78.122081 
L 190.780835 80.21688 
L 191.085504 87.367163 
L 191.390172 79.962143 
L 192.304177 89.788682 
L 192.608845 84.014957 
L 192.913514 81.367812 
L 193.218182 79.908247 
L 193.52285 81.287453 
L 193.827518 85.317866 
L 194.132187 83.475223 
L 194.436855 82.439578 
L 195.046192 81.446076 
L 195.35086 77.635347 
L 195.655528 86.195997 
L 195.960197 85.910034 
L 196.264865 87.639136 
L 196.569533 80.745346 
L 196.874201 84.102633 
L 197.17887 79.026703 
L 197.483538 84.927026 
L 197.788206 80.715406 
L 198.092875 79.855542 
L 198.397543 87.642843 
L 198.702211 84.455831 
L 199.00688 85.458026 
L 199.311548 84.478804 
L 199.616216 84.870339 
L 199.920885 84.590597 
L 200.225553 87.323499 
L 200.530221 87.873747 
L 200.834889 90.320619 
L 201.139558 80.226172 
L 201.444226 85.432162 
L 201.748894 87.489412 
L 202.053563 88.511759 
L 202.358231 77.577016 
L 202.967568 80.66041 
L 203.272236 83.051069 
L 203.576904 83.87701 
L 203.881572 84.066957 
L 204.186241 82.280401 
L 204.490909 85.862674 
L 204.795577 76.646774 
L 205.404914 86.652936 
L 205.709582 83.82648 
L 206.318919 85.286807 
L 206.623587 80.349435 
L 206.928256 82.522667 
L 207.232924 82.363596 
L 207.537592 80.583373 
L 207.84226 85.613231 
L 208.146929 86.802367 
L 208.451597 80.492991 
L 208.756265 89.678312 
L 209.060934 84.541382 
L 209.365602 83.381136 
L 209.67027 81.651281 
L 210.279607 86.306809 
L 210.584275 88.965269 
L 210.888943 80.780515 
L 211.193612 83.550068 
L 211.802948 82.230824 
L 212.107617 82.940567 
L 212.412285 80.316729 
L 212.716953 79.93475 
L 213.32629 85.844012 
L 213.630958 86.170574 
L 213.935627 81.85163 
L 214.240295 86.729766 
L 214.544963 86.248584 
L 214.849631 83.489052 
L 215.1543 83.595036 
L 215.458968 87.607077 
L 215.763636 87.056864 
L 216.068305 75.776594 
L 216.372973 76.330222 
L 216.677641 85.216458 
L 216.98231 90.823616 
L 217.591646 79.292297 
L 217.896314 84.954505 
L 218.200983 84.345208 
L 218.505651 83.089303 
L 218.810319 79.877409 
L 219.114988 83.355889 
L 219.419656 82.116385 
L 219.724324 81.802006 
L 220.028993 79.669924 
L 220.333661 83.514406 
L 220.638329 80.212316 
L 220.942998 85.109861 
L 221.552334 86.975478 
L 221.857002 79.190556 
L 222.161671 77.233186 
L 222.466339 87.568036 
L 222.771007 84.038841 
L 223.075676 82.736868 
L 223.380344 82.68227 
L 223.685012 87.579183 
L 223.989681 87.574262 
L 224.294349 79.162008 
L 224.599017 85.286789 
L 224.903686 81.324011 
L 225.513022 87.997975 
L 225.81769 86.336663 
L 226.122359 85.46554 
L 226.427027 83.845217 
L 226.731695 84.838341 
L 227.036364 81.772586 
L 227.6457 88.402137 
L 227.950369 83.510019 
L 228.559705 80.966973 
L 228.864373 83.285888 
L 229.169042 82.065529 
L 229.47371 83.90262 
L 229.778378 84.947268 
L 230.083047 84.394067 
L 230.387715 81.9252 
L 230.692383 82.874259 
L 230.997052 84.245379 
L 231.30172 83.60931 
L 231.606388 84.218465 
L 231.911057 83.137122 
L 232.215725 79.63535 
L 232.520393 85.118376 
L 232.825061 82.471582 
L 233.12973 77.303662 
L 233.434398 88.407576 
L 233.739066 86.121307 
L 234.043735 87.490297 
L 234.348403 82.358954 
L 234.653071 87.473694 
L 234.95774 81.700378 
L 235.262408 84.518458 
L 235.567076 80.868688 
L 235.871744 82.466789 
L 236.176413 82.815594 
L 236.481081 86.905789 
L 236.785749 81.529692 
L 237.090418 90.207755 
L 237.395086 86.587535 
L 237.699754 85.288581 
L 238.004423 81.463266 
L 238.309091 85.596682 
L 238.613759 79.517541 
L 239.223096 86.373238 
L 239.527764 80.071808 
L 239.832432 89.354645 
L 240.441769 82.102616 
L 240.746437 81.672848 
L 241.051106 86.27895 
L 241.355774 82.407404 
L 241.660442 82.438119 
L 241.965111 85.941831 
L 242.269779 83.959719 
L 242.574447 83.257733 
L 242.879115 83.014171 
L 243.183784 82.97427 
L 243.488452 79.554781 
L 243.79312 85.231246 
L 244.097789 78.520431 
L 244.707125 87.185752 
L 245.011794 82.359485 
L 245.316462 85.421587 
L 245.62113 86.746222 
L 245.925799 83.262329 
L 246.230467 88.201786 
L 246.535135 81.419905 
L 246.839803 84.407676 
L 247.144472 88.945873 
L 247.753808 81.942103 
L 248.058477 81.496631 
L 248.363145 83.72526 
L 248.667813 82.138723 
L 248.972482 86.330402 
L 249.27715 86.449734 
L 249.581818 81.574023 
L 249.886486 79.447886 
L 250.191155 82.002267 
L 250.495823 83.494282 
L 250.800491 81.979517 
L 251.10516 79.767466 
L 251.409828 80.640617 
L 251.714496 86.996145 
L 252.019165 78.615092 
L 252.323833 83.877035 
L 252.628501 79.190355 
L 252.93317 87.284236 
L 253.237838 87.354994 
L 253.542506 81.828392 
L 253.847174 81.110412 
L 254.151843 81.439317 
L 254.456511 83.040165 
L 254.761179 79.794548 
L 255.065848 80.507655 
L 255.370516 82.11907 
L 255.675184 87.752888 
L 255.979853 88.662999 
L 256.589189 79.456945 
L 256.893857 83.075198 
L 257.198526 82.156736 
L 257.503194 79.764687 
L 257.807862 80.972987 
L 258.112531 82.890797 
L 258.417199 84.007147 
L 258.721867 87.206617 
L 259.026536 84.368607 
L 259.331204 85.508522 
L 259.635872 85.693402 
L 259.940541 79.477265 
L 260.245209 78.674805 
L 260.549877 79.995835 
L 260.854545 86.28833 
L 261.159214 84.31969 
L 261.463882 80.400101 
L 261.76855 84.146393 
L 262.073219 89.479732 
L 262.377887 74.840916 
L 262.682555 84.688978 
L 262.987224 81.804743 
L 263.291892 81.620519 
L 263.59656 88.711684 
L 263.901229 84.31342 
L 264.205897 81.921764 
L 264.510565 86.381759 
L 264.815233 77.186754 
L 265.119902 85.330428 
L 265.42457 79.818734 
L 265.729238 85.932342 
L 266.033907 83.480572 
L 266.338575 84.786397 
L 266.643243 82.386601 
L 266.947912 82.927351 
L 267.25258 86.492773 
L 267.557248 86.429161 
L 268.166585 85.9798 
L 268.471253 85.389119 
L 268.775921 85.186839 
L 269.08059 84.717678 
L 269.385258 84.839369 
L 269.689926 85.5366 
L 269.994595 84.611328 
L 270.299263 80.547119 
L 270.9086 83.347213 
L 271.213268 77.725327 
L 271.517936 83.008654 
L 271.822604 82.774312 
L 272.127273 88.050738 
L 272.431941 83.515597 
L 272.736609 86.751036 
L 273.041278 80.715991 
L 273.345946 84.908898 
L 273.650614 87.284751 
L 273.955283 79.002143 
L 274.259951 86.373887 
L 274.564619 82.747203 
L 274.869287 84.697257 
L 275.173956 88.435873 
L 275.478624 80.204312 
L 275.783292 91.12282 
L 276.087961 78.359181 
L 276.392629 82.200791 
L 276.697297 83.357114 
L 277.001966 90.488375 
L 277.306634 85.709003 
L 277.611302 85.732348 
L 277.915971 83.390789 
L 278.220639 82.773114 
L 278.525307 84.751997 
L 278.829975 81.815126 
L 279.134644 83.357546 
L 279.439312 82.864576 
L 279.74398 88.401319 
L 280.353317 78.973484 
L 280.657985 82.190767 
L 280.962654 82.665324 
L 281.267322 86.743284 
L 281.57199 81.777773 
L 281.876658 81.358007 
L 282.181327 83.587782 
L 282.485995 83.363847 
L 282.790663 77.429776 
L 283.095332 84.786468 
L 283.4 83.443126 
L 283.704668 85.783944 
L 284.009337 80.105491 
L 284.314005 86.89343 
L 284.618673 86.623811 
L 284.923342 84.715592 
L 285.22801 86.25446 
L 285.532678 80.056206 
L 285.837346 83.76695 
L 286.142015 79.35912 
L 286.446683 82.140701 
L 286.751351 81.13482 
L 287.05602 84.800143 
L 287.360688 86.399553 
L 288.274693 81.884767 
L 288.579361 87.303295 
L 289.188698 79.83558 
L 289.493366 83.282988 
L 289.798034 78.471409 
L 290.102703 84.815518 
L 290.407371 84.66 
L 290.712039 80.851519 
L 291.016708 87.321548 
L 291.321376 84.45215 
L 291.626044 86.670507 
L 292.235381 85.29346 
L 292.540049 78.994237 
L 292.844717 85.304372 
L 293.454054 83.472795 
L 293.758722 86.086224 
L 294.063391 83.179098 
L 294.368059 84.381537 
L 294.672727 82.789153 
L 294.977396 82.43062 
L 295.282064 85.070769 
L 295.8914 83.029455 
L 296.196069 81.080442 
L 296.500737 77.458736 
L 296.805405 83.75613 
L 297.110074 86.170669 
L 297.414742 85.201326 
L 297.71941 73.913218 
L 298.024079 86.72157 
L 298.328747 85.002911 
L 298.633415 76.649037 
L 298.938084 83.277358 
L 299.242752 83.293229 
L 299.54742 80.447616 
L 299.852088 85.491935 
L 300.156757 79.741737 
L 300.461425 81.694118 
L 300.766093 76.685846 
L 301.37543 90.181869 
L 301.680098 80.405835 
L 301.984767 81.98796 
L 302.289435 84.556729 
L 302.594103 79.507847 
L 302.898771 81.159321 
L 303.20344 85.031279 
L 303.508108 82.22545 
L 303.812776 82.836628 
L 304.117445 84.173398 
L 304.422113 78.741766 
L 304.726781 90.034298 
L 305.03145 84.309768 
L 305.336118 87.214786 
L 305.640786 83.482403 
L 305.945455 84.530679 
L 306.250123 84.901106 
L 306.554791 82.418357 
L 306.859459 83.627769 
L 307.164128 86.750671 
L 307.468796 80.418258 
L 307.773464 82.185656 
L 308.078133 80.896006 
L 308.992138 86.358251 
L 309.296806 89.885259 
L 309.601474 80.886212 
L 309.906143 80.984058 
L 310.210811 79.73059 
L 310.515479 80.766274 
L 310.820147 88.029332 
L 311.429484 82.818352 
L 311.734152 81.677369 
L 312.038821 87.343701 
L 312.343489 89.074457 
L 312.648157 79.043225 
L 312.952826 80.273825 
L 313.257494 75.982897 
L 313.562162 80.664939 
L 313.86683 82.861501 
L 314.171499 89.202321 
L 314.780835 79.598032 
L 315.085504 84.92346 
L 315.390172 81.369072 
L 315.69484 83.825013 
L 315.999509 80.593426 
L 316.608845 84.214427 
L 316.913514 82.218129 
L 317.218182 83.805039 
L 317.52285 80.675141 
L 317.827518 83.664817 
L 318.132187 84.63097 
L 318.436855 87.642715 
L 318.741523 83.059849 
L 319.046192 80.840892 
L 319.35086 84.415456 
L 319.655528 80.952661 
L 319.960197 88.004625 
L 320.264865 82.036853 
L 320.569533 86.626637 
L 321.17887 81.235462 
L 321.483538 82.115194 
L 321.788206 80.224448 
L 322.092875 83.941439 
L 322.397543 79.914819 
L 322.702211 84.608668 
L 323.00688 83.183494 
L 323.311548 86.176301 
L 323.616216 83.784036 
L 323.920885 76.376176 
L 324.225553 84.580297 
L 324.530221 80.807217 
L 324.834889 81.972586 
L 325.139558 82.28347 
L 325.444226 83.10377 
L 325.748894 80.445739 
L 326.053563 83.601701 
L 326.358231 88.29501 
L 326.662899 80.324217 
L 326.967568 89.59461 
L 327.272236 83.739035 
L 327.576904 82.689584 
L 327.881572 76.819527 
L 328.186241 83.403936 
L 328.795577 75.506689 
L 329.100246 83.662599 
L 329.404914 88.626037 
L 329.709582 76.609232 
L 330.014251 74.652245 
L 330.318919 83.77771 
L 330.623587 81.354952 
L 330.928256 84.056514 
L 331.232924 79.235094 
L 332.146929 90.469434 
L 332.451597 82.528057 
L 332.756265 93.356403 
L 333.060934 81.503495 
L 333.365602 80.715863 
L 333.67027 87.85401 
L 333.974939 88.220034 
L 334.279607 89.749513 
L 334.584275 82.732711 
L 334.888943 89.001224 
L 335.193612 82.283216 
L 335.49828 79.936204 
L 335.802948 82.645265 
L 336.107617 87.010544 
L 336.412285 84.568404 
L 336.716953 85.86779 
L 337.021622 84.353654 
L 337.32629 84.281389 
L 337.630958 85.622473 
L 337.935627 79.906557 
L 338.240295 84.932748 
L 338.544963 79.352273 
L 338.849631 85.65992 
L 339.1543 85.003194 
L 339.458968 86.016002 
L 339.763636 79.070139 
L 340.068305 84.436166 
L 340.677641 81.077169 
L 340.98231 89.174377 
L 341.286978 76.724952 
L 341.591646 79.380468 
L 341.896314 86.266173 
L 342.200983 78.641227 
L 342.505651 80.385382 
L 342.810319 81.468503 
L 343.114988 87.169708 
L 343.419656 86.3667 
L 343.724324 82.819384 
L 344.028993 84.094261 
L 344.333661 82.915597 
L 344.638329 83.260025 
L 344.942998 84.667955 
L 345.247666 82.456729 
L 345.552334 84.001328 
L 345.857002 83.707186 
L 346.161671 83.792434 
L 346.466339 87.333552 
L 346.771007 81.436135 
L 347.075676 82.407894 
L 347.380344 85.364841 
L 347.685012 82.678549 
L 347.989681 88.39341 
L 348.294349 80.464275 
L 348.599017 80.491512 
L 348.903686 88.94834 
L 349.208354 81.682592 
L 349.513022 84.122908 
L 349.81769 84.029367 
L 350.122359 83.581511 
L 350.427027 84.187319 
L 350.731695 86.804902 
L 351.036364 87.932649 
L 351.341032 79.103517 
L 351.950369 86.880594 
L 352.255037 85.987262 
L 352.559705 88.062185 
L 352.864373 85.908461 
L 353.169042 88.156599 
L 353.47371 80.371214 
L 353.778378 78.763048 
L 354.083047 83.329524 
L 354.387715 83.082557 
L 354.692383 82.996906 
L 354.997052 83.61056 
L 355.30172 85.636362 
L 355.911057 82.267302 
L 356.215725 81.927288 
L 356.520393 79.93799 
L 356.825061 82.25809 
L 357.12973 88.178421 
L 357.434398 88.559204 
L 357.739066 86.175348 
L 358.043735 79.000313 
L 358.348403 85.360194 
L 358.653071 81.215769 
L 358.95774 82.443659 
L 359.262408 81.89579 
L 359.567076 79.828389 
L 360.176413 86.401691 
L 360.481081 89.771889 
L 361.090418 79.922993 
L 361.395086 80.266713 
L 362.309091 88.833217 
L 362.613759 83.85335 
L 363.223096 80.931279 
L 363.527764 80.833193 
L 363.832432 83.07177 
L 364.137101 78.509204 
L 364.441769 82.615987 
L 365.051106 86.020325 
L 365.355774 81.811983 
L 365.660442 86.062335 
L 365.965111 88.391573 
L 366.269779 84.706196 
L 366.574447 82.391054 
L 366.879115 88.38522 
L 367.183784 83.249104 
L 367.488452 82.263425 
L 367.79312 85.836069 
L 368.097789 85.879789 
L 368.402457 83.899277 
L 368.707125 79.489122 
L 369.011794 82.356208 
L 369.316462 87.518302 
L 369.62113 81.546217 
L 370.230467 85.374357 
L 370.535135 79.360183 
L 370.839803 83.973841 
L 371.144472 82.095596 
L 371.44914 75.607674 
L 371.753808 82.505956 
L 372.058477 81.468207 
L 372.667813 87.42976 
L 372.972482 80.324885 
L 373.27715 89.401509 
L 373.581818 83.224823 
L 373.581818 83.224823 
" style="fill:none;stroke:#1f77b4;stroke-linecap:square;stroke-width:1.5;"/>
   </g>
   <g id="line2d_16">
    <path clip-path="url(#p80e297f1ca)" d="M 69.218182 221.805319 
L 69.52285 207.604199 
L 70.132187 192.99332 
L 70.436855 190.747437 
L 71.046192 182.417931 
L 71.35086 178.692339 
L 71.655528 177.250879 
L 71.960197 169.214836 
L 72.264865 170.727663 
L 72.569533 169.229029 
L 72.874201 161.514432 
L 73.17887 166.69911 
L 73.483538 160.524989 
L 73.788206 159.739752 
L 74.092875 160.610126 
L 74.397543 160.923036 
L 74.702211 155.631381 
L 75.311548 158.377676 
L 75.616216 153.997271 
L 75.920885 152.681164 
L 76.225553 148.346797 
L 76.530221 151.990267 
L 76.834889 154.004268 
L 77.139558 147.780616 
L 77.444226 148.704713 
L 77.748894 147.473878 
L 78.053563 148.746411 
L 78.358231 144.400495 
L 78.662899 151.406153 
L 79.272236 142.402366 
L 79.576904 146.849481 
L 79.881572 146.034795 
L 80.490909 140.980073 
L 80.795577 138.03491 
L 81.100246 145.006746 
L 81.404914 141.204996 
L 81.709582 139.67995 
L 82.014251 141.286752 
L 82.318919 139.793272 
L 82.623587 140.424025 
L 82.928256 136.344246 
L 83.232924 134.890313 
L 83.537592 136.132121 
L 83.84226 140.535014 
L 84.146929 136.204929 
L 84.451597 138.34537 
L 84.756265 127.449473 
L 85.060934 133.626892 
L 85.365602 133.770233 
L 85.67027 135.876152 
L 85.974939 135.463816 
L 86.279607 131.355073 
L 86.584275 129.533179 
L 86.888943 134.637609 
L 87.49828 128.292758 
L 87.802948 130.240448 
L 88.107617 127.239099 
L 88.412285 131.539045 
L 88.716953 126.144759 
L 89.021622 129.815424 
L 89.32629 127.134245 
L 89.630958 123.282304 
L 89.935627 131.967106 
L 90.240295 127.657238 
L 90.544963 129.207871 
L 90.849631 127.07758 
L 91.1543 128.383185 
L 91.458968 124.940411 
L 91.763636 128.162461 
L 92.068305 129.915432 
L 92.372973 125.224684 
L 92.98231 128.119167 
L 93.286978 132.862966 
L 93.591646 123.800348 
L 93.896314 124.220663 
L 94.200983 132.0931 
L 94.810319 124.224349 
L 95.114988 114.258523 
L 95.419656 125.459824 
L 95.724324 119.24307 
L 96.028993 125.726971 
L 96.942998 121.366354 
L 97.247666 123.686404 
L 97.552334 123.910935 
L 98.161671 119.251273 
L 98.466339 123.076703 
L 98.771007 116.584061 
L 99.075676 119.751723 
L 99.380344 121.583 
L 99.685012 121.277845 
L 99.989681 119.712364 
L 100.294349 121.82465 
L 100.599017 116.941383 
L 100.903686 125.248519 
L 101.208354 116.983104 
L 101.513022 116.381175 
L 101.81769 113.904612 
L 102.122359 120.640258 
L 102.731695 112.003676 
L 103.036364 114.741023 
L 103.341032 114.598663 
L 103.6457 121.605726 
L 103.950369 116.842158 
L 104.255037 118.311629 
L 104.559705 111.128181 
L 104.864373 113.790463 
L 105.169042 113.459833 
L 105.47371 117.848505 
L 105.778378 119.294649 
L 106.387715 108.756985 
L 106.692383 116.294002 
L 106.997052 115.952484 
L 107.30172 109.292932 
L 107.606388 117.489744 
L 107.911057 111.446752 
L 108.215725 118.151288 
L 108.520393 118.212734 
L 108.825061 116.226897 
L 109.12973 115.972585 
L 109.434398 114.933574 
L 109.739066 107.531338 
L 110.043735 110.255183 
L 110.348403 116.728394 
L 110.653071 119.281003 
L 110.95774 115.337812 
L 111.262408 116.487656 
L 111.567076 113.83223 
L 111.871744 109.425256 
L 112.176413 108.505111 
L 112.481081 113.632894 
L 112.785749 111.024983 
L 113.090418 113.887874 
L 113.395086 115.120695 
L 113.699754 108.262999 
L 114.004423 105.828072 
L 114.309091 108.201153 
L 114.613759 114.454202 
L 114.918428 108.416691 
L 115.223096 110.5684 
L 115.527764 110.302471 
L 115.832432 112.963816 
L 116.137101 109.415602 
L 116.441769 113.731914 
L 116.746437 103.348237 
L 117.051106 112.517874 
L 117.355774 111.213604 
L 117.660442 109.225931 
L 117.965111 109.736015 
L 118.269779 110.712589 
L 118.574447 106.161593 
L 118.879115 111.301157 
L 119.183784 105.645349 
L 119.488452 111.649968 
L 119.79312 110.927871 
L 120.097789 111.244537 
L 120.402457 112.362336 
L 120.707125 111.010996 
L 121.011794 106.501382 
L 121.316462 114.003168 
L 121.62113 105.671862 
L 121.925799 109.949379 
L 122.230467 109.534893 
L 122.535135 104.952017 
L 122.839803 97.330357 
L 123.144472 106.119824 
L 123.44914 107.732342 
L 123.753808 105.333777 
L 124.058477 108.139288 
L 124.363145 103.14 
L 124.667813 106.559821 
L 124.972482 103.510522 
L 125.27715 109.301336 
L 125.581818 111.644924 
L 125.886486 109.400481 
L 126.191155 105.132247 
L 126.495823 104.873116 
L 126.800491 111.090716 
L 127.10516 105.934425 
L 127.409828 103.412633 
L 128.019165 109.702313 
L 128.323833 105.374971 
L 128.628501 109.11697 
L 128.93317 103.179602 
L 129.237838 104.586311 
L 129.542506 103.419906 
L 129.847174 103.427105 
L 130.151843 101.628613 
L 130.456511 105.938294 
L 130.761179 108.257152 
L 131.065848 101.026013 
L 131.370516 105.401558 
L 131.675184 102.443999 
L 131.979853 102.076229 
L 132.284521 105.379982 
L 132.589189 100.476553 
L 132.893857 102.385109 
L 133.198526 102.53438 
L 133.503194 104.365188 
L 133.807862 104.985588 
L 134.417199 103.237831 
L 134.721867 102.042951 
L 135.026536 98.284515 
L 135.331204 104.086399 
L 135.940541 98.482039 
L 136.245209 98.52472 
L 136.549877 95.509337 
L 136.854545 107.390983 
L 137.159214 101.933134 
L 137.463882 100.319229 
L 137.76855 102.353425 
L 138.073219 99.262143 
L 138.377887 105.255548 
L 138.987224 99.376776 
L 139.291892 103.252365 
L 139.59656 97.872954 
L 139.901229 103.664447 
L 140.205897 104.569423 
L 140.510565 108.432191 
L 140.815233 105.234153 
L 141.119902 100.353995 
L 141.42457 103.986225 
L 141.729238 98.619169 
L 142.033907 98.450726 
L 142.338575 97.650496 
L 142.643243 98.904677 
L 142.947912 105.497603 
L 143.25258 102.372703 
L 143.557248 97.069565 
L 143.861916 104.038308 
L 144.166585 100.470718 
L 144.471253 100.049016 
L 144.775921 101.061451 
L 145.08059 100.193331 
L 145.385258 97.323526 
L 145.689926 95.985826 
L 145.994595 103.527505 
L 146.603931 93.045148 
L 146.9086 103.180863 
L 147.213268 96.417517 
L 147.517936 100.972789 
L 147.822604 97.302068 
L 148.127273 104.981485 
L 148.431941 97.572367 
L 148.736609 97.707945 
L 149.041278 98.715348 
L 149.345946 104.850166 
L 149.650614 99.208843 
L 149.955283 95.710136 
L 150.259951 101.159475 
L 150.564619 98.95609 
L 150.869287 103.294266 
L 151.173956 100.058422 
L 151.478624 104.326643 
L 151.783292 105.138674 
L 152.087961 97.487842 
L 152.392629 97.280401 
L 152.697297 94.619823 
L 153.001966 97.272016 
L 153.306634 94.681701 
L 153.611302 103.452823 
L 153.915971 96.072005 
L 154.220639 96.094627 
L 154.525307 94.226557 
L 154.829975 94.700978 
L 155.134644 96.289401 
L 155.439312 102.815374 
L 155.74398 103.181495 
L 156.048649 94.994938 
L 156.353317 99.602525 
L 156.657985 92.436719 
L 156.962654 93.268396 
L 157.267322 101.195825 
L 157.57199 94.442729 
L 157.876658 95.884664 
L 158.181327 100.862486 
L 158.485995 95.21812 
L 158.790663 96.754176 
L 159.095332 101.609291 
L 159.4 100.883736 
L 159.704668 99.091234 
L 160.009337 102.009416 
L 160.314005 100.23448 
L 160.618673 95.349702 
L 161.22801 101.053523 
L 161.532678 93.924785 
L 161.837346 101.072433 
L 162.142015 93.502556 
L 162.446683 98.234042 
L 162.751351 96.571065 
L 163.05602 100.192481 
L 163.360688 92.839589 
L 163.665356 99.191466 
L 163.970025 98.546963 
L 164.274693 96.748173 
L 164.579361 97.594269 
L 164.884029 93.67768 
L 165.188698 102.302256 
L 165.493366 99.781278 
L 165.798034 93.715084 
L 166.102703 97.895188 
L 166.407371 91.166156 
L 166.712039 101.102086 
L 167.016708 100.536017 
L 167.321376 98.558512 
L 167.626044 100.493746 
L 167.930713 93.584218 
L 168.235381 91.884999 
L 168.540049 102.819251 
L 168.844717 93.374296 
L 169.149386 100.29662 
L 169.454054 99.182542 
L 169.758722 92.127337 
L 170.063391 99.004828 
L 170.368059 97.688152 
L 170.672727 97.91382 
L 170.977396 98.912137 
L 171.282064 97.624302 
L 171.8914 92.580331 
L 172.196069 99.105117 
L 172.500737 100.178781 
L 172.805405 95.642803 
L 173.110074 99.71582 
L 173.414742 99.060491 
L 173.71941 93.603857 
L 174.024079 95.048158 
L 174.328747 98.090499 
L 174.633415 98.821268 
L 174.938084 94.481607 
L 175.242752 94.147859 
L 175.54742 94.616152 
L 175.852088 99.089633 
L 176.156757 99.623066 
L 176.461425 102.151475 
L 176.766093 96.893147 
L 177.070762 99.403631 
L 177.37543 95.80648 
L 177.680098 97.193796 
L 177.984767 100.711693 
L 178.289435 92.399764 
L 178.594103 102.756922 
L 178.898771 101.687056 
L 179.20344 99.529139 
L 179.508108 95.146586 
L 179.812776 97.117839 
L 180.422113 92.29996 
L 181.03145 96.138499 
L 181.336118 92.084896 
L 181.640786 98.19684 
L 181.945455 92.643914 
L 182.250123 95.856156 
L 182.554791 92.004536 
L 182.859459 92.766949 
L 183.164128 97.114666 
L 183.468796 95.546453 
L 183.773464 100.732662 
L 184.078133 97.039795 
L 184.382801 95.19592 
L 184.687469 97.350935 
L 184.992138 97.144617 
L 185.296806 95.980767 
L 185.601474 98.452649 
L 185.906143 90.699518 
L 186.210811 99.823869 
L 186.515479 95.094442 
L 186.820147 95.238554 
L 187.124816 97.341831 
L 188.038821 90.139235 
L 188.343489 94.771736 
L 188.648157 95.97858 
L 188.952826 97.716147 
L 189.257494 102.088356 
L 189.562162 87.382572 
L 189.86683 99.865733 
L 190.171499 93.083094 
L 190.476167 94.287725 
L 190.780835 97.051071 
L 191.390172 92.094277 
L 191.999509 97.34637 
L 192.304177 97.135092 
L 192.608845 92.518474 
L 192.913514 97.670734 
L 193.218182 92.083689 
L 193.52285 92.407893 
L 193.827518 99.230627 
L 194.132187 100.853762 
L 194.436855 93.844086 
L 194.741523 96.417796 
L 195.046192 95.987763 
L 195.35086 99.223816 
L 195.655528 91.64798 
L 195.960197 92.646253 
L 196.264865 86.473131 
L 196.569533 87.180934 
L 196.874201 94.237615 
L 197.17887 95.867238 
L 197.483538 100.507832 
L 197.788206 98.515995 
L 198.092875 92.917766 
L 198.397543 99.409294 
L 198.702211 93.010727 
L 199.00688 96.186492 
L 199.311548 96.486915 
L 199.616216 94.180335 
L 199.920885 93.290482 
L 200.225553 96.992624 
L 200.530221 97.246207 
L 200.834889 96.036254 
L 201.139558 89.504883 
L 201.444226 91.779927 
L 201.748894 95.699934 
L 202.053563 93.253122 
L 202.358231 98.198004 
L 202.662899 92.815498 
L 202.967568 93.557342 
L 203.272236 97.451234 
L 203.576904 91.219879 
L 203.881572 90.583807 
L 204.490909 97.035824 
L 204.795577 94.821374 
L 205.100246 91.102589 
L 205.404914 93.013368 
L 205.709582 90.396395 
L 206.014251 98.051473 
L 206.318919 92.024663 
L 206.623587 97.799942 
L 206.928256 98.788027 
L 207.232924 88.791585 
L 207.537592 92.735779 
L 207.84226 88.287003 
L 208.146929 91.865018 
L 208.451597 91.944776 
L 208.756265 99.390454 
L 209.060934 91.943088 
L 209.365602 89.642127 
L 209.67027 96.722512 
L 209.974939 95.861531 
L 210.279607 91.451696 
L 210.584275 95.25217 
L 210.888943 93.23365 
L 211.193612 95.899241 
L 211.49828 96.886457 
L 211.802948 89.876712 
L 212.107617 95.206857 
L 212.412285 98.131987 
L 212.716953 97.743365 
L 213.021622 90.614196 
L 213.32629 91.529904 
L 213.630958 92.956076 
L 213.935627 90.951762 
L 214.240295 95.922535 
L 214.544963 95.515232 
L 214.849631 92.81305 
L 215.1543 93.607392 
L 215.458968 96.810797 
L 215.763636 95.216229 
L 216.372973 93.692466 
L 216.677641 95.741514 
L 216.98231 89.9604 
L 217.286978 91.568954 
L 217.591646 90.975274 
L 217.896314 87.095036 
L 218.200983 89.828787 
L 218.505651 89.555721 
L 218.810319 93.911954 
L 219.114988 95.875821 
L 219.419656 93.919175 
L 219.724324 90.652005 
L 220.028993 96.098307 
L 220.333661 90.035486 
L 220.638329 88.838368 
L 220.942998 95.045839 
L 221.247666 89.372428 
L 221.552334 92.831947 
L 221.857002 90.286757 
L 222.161671 102.133957 
L 222.466339 97.745915 
L 222.771007 96.66243 
L 223.075676 94.141533 
L 223.380344 96.129912 
L 223.685012 94.661348 
L 224.294349 93.204722 
L 224.599017 94.065324 
L 224.903686 96.799372 
L 225.208354 94.638066 
L 225.513022 89.697712 
L 225.81769 93.689969 
L 226.427027 88.794297 
L 226.731695 93.980389 
L 227.036364 88.72621 
L 227.341032 90.804849 
L 227.6457 95.396939 
L 227.950369 90.41474 
L 228.255037 96.401667 
L 228.559705 92.54556 
L 228.864373 97.060542 
L 229.169042 92.22722 
L 229.47371 95.09475 
L 229.778378 96.833064 
L 230.387715 87.880888 
L 230.692383 95.605238 
L 230.997052 90.812375 
L 231.30172 88.869064 
L 231.606388 90.795944 
L 231.911057 90.349208 
L 232.215725 90.265571 
L 232.520393 90.515671 
L 232.825061 88.720011 
L 233.12973 82.974722 
L 233.434398 96.461667 
L 233.739066 90.970493 
L 234.043735 89.316793 
L 234.653071 96.447209 
L 234.95774 92.927321 
L 235.262408 94.910554 
L 235.871744 88.571867 
L 236.481081 99.488011 
L 236.785749 91.093815 
L 237.090418 92.418806 
L 237.395086 92.905142 
L 237.699754 90.46365 
L 238.004423 90.935163 
L 238.309091 96.160486 
L 238.613759 91.257061 
L 238.918428 93.677426 
L 239.223096 88.634284 
L 239.527764 95.264425 
L 239.832432 87.181856 
L 240.137101 92.5985 
L 240.441769 93.331827 
L 240.746437 92.296947 
L 241.355774 89.034558 
L 241.660442 97.396881 
L 241.965111 92.5312 
L 242.269779 94.021472 
L 242.574447 96.230551 
L 242.879115 94.861147 
L 243.183784 100.100519 
L 243.488452 88.722559 
L 243.79312 96.2273 
L 244.402457 97.622826 
L 244.707125 90.992845 
L 245.011794 96.145339 
L 245.316462 87.072406 
L 245.62113 94.456159 
L 245.925799 91.213166 
L 246.535135 94.275981 
L 246.839803 88.376522 
L 247.144472 95.499189 
L 247.44914 90.992199 
L 247.753808 92.770701 
L 248.058477 87.877497 
L 248.363145 93.626702 
L 248.667813 91.59656 
L 248.972482 91.73916 
L 249.27715 87.558251 
L 249.581818 92.942298 
L 249.886486 95.967264 
L 250.191155 88.116841 
L 250.495823 91.995235 
L 250.800491 94.382728 
L 251.10516 89.802754 
L 251.409828 88.224708 
L 251.714496 92.323106 
L 252.019165 92.508314 
L 252.323833 96.250234 
L 252.628501 92.299503 
L 252.93317 90.008118 
L 253.237838 90.91587 
L 253.542506 92.979616 
L 253.847174 97.659212 
L 254.151843 92.586664 
L 254.456511 97.611268 
L 254.761179 95.21853 
L 255.065848 90.6823 
L 255.370516 92.499469 
L 255.675184 92.034251 
L 255.979853 89.943574 
L 256.284521 91.737061 
L 256.589189 91.560682 
L 256.893857 86.140061 
L 257.198526 88.368322 
L 257.503194 87.340648 
L 257.807862 90.625054 
L 258.112531 85.430298 
L 258.417199 89.243683 
L 258.721867 83.365631 
L 259.026536 93.075017 
L 259.331204 97.246493 
L 259.635872 96.116681 
L 259.940541 85.986031 
L 260.245209 91.368524 
L 260.549877 89.546803 
L 260.854545 92.575854 
L 261.159214 94.321513 
L 261.463882 95.401262 
L 261.76855 96.071258 
L 262.073219 91.182459 
L 262.377887 90.383706 
L 262.682555 91.93948 
L 262.987224 90.505488 
L 263.291892 96.499502 
L 263.59656 90.281472 
L 263.901229 92.776359 
L 264.205897 92.12254 
L 264.510565 94.663718 
L 264.815233 87.939811 
L 265.119902 88.276837 
L 265.42457 91.4388 
L 265.729238 92.906336 
L 266.033907 92.010105 
L 266.338575 94.837509 
L 266.643243 93.551274 
L 266.947912 88.667329 
L 267.25258 93.54513 
L 267.557248 89.085987 
L 268.471253 92.814537 
L 268.775921 82.702959 
L 269.08059 91.295593 
L 269.385258 89.762286 
L 269.689926 86.235729 
L 269.994595 91.791411 
L 270.299263 93.67918 
L 270.603931 85.442337 
L 270.9086 92.39434 
L 271.213268 92.124082 
L 271.517936 85.807123 
L 271.822604 93.130432 
L 272.127273 88.145118 
L 272.431941 92.542109 
L 272.736609 90.326707 
L 273.041278 99.918341 
L 273.345946 87.070381 
L 273.650614 92.968371 
L 273.955283 90.347699 
L 274.259951 90.661982 
L 274.564619 88.744208 
L 274.869287 90.223114 
L 275.173956 88.555757 
L 275.478624 89.168861 
L 275.783292 88.624611 
L 276.087961 94.222898 
L 276.392629 92.340486 
L 276.697297 91.307596 
L 277.001966 89.343345 
L 277.915971 96.842708 
L 278.220639 92.804616 
L 278.525307 95.397832 
L 278.829975 87.9309 
L 279.134644 92.156446 
L 279.439312 87.193187 
L 279.74398 90.037211 
L 280.048649 98.111233 
L 280.353317 90.438415 
L 280.657985 88.691638 
L 280.962654 90.384579 
L 281.57199 86.638909 
L 281.876658 89.652948 
L 282.485995 88.003267 
L 282.790663 85.573633 
L 283.4 91.531723 
L 283.704668 89.611818 
L 284.009337 88.775554 
L 284.618673 95.825321 
L 284.923342 89.525395 
L 285.22801 89.681486 
L 285.837346 94.315468 
L 286.142015 85.479476 
L 286.446683 85.989976 
L 286.751351 89.297661 
L 287.05602 88.025932 
L 287.360688 82.738551 
L 287.665356 91.399894 
L 287.970025 86.158375 
L 288.274693 89.675207 
L 288.579361 91.575933 
L 288.884029 96.394086 
L 289.188698 93.951197 
L 289.493366 93.747004 
L 289.798034 84.39418 
L 290.102703 90.317318 
L 290.407371 85.624135 
L 290.712039 93.205889 
L 291.016708 85.545204 
L 291.321376 95.117443 
L 291.626044 92.008451 
L 291.930713 93.235378 
L 292.235381 92.29955 
L 292.540049 89.220897 
L 292.844717 94.718376 
L 293.149386 91.317566 
L 293.454054 85.0066 
L 293.758722 92.460998 
L 294.063391 82.76851 
L 294.672727 93.781659 
L 295.282064 84.935558 
L 295.586732 89.878072 
L 295.8914 92.821142 
L 296.196069 90.17619 
L 296.500737 92.76874 
L 296.805405 89.099391 
L 297.110074 89.490475 
L 297.414742 92.767782 
L 298.024079 84.813029 
L 298.328747 82.70774 
L 298.633415 90.927839 
L 298.938084 91.775452 
L 299.242752 96.943847 
L 299.54742 91.654172 
L 299.852088 93.102074 
L 300.156757 92.614366 
L 300.461425 90.220282 
L 300.766093 95.219341 
L 301.070762 89.871318 
L 301.37543 92.316498 
L 301.680098 85.596001 
L 301.984767 88.632428 
L 302.289435 90.065959 
L 302.898771 82.053096 
L 303.20344 96.507356 
L 303.508108 92.988103 
L 303.812776 84.189792 
L 304.117445 95.814162 
L 304.422113 91.408136 
L 304.726781 95.19932 
L 305.03145 95.255879 
L 305.336118 86.958597 
L 305.640786 83.470047 
L 305.945455 82.968729 
L 306.250123 91.201315 
L 306.554791 92.251597 
L 306.859459 88.854781 
L 307.164128 89.591187 
L 307.773464 94.443458 
L 308.078133 87.361428 
L 308.382801 94.191255 
L 308.687469 91.544834 
L 308.992138 85.567477 
L 309.296806 89.697438 
L 309.601474 88.055243 
L 309.906143 91.425895 
L 310.210811 91.052502 
L 310.515479 87.277925 
L 310.820147 92.449667 
L 311.429484 86.014242 
L 311.734152 85.993552 
L 312.038821 89.278764 
L 312.343489 87.93067 
L 312.648157 87.964781 
L 312.952826 90.380834 
L 313.257494 96.948889 
L 313.562162 85.263225 
L 313.86683 88.071155 
L 314.476167 90.582539 
L 314.780835 87.460596 
L 315.085504 92.869032 
L 315.69484 88.159837 
L 315.999509 90.98525 
L 316.304177 84.516387 
L 316.608845 93.680501 
L 316.913514 96.889091 
L 317.218182 94.094262 
L 317.52285 80.197428 
L 317.827518 89.280419 
L 318.132187 86.207325 
L 318.436855 96.013564 
L 318.741523 86.815627 
L 319.35086 95.075719 
L 319.655528 90.373153 
L 319.960197 90.219964 
L 320.264865 81.932621 
L 320.569533 88.617782 
L 320.874201 85.055171 
L 321.17887 87.445711 
L 321.483538 96.118192 
L 321.788206 87.508338 
L 322.092875 87.492903 
L 322.397543 90.603406 
L 322.702211 88.575765 
L 323.00688 83.745871 
L 323.311548 91.407073 
L 323.616216 84.595437 
L 323.920885 84.624032 
L 324.225553 90.268855 
L 324.530221 86.611878 
L 324.834889 86.909816 
L 325.139558 87.700127 
L 325.444226 85.784999 
L 326.053563 91.079302 
L 326.358231 86.942155 
L 326.662899 91.321585 
L 326.967568 84.178054 
L 327.272236 89.803463 
L 327.576904 83.753438 
L 327.881572 83.093432 
L 328.186241 90.963637 
L 328.490909 86.080236 
L 328.795577 95.401695 
L 329.404914 95.037967 
L 329.709582 88.093072 
L 330.014251 93.819124 
L 330.318919 92.65138 
L 330.928256 97.72018 
L 331.232924 93.923214 
L 331.537592 93.178443 
L 331.84226 88.46487 
L 332.146929 90.151406 
L 332.451597 91.129972 
L 332.756265 90.78393 
L 333.060934 92.397423 
L 333.365602 85.4677 
L 333.974939 92.386571 
L 334.279607 88.685811 
L 334.584275 92.77792 
L 334.888943 88.998685 
L 335.193612 91.257771 
L 335.49828 88.800536 
L 335.802948 90.823359 
L 336.107617 87.037896 
L 336.412285 89.061999 
L 336.716953 86.569872 
L 337.021622 90.742979 
L 337.32629 87.60411 
L 337.630958 90.397277 
L 337.935627 89.868407 
L 338.240295 97.059497 
L 338.849631 81.431338 
L 339.763636 86.22661 
L 340.068305 87.197846 
L 340.372973 95.318321 
L 340.677641 91.350964 
L 340.98231 82.866268 
L 341.286978 90.069636 
L 341.591646 88.080478 
L 341.896314 93.275068 
L 342.200983 91.5381 
L 342.505651 90.494877 
L 342.810319 82.597869 
L 343.114988 92.363551 
L 343.419656 91.600186 
L 343.724324 89.619185 
L 344.028993 80.616125 
L 344.333661 88.173179 
L 344.638329 86.683713 
L 344.942998 91.648212 
L 345.247666 91.124458 
L 345.552334 86.99922 
L 345.857002 85.776793 
L 346.161671 91.981873 
L 346.466339 85.879089 
L 347.075676 92.780788 
L 347.380344 95.92557 
L 347.685012 93.273695 
L 347.989681 84.181787 
L 348.599017 95.184857 
L 348.903686 86.405065 
L 349.208354 93.489721 
L 349.513022 88.621171 
L 349.81769 91.986444 
L 350.122359 92.232634 
L 350.427027 85.263935 
L 350.731695 90.168125 
L 351.036364 89.264986 
L 351.341032 84.347472 
L 351.6457 88.329005 
L 351.950369 86.900108 
L 352.559705 85.84996 
L 352.864373 96.891752 
L 353.169042 87.854084 
L 353.47371 86.384576 
L 353.778378 88.429731 
L 354.083047 91.706058 
L 354.387715 87.451846 
L 354.692383 89.0536 
L 354.997052 89.023555 
L 355.30172 94.347729 
L 355.606388 85.335071 
L 355.911057 89.636349 
L 356.215725 91.884954 
L 356.520393 89.570752 
L 356.825061 84.681332 
L 357.12973 90.569508 
L 357.434398 88.807282 
L 357.739066 91.041865 
L 358.043735 86.632919 
L 358.348403 92.864383 
L 358.653071 93.393003 
L 358.95774 91.228046 
L 359.262408 89.983983 
L 359.567076 90.186992 
L 359.871744 91.117281 
L 360.176413 91.670108 
L 360.481081 84.292185 
L 360.785749 84.746356 
L 361.090418 91.863043 
L 361.395086 90.283709 
L 361.699754 89.674661 
L 362.004423 93.213343 
L 362.309091 90.114388 
L 362.613759 90.009181 
L 362.918428 83.926218 
L 363.223096 84.976206 
L 363.527764 92.698043 
L 364.441769 84.677538 
L 365.051106 89.433224 
L 365.355774 84.878951 
L 365.660442 85.909726 
L 365.965111 88.357172 
L 366.269779 92.565442 
L 366.574447 88.522243 
L 366.879115 94.417794 
L 367.183784 83.741015 
L 367.488452 82.293505 
L 367.79312 92.650011 
L 368.097789 91.165531 
L 368.402457 90.274452 
L 368.707125 83.859616 
L 369.011794 91.143262 
L 369.316462 86.343842 
L 369.62113 88.578985 
L 369.925799 80.675331 
L 370.230467 91.487627 
L 370.535135 93.993362 
L 370.839803 89.210111 
L 371.144472 90.671941 
L 371.44914 85.852023 
L 371.753808 89.366187 
L 372.058477 87.450193 
L 372.363145 87.355447 
L 372.667813 88.149034 
L 372.972482 95.165603 
L 373.27715 84.266 
L 373.581818 88.846703 
L 373.581818 88.846703 
" style="fill:none;stroke:#ff7f0e;stroke-linecap:square;stroke-width:1.5;"/>
   </g>
   <g id="line2d_17">
    <path clip-path="url(#p80e297f1ca)" d="M 69.218182 242.116364 
L 69.827518 177.953153 
L 70.741523 145.896474 
L 71.046192 146.00631 
L 71.35086 144.283096 
L 71.655528 138.999659 
L 71.960197 128.722954 
L 72.264865 126.457918 
L 72.569533 129.194461 
L 72.874201 123.251119 
L 73.483538 127.351319 
L 73.788206 114.381616 
L 74.397543 119.340891 
L 74.702211 119.556438 
L 75.00688 116.777707 
L 75.311548 119.110821 
L 75.616216 113.382171 
L 75.920885 114.067977 
L 76.225553 116.761689 
L 76.530221 114.177728 
L 76.834889 115.520574 
L 77.139558 114.366738 
L 77.444226 116.52837 
L 77.748894 114.569328 
L 78.053563 113.607087 
L 78.358231 111.494398 
L 78.662899 114.868886 
L 78.967568 115.436585 
L 79.272236 114.808282 
L 79.576904 115.882592 
L 79.881572 109.567524 
L 80.186241 109.126776 
L 80.795577 112.285442 
L 81.100246 110.793281 
L 81.404914 113.511521 
L 81.709582 110.352998 
L 82.014251 109.445039 
L 82.318919 107.516143 
L 82.623587 104.858246 
L 82.928256 103.879509 
L 83.232924 112.629731 
L 83.537592 107.309921 
L 83.84226 110.999989 
L 84.146929 104.838257 
L 84.451597 104.971683 
L 84.756265 114.61367 
L 85.060934 112.280314 
L 85.365602 107.559703 
L 85.67027 108.490978 
L 85.974939 100.243279 
L 86.279607 98.360809 
L 86.584275 110.003142 
L 86.888943 104.816074 
L 87.193612 109.761765 
L 87.49828 104.650045 
L 87.802948 101.807024 
L 88.107617 111.939359 
L 88.412285 107.714248 
L 88.716953 105.104796 
L 89.021622 104.572031 
L 89.32629 105.189049 
L 89.630958 103.995309 
L 89.935627 103.959332 
L 90.240295 108.072433 
L 90.544963 109.707508 
L 91.1543 101.210479 
L 91.458968 101.229809 
L 91.763636 106.806147 
L 92.068305 103.754659 
L 92.372973 106.077812 
L 92.677641 105.070504 
L 92.98231 103.643809 
L 93.286978 106.954173 
L 93.591646 105.45371 
L 93.896314 103.081124 
L 94.200983 98.961445 
L 94.505651 102.405023 
L 94.810319 102.04722 
L 95.114988 100.163734 
L 95.419656 101.233144 
L 95.724324 104.238613 
L 96.028993 101.390625 
L 96.638329 97.660295 
L 96.942998 100.963473 
L 97.247666 102.250864 
L 97.552334 99.132678 
L 97.857002 98.36331 
L 98.161671 106.737274 
L 98.466339 101.827556 
L 98.771007 101.628178 
L 99.075676 99.981772 
L 99.380344 102.474491 
L 99.685012 102.023436 
L 99.989681 99.451538 
L 100.294349 101.673927 
L 100.599017 100.188757 
L 100.903686 102.597438 
L 101.208354 97.566359 
L 101.513022 103.015593 
L 102.122359 105.797327 
L 102.427027 99.791756 
L 102.731695 99.272848 
L 103.036364 102.022909 
L 103.341032 92.114263 
L 103.6457 104.350281 
L 103.950369 106.08014 
L 104.255037 107.020186 
L 104.559705 95.694316 
L 104.864373 97.117382 
L 105.169042 102.892722 
L 105.778378 97.520207 
L 106.083047 97.084657 
L 106.387715 98.416486 
L 106.692383 95.486223 
L 106.997052 95.41871 
L 107.30172 96.487532 
L 107.606388 96.570116 
L 107.911057 96.294155 
L 108.215725 98.181048 
L 108.825061 95.008503 
L 109.12973 99.874832 
L 109.434398 97.600078 
L 109.739066 96.462848 
L 110.043735 100.184685 
L 110.348403 99.168326 
L 110.653071 99.556997 
L 110.95774 95.035151 
L 111.567076 98.44161 
L 111.871744 96.269007 
L 112.176413 103.453573 
L 112.481081 99.787117 
L 112.785749 91.25912 
L 113.090418 96.874667 
L 113.395086 98.369524 
L 113.699754 97.835229 
L 114.004423 92.256906 
L 114.309091 98.029691 
L 114.613759 98.122749 
L 114.918428 97.67326 
L 115.223096 93.783311 
L 115.832432 98.559867 
L 116.137101 86.939955 
L 116.441769 95.00322 
L 116.746437 96.070384 
L 117.051106 94.894198 
L 117.355774 95.012134 
L 117.660442 91.369322 
L 117.965111 92.603661 
L 118.269779 91.580849 
L 118.574447 99.038121 
L 118.879115 92.375725 
L 119.183784 98.001175 
L 119.488452 92.23558 
L 119.79312 91.817815 
L 120.097789 95.416923 
L 120.402457 91.684769 
L 120.707125 96.224705 
L 121.011794 93.694598 
L 121.316462 94.122392 
L 121.62113 96.884754 
L 121.925799 103.221807 
L 122.230467 97.529461 
L 122.535135 87.170993 
L 122.839803 94.337123 
L 123.144472 95.1877 
L 123.44914 95.632638 
L 123.753808 93.836512 
L 124.058477 95.822239 
L 124.363145 93.509256 
L 124.972482 93.596776 
L 125.27715 89.873074 
L 125.581818 92.338962 
L 125.886486 97.839208 
L 126.191155 94.542296 
L 126.495823 95.885615 
L 126.800491 94.82831 
L 127.10516 89.664206 
L 127.714496 89.129022 
L 128.019165 89.304805 
L 128.323833 91.155814 
L 128.628501 88.718927 
L 128.93317 89.479731 
L 129.237838 98.229321 
L 129.542506 88.736213 
L 129.847174 87.667534 
L 130.151843 92.021515 
L 130.456511 87.715415 
L 131.065848 84.273857 
L 131.370516 93.148704 
L 131.675184 88.396356 
L 131.979853 89.510651 
L 132.284521 93.258919 
L 132.589189 89.609185 
L 132.893857 93.418069 
L 133.198526 89.658011 
L 133.503194 87.329115 
L 133.807862 89.930979 
L 134.112531 84.163884 
L 134.721867 94.186354 
L 135.026536 88.733671 
L 135.331204 93.879328 
L 135.635872 85.393912 
L 135.940541 84.476641 
L 136.245209 92.060208 
L 136.549877 91.083696 
L 136.854545 92.216661 
L 137.159214 94.516012 
L 137.463882 87.364281 
L 137.76855 92.722333 
L 138.073219 91.523225 
L 138.377887 83.211812 
L 138.682555 85.409551 
L 138.987224 85.690239 
L 139.291892 89.588989 
L 139.59656 83.083482 
L 139.901229 88.956264 
L 140.205897 88.914897 
L 140.510565 86.093279 
L 140.815233 85.028176 
L 141.119902 85.257615 
L 141.42457 87.283442 
L 141.729238 87.246013 
L 142.033907 84.546274 
L 142.338575 79.119232 
L 142.643243 88.462504 
L 143.25258 83.325146 
L 143.557248 86.44539 
L 143.861916 87.657833 
L 144.166585 91.225902 
L 144.471253 90.549598 
L 144.775921 90.289028 
L 145.08059 80.343407 
L 145.385258 80.819573 
L 145.689926 82.777405 
L 145.994595 87.000069 
L 146.299263 83.636227 
L 146.603931 87.674188 
L 146.9086 86.392536 
L 147.213268 79.806574 
L 147.517936 84.190718 
L 147.822604 84.295041 
L 148.127273 80.738555 
L 148.431941 86.482915 
L 148.736609 84.874212 
L 149.041278 89.349164 
L 149.345946 83.489812 
L 149.650614 88.254017 
L 149.955283 85.471464 
L 150.259951 88.168376 
L 150.564619 84.949598 
L 150.869287 83.185639 
L 151.173956 80.51432 
L 151.478624 86.736406 
L 151.783292 83.383211 
L 152.087961 86.259197 
L 152.697297 88.298512 
L 153.306634 83.379087 
L 153.611302 85.068001 
L 153.915971 82.598955 
L 154.220639 87.871236 
L 154.525307 81.994829 
L 154.829975 85.625829 
L 155.134644 86.662782 
L 155.439312 84.348271 
L 155.74398 85.910612 
L 156.048649 81.192308 
L 156.353317 83.944521 
L 156.657985 83.49231 
L 156.962654 78.628008 
L 157.267322 80.638483 
L 157.57199 88.776484 
L 157.876658 83.04495 
L 158.181327 84.533727 
L 158.485995 83.044255 
L 158.790663 79.862214 
L 159.095332 78.862362 
L 159.4 82.125643 
L 159.704668 77.895648 
L 160.009337 85.76054 
L 160.314005 81.78293 
L 160.618673 80.677849 
L 160.923342 78.522608 
L 161.22801 85.387915 
L 161.532678 79.285559 
L 161.837346 81.626857 
L 162.142015 80.780454 
L 162.446683 76.49315 
L 163.05602 87.749815 
L 163.360688 78.841497 
L 163.665356 75.865905 
L 163.970025 83.783021 
L 164.274693 76.186445 
L 164.579361 78.265857 
L 164.884029 76.193061 
L 165.188698 79.272368 
L 165.493366 86.103662 
L 165.798034 79.288288 
L 166.102703 74.972139 
L 166.712039 83.871364 
L 167.016708 79.354065 
L 167.321376 81.910897 
L 167.626044 75.809256 
L 167.930713 79.564047 
L 168.235381 81.606809 
L 168.540049 79.724896 
L 168.844717 79.92073 
L 169.149386 81.130662 
L 169.454054 77.996544 
L 169.758722 80.171339 
L 170.063391 76.116375 
L 170.368059 81.352935 
L 170.672727 79.607614 
L 170.977396 75.154178 
L 171.282064 74.861076 
L 171.586732 75.531241 
L 171.8914 82.862888 
L 172.196069 77.193461 
L 172.500737 74.666814 
L 173.110074 84.999334 
L 173.414742 75.725076 
L 173.71941 75.811512 
L 174.024079 70.665896 
L 174.328747 83.277465 
L 174.633415 80.66983 
L 174.938084 75.278579 
L 175.242752 79.338102 
L 175.54742 81.385379 
L 175.852088 74.992571 
L 176.156757 80.703965 
L 176.461425 79.538479 
L 176.766093 72.545934 
L 177.070762 78.177967 
L 177.37543 80.522801 
L 177.680098 76.60436 
L 177.984767 74.862813 
L 178.289435 79.378691 
L 178.594103 73.30412 
L 178.898771 83.447256 
L 179.20344 76.870146 
L 179.508108 78.16828 
L 179.812776 72.774671 
L 180.117445 77.508217 
L 180.422113 79.308416 
L 180.726781 76.229321 
L 181.03145 79.481016 
L 181.336118 84.478688 
L 181.640786 81.185982 
L 181.945455 81.250345 
L 182.250123 81.717285 
L 182.859459 70.522768 
L 183.164128 83.434849 
L 183.468796 78.163298 
L 183.773464 77.453515 
L 184.078133 73.861878 
L 184.382801 78.578263 
L 184.687469 77.0731 
L 185.296806 83.458686 
L 185.601474 77.784232 
L 185.906143 74.742669 
L 186.210811 82.67653 
L 186.515479 72.867637 
L 186.820147 78.889408 
L 187.124816 74.693031 
L 187.429484 82.168195 
L 187.734152 74.892843 
L 188.038821 75.364148 
L 188.343489 71.549087 
L 188.648157 77.75265 
L 189.257494 75.005967 
L 189.562162 72.881502 
L 189.86683 78.506924 
L 190.171499 77.395988 
L 190.476167 77.754356 
L 190.780835 70.870427 
L 191.085504 71.851674 
L 191.390172 77.254776 
L 191.69484 71.646656 
L 191.999509 77.247682 
L 192.304177 74.092383 
L 192.913514 80.261904 
L 193.218182 74.890103 
L 193.52285 77.568772 
L 193.827518 78.121114 
L 194.436855 77.419559 
L 194.741523 78.278677 
L 195.046192 70.994189 
L 195.35086 71.765378 
L 195.655528 66.203885 
L 195.960197 72.571699 
L 196.264865 75.992474 
L 196.569533 73.231643 
L 196.874201 75.685789 
L 197.17887 73.747205 
L 197.483538 67.658408 
L 197.788206 74.512993 
L 198.092875 73.623462 
L 198.397543 76.922805 
L 198.702211 74.431373 
L 199.00688 73.87628 
L 199.311548 73.867848 
L 199.616216 75.439883 
L 199.920885 77.619483 
L 200.225553 69.928875 
L 200.530221 70.364425 
L 200.834889 74.546394 
L 201.139558 69.485061 
L 201.444226 74.017061 
L 202.053563 73.084158 
L 202.358231 71.940022 
L 202.662899 73.303507 
L 202.967568 69.40292 
L 203.272236 68.471493 
L 203.576904 75.54243 
L 203.881572 70.723591 
L 204.186241 68.678187 
L 204.490909 68.661992 
L 204.795577 77.320574 
L 205.404914 74.396176 
L 205.709582 76.77159 
L 206.014251 66.78182 
L 206.318919 75.724358 
L 206.623587 74.087887 
L 206.928256 70.479339 
L 207.232924 73.123293 
L 207.537592 66.682142 
L 207.84226 72.208058 
L 208.146929 74.17738 
L 208.451597 70.895649 
L 208.756265 65.225726 
L 209.060934 69.012846 
L 209.365602 70.767623 
L 209.67027 76.192721 
L 209.974939 73.098566 
L 210.279607 73.205417 
L 210.584275 68.830184 
L 210.888943 73.046104 
L 211.193612 67.467854 
L 211.49828 75.50001 
L 212.107617 65.772967 
L 212.412285 73.311594 
L 212.716953 67.820565 
L 213.021622 69.293322 
L 213.32629 66.848366 
L 213.630958 71.729677 
L 213.935627 72.313107 
L 214.240295 69.124112 
L 214.544963 68.454295 
L 214.849631 60.602526 
L 215.1543 77.436368 
L 215.458968 72.42836 
L 215.763636 76.134561 
L 216.068305 68.012012 
L 216.372973 73.649018 
L 216.677641 67.926506 
L 216.98231 73.45942 
L 217.286978 72.128409 
L 217.591646 72.712741 
L 217.896314 75.188779 
L 218.505651 70.567234 
L 218.810319 72.599994 
L 219.114988 69.200977 
L 219.419656 67.999608 
L 219.724324 71.683239 
L 220.028993 72.243401 
L 220.333661 72.110843 
L 220.942998 68.376504 
L 221.247666 72.547749 
L 221.552334 73.446048 
L 221.857002 69.223433 
L 222.161671 71.978105 
L 222.466339 68.530815 
L 222.771007 68.86717 
L 223.075676 74.377515 
L 223.380344 69.365089 
L 223.685012 76.178273 
L 223.989681 67.051426 
L 224.294349 72.852345 
L 224.599017 72.827231 
L 224.903686 64.92159 
L 225.208354 64.30795 
L 225.513022 67.680226 
L 225.81769 66.357261 
L 226.122359 69.34563 
L 226.427027 73.581822 
L 226.731695 70.980439 
L 227.036364 62.055175 
L 227.341032 70.969245 
L 227.6457 69.210958 
L 227.950369 65.359747 
L 228.255037 64.22046 
L 228.559705 67.424109 
L 228.864373 66.979306 
L 229.169042 63.488721 
L 229.47371 73.964591 
L 229.778378 72.684353 
L 230.387715 68.164179 
L 230.692383 66.205501 
L 230.997052 69.411624 
L 231.30172 65.822781 
L 231.606388 66.41038 
L 231.911057 66.105093 
L 232.215725 70.380103 
L 232.825061 64.46977 
L 233.12973 67.457821 
L 233.434398 68.073315 
L 233.739066 66.962627 
L 234.043735 68.799073 
L 234.348403 68.987833 
L 234.653071 63.874332 
L 234.95774 70.038364 
L 235.262408 62.216486 
L 235.567076 66.645188 
L 236.176413 63.375438 
L 236.481081 68.263206 
L 236.785749 70.67512 
L 237.090418 66.972201 
L 237.395086 66.706981 
L 237.699754 60.716801 
L 238.004423 65.258931 
L 238.309091 59.77656 
L 239.527764 65.569102 
L 239.832432 65.073689 
L 240.137101 67.802177 
L 240.441769 62.226489 
L 240.746437 66.694431 
L 241.051106 66.578871 
L 241.660442 63.998705 
L 241.965111 68.55625 
L 242.269779 64.472202 
L 242.574447 68.785 
L 242.879115 62.495537 
L 243.183784 65.103261 
L 243.79312 68.257831 
L 244.097789 63.74874 
L 244.402457 62.676121 
L 244.707125 66.792176 
L 245.011794 62.382934 
L 245.316462 70.471385 
L 245.62113 65.534772 
L 245.925799 66.620149 
L 246.230467 64.134833 
L 246.535135 68.243582 
L 247.44914 63.34898 
L 247.753808 64.480826 
L 248.058477 62.194975 
L 248.667813 65.162213 
L 249.27715 61.24556 
L 249.581818 63.035775 
L 249.886486 62.273683 
L 250.191155 65.305055 
L 250.495823 67.205162 
L 250.800491 66.757044 
L 251.10516 69.537833 
L 251.409828 64.598887 
L 251.714496 69.557962 
L 252.019165 63.448754 
L 252.323833 61.864766 
L 252.93317 66.794579 
L 253.237838 65.547684 
L 253.847174 58.638826 
L 254.151843 62.557021 
L 254.456511 64.315752 
L 254.761179 65.085441 
L 255.065848 64.515702 
L 255.370516 61.765002 
L 255.675184 69.035591 
L 255.979853 62.53989 
L 256.284521 60.183641 
L 256.589189 63.294051 
L 256.893857 62.79162 
L 257.198526 62.957349 
L 257.503194 67.334771 
L 257.807862 65.729152 
L 258.112531 66.196432 
L 258.417199 62.004004 
L 258.721867 60.306914 
L 259.026536 67.49108 
L 259.331204 62.119831 
L 259.635872 68.569001 
L 259.940541 67.32554 
L 260.245209 64.176324 
L 260.549877 65.123844 
L 260.854545 63.389291 
L 261.159214 63.970437 
L 261.463882 61.317832 
L 261.76855 63.583582 
L 262.073219 64.731409 
L 262.377887 61.969079 
L 262.682555 67.980335 
L 263.291892 60.914536 
L 263.59656 65.206411 
L 263.901229 65.096072 
L 264.205897 67.3695 
L 264.510565 60.18693 
L 264.815233 62.444645 
L 265.119902 58.009451 
L 265.42457 65.222525 
L 265.729238 60.371158 
L 266.033907 65.091389 
L 266.338575 60.251635 
L 266.643243 62.287056 
L 266.947912 65.081105 
L 267.25258 64.988333 
L 267.557248 64.225222 
L 267.861916 60.496546 
L 268.166585 70.679061 
L 268.471253 60.341139 
L 268.775921 63.496276 
L 269.08059 57.160011 
L 269.385258 66.161147 
L 269.689926 60.208811 
L 269.994595 61.705052 
L 270.299263 64.205855 
L 270.603931 61.755181 
L 270.9086 61.81387 
L 271.213268 61.516248 
L 271.517936 63.83337 
L 271.822604 60.900249 
L 272.127273 62.181766 
L 272.431941 66.38971 
L 272.736609 57.468073 
L 273.345946 64.225681 
L 273.650614 60.777981 
L 273.955283 49.294612 
L 274.259951 61.806347 
L 274.564619 57.923596 
L 274.869287 64.803501 
L 275.173956 60.430301 
L 275.478624 57.702495 
L 275.783292 60.322941 
L 276.087961 54.811845 
L 276.392629 58.266073 
L 276.697297 54.293958 
L 277.001966 62.672818 
L 277.611302 57.355475 
L 277.915971 65.793123 
L 278.220639 62.879521 
L 278.525307 57.123744 
L 278.829975 62.641188 
L 279.134644 56.043947 
L 279.439312 54.476469 
L 280.048649 59.904373 
L 280.353317 60.004214 
L 280.657985 59.330592 
L 280.962654 54.37203 
L 281.267322 63.071451 
L 281.57199 55.688591 
L 281.876658 57.491543 
L 282.181327 60.846847 
L 282.485995 58.74179 
L 282.790663 60.723422 
L 283.095332 66.37497 
L 283.4 61.755638 
L 283.704668 59.824613 
L 284.009337 62.093646 
L 284.618673 56.252592 
L 284.923342 61.776252 
L 285.22801 57.956182 
L 285.532678 59.904937 
L 285.837346 58.837556 
L 286.142015 53.791374 
L 286.446683 63.175016 
L 286.751351 55.193751 
L 287.05602 60.273536 
L 287.360688 62.385719 
L 287.665356 59.575898 
L 287.970025 60.292137 
L 288.274693 62.461252 
L 288.579361 61.048306 
L 288.884029 54.675144 
L 289.188698 57.061217 
L 289.493366 58.087788 
L 289.798034 64.38463 
L 290.102703 59.885677 
L 290.407371 57.436267 
L 291.016708 57.430731 
L 291.321376 56.779602 
L 291.626044 58.206669 
L 291.930713 55.433452 
L 292.235381 58.79376 
L 292.540049 59.835712 
L 292.844717 55.728149 
L 293.149386 60.873053 
L 293.454054 61.505123 
L 293.758722 61.083613 
L 294.063391 51.454464 
L 294.368059 57.925808 
L 294.672727 58.702343 
L 294.977396 57.615556 
L 295.282064 62.497171 
L 295.586732 52.584664 
L 295.8914 56.458551 
L 296.500737 60.171216 
L 296.805405 58.077848 
L 297.110074 62.824349 
L 297.414742 61.386292 
L 297.71941 58.942311 
L 298.024079 58.90565 
L 298.328747 58.626846 
L 298.633415 51.743442 
L 298.938084 54.672713 
L 299.242752 52.949315 
L 299.54742 57.17914 
L 299.852088 54.763717 
L 300.156757 57.477973 
L 300.461425 61.853674 
L 300.766093 62.858109 
L 301.070762 54.671415 
L 301.37543 57.795084 
L 301.680098 54.583373 
L 301.984767 58.941901 
L 302.289435 57.992083 
L 302.594103 58.405509 
L 302.898771 58.255745 
L 303.20344 58.93445 
L 303.508108 62.011843 
L 303.812776 63.134076 
L 304.117445 60.515101 
L 304.422113 54.844593 
L 305.03145 58.152195 
L 305.336118 55.989763 
L 305.640786 55.250372 
L 305.945455 51.937442 
L 306.554791 61.345023 
L 306.859459 56.291115 
L 307.164128 56.360009 
L 307.468796 54.073139 
L 307.773464 57.429683 
L 308.078133 55.613194 
L 308.382801 54.627319 
L 308.687469 60.036207 
L 308.992138 59.51191 
L 309.296806 49.972704 
L 309.601474 48.936534 
L 309.906143 54.072427 
L 310.210811 51.102949 
L 310.820147 65.078186 
L 311.124816 58.171003 
L 311.429484 56.124649 
L 311.734152 55.241896 
L 312.038821 55.01972 
L 312.343489 59.367389 
L 312.648157 53.455746 
L 312.952826 59.718789 
L 313.562162 52.053557 
L 313.86683 56.489179 
L 314.171499 59.235161 
L 314.476167 55.764216 
L 314.780835 54.537864 
L 315.085504 52.237538 
L 315.390172 57.835875 
L 315.69484 51.729948 
L 315.999509 55.22325 
L 316.304177 55.384119 
L 316.608845 56.947839 
L 316.913514 57.094277 
L 317.218182 56.766949 
L 317.52285 53.771363 
L 317.827518 59.55507 
L 318.132187 59.382762 
L 318.436855 55.222157 
L 319.046192 54.054604 
L 319.35086 54.611827 
L 319.655528 48.504799 
L 319.960197 58.417318 
L 320.264865 57.293894 
L 320.569533 58.046645 
L 320.874201 57.300712 
L 321.17887 54.919565 
L 321.483538 53.720647 
L 321.788206 57.458742 
L 322.092875 56.955366 
L 322.397543 59.2083 
L 322.702211 53.675449 
L 323.00688 53.280058 
L 323.311548 51.483558 
L 323.616216 59.448148 
L 324.225553 56.915295 
L 324.530221 57.079221 
L 324.834889 53.841771 
L 325.139558 58.557631 
L 325.748894 48.677768 
L 326.358231 52.264708 
L 326.662899 52.776645 
L 326.967568 48.997548 
L 327.272236 52.346668 
L 327.576904 60.350621 
L 327.881572 55.910905 
L 328.186241 58.798291 
L 328.490909 54.441784 
L 328.795577 56.137778 
L 329.100246 53.809188 
L 329.404914 53.610941 
L 329.709582 55.590699 
L 330.014251 50.330158 
L 330.318919 54.092508 
L 330.623587 52.169922 
L 330.928256 48.573373 
L 331.537592 56.8804 
L 331.84226 47.671111 
L 332.146929 62.0313 
L 332.451597 59.483582 
L 332.756265 54.57991 
L 333.67027 52.208427 
L 334.279607 56.356719 
L 334.584275 54.024982 
L 334.888943 55.447266 
L 335.193612 49.514736 
L 335.49828 57.077698 
L 335.802948 57.127343 
L 336.107617 50.904218 
L 337.021622 57.628524 
L 337.32629 54.039503 
L 337.630958 54.864798 
L 337.935627 56.383456 
L 338.544963 54.007049 
L 338.849631 53.669945 
L 339.1543 51.690673 
L 339.458968 55.166487 
L 339.763636 51.650192 
L 340.068305 58.7297 
L 340.372973 55.423123 
L 340.677641 55.809274 
L 340.98231 54.474162 
L 341.286978 47.008289 
L 341.591646 53.570762 
L 341.896314 53.896867 
L 342.200983 54.796134 
L 342.505651 54.467455 
L 342.810319 49.309704 
L 343.114988 50.190286 
L 343.419656 58.276615 
L 344.028993 47.400572 
L 344.333661 59.920973 
L 344.638329 56.080974 
L 344.942998 54.761654 
L 345.552334 46.335819 
L 345.857002 53.978464 
L 346.161671 49.996182 
L 346.466339 53.3148 
L 346.771007 54.8097 
L 347.075676 46.42986 
L 347.380344 53.883447 
L 347.685012 52.775133 
L 347.989681 53.190884 
L 348.294349 50.406249 
L 348.599017 59.866589 
L 349.208354 50.722009 
L 349.513022 57.617512 
L 349.81769 50.375505 
L 350.122359 51.707094 
L 350.427027 54.948932 
L 350.731695 54.539731 
L 351.036364 51.895555 
L 351.341032 54.070629 
L 351.6457 50.206885 
L 351.950369 52.296585 
L 352.255037 50.408825 
L 352.559705 50.818168 
L 352.864373 50.23466 
L 353.169042 53.694267 
L 353.47371 47.222717 
L 353.778378 46.818738 
L 354.083047 47.56827 
L 354.387715 49.833122 
L 354.692383 49.549536 
L 354.997052 50.351464 
L 355.30172 50.167985 
L 355.606388 56.763504 
L 355.911057 49.601401 
L 356.215725 47.832661 
L 356.520393 51.875114 
L 356.825061 48.625937 
L 357.12973 52.775337 
L 357.434398 51.437228 
L 357.739066 51.565151 
L 358.043735 54.481171 
L 358.348403 49.44441 
L 358.653071 50.960817 
L 358.95774 50.528435 
L 359.262408 52.504744 
L 359.567076 50.279397 
L 359.871744 52.114098 
L 360.481081 49.905299 
L 360.785749 45.331443 
L 361.395086 48.278867 
L 361.699754 48.757682 
L 362.004423 52.879574 
L 362.613759 50.465057 
L 362.918428 53.426536 
L 363.223096 46.872997 
L 363.527764 50.343662 
L 363.832432 51.080367 
L 364.137101 54.047114 
L 364.746437 48.323151 
L 365.051106 47.060674 
L 365.355774 52.694148 
L 365.660442 51.656834 
L 365.965111 51.546109 
L 366.269779 49.022225 
L 366.574447 49.669136 
L 366.879115 51.197686 
L 367.183784 54.033515 
L 368.097789 49.457328 
L 368.402457 54.96712 
L 369.316462 46.225311 
L 369.62113 54.18007 
L 369.925799 44.443636 
L 370.230467 55.172437 
L 370.535135 51.944796 
L 370.839803 58.539143 
L 371.144472 56.668769 
L 371.44914 50.458952 
L 371.753808 47.468339 
L 372.058477 47.887293 
L 372.363145 50.142947 
L 372.667813 48.090691 
L 372.972482 50.067157 
L 373.27715 49.492756 
L 373.581818 50.908411 
L 373.581818 50.908411 
" style="fill:none;stroke:#2ca02c;stroke-linecap:square;stroke-width:1.5;"/>
   </g>
   <g id="patch_3">
    <path d="M 54 252 
L 54 34.56 
" style="fill:none;stroke:#000000;stroke-linecap:square;stroke-linejoin:miter;stroke-width:0.8;"/>
   </g>
   <g id="patch_4">
    <path d="M 388.8 252 
L 388.8 34.56 
" style="fill:none;stroke:#000000;stroke-linecap:square;stroke-linejoin:miter;stroke-width:0.8;"/>
   </g>
   <g id="patch_5">
    <path d="M 54 252 
L 388.8 252 
" style="fill:none;stroke:#000000;stroke-linecap:square;stroke-linejoin:miter;stroke-width:0.8;"/>
   </g>
   <g id="patch_6">
    <path d="M 54 34.56 
L 388.8 34.56 
" style="fill:none;stroke:#000000;stroke-linecap:square;stroke-linejoin:miter;stroke-width:0.8;"/>
   </g>
   <g id="legend_1">
    <g id="patch_7">
     <path d="M 327.660747 247 
L 381.8 247 
Q 383.8 247 383.8 245 
L 383.8 204.188465 
Q 383.8 202.188465 381.8 202.188465 
L 327.660747 202.188465 
Q 325.660747 202.188465 325.660747 204.188465 
L 325.660747 245 
Q 325.660747 247 327.660747 247 
z
" style="fill:#ffffff;opacity:0.8;stroke:#cccccc;stroke-linejoin:miter;"/>
    </g>
    <g id="line2d_18">
     <path d="M 329.660747 209.688465 
L 349.660747 209.688465 
" style="fill:none;stroke:#1f77b4;stroke-linecap:square;stroke-width:1.5;"/>
    </g>
    <g id="line2d_19"/>
    <g id="text_15">
     <!-- e0 -->
     <defs>
      <path d="M 38.09375 23 
C 38.5 23.40625 38.5 23.609375 38.5 24.625 
C 38.5 34.96875 33.09375 44 21.703125 44 
C 11.09375 44 2.703125 33.890625 2.703125 21.609375 
C 2.703125 8.609375 12.203125 -1 22.796875 -1 
C 34 -1 38.40625 9.484375 38.40625 11.5625 
C 38.40625 12.25 37.796875 12.25 37.59375 12.25 
C 36.90625 12.25 36.796875 12.046875 36.40625 10.875 
C 34.203125 4.140625 28.703125 0.796875 23.5 0.796875 
C 19.203125 0.796875 14.90625 3.171875 12.203125 7.5 
C 9.09375 12.546875 9.09375 18.375 9.09375 23 
z
M 9.203125 24.5 
C 9.90625 39.140625 17.59375 42.40625 21.59375 42.40625 
C 28.40625 42.40625 33 35.890625 33.09375 24.5 
z
" id="CMR17-101"/>
     </defs>
     <g transform="translate(357.660747 213.188465)scale(0.1 -0.1)">
      <use transform="scale(0.996264)" xlink:href="#CMR17-101"/>
      <use transform="translate(40.48566 0)scale(0.996264)" xlink:href="#CMR17-48"/>
     </g>
    </g>
    <g id="line2d_20">
     <path d="M 329.660747 223.625643 
L 349.660747 223.625643 
" style="fill:none;stroke:#ff7f0e;stroke-linecap:square;stroke-width:1.5;"/>
    </g>
    <g id="line2d_21"/>
    <g id="text_16">
     <!-- e0.1 -->
     <defs>
      <path d="M 16.59375 4.078125 
C 16.59375 6.5625 14.59375 8.15625 12.5 8.15625 
C 10.5 8.15625 8.40625 6.5625 8.40625 4.078125 
C 8.40625 1.59375 10.40625 0 12.5 0 
C 14.5 0 16.59375 1.59375 16.59375 4.078125 
z
" id="CMR17-46"/>
     </defs>
     <g transform="translate(357.660747 227.125643)scale(0.1 -0.1)">
      <use transform="scale(0.996264)" xlink:href="#CMR17-101"/>
      <use transform="translate(40.48566 0)scale(0.996264)" xlink:href="#CMR17-48"/>
      <use transform="translate(86.176138 0)scale(0.996264)" xlink:href="#CMR17-46"/>
      <use transform="translate(111.047196 0)scale(0.996264)" xlink:href="#CMR17-49"/>
     </g>
    </g>
    <g id="line2d_22">
     <path d="M 329.660747 237.562822 
L 349.660747 237.562822 
" style="fill:none;stroke:#2ca02c;stroke-linecap:square;stroke-width:1.5;"/>
    </g>
    <g id="line2d_23"/>
    <g id="text_17">
     <!-- e0.01 -->
     <g transform="translate(357.660747 241.062822)scale(0.1 -0.1)">
      <use transform="scale(0.996264)" xlink:href="#CMR17-101"/>
      <use transform="translate(40.48566 0)scale(0.996264)" xlink:href="#CMR17-48"/>
      <use transform="translate(86.176138 0)scale(0.996264)" xlink:href="#CMR17-46"/>
      <use transform="translate(111.047196 0)scale(0.996264)" xlink:href="#CMR17-48"/>
      <use transform="translate(156.737673 0)scale(0.996264)" xlink:href="#CMR17-49"/>
     </g>
    </g>
   </g>
  </g>
 </g>
 <defs>
  <clipPath id="p80e297f1ca">
   <rect height="217.44" width="334.8" x="54" y="34.56"/>
  </clipPath>
 </defs>
</svg>
