<?xml version="1.0" encoding="utf-8" standalone="no"?>
<!DOCTYPE svg PUBLIC "-//W3C//DTD SVG 1.1//EN"
  "http://www.w3.org/Graphics/SVG/1.1/DTD/svg11.dtd">
<!-- Created with matplotlib (https://matplotlib.org/) -->
<svg height="288pt" version="1.1" viewBox="0 0 432 288" width="432pt" xmlns="http://www.w3.org/2000/svg" xmlns:xlink="http://www.w3.org/1999/xlink">
 <defs>
  <style type="text/css">
*{stroke-linecap:butt;stroke-linejoin:round;}
  </style>
 </defs>
 <g id="figure_1">
  <g id="patch_1">
   <path d="M 0 288 
L 432 288 
L 432 0 
L 0 0 
z
" style="fill:#ffffff;"/>
  </g>
  <g id="axes_1">
   <g id="patch_2">
    <path d="M 54 252 
L 388.8 252 
L 388.8 34.56 
L 54 34.56 
z
" style="fill:#ffffff;"/>
   </g>
   <g id="matplotlib.axis_1">
    <g id="xtick_1">
     <g id="line2d_1">
      <defs>
       <path d="M 0 0 
L 0 3.5 
" id="m91b9ec2331" style="stroke:#000000;stroke-width:0.8;"/>
      </defs>
      <g>
       <use style="stroke:#000000;stroke-width:0.8;" x="69.218182" xlink:href="#m91b9ec2331" y="252"/>
      </g>
     </g>
     <g id="text_1">
      <!-- $0$ -->
      <defs>
       <path d="M 42 31.640625 
C 42 37.75 41.90625 48.125 37.703125 56.109375 
C 34 63.109375 28.09375 65.59375 22.90625 65.59375 
C 18.09375 65.59375 12 63.40625 8.203125 56.203125 
C 4.203125 48.71875 3.796875 39.4375 3.796875 31.640625 
C 3.796875 25.953125 3.90625 17.28125 7 9.671875 
C 11.296875 -0.609375 19 -2 22.90625 -2 
C 27.5 -2 34.5 -0.109375 38.59375 9.375 
C 41.59375 16.28125 42 24.359375 42 31.640625 
z
M 22.90625 -0.40625 
C 16.5 -0.40625 12.703125 5.078125 11.296875 12.6875 
C 10.203125 18.5625 10.203125 27.15625 10.203125 32.75 
C 10.203125 40.4375 10.203125 46.828125 11.5 52.921875 
C 13.40625 61.390625 19 64 22.90625 64 
C 27 64 32.296875 61.296875 34.203125 53.125 
C 35.5 47.4375 35.59375 40.734375 35.59375 32.75 
C 35.59375 26.25 35.59375 18.265625 34.40625 12.375 
C 32.296875 1.484375 26.40625 -0.40625 22.90625 -0.40625 
z
" id="CMR17-48"/>
      </defs>
      <g transform="translate(66.727514 265.918498)scale(0.1 -0.1)">
       <use transform="scale(0.996264)" xlink:href="#CMR17-48"/>
      </g>
     </g>
    </g>
    <g id="xtick_2">
     <g id="line2d_2">
      <g>
       <use style="stroke:#000000;stroke-width:0.8;" x="130.151843" xlink:href="#m91b9ec2331" y="252"/>
      </g>
     </g>
     <g id="text_2">
      <!-- $200$ -->
      <defs>
       <path d="M 41.703125 15.453125 
L 39.90625 15.453125 
C 38.90625 8.375 38.09375 7.171875 37.703125 6.5625 
C 37.203125 5.765625 30 5.765625 28.59375 5.765625 
L 9.40625 5.765625 
C 13 9.671875 20 16.75 28.5 24.953125 
C 34.59375 30.734375 41.703125 37.53125 41.703125 47.421875 
C 41.703125 59.21875 32.296875 66 21.796875 66 
C 10.796875 66 4.09375 56.3125 4.09375 47.34375 
C 4.09375 43.4375 7 42.9375 8.203125 42.9375 
C 9.203125 42.9375 12.203125 43.546875 12.203125 47.03125 
C 12.203125 50.109375 9.59375 51 8.203125 51 
C 7.59375 51 7 50.90625 6.59375 50.703125 
C 8.5 59.21875 14.296875 63.40625 20.40625 63.40625 
C 29.09375 63.40625 34.796875 56.515625 34.796875 47.421875 
C 34.796875 38.734375 29.703125 31.25 24 24.75 
L 4.09375 2.28125 
L 4.09375 0 
L 39.296875 0 
z
" id="CMR17-50"/>
      </defs>
      <g transform="translate(122.67984 265.918498)scale(0.1 -0.1)">
       <use transform="scale(0.996264)" xlink:href="#CMR17-50"/>
       <use transform="translate(45.690477 0)scale(0.996264)" xlink:href="#CMR17-48"/>
       <use transform="translate(91.380954 0)scale(0.996264)" xlink:href="#CMR17-48"/>
      </g>
     </g>
    </g>
    <g id="xtick_3">
     <g id="line2d_3">
      <g>
       <use style="stroke:#000000;stroke-width:0.8;" x="191.085504" xlink:href="#m91b9ec2331" y="252"/>
      </g>
     </g>
     <g id="text_3">
      <!-- $400$ -->
      <defs>
       <path d="M 33.59375 64.40625 
C 33.59375 66.5 33.5 66.5 31.703125 66.5 
L 2 19.59375 
L 2 17 
L 27.796875 17 
L 27.796875 7.140625 
C 27.796875 3.5 27.59375 2.5 20.59375 2.5 
L 18.703125 2.5 
L 18.703125 0 
C 21.90625 0 27.296875 0 30.703125 0 
C 34.09375 0 39.5 0 42.703125 0 
L 42.703125 2.5 
L 40.796875 2.5 
C 33.796875 2.5 33.59375 3.5 33.59375 7.140625 
L 33.59375 17 
L 43.796875 17 
L 43.796875 19.59375 
L 33.59375 19.59375 
z
M 28.09375 57.859375 
L 28.09375 19.59375 
L 4 19.59375 
z
" id="CMR17-52"/>
      </defs>
      <g transform="translate(183.613501 265.918498)scale(0.1 -0.1)">
       <use transform="scale(0.996264)" xlink:href="#CMR17-52"/>
       <use transform="translate(45.690477 0)scale(0.996264)" xlink:href="#CMR17-48"/>
       <use transform="translate(91.380954 0)scale(0.996264)" xlink:href="#CMR17-48"/>
      </g>
     </g>
    </g>
    <g id="xtick_4">
     <g id="line2d_4">
      <g>
       <use style="stroke:#000000;stroke-width:0.8;" x="252.019165" xlink:href="#m91b9ec2331" y="252"/>
      </g>
     </g>
     <g id="text_4">
      <!-- $600$ -->
      <defs>
       <path d="M 10.59375 34 
C 10.59375 57.65625 21.796875 63 28.296875 63 
C 30.40625 63 35.5 62.640625 37.5 59 
C 35.90625 59 32.90625 59 32.90625 55.515625 
C 32.90625 52.828125 35.09375 51.921875 36.5 51.921875 
C 37.40625 51.921875 40.09375 52.3125 40.09375 55.625 
C 40.09375 61.78125 35.09375 65.296875 28.203125 65.296875 
C 16.296875 65.296875 3.796875 52.96875 3.796875 31 
C 3.796875 3.953125 15.09375 -2 23.09375 -2 
C 32.796875 -2 42 6.671875 42 20.046875 
C 42 32.515625 33.90625 41.59375 23.703125 41.59375 
C 17.59375 41.59375 13.09375 37.609375 10.59375 30.625 
z
M 23.09375 0.390625 
C 10.796875 0.390625 10.796875 18.75 10.796875 22.4375 
C 10.796875 29.625 14.203125 40 23.5 40 
C 25.203125 40 30.09375 40 33.40625 33.125 
C 35.203125 29.21875 35.203125 25.140625 35.203125 20.140625 
C 35.203125 14.75 35.203125 10.78125 33.09375 6.78125 
C 30.90625 2.671875 27.703125 0.390625 23.09375 0.390625 
z
" id="CMR17-54"/>
      </defs>
      <g transform="translate(244.547162 265.918498)scale(0.1 -0.1)">
       <use transform="scale(0.996264)" xlink:href="#CMR17-54"/>
       <use transform="translate(45.690477 0)scale(0.996264)" xlink:href="#CMR17-48"/>
       <use transform="translate(91.380954 0)scale(0.996264)" xlink:href="#CMR17-48"/>
      </g>
     </g>
    </g>
    <g id="xtick_5">
     <g id="line2d_5">
      <g>
       <use style="stroke:#000000;stroke-width:0.8;" x="312.952826" xlink:href="#m91b9ec2331" y="252"/>
      </g>
     </g>
     <g id="text_5">
      <!-- $800$ -->
      <defs>
       <path d="M 27.203125 35.375 
C 33.5 38.546875 39.90625 43.328125 39.90625 50.984375 
C 39.90625 60.015625 31.09375 65.296875 23 65.296875 
C 13.90625 65.296875 5.90625 58.734375 5.90625 49.6875 
C 5.90625 47.203125 6.5 42.921875 10.40625 39.140625 
C 11.40625 38.15625 15.59375 35.171875 18.296875 33.28125 
C 13.796875 30.984375 3.296875 25.53125 3.296875 14.59375 
C 3.296875 4.359375 13.09375 -2 22.796875 -2 
C 33.5 -2 42.5 5.65625 42.5 15.78125 
C 42.5 24.84375 36.40625 29.015625 32.40625 31.703125 
z
M 14.09375 44.09375 
C 13.296875 44.59375 9.296875 47.671875 9.296875 52.359375 
C 9.296875 58.421875 15.59375 63 22.796875 63 
C 30.703125 63 36.5 57.4375 36.5 50.96875 
C 36.5 41.703125 26.09375 36.421875 25.59375 36.421875 
C 25.5 36.421875 25.40625 36.421875 24.59375 37.03125 
z
M 32.5 23.734375 
C 34 22.640625 38.796875 19.375 38.796875 13.296875 
C 38.796875 5.953125 31.40625 0.390625 23 0.390625 
C 13.90625 0.390625 7 6.84375 7 14.6875 
C 7 22.546875 13.09375 29.09375 20 32.1875 
z
" id="CMR17-56"/>
      </defs>
      <g transform="translate(305.480823 265.918498)scale(0.1 -0.1)">
       <use transform="scale(0.996264)" xlink:href="#CMR17-56"/>
       <use transform="translate(45.690477 0)scale(0.996264)" xlink:href="#CMR17-48"/>
       <use transform="translate(91.380954 0)scale(0.996264)" xlink:href="#CMR17-48"/>
      </g>
     </g>
    </g>
    <g id="xtick_6">
     <g id="line2d_6">
      <g>
       <use style="stroke:#000000;stroke-width:0.8;" x="373.886486" xlink:href="#m91b9ec2331" y="252"/>
      </g>
     </g>
     <g id="text_6">
      <!-- $1000$ -->
      <defs>
       <path d="M 26.59375 63.40625 
C 26.59375 65.5 26.5 65.5 25.09375 65.5 
C 21.203125 61.1875 15.296875 59.796875 9.703125 59.796875 
C 9.40625 59.796875 8.90625 59.796875 8.796875 59.5 
C 8.703125 59.296875 8.703125 59.09375 8.703125 57 
C 11.796875 57 17 57.59375 21 59.984375 
L 21 7.203125 
C 21 3.6875 20.796875 2.5 12.203125 2.5 
L 9.203125 2.5 
L 9.203125 0 
C 14 0 19 0 23.796875 0 
C 28.59375 0 33.59375 0 38.40625 0 
L 38.40625 2.5 
L 35.40625 2.5 
C 26.796875 2.5 26.59375 3.59375 26.59375 7.15625 
z
" id="CMR17-49"/>
      </defs>
      <g transform="translate(363.923816 265.918498)scale(0.1 -0.1)">
       <use transform="scale(0.996264)" xlink:href="#CMR17-49"/>
       <use transform="translate(45.690477 0)scale(0.996264)" xlink:href="#CMR17-48"/>
       <use transform="translate(91.380954 0)scale(0.996264)" xlink:href="#CMR17-48"/>
       <use transform="translate(137.071431 0)scale(0.996264)" xlink:href="#CMR17-48"/>
      </g>
     </g>
    </g>
   </g>
   <g id="matplotlib.axis_2">
    <g id="ytick_1">
     <g id="line2d_7">
      <defs>
       <path d="M 0 0 
L -3.5 0 
" id="m68071fb6b4" style="stroke:#000000;stroke-width:0.8;"/>
      </defs>
      <g>
       <use style="stroke:#000000;stroke-width:0.8;" x="54" xlink:href="#m68071fb6b4" y="249.327467"/>
      </g>
     </g>
     <g id="text_7">
      <!-- $-0.50$ -->
      <defs>
       <path d="M 65.90625 23 
C 67.59375 23 69.40625 23 69.40625 25 
C 69.40625 27 67.59375 27 65.90625 27 
L 11.796875 27 
C 10.09375 27 8.296875 27 8.296875 25 
C 8.296875 23 10.09375 23 11.796875 23 
z
" id="CMSY10-0"/>
       <path d="M 18.40625 4.796875 
C 18.40625 7.6875 16 9.671875 13.59375 9.671875 
C 10.703125 9.671875 8.703125 7.28125 8.703125 4.890625 
C 8.703125 2 11.09375 0 13.5 0 
C 16.40625 0 18.40625 2.390625 18.40625 4.796875 
z
" id="CMMI12-58"/>
       <path d="M 11.40625 57.6875 
C 12.40625 57.28125 16.5 56 20.703125 56 
C 30 56 35.09375 61.109375 38 64.0625 
C 38 64.953125 38 65.5 37.40625 65.5 
C 37.296875 65.5 37.09375 65.5 36.296875 65.046875 
C 32.796875 63.40625 28.703125 62.078125 23.703125 62.078125 
C 20.703125 62.078125 16.203125 62.484375 11.296875 64.671875 
C 10.203125 65.171875 10 65.171875 9.90625 65.171875 
C 9.40625 65.171875 9.296875 65.0625 9.296875 63.078125 
L 9.296875 34.421875 
C 9.296875 32.640625 9.296875 32.140625 10.296875 32.140625 
C 10.796875 32.140625 11 32.34375 11.5 33.03125 
C 14.703125 37.515625 19.09375 39.40625 24.09375 39.40625 
C 27.59375 39.40625 35.09375 37.21875 35.09375 20.140625 
C 35.09375 16.953125 35.09375 11.171875 32.09375 6.578125 
C 29.59375 2.484375 25.703125 0.390625 21.40625 0.390625 
C 14.796875 0.390625 8.09375 5 6.296875 12.71875 
C 6.703125 12.609375 7.5 12.421875 7.90625 12.421875 
C 9.203125 12.421875 11.703125 13.125 11.703125 16.21875 
C 11.703125 18.90625 9.796875 20 7.90625 20 
C 5.59375 20 4.09375 18.59375 4.09375 15.796875 
C 4.09375 7.09375 11 -2 21.59375 -2 
C 31.90625 -2 41.703125 6.875 41.703125 19.75 
C 41.703125 31.71875 33.90625 41 24.203125 41 
C 19.09375 41 14.796875 39.109375 11.40625 35.53125 
z
" id="CMR17-53"/>
      </defs>
      <g transform="translate(21.539842 252.786717)scale(0.1 -0.1)">
       <use transform="scale(0.996264)" xlink:href="#CMSY10-0"/>
       <use transform="translate(77.487468 0)scale(0.996264)" xlink:href="#CMR17-48"/>
       <use transform="translate(123.177945 0)scale(0.996264)" xlink:href="#CMMI12-58"/>
       <use transform="translate(150.275122 0)scale(0.996264)" xlink:href="#CMR17-53"/>
       <use transform="translate(195.965599 0)scale(0.996264)" xlink:href="#CMR17-48"/>
      </g>
     </g>
    </g>
    <g id="ytick_2">
     <g id="line2d_8">
      <g>
       <use style="stroke:#000000;stroke-width:0.8;" x="54" xlink:href="#m68071fb6b4" y="220.564802"/>
      </g>
     </g>
     <g id="text_8">
      <!-- $-0.25$ -->
      <g transform="translate(21.539842 224.024052)scale(0.1 -0.1)">
       <use transform="scale(0.996264)" xlink:href="#CMSY10-0"/>
       <use transform="translate(77.487468 0)scale(0.996264)" xlink:href="#CMR17-48"/>
       <use transform="translate(123.177945 0)scale(0.996264)" xlink:href="#CMMI12-58"/>
       <use transform="translate(150.275122 0)scale(0.996264)" xlink:href="#CMR17-50"/>
       <use transform="translate(195.965599 0)scale(0.996264)" xlink:href="#CMR17-53"/>
      </g>
     </g>
    </g>
    <g id="ytick_3">
     <g id="line2d_9">
      <g>
       <use style="stroke:#000000;stroke-width:0.8;" x="54" xlink:href="#m68071fb6b4" y="191.802137"/>
      </g>
     </g>
     <g id="text_9">
      <!-- $0.00$ -->
      <g transform="translate(29.288586 195.261387)scale(0.1 -0.1)">
       <use transform="scale(0.996264)" xlink:href="#CMR17-48"/>
       <use transform="translate(45.690477 0)scale(0.996264)" xlink:href="#CMMI12-58"/>
       <use transform="translate(72.787654 0)scale(0.996264)" xlink:href="#CMR17-48"/>
       <use transform="translate(118.478131 0)scale(0.996264)" xlink:href="#CMR17-48"/>
      </g>
     </g>
    </g>
    <g id="ytick_4">
     <g id="line2d_10">
      <g>
       <use style="stroke:#000000;stroke-width:0.8;" x="54" xlink:href="#m68071fb6b4" y="163.039472"/>
      </g>
     </g>
     <g id="text_10">
      <!-- $0.25$ -->
      <g transform="translate(29.288586 166.498722)scale(0.1 -0.1)">
       <use transform="scale(0.996264)" xlink:href="#CMR17-48"/>
       <use transform="translate(45.690477 0)scale(0.996264)" xlink:href="#CMMI12-58"/>
       <use transform="translate(72.787654 0)scale(0.996264)" xlink:href="#CMR17-50"/>
       <use transform="translate(118.478131 0)scale(0.996264)" xlink:href="#CMR17-53"/>
      </g>
     </g>
    </g>
    <g id="ytick_5">
     <g id="line2d_11">
      <g>
       <use style="stroke:#000000;stroke-width:0.8;" x="54" xlink:href="#m68071fb6b4" y="134.276807"/>
      </g>
     </g>
     <g id="text_11">
      <!-- $0.50$ -->
      <g transform="translate(29.288586 137.736057)scale(0.1 -0.1)">
       <use transform="scale(0.996264)" xlink:href="#CMR17-48"/>
       <use transform="translate(45.690477 0)scale(0.996264)" xlink:href="#CMMI12-58"/>
       <use transform="translate(72.787654 0)scale(0.996264)" xlink:href="#CMR17-53"/>
       <use transform="translate(118.478131 0)scale(0.996264)" xlink:href="#CMR17-48"/>
      </g>
     </g>
    </g>
    <g id="ytick_6">
     <g id="line2d_12">
      <g>
       <use style="stroke:#000000;stroke-width:0.8;" x="54" xlink:href="#m68071fb6b4" y="105.514142"/>
      </g>
     </g>
     <g id="text_12">
      <!-- $0.75$ -->
      <defs>
       <path d="M 45.09375 61.578125 
L 45.09375 63.765625 
L 21.59375 63.765625 
C 9.90625 63.765625 9.703125 65.078125 9.296875 67 
L 7.5 67 
L 4.59375 48.34375 
L 6.40625 48.34375 
C 6.703125 50.234375 7.40625 55.3125 8.59375 57.203125 
C 9.203125 58 16.59375 58 18.296875 58 
L 40.296875 58 
L 29.203125 41.578125 
C 21.796875 30.53125 16.703125 15.609375 16.703125 2.578125 
C 16.703125 1.390625 16.703125 -2 20.296875 -2 
C 23.90625 -2 23.90625 1.390625 23.90625 2.671875 
L 23.90625 7.265625 
C 23.90625 23.5625 26.703125 34.3125 31.296875 41.1875 
z
" id="CMR17-55"/>
      </defs>
      <g transform="translate(29.288586 108.973392)scale(0.1 -0.1)">
       <use transform="scale(0.996264)" xlink:href="#CMR17-48"/>
       <use transform="translate(45.690477 0)scale(0.996264)" xlink:href="#CMMI12-58"/>
       <use transform="translate(72.787654 0)scale(0.996264)" xlink:href="#CMR17-55"/>
       <use transform="translate(118.478131 0)scale(0.996264)" xlink:href="#CMR17-53"/>
      </g>
     </g>
    </g>
    <g id="ytick_7">
     <g id="line2d_13">
      <g>
       <use style="stroke:#000000;stroke-width:0.8;" x="54" xlink:href="#m68071fb6b4" y="76.751477"/>
      </g>
     </g>
     <g id="text_13">
      <!-- $1.00$ -->
      <g transform="translate(29.288586 80.210727)scale(0.1 -0.1)">
       <use transform="scale(0.996264)" xlink:href="#CMR17-49"/>
       <use transform="translate(45.690477 0)scale(0.996264)" xlink:href="#CMMI12-58"/>
       <use transform="translate(72.787654 0)scale(0.996264)" xlink:href="#CMR17-48"/>
       <use transform="translate(118.478131 0)scale(0.996264)" xlink:href="#CMR17-48"/>
      </g>
     </g>
    </g>
    <g id="ytick_8">
     <g id="line2d_14">
      <g>
       <use style="stroke:#000000;stroke-width:0.8;" x="54" xlink:href="#m68071fb6b4" y="47.988812"/>
      </g>
     </g>
     <g id="text_14">
      <!-- $1.25$ -->
      <g transform="translate(29.288586 51.448062)scale(0.1 -0.1)">
       <use transform="scale(0.996264)" xlink:href="#CMR17-49"/>
       <use transform="translate(45.690477 0)scale(0.996264)" xlink:href="#CMMI12-58"/>
       <use transform="translate(72.787654 0)scale(0.996264)" xlink:href="#CMR17-50"/>
       <use transform="translate(118.478131 0)scale(0.996264)" xlink:href="#CMR17-53"/>
      </g>
     </g>
    </g>
   </g>
   <g id="line2d_15">
    <path clip-path="url(#p1ef315a60c)" d="M 69.218182 84.3503 
L 69.52285 66.206071 
L 69.827518 58.708191 
L 70.132187 59.669728 
L 70.436855 58.096448 
L 70.741523 54.565633 
L 71.046192 56.005252 
L 71.35086 50.762764 
L 71.655528 52.360192 
L 71.960197 53.334516 
L 72.264865 51.847326 
L 72.874201 53.821432 
L 73.17887 56.734507 
L 73.788206 49.48903 
L 74.397543 53.436364 
L 74.702211 54.68999 
L 75.00688 48.833052 
L 75.311548 50.11751 
L 75.616216 56.018815 
L 75.920885 52.593684 
L 76.225553 56.689169 
L 76.530221 49.83167 
L 76.834889 49.850606 
L 77.139558 53.954859 
L 77.748894 49.138804 
L 78.053563 57.499816 
L 78.358231 50.394287 
L 78.662899 53.021169 
L 79.272236 51.628004 
L 79.881572 53.124873 
L 80.186241 52.052152 
L 80.490909 49.917861 
L 80.795577 53.717115 
L 81.100246 48.83633 
L 81.404914 51.549799 
L 81.709582 47.227565 
L 82.014251 49.75893 
L 82.318919 47.536761 
L 82.623587 55.333762 
L 83.232924 52.696185 
L 83.537592 51.573161 
L 83.84226 58.825571 
L 84.146929 50.446335 
L 84.451597 48.082862 
L 84.756265 54.325414 
L 85.060934 51.664306 
L 85.365602 54.213786 
L 85.67027 48.983835 
L 85.974939 53.370433 
L 86.279607 47.648819 
L 86.584275 54.846792 
L 86.888943 49.6674 
L 87.193612 54.218575 
L 87.49828 49.772119 
L 88.107617 55.001773 
L 88.412285 51.009874 
L 88.716953 56.654173 
L 89.021622 51.494053 
L 89.32629 52.324332 
L 89.630958 53.970572 
L 89.935627 52.739329 
L 90.240295 52.105798 
L 90.544963 50.363955 
L 91.1543 48.468314 
L 91.458968 48.042962 
L 91.763636 50.406802 
L 92.068305 56.17643 
L 92.372973 50.781308 
L 92.677641 52.626129 
L 92.98231 53.502481 
L 93.286978 53.45469 
L 93.591646 53.262027 
L 94.200983 50.218472 
L 94.505651 55.864299 
L 94.810319 55.157211 
L 95.114988 56.15663 
L 95.419656 58.612125 
L 95.724324 54.792739 
L 96.028993 52.615596 
L 96.333661 54.9624 
L 96.638329 54.451773 
L 96.942998 51.592332 
L 97.247666 49.9342 
L 97.552334 48.962561 
L 97.857002 50.93556 
L 98.161671 51.344029 
L 98.466339 51.369928 
L 98.771007 51.930319 
L 99.075676 51.67125 
L 99.380344 52.584182 
L 99.685012 51.575545 
L 99.989681 56.447552 
L 100.294349 53.015802 
L 100.599017 55.197596 
L 100.903686 54.485948 
L 101.208354 54.460407 
L 101.513022 46.930734 
L 101.81769 49.849032 
L 102.122359 50.883735 
L 102.427027 49.851277 
L 102.731695 52.068398 
L 103.036364 49.537234 
L 103.341032 52.786413 
L 103.6457 50.650335 
L 103.950369 52.114556 
L 104.255037 55.809632 
L 104.559705 56.374498 
L 104.864373 52.641058 
L 105.169042 55.993118 
L 105.778378 49.790378 
L 106.083047 55.655555 
L 106.387715 57.043583 
L 106.692383 50.368269 
L 106.997052 51.267689 
L 107.30172 54.756491 
L 107.606388 54.251247 
L 108.215725 49.622922 
L 108.520393 57.212809 
L 108.825061 50.546928 
L 109.12973 50.486445 
L 109.739066 55.324278 
L 110.043735 52.986873 
L 110.348403 53.355262 
L 110.653071 45.632085 
L 110.95774 53.3215 
L 111.262408 49.525691 
L 111.567076 52.056612 
L 111.871744 50.557536 
L 112.176413 53.870069 
L 112.481081 54.677452 
L 112.785749 52.798918 
L 113.090418 53.646115 
L 113.395086 53.448737 
L 113.699754 51.861605 
L 114.004423 55.473029 
L 114.309091 51.382528 
L 114.613759 55.419866 
L 114.918428 52.083683 
L 115.223096 51.583613 
L 115.527764 48.668148 
L 115.832432 50.98704 
L 116.137101 56.309897 
L 116.441769 55.792804 
L 116.746437 52.47917 
L 117.051106 50.938219 
L 117.355774 54.515191 
L 117.660442 52.10233 
L 118.269779 51.232916 
L 118.574447 51.955422 
L 118.879115 49.94927 
L 119.183784 53.156743 
L 119.488452 49.807204 
L 120.097789 52.046219 
L 120.402457 49.027609 
L 120.707125 52.41853 
L 121.011794 50.737384 
L 121.316462 54.697646 
L 121.925799 51.074551 
L 122.230467 50.839723 
L 122.535135 53.237841 
L 122.839803 51.902209 
L 123.144472 52.563875 
L 123.44914 54.270612 
L 123.753808 49.102879 
L 124.363145 51.438249 
L 124.667813 51.276314 
L 124.972482 55.462452 
L 125.27715 48.759417 
L 125.581818 53.207267 
L 125.886486 50.5543 
L 126.191155 51.018022 
L 126.495823 52.621129 
L 126.800491 47.287826 
L 127.10516 53.556799 
L 127.409828 50.953766 
L 127.714496 50.97274 
L 128.019165 53.803622 
L 128.323833 51.165817 
L 128.628501 50.459995 
L 128.93317 48.982726 
L 129.237838 54.009666 
L 129.847174 51.766516 
L 130.151843 51.940221 
L 130.761179 53.988269 
L 131.065848 56.206712 
L 131.370516 50.409814 
L 131.675184 51.161851 
L 131.979853 51.064952 
L 132.284521 47.124834 
L 132.589189 56.987777 
L 132.893857 48.709654 
L 133.198526 52.731913 
L 133.503194 54.676416 
L 133.807862 52.899578 
L 134.112531 50.441334 
L 134.417199 53.838493 
L 134.721867 53.637484 
L 135.026536 54.256607 
L 135.331204 47.433739 
L 135.635872 47.793823 
L 135.940541 50.344963 
L 136.245209 58.854645 
L 136.854545 51.606225 
L 137.159214 51.788923 
L 137.463882 50.908089 
L 137.76855 52.807388 
L 138.073219 49.248557 
L 138.377887 49.915506 
L 138.682555 48.649665 
L 138.987224 49.228273 
L 139.291892 55.717135 
L 139.59656 51.945143 
L 139.901229 54.599971 
L 140.205897 53.121143 
L 140.510565 55.510351 
L 140.815233 50.766559 
L 141.119902 49.961671 
L 141.42457 52.238171 
L 141.729238 55.93326 
L 142.033907 51.952657 
L 142.338575 54.628308 
L 142.643243 53.224442 
L 142.947912 51.105909 
L 143.25258 50.915197 
L 143.557248 53.613178 
L 143.861916 57.704611 
L 144.166585 48.900734 
L 144.471253 57.555555 
L 144.775921 53.108381 
L 145.08059 53.195913 
L 145.385258 56.649236 
L 145.689926 51.028582 
L 145.994595 55.060019 
L 146.299263 53.582883 
L 146.603931 48.584661 
L 146.9086 55.390916 
L 147.213268 47.634112 
L 147.517936 53.998285 
L 148.127273 49.623388 
L 148.431941 51.668971 
L 148.736609 52.35291 
L 149.041278 54.47462 
L 149.345946 51.447247 
L 149.650614 52.172695 
L 149.955283 52.339258 
L 150.259951 54.631544 
L 150.564619 50.287456 
L 151.173956 54.634916 
L 151.478624 53.638985 
L 152.392629 48.464478 
L 152.697297 57.810005 
L 153.001966 51.745116 
L 153.306634 51.464727 
L 153.611302 50.875964 
L 153.915971 55.353956 
L 154.220639 53.012646 
L 154.525307 53.861716 
L 154.829975 47.890201 
L 155.134644 50.819207 
L 155.439312 52.532517 
L 155.74398 51.714619 
L 156.048649 54.235776 
L 156.353317 47.922578 
L 156.657985 54.264904 
L 156.962654 51.803421 
L 157.57199 50.507346 
L 157.876658 53.053319 
L 158.181327 49.409005 
L 158.485995 51.391284 
L 158.790663 55.619566 
L 159.4 53.997885 
L 159.704668 50.115167 
L 160.009337 51.823862 
L 160.314005 51.280984 
L 160.618673 52.691708 
L 160.923342 51.386663 
L 161.22801 56.309062 
L 161.532678 50.581491 
L 161.837346 49.837069 
L 162.446683 47.433181 
L 162.751351 50.63069 
L 163.05602 49.910175 
L 163.360688 54.628118 
L 163.665356 52.094239 
L 163.970025 52.092572 
L 164.274693 56.718956 
L 164.579361 55.769724 
L 164.884029 52.516534 
L 165.188698 53.234548 
L 165.493366 48.985074 
L 165.798034 54.189821 
L 166.102703 51.426555 
L 166.407371 53.380195 
L 166.712039 53.16694 
L 167.016708 53.540101 
L 167.321376 50.223046 
L 167.626044 50.801466 
L 167.930713 53.860058 
L 168.235381 51.773907 
L 168.540049 53.048414 
L 168.844717 51.098309 
L 169.149386 52.212827 
L 169.454054 52.23046 
L 170.063391 55.022102 
L 170.368059 53.730118 
L 170.672727 51.651222 
L 170.977396 51.492343 
L 171.282064 57.467711 
L 171.586732 50.498018 
L 171.8914 49.670499 
L 172.196069 54.464281 
L 172.500737 53.476542 
L 172.805405 50.376595 
L 173.110074 51.889802 
L 173.414742 57.064017 
L 174.024079 55.831667 
L 174.328747 51.983668 
L 174.633415 51.974483 
L 174.938084 53.167772 
L 175.242752 55.0838 
L 175.54742 49.766268 
L 175.852088 51.817153 
L 176.156757 48.862266 
L 176.461425 52.627593 
L 176.766093 48.388956 
L 177.070762 49.305478 
L 177.37543 49.735176 
L 177.680098 57.865019 
L 177.984767 48.761054 
L 178.594103 54.573703 
L 178.898771 56.023274 
L 179.20344 55.42332 
L 179.508108 51.591156 
L 180.117445 56.565354 
L 180.422113 52.383537 
L 180.726781 53.072479 
L 181.03145 52.539185 
L 181.336118 49.969169 
L 181.640786 49.453039 
L 182.250123 55.587204 
L 182.554791 52.917831 
L 182.859459 54.741834 
L 183.164128 50.390194 
L 183.468796 52.989832 
L 183.773464 51.581005 
L 184.078133 55.158293 
L 184.687469 52.737581 
L 184.992138 52.917099 
L 185.296806 54.303183 
L 185.601474 52.570409 
L 185.906143 54.220089 
L 186.515479 49.294769 
L 186.820147 48.772519 
L 187.124816 49.132791 
L 187.429484 48.437023 
L 187.734152 52.50908 
L 188.038821 50.323978 
L 188.343489 51.900925 
L 188.648157 54.600078 
L 188.952826 53.357614 
L 189.257494 53.62735 
L 189.562162 50.241282 
L 190.171499 51.28078 
L 190.476167 55.917064 
L 190.780835 50.782628 
L 191.085504 50.530957 
L 191.390172 51.602268 
L 191.69484 51.037754 
L 191.999509 57.972097 
L 192.304177 51.373776 
L 192.608845 50.571787 
L 192.913514 53.357426 
L 193.218182 50.355724 
L 193.52285 52.95798 
L 193.827518 48.735551 
L 194.132187 54.449642 
L 194.436855 56.523268 
L 194.741523 50.164223 
L 195.046192 50.946463 
L 195.35086 53.882335 
L 195.655528 51.956509 
L 195.960197 52.418558 
L 196.264865 51.882673 
L 196.569533 46.872083 
L 196.874201 59.005788 
L 197.17887 50.009752 
L 197.788206 53.75443 
L 198.092875 51.561113 
L 198.397543 54.485317 
L 198.702211 54.364704 
L 199.00688 53.386715 
L 199.311548 49.959881 
L 199.616216 54.625561 
L 199.920885 55.083097 
L 200.225553 54.553253 
L 200.530221 51.86271 
L 200.834889 51.283003 
L 201.444226 53.478989 
L 201.748894 47.245972 
L 202.053563 53.119647 
L 202.358231 55.157739 
L 202.662899 52.625929 
L 202.967568 51.953975 
L 203.272236 54.325254 
L 203.576904 48.991723 
L 203.881572 51.420767 
L 204.186241 52.644876 
L 204.490909 52.422148 
L 204.795577 53.050925 
L 205.100246 55.142757 
L 205.404914 52.127928 
L 205.709582 54.127511 
L 206.014251 52.722426 
L 206.318919 55.281105 
L 206.623587 52.188181 
L 206.928256 51.870504 
L 207.232924 53.585277 
L 207.537592 50.17484 
L 207.84226 49.333811 
L 208.146929 55.634243 
L 208.451597 47.350228 
L 208.756265 54.804724 
L 209.060934 51.70004 
L 209.365602 56.564122 
L 209.67027 53.834453 
L 209.974939 54.901704 
L 210.279607 48.731946 
L 210.584275 56.429679 
L 211.193612 52.772316 
L 211.49828 53.336148 
L 211.802948 53.006385 
L 212.107617 44.443636 
L 212.412285 53.966429 
L 212.716953 51.5557 
L 213.021622 54.247193 
L 213.32629 55.642595 
L 213.630958 52.964481 
L 213.935627 48.530773 
L 214.240295 51.586338 
L 214.544963 51.615348 
L 214.849631 46.199231 
L 215.1543 55.894706 
L 215.458968 51.646553 
L 215.763636 55.979886 
L 216.068305 50.659677 
L 216.372973 51.325652 
L 216.677641 58.086047 
L 216.98231 51.139234 
L 217.286978 53.04489 
L 217.591646 48.215083 
L 217.896314 53.033783 
L 218.200983 48.041116 
L 218.505651 45.720386 
L 218.810319 54.935737 
L 219.114988 54.983806 
L 219.419656 49.056583 
L 219.724324 52.715074 
L 220.028993 50.132058 
L 220.333661 52.128442 
L 220.638329 48.928932 
L 220.942998 50.786696 
L 221.247666 50.494075 
L 221.552334 49.587566 
L 221.857002 50.855877 
L 222.161671 50.221146 
L 222.466339 52.087917 
L 222.771007 51.877046 
L 223.075676 50.208072 
L 223.380344 55.340619 
L 223.989681 49.1594 
L 224.294349 52.665286 
L 224.599017 48.835703 
L 224.903686 54.417405 
L 225.208354 50.565504 
L 225.81769 55.475383 
L 226.122359 53.848042 
L 226.427027 48.748864 
L 226.731695 55.062009 
L 227.036364 57.938868 
L 227.341032 53.534904 
L 227.6457 46.110808 
L 227.950369 55.00094 
L 228.255037 54.996883 
L 228.864373 55.519905 
L 229.169042 53.421867 
L 229.47371 49.833863 
L 229.778378 55.936119 
L 230.387715 51.362109 
L 230.692383 47.713141 
L 231.30172 53.569289 
L 231.911057 48.693932 
L 232.215725 48.983543 
L 232.520393 54.283951 
L 232.825061 50.488957 
L 233.12973 50.678276 
L 233.434398 49.7228 
L 233.739066 53.876491 
L 234.043735 51.646405 
L 234.348403 48.389805 
L 234.653071 58.785492 
L 234.95774 49.221183 
L 235.567076 53.641833 
L 235.871744 53.89634 
L 236.176413 48.876349 
L 236.481081 49.245593 
L 236.785749 54.204017 
L 237.090418 56.179444 
L 237.395086 56.260175 
L 237.699754 56.979141 
L 238.309091 54.639758 
L 238.613759 58.966941 
L 238.918428 49.818467 
L 239.223096 50.139563 
L 239.527764 52.761405 
L 239.832432 51.55199 
L 240.137101 52.932264 
L 240.746437 48.322363 
L 241.051106 51.874349 
L 241.355774 51.554511 
L 241.660442 55.289015 
L 241.965111 51.150943 
L 242.269779 50.016802 
L 242.574447 49.318246 
L 242.879115 51.816837 
L 243.183784 53.232833 
L 243.488452 51.852811 
L 243.79312 58.472322 
L 244.097789 51.1192 
L 244.402457 47.251447 
L 244.707125 51.895642 
L 245.011794 54.6209 
L 245.316462 52.018723 
L 245.62113 52.624318 
L 245.925799 52.917168 
L 246.535135 48.636753 
L 246.839803 52.683511 
L 247.144472 48.74641 
L 247.44914 50.028683 
L 247.753808 48.370888 
L 248.058477 55.446696 
L 248.363145 48.853087 
L 248.667813 56.31019 
L 248.972482 56.605663 
L 249.27715 54.654307 
L 249.581818 50.501645 
L 249.886486 50.505753 
L 250.191155 51.339167 
L 250.495823 50.557494 
L 250.800491 51.941251 
L 251.10516 55.529418 
L 251.409828 49.835242 
L 251.714496 55.032315 
L 252.019165 54.227481 
L 252.323833 48.989613 
L 253.237838 55.948402 
L 253.542506 49.829012 
L 253.847174 54.018549 
L 254.151843 50.667469 
L 254.456511 48.866155 
L 254.761179 51.301502 
L 255.065848 51.88382 
L 255.370516 48.515919 
L 255.675184 54.262484 
L 255.979853 57.376533 
L 256.284521 50.31359 
L 256.893857 54.770082 
L 257.198526 53.298399 
L 257.503194 50.683072 
L 257.807862 54.589229 
L 258.112531 56.429007 
L 258.417199 51.050726 
L 258.721867 52.761159 
L 259.026536 53.324314 
L 259.331204 54.240204 
L 259.635872 49.089443 
L 259.940541 53.162496 
L 260.245209 54.340404 
L 260.549877 52.970478 
L 260.854545 54.898494 
L 261.159214 52.161941 
L 261.463882 51.948126 
L 261.76855 52.712142 
L 262.073219 56.61564 
L 262.377887 52.807138 
L 262.682555 50.727611 
L 262.987224 54.995691 
L 263.291892 51.011346 
L 263.901229 54.096067 
L 264.205897 52.830729 
L 264.510565 47.961038 
L 264.815233 58.356552 
L 265.119902 51.15742 
L 265.42457 52.386328 
L 265.729238 58.154135 
L 266.033907 55.693921 
L 266.338575 48.575138 
L 266.643243 50.314115 
L 266.947912 53.682279 
L 267.25258 53.984184 
L 267.557248 51.993808 
L 267.861916 51.77543 
L 268.166585 47.648978 
L 268.471253 56.605357 
L 268.775921 55.808187 
L 269.08059 50.496175 
L 269.385258 49.28732 
L 269.689926 48.628946 
L 269.994595 50.783 
L 270.299263 51.90823 
L 270.603931 56.016468 
L 270.9086 54.821162 
L 271.213268 51.951451 
L 271.517936 53.971 
L 271.822604 52.468499 
L 272.127273 53.130297 
L 272.431941 47.795128 
L 272.736609 52.931433 
L 273.041278 49.713497 
L 273.345946 51.894253 
L 273.650614 50.831393 
L 273.955283 48.260866 
L 274.259951 53.379267 
L 274.564619 53.547473 
L 274.869287 51.32145 
L 275.173956 51.639253 
L 275.478624 54.05301 
L 275.783292 50.767578 
L 276.087961 53.375783 
L 276.392629 51.496944 
L 276.697297 47.337602 
L 277.001966 47.916573 
L 277.306634 55.956377 
L 277.611302 55.83108 
L 277.915971 54.232967 
L 278.220639 56.26665 
L 278.525307 53.119046 
L 278.829975 55.175541 
L 279.134644 48.049355 
L 279.439312 48.361601 
L 279.74398 55.648252 
L 280.048649 49.567343 
L 280.353317 52.207235 
L 280.657985 53.104311 
L 280.962654 56.041173 
L 281.267322 56.108057 
L 281.57199 54.481828 
L 281.876658 54.095984 
L 282.181327 52.007038 
L 282.790663 52.037404 
L 283.095332 53.223157 
L 283.4 50.966009 
L 283.704668 54.240636 
L 284.009337 50.253189 
L 284.314005 58.996204 
L 284.618673 50.154098 
L 284.923342 52.297802 
L 285.22801 49.846981 
L 285.532678 53.444634 
L 285.837346 53.840324 
L 286.142015 48.815599 
L 286.446683 54.358867 
L 286.751351 50.154434 
L 287.05602 55.295285 
L 287.360688 48.206269 
L 287.665356 53.903029 
L 288.274693 53.922581 
L 288.579361 50.604596 
L 288.884029 51.330754 
L 289.188698 53.159732 
L 289.493366 50.546804 
L 289.798034 55.972666 
L 290.102703 50.054466 
L 290.407371 52.521551 
L 290.712039 52.170906 
L 291.016708 52.22962 
L 291.321376 48.358451 
L 291.626044 57.122043 
L 291.930713 56.746478 
L 292.235381 55.442092 
L 292.540049 55.417913 
L 292.844717 51.690253 
L 293.149386 50.665837 
L 293.454054 51.246098 
L 293.758722 52.855847 
L 294.063391 53.014656 
L 294.368059 49.641401 
L 294.672727 52.681918 
L 294.977396 51.144446 
L 295.282064 52.911991 
L 295.586732 56.226944 
L 295.8914 52.024976 
L 296.196069 54.103389 
L 296.500737 54.859339 
L 296.805405 52.352931 
L 297.110074 51.154346 
L 297.414742 52.625751 
L 297.71941 55.022169 
L 298.024079 49.640672 
L 298.328747 56.295493 
L 298.633415 53.62013 
L 298.938084 52.567215 
L 299.242752 47.987907 
L 299.54742 56.157942 
L 299.852088 55.88955 
L 300.156757 52.158935 
L 300.461425 56.116888 
L 300.766093 51.776449 
L 301.070762 51.644402 
L 301.37543 53.567973 
L 301.680098 54.193311 
L 301.984767 49.908808 
L 302.289435 49.703112 
L 302.594103 57.545866 
L 302.898771 52.568882 
L 303.20344 51.865924 
L 303.508108 56.582581 
L 303.812776 53.037878 
L 304.117445 55.393656 
L 304.726781 49.82459 
L 305.03145 54.962628 
L 305.336118 55.163592 
L 305.640786 50.092775 
L 305.945455 54.008212 
L 306.250123 48.514906 
L 306.554791 49.972172 
L 306.859459 54.056978 
L 307.164128 51.344309 
L 307.468796 52.066348 
L 307.773464 52.226611 
L 308.078133 54.595979 
L 308.382801 53.301207 
L 308.687469 53.190958 
L 308.992138 50.773838 
L 309.296806 50.11198 
L 309.601474 53.058663 
L 309.906143 53.786368 
L 310.210811 60.308374 
L 310.515479 54.506511 
L 310.820147 51.808546 
L 311.124816 55.318918 
L 311.429484 53.572702 
L 311.734152 50.360111 
L 312.038821 52.615551 
L 312.343489 53.613488 
L 312.648157 51.039206 
L 312.952826 52.508403 
L 313.257494 51.582638 
L 313.562162 52.703273 
L 313.86683 51.71265 
L 314.171499 48.466087 
L 314.476167 49.173169 
L 314.780835 54.333642 
L 315.085504 50.198684 
L 315.390172 55.512291 
L 315.69484 56.504131 
L 316.304177 51.209542 
L 316.608845 52.359839 
L 316.913514 56.060196 
L 317.218182 49.473424 
L 317.52285 53.248604 
L 317.827518 55.506479 
L 318.132187 55.834742 
L 318.436855 50.839841 
L 318.741523 54.514763 
L 319.046192 52.65409 
L 319.35086 54.333044 
L 319.655528 53.281637 
L 319.960197 49.185372 
L 320.264865 53.713176 
L 320.569533 52.869644 
L 320.874201 55.332071 
L 321.17887 53.794279 
L 321.483538 53.611782 
L 321.788206 55.162091 
L 322.092875 52.022518 
L 322.397543 47.415134 
L 322.702211 53.401739 
L 323.00688 52.608124 
L 323.311548 50.563941 
L 323.616216 51.102862 
L 323.920885 54.402606 
L 324.225553 51.354062 
L 324.530221 53.218937 
L 324.834889 49.315299 
L 325.139558 51.79893 
L 325.748894 47.557422 
L 326.053563 53.908813 
L 326.358231 52.324508 
L 326.662899 55.932207 
L 326.967568 56.304125 
L 327.272236 51.271784 
L 327.576904 49.842159 
L 327.881572 49.404332 
L 328.490909 53.564091 
L 328.795577 49.756551 
L 329.100246 52.114201 
L 329.404914 52.133785 
L 329.709582 53.082191 
L 330.014251 55.473912 
L 330.318919 54.99057 
L 330.623587 51.964946 
L 330.928256 50.83889 
L 331.232924 52.236088 
L 331.537592 45.858977 
L 331.84226 52.150913 
L 332.146929 53.298399 
L 332.756265 49.156223 
L 333.365602 54.991271 
L 333.974939 50.799242 
L 334.279607 47.161219 
L 334.584275 53.732481 
L 334.888943 52.880575 
L 335.193612 53.271981 
L 335.49828 51.30694 
L 335.802948 51.659939 
L 336.107617 47.242578 
L 336.412285 57.013535 
L 336.716953 54.621431 
L 337.021622 49.871595 
L 337.32629 53.967577 
L 337.630958 53.072157 
L 337.935627 50.454417 
L 338.240295 53.032315 
L 338.544963 56.804647 
L 338.849631 51.606752 
L 339.1543 50.595218 
L 339.458968 47.759751 
L 339.763636 48.817436 
L 340.068305 54.639813 
L 340.677641 55.771555 
L 340.98231 55.762285 
L 341.286978 51.401637 
L 341.591646 51.310177 
L 341.896314 52.858477 
L 342.200983 52.601955 
L 342.505651 49.862188 
L 342.810319 54.144327 
L 343.114988 50.100369 
L 343.419656 48.477413 
L 343.724324 56.06268 
L 344.028993 50.625097 
L 344.333661 50.349968 
L 344.638329 55.294408 
L 344.942998 52.183304 
L 345.247666 55.946506 
L 345.552334 47.743589 
L 345.857002 54.829501 
L 346.161671 51.88663 
L 346.466339 54.859221 
L 346.771007 52.184016 
L 347.075676 52.971681 
L 347.380344 46.322025 
L 347.989681 53.097354 
L 348.294349 49.357325 
L 348.599017 53.517895 
L 348.903686 53.08347 
L 349.208354 52.303824 
L 349.513022 51.111782 
L 349.81769 52.608814 
L 350.122359 49.450424 
L 350.427027 54.109477 
L 350.731695 55.536174 
L 351.036364 47.201215 
L 351.341032 51.92003 
L 351.6457 49.399689 
L 351.950369 58.661122 
L 352.255037 48.761615 
L 352.559705 54.175296 
L 352.864373 51.067977 
L 353.169042 51.560754 
L 353.47371 52.462042 
L 353.778378 52.766875 
L 354.083047 56.329768 
L 354.387715 49.219758 
L 354.692383 57.112406 
L 354.997052 48.988355 
L 355.30172 56.915738 
L 355.606388 58.986572 
L 355.911057 58.639372 
L 356.215725 47.911533 
L 356.520393 51.406648 
L 356.825061 47.983091 
L 357.12973 53.735263 
L 357.434398 52.287806 
L 357.739066 52.161996 
L 358.043735 51.880139 
L 358.348403 49.815531 
L 358.653071 52.498813 
L 358.95774 49.765464 
L 359.262408 48.264982 
L 359.567076 50.261461 
L 359.871744 51.04682 
L 360.176413 52.685979 
L 360.481081 52.949504 
L 360.785749 50.17699 
L 361.090418 49.663598 
L 361.395086 50.633889 
L 361.699754 50.040041 
L 362.004423 48.965605 
L 362.309091 55.590143 
L 362.918428 52.699643 
L 363.223096 53.038435 
L 363.527764 54.915622 
L 363.832432 52.461217 
L 364.137101 53.378753 
L 364.441769 51.415301 
L 364.746437 55.569605 
L 365.051106 54.017946 
L 365.355774 49.529252 
L 365.660442 54.361002 
L 365.965111 55.770502 
L 366.269779 56.071214 
L 366.879115 48.146167 
L 367.183784 55.731537 
L 367.488452 48.96424 
L 367.79312 51.37606 
L 368.097789 54.684681 
L 368.707125 53.944607 
L 369.011794 47.601648 
L 369.316462 52.987458 
L 369.62113 56.137558 
L 369.925799 53.620341 
L 370.230467 47.450563 
L 370.839803 50.97782 
L 371.144472 50.528975 
L 371.44914 53.628623 
L 371.753808 49.635429 
L 372.058477 54.519945 
L 372.363145 49.964102 
L 372.667813 48.208628 
L 372.972482 48.269367 
L 373.27715 46.009635 
L 373.581818 57.563068 
L 373.581818 57.563068 
" style="fill:none;stroke:#1f77b4;stroke-linecap:square;stroke-width:1.5;"/>
   </g>
   <g id="line2d_16">
    <path clip-path="url(#p1ef315a60c)" d="M 69.218182 177.161624 
L 69.52285 156.92241 
L 70.132187 136.955348 
L 70.436855 131.868456 
L 70.741523 130.713473 
L 71.046192 126.5693 
L 71.35086 125.172156 
L 71.655528 121.626457 
L 71.960197 119.444498 
L 72.264865 112.335937 
L 72.569533 112.078774 
L 72.874201 112.206103 
L 73.483538 107.601164 
L 73.788206 106.814322 
L 74.092875 103.719519 
L 74.397543 103.752813 
L 74.702211 106.633424 
L 75.00688 101.767868 
L 75.311548 98.745814 
L 75.616216 101.368424 
L 75.920885 97.441231 
L 76.530221 99.388105 
L 76.834889 102.482633 
L 77.139558 99.335698 
L 77.444226 98.486239 
L 77.748894 101.1062 
L 78.053563 98.850387 
L 78.358231 97.445712 
L 78.662899 92.280887 
L 78.967568 98.716335 
L 79.272236 98.930039 
L 79.576904 102.26635 
L 79.881572 98.103397 
L 80.186241 95.578786 
L 80.490909 97.52415 
L 80.795577 96.384118 
L 81.100246 94.048086 
L 81.404914 96.624018 
L 81.709582 88.355826 
L 82.318919 94.602116 
L 82.928256 89.2794 
L 83.232924 90.183607 
L 83.537592 85.655963 
L 83.84226 90.59283 
L 84.146929 91.543221 
L 84.451597 96.979838 
L 84.756265 90.940245 
L 85.060934 96.114211 
L 85.365602 89.251132 
L 85.67027 91.263116 
L 85.974939 88.203327 
L 86.279607 96.596148 
L 86.584275 91.819456 
L 86.888943 90.151018 
L 87.193612 92.307297 
L 87.49828 90.187777 
L 87.802948 94.683756 
L 88.107617 95.530707 
L 88.412285 87.837375 
L 88.716953 88.022228 
L 89.021622 89.073505 
L 89.32629 96.321388 
L 89.630958 92.175955 
L 89.935627 84.55134 
L 90.240295 89.664535 
L 90.544963 88.098081 
L 90.849631 92.506096 
L 91.1543 92.316917 
L 91.458968 87.62672 
L 91.763636 88.117855 
L 92.068305 91.500975 
L 92.372973 90.538881 
L 92.677641 87.989733 
L 92.98231 91.632152 
L 93.286978 88.96964 
L 93.591646 92.066384 
L 93.896314 90.138875 
L 94.200983 83.709036 
L 94.810319 93.528631 
L 95.114988 91.706951 
L 95.419656 85.396233 
L 95.724324 90.056197 
L 96.028993 87.174141 
L 96.638329 89.554473 
L 96.942998 90.409473 
L 97.247666 88.974675 
L 97.552334 92.38524 
L 97.857002 91.400499 
L 98.161671 88.683063 
L 98.466339 87.809256 
L 98.771007 91.152539 
L 99.380344 83.122054 
L 99.685012 82.896006 
L 99.989681 83.523218 
L 100.294349 86.630968 
L 100.599017 86.862373 
L 100.903686 81.011719 
L 101.208354 87.125914 
L 101.513022 88.759042 
L 101.81769 88.631335 
L 102.122359 84.657434 
L 102.427027 91.920428 
L 102.731695 87.786708 
L 103.036364 86.534407 
L 103.341032 90.485933 
L 103.6457 86.849181 
L 103.950369 88.789013 
L 104.255037 86.132503 
L 104.559705 87.031537 
L 104.864373 83.65073 
L 105.169042 84.687034 
L 105.47371 88.614287 
L 105.778378 85.892421 
L 106.387715 88.727963 
L 106.692383 81.120052 
L 107.30172 87.987159 
L 107.606388 81.235314 
L 107.911057 88.631866 
L 108.215725 87.782416 
L 108.520393 87.928795 
L 108.825061 81.849194 
L 109.12973 88.526141 
L 109.434398 83.415288 
L 109.739066 84.661648 
L 110.043735 81.370096 
L 110.348403 87.070427 
L 110.653071 85.944045 
L 110.95774 85.656438 
L 111.262408 81.467463 
L 111.567076 83.370815 
L 111.871744 89.037538 
L 112.176413 88.375171 
L 112.481081 87.411996 
L 112.785749 83.693091 
L 113.090418 82.368546 
L 113.395086 86.597157 
L 113.699754 83.897188 
L 114.004423 89.090188 
L 114.309091 84.344489 
L 114.613759 84.744175 
L 114.918428 80.999813 
L 115.223096 85.822784 
L 115.527764 87.795652 
L 116.137101 86.083999 
L 116.441769 88.490878 
L 116.746437 85.82529 
L 117.051106 85.538959 
L 117.355774 85.0736 
L 117.660442 82.854309 
L 117.965111 82.3274 
L 118.269779 85.947077 
L 118.574447 81.074736 
L 118.879115 84.410273 
L 119.183784 85.328058 
L 119.488452 82.987831 
L 119.79312 84.373372 
L 120.097789 86.567195 
L 120.402457 80.384433 
L 120.707125 86.385 
L 121.011794 87.960842 
L 121.316462 87.164418 
L 121.62113 82.017445 
L 122.230467 85.483515 
L 122.535135 85.545333 
L 122.839803 82.794691 
L 123.144472 83.75318 
L 123.44914 86.949454 
L 124.058477 82.554704 
L 124.363145 82.004028 
L 124.667813 86.635974 
L 124.972482 82.310404 
L 125.27715 85.420645 
L 125.581818 84.300577 
L 126.191155 86.949008 
L 126.495823 84.384846 
L 126.800491 80.452441 
L 127.409828 83.802794 
L 127.714496 81.675848 
L 128.019165 85.597276 
L 128.323833 82.859541 
L 128.628501 84.46334 
L 128.93317 80.789423 
L 129.847174 86.57339 
L 130.151843 84.237756 
L 130.456511 89.848729 
L 130.761179 81.116283 
L 131.065848 84.359774 
L 131.370516 89.99071 
L 131.675184 84.791725 
L 131.979853 81.931595 
L 132.284521 80.787565 
L 132.893857 88.624607 
L 133.198526 83.956232 
L 133.503194 77.145786 
L 133.807862 83.655892 
L 134.112531 83.389405 
L 134.417199 79.065155 
L 134.721867 84.121378 
L 135.026536 85.621097 
L 135.331204 84.456359 
L 135.635872 81.126346 
L 136.245209 86.493129 
L 136.549877 81.281198 
L 136.854545 88.496956 
L 137.159214 84.702973 
L 137.463882 87.270353 
L 137.76855 87.027902 
L 138.073219 85.569387 
L 138.377887 87.862197 
L 138.682555 84.527381 
L 138.987224 84.828417 
L 139.291892 84.081168 
L 139.59656 84.204665 
L 139.901229 86.332395 
L 140.205897 87.213901 
L 140.510565 84.805726 
L 140.815233 86.002584 
L 141.119902 88.117319 
L 141.729238 84.775095 
L 142.033907 84.816269 
L 142.643243 82.000936 
L 142.947912 85.441296 
L 143.25258 85.266404 
L 143.557248 89.320075 
L 143.861916 80.756046 
L 144.471253 87.09179 
L 144.775921 84.181892 
L 145.385258 89.788989 
L 145.689926 81.695062 
L 145.994595 82.961465 
L 146.299263 84.767895 
L 146.603931 82.397878 
L 146.9086 85.411255 
L 147.213268 81.152813 
L 147.517936 84.671283 
L 147.822604 86.107635 
L 148.736609 83.040781 
L 149.041278 88.452807 
L 149.345946 91.206786 
L 149.650614 84.353461 
L 149.955283 84.176425 
L 150.259951 79.837325 
L 150.564619 85.982985 
L 150.869287 85.340933 
L 151.173956 79.718658 
L 151.783292 84.317373 
L 152.087961 81.511022 
L 152.392629 87.014633 
L 152.697297 80.814585 
L 153.001966 83.941561 
L 153.611302 81.807862 
L 153.915971 84.991475 
L 154.220639 82.332547 
L 154.525307 82.53302 
L 154.829975 81.316125 
L 155.134644 85.669226 
L 155.439312 81.685952 
L 155.74398 83.760793 
L 156.048649 88.110855 
L 156.353317 84.668201 
L 156.657985 86.67138 
L 156.962654 81.848636 
L 157.267322 80.219442 
L 157.57199 87.015564 
L 157.876658 82.931407 
L 158.181327 85.56704 
L 158.485995 84.108986 
L 158.790663 81.338196 
L 159.095332 80.510206 
L 159.4 82.69337 
L 159.704668 81.150119 
L 160.009337 83.73058 
L 160.314005 82.270963 
L 160.618673 84.663697 
L 160.923342 78.863332 
L 161.22801 84.019023 
L 161.532678 83.146623 
L 161.837346 85.123636 
L 162.142015 84.227812 
L 162.446683 84.796846 
L 162.751351 84.584593 
L 163.360688 78.62158 
L 163.665356 80.514711 
L 163.970025 84.471513 
L 164.274693 82.55563 
L 164.579361 85.290389 
L 164.884029 86.387869 
L 165.188698 82.82462 
L 165.493366 83.159277 
L 165.798034 84.555848 
L 166.102703 86.951688 
L 166.407371 80.434181 
L 167.016708 85.166983 
L 167.321376 83.44761 
L 167.626044 82.567381 
L 167.930713 80.97224 
L 168.235381 85.569751 
L 168.540049 81.665406 
L 169.149386 85.480589 
L 169.454054 82.644048 
L 169.758722 83.623335 
L 170.063391 82.161977 
L 170.368059 84.960763 
L 170.672727 85.459864 
L 170.977396 87.094625 
L 171.282064 84.728357 
L 171.586732 78.941778 
L 172.196069 86.881506 
L 172.500737 87.197656 
L 172.805405 83.793462 
L 173.110074 86.001372 
L 173.71941 79.239313 
L 174.024079 78.996002 
L 174.633415 86.152821 
L 174.938084 82.617187 
L 175.242752 85.319953 
L 175.54742 78.347866 
L 175.852088 84.106651 
L 176.156757 84.679054 
L 176.461425 85.84328 
L 176.766093 81.946111 
L 177.070762 86.592662 
L 177.37543 87.01707 
L 177.984767 80.117973 
L 178.289435 82.04419 
L 178.594103 84.924413 
L 178.898771 81.852126 
L 179.20344 88.574117 
L 179.508108 81.92703 
L 179.812776 83.45355 
L 180.117445 85.707327 
L 180.422113 82.618387 
L 180.726781 86.511006 
L 181.03145 86.172629 
L 181.336118 84.879914 
L 181.640786 77.829026 
L 182.250123 87.326239 
L 182.554791 78.629291 
L 182.859459 84.365976 
L 183.164128 83.39431 
L 183.468796 79.350439 
L 183.773464 87.570222 
L 184.078133 86.069781 
L 184.382801 83.818392 
L 184.687469 83.624148 
L 184.992138 82.942144 
L 185.296806 84.943402 
L 185.601474 83.129551 
L 185.906143 82.29148 
L 186.515479 79.237366 
L 186.820147 75.406541 
L 187.124816 83.326023 
L 187.429484 82.696951 
L 187.734152 81.001605 
L 188.038821 80.94901 
L 188.343489 75.818805 
L 188.648157 86.79837 
L 188.952826 80.770347 
L 189.257494 79.636536 
L 189.562162 79.224581 
L 189.86683 84.443851 
L 190.171499 80.566057 
L 190.476167 84.213801 
L 190.780835 79.989936 
L 191.085504 88.388987 
L 191.390172 84.387219 
L 191.69484 83.771498 
L 191.999509 81.947158 
L 192.608845 85.948437 
L 192.913514 85.768396 
L 193.218182 81.622535 
L 193.52285 79.473783 
L 193.827518 82.467139 
L 194.132187 80.055714 
L 194.436855 82.029791 
L 194.741523 85.184068 
L 195.046192 81.627602 
L 195.35086 86.491312 
L 195.655528 78.984255 
L 195.960197 85.031856 
L 196.264865 84.291004 
L 196.569533 80.574264 
L 196.874201 79.939158 
L 197.17887 86.126678 
L 197.788206 82.26743 
L 198.397543 82.51233 
L 198.702211 86.375176 
L 199.00688 78.6996 
L 199.311548 80.925698 
L 199.616216 80.61201 
L 199.920885 78.910449 
L 200.225553 83.122429 
L 200.530221 80.991764 
L 200.834889 81.834816 
L 201.139558 80.236831 
L 202.053563 86.836847 
L 202.358231 76.631484 
L 202.662899 84.044813 
L 202.967568 84.871059 
L 203.272236 84.007044 
L 203.576904 83.530388 
L 203.881572 84.884652 
L 204.186241 86.769637 
L 204.490909 79.601414 
L 204.795577 79.524378 
L 205.100246 79.706233 
L 205.404914 83.213174 
L 205.709582 85.31068 
L 206.014251 86.441936 
L 206.318919 82.618365 
L 206.623587 84.563168 
L 206.928256 79.195175 
L 207.232924 83.723072 
L 207.537592 81.04308 
L 207.84226 85.91954 
L 208.146929 81.046171 
L 208.451597 87.535301 
L 208.756265 80.017541 
L 209.060934 85.96588 
L 209.365602 82.765215 
L 209.67027 83.235362 
L 209.974939 82.121642 
L 210.279607 82.924881 
L 210.584275 81.896626 
L 210.888943 85.132281 
L 211.193612 86.011798 
L 211.49828 79.248974 
L 211.802948 79.189051 
L 212.107617 83.032223 
L 212.412285 84.38679 
L 212.716953 79.327433 
L 213.021622 81.620771 
L 213.32629 81.522251 
L 213.630958 80.114177 
L 213.935627 83.489854 
L 214.240295 84.467273 
L 214.544963 79.693405 
L 214.849631 82.014066 
L 215.1543 86.853446 
L 215.458968 87.620939 
L 215.763636 79.491464 
L 216.068305 82.863029 
L 216.372973 75.614013 
L 216.98231 85.629665 
L 217.286978 85.5411 
L 217.591646 85.588974 
L 217.896314 84.947004 
L 218.200983 80.110386 
L 218.505651 82.175156 
L 218.810319 86.219005 
L 219.114988 84.436622 
L 219.419656 84.868301 
L 219.724324 83.483625 
L 220.028993 85.09302 
L 220.333661 83.81233 
L 220.638329 76.707377 
L 221.247666 80.718396 
L 221.552334 84.091605 
L 221.857002 85.811329 
L 222.161671 81.84777 
L 222.466339 82.896966 
L 222.771007 80.987418 
L 223.075676 86.417066 
L 223.380344 80.775891 
L 223.685012 83.57165 
L 223.989681 80.483547 
L 224.294349 81.078781 
L 224.599017 79.280391 
L 224.903686 84.741464 
L 225.208354 83.98278 
L 225.513022 84.07077 
L 225.81769 86.202613 
L 226.122359 83.665937 
L 226.427027 79.245932 
L 226.731695 86.165649 
L 227.036364 82.960662 
L 227.341032 82.323719 
L 227.6457 82.866264 
L 227.950369 84.95848 
L 228.255037 89.988693 
L 228.559705 78.065628 
L 228.864373 80.563342 
L 229.169042 80.307808 
L 229.47371 85.444217 
L 229.778378 82.062353 
L 230.083047 82.320276 
L 230.387715 80.828131 
L 230.692383 80.058864 
L 230.997052 81.882227 
L 231.30172 79.635127 
L 231.606388 81.615993 
L 231.911057 80.976287 
L 232.215725 86.925095 
L 232.520393 80.223532 
L 232.825061 81.448017 
L 233.12973 87.917409 
L 233.434398 86.734258 
L 233.739066 84.790236 
L 234.043735 84.173289 
L 234.348403 85.877251 
L 234.653071 85.985939 
L 234.95774 84.705236 
L 235.262408 84.049717 
L 235.567076 84.759146 
L 235.871744 77.098908 
L 236.176413 82.467931 
L 236.481081 81.697229 
L 236.785749 78.793528 
L 237.090418 85.049185 
L 237.395086 75.709107 
L 237.699754 84.197375 
L 238.004423 84.05452 
L 238.309091 85.289098 
L 238.613759 85.432514 
L 238.918428 82.261834 
L 239.223096 80.95298 
L 239.527764 83.781111 
L 239.832432 82.259583 
L 240.137101 84.556987 
L 240.441769 79.919292 
L 240.746437 81.279496 
L 241.051106 83.393934 
L 241.355774 80.674204 
L 241.660442 83.93649 
L 241.965111 80.244572 
L 242.269779 81.632612 
L 242.574447 79.536004 
L 242.879115 82.69562 
L 243.183784 78.30678 
L 243.488452 80.950925 
L 243.79312 78.171716 
L 244.097789 82.285703 
L 244.402457 81.54489 
L 244.707125 82.155026 
L 245.011794 78.807183 
L 245.316462 82.793624 
L 245.62113 79.397628 
L 245.925799 83.149987 
L 246.230467 82.277941 
L 246.535135 87.620146 
L 246.839803 84.003296 
L 247.144472 83.80923 
L 247.44914 80.367025 
L 247.753808 86.075667 
L 248.058477 78.546534 
L 248.363145 84.570009 
L 248.667813 82.099294 
L 248.972482 77.946897 
L 249.27715 83.885596 
L 249.581818 85.256233 
L 249.886486 83.755964 
L 250.191155 75.685946 
L 250.495823 80.926041 
L 250.800491 82.255729 
L 251.10516 80.449759 
L 251.409828 83.254759 
L 251.714496 78.325808 
L 252.019165 80.961586 
L 252.628501 83.543759 
L 252.93317 81.343254 
L 253.237838 84.787384 
L 253.542506 84.943371 
L 253.847174 79.916763 
L 254.151843 80.553189 
L 254.456511 83.67569 
L 254.761179 79.34302 
L 255.065848 82.002891 
L 255.370516 80.291023 
L 255.675184 80.896045 
L 255.979853 80.393233 
L 256.284521 82.930323 
L 256.589189 81.372022 
L 256.893857 84.292401 
L 257.198526 80.419997 
L 257.503194 86.307606 
L 257.807862 76.875607 
L 258.112531 82.708492 
L 258.417199 79.728546 
L 258.721867 81.853953 
L 259.026536 73.136201 
L 259.635872 83.872476 
L 259.940541 84.422419 
L 260.245209 84.512806 
L 260.549877 79.624494 
L 260.854545 82.104659 
L 261.159214 81.116013 
L 261.76855 83.067133 
L 262.073219 76.936449 
L 262.377887 87.542514 
L 262.682555 78.985954 
L 262.987224 81.281709 
L 263.291892 82.147046 
L 263.59656 80.082259 
L 263.901229 87.288196 
L 264.205897 80.636612 
L 264.510565 82.886973 
L 264.815233 83.329885 
L 265.119902 78.910505 
L 265.42457 82.099568 
L 265.729238 81.738448 
L 266.033907 82.279858 
L 266.338575 86.296831 
L 266.947912 77.579415 
L 267.25258 83.264074 
L 267.557248 77.888323 
L 267.861916 80.081576 
L 268.166585 89.205635 
L 268.471253 80.857879 
L 268.775921 84.629395 
L 269.08059 80.287355 
L 269.385258 81.029189 
L 269.689926 80.663417 
L 269.994595 84.265876 
L 270.299263 79.78844 
L 270.603931 84.359264 
L 270.9086 86.074703 
L 271.213268 81.539561 
L 271.517936 83.235515 
L 271.822604 83.732887 
L 272.127273 82.825993 
L 272.431941 80.340408 
L 273.041278 82.490461 
L 273.345946 78.793722 
L 273.650614 79.141561 
L 273.955283 81.159303 
L 274.259951 78.727495 
L 274.564619 84.964563 
L 275.173956 79.622038 
L 275.478624 79.93973 
L 275.783292 83.423072 
L 276.087961 78.983963 
L 276.392629 82.516432 
L 276.697297 81.185036 
L 277.001966 86.848567 
L 277.306634 79.398322 
L 277.611302 86.236377 
L 277.915971 84.680698 
L 278.525307 79.622965 
L 278.829975 84.242627 
L 279.134644 78.910236 
L 279.439312 83.226088 
L 279.74398 80.287358 
L 280.048649 88.715061 
L 280.353317 83.136107 
L 280.657985 81.586762 
L 280.962654 76.008229 
L 281.267322 80.677699 
L 281.57199 83.040244 
L 281.876658 83.17923 
L 282.181327 82.670199 
L 282.485995 86.729111 
L 282.790663 85.021336 
L 283.095332 79.010162 
L 283.4 83.884144 
L 283.704668 84.490971 
L 284.009337 81.811511 
L 284.314005 80.818886 
L 284.618673 76.322248 
L 284.923342 81.178501 
L 285.22801 89.688873 
L 285.532678 82.109907 
L 285.837346 83.214802 
L 286.142015 83.322682 
L 286.446683 77.74187 
L 286.751351 78.817921 
L 287.05602 75.412306 
L 287.360688 81.352201 
L 287.665356 80.894783 
L 287.970025 75.904103 
L 288.274693 80.117282 
L 288.579361 80.469306 
L 288.884029 87.578402 
L 289.188698 81.562924 
L 289.493366 81.339782 
L 289.798034 81.832793 
L 290.102703 83.186371 
L 290.407371 82.842085 
L 290.712039 78.573 
L 291.016708 80.440034 
L 291.321376 79.519189 
L 291.626044 76.151757 
L 291.930713 77.349948 
L 292.235381 80.907395 
L 292.540049 81.310628 
L 292.844717 79.990372 
L 293.149386 78.086477 
L 293.454054 79.701824 
L 293.758722 78.236175 
L 294.063391 82.570756 
L 294.368059 84.094437 
L 294.672727 72.417613 
L 294.977396 83.421625 
L 295.282064 81.394474 
L 295.586732 78.395889 
L 295.8914 82.343183 
L 296.196069 84.676185 
L 296.500737 83.102059 
L 296.805405 86.108961 
L 297.110074 77.071752 
L 297.71941 84.786099 
L 298.024079 79.617649 
L 298.328747 84.516068 
L 298.633415 81.59226 
L 298.938084 81.477729 
L 299.242752 84.499665 
L 299.54742 84.382151 
L 300.156757 79.768873 
L 300.461425 87.888164 
L 300.766093 78.000582 
L 301.070762 83.167317 
L 301.37543 82.916666 
L 301.680098 80.977508 
L 301.984767 87.398532 
L 302.289435 83.331555 
L 302.594103 83.371855 
L 302.898771 85.986572 
L 303.20344 83.05901 
L 303.508108 78.081144 
L 303.812776 81.025337 
L 304.117445 77.727361 
L 304.422113 82.493385 
L 304.726781 80.897569 
L 305.03145 81.600947 
L 305.336118 79.306993 
L 305.640786 80.450517 
L 305.945455 79.410794 
L 306.250123 79.914296 
L 306.554791 85.362835 
L 306.859459 77.58361 
L 307.164128 81.116287 
L 307.468796 81.561445 
L 307.773464 81.39414 
L 308.078133 73.313155 
L 308.382801 78.735537 
L 308.687469 76.812999 
L 308.992138 81.329435 
L 309.296806 77.663943 
L 309.601474 83.956025 
L 309.906143 79.589379 
L 310.210811 79.80043 
L 310.515479 80.955082 
L 310.820147 86.772677 
L 311.124816 80.029419 
L 311.429484 83.631363 
L 311.734152 81.449829 
L 312.343489 83.927609 
L 312.648157 76.532991 
L 312.952826 81.312872 
L 313.257494 75.313509 
L 313.562162 83.28985 
L 313.86683 84.162642 
L 314.171499 78.363578 
L 314.476167 83.771324 
L 314.780835 84.279873 
L 315.085504 79.788089 
L 315.390172 80.887051 
L 315.69484 83.015622 
L 315.999509 82.289996 
L 316.304177 80.554948 
L 316.608845 82.711759 
L 316.913514 80.626833 
L 317.218182 80.036654 
L 317.52285 81.148646 
L 317.827518 84.560956 
L 318.132187 84.084846 
L 318.436855 80.672241 
L 318.741523 84.873696 
L 319.046192 83.253992 
L 319.35086 79.916971 
L 319.655528 82.716637 
L 319.960197 82.533883 
L 320.264865 76.577757 
L 320.569533 83.189913 
L 320.874201 80.469087 
L 321.17887 81.128689 
L 321.483538 84.176359 
L 321.788206 83.803847 
L 322.397543 76.046221 
L 322.702211 80.364147 
L 323.00688 78.99525 
L 323.311548 81.54327 
L 323.616216 83.025465 
L 324.225553 83.376286 
L 324.530221 85.593944 
L 324.834889 80.255071 
L 325.139558 77.928054 
L 325.444226 82.146924 
L 325.748894 79.411085 
L 326.053563 78.042185 
L 326.662899 82.806282 
L 326.967568 81.436147 
L 327.272236 80.891408 
L 327.576904 86.562504 
L 327.881572 81.949053 
L 328.186241 82.928864 
L 328.490909 76.735447 
L 328.795577 82.811722 
L 329.100246 80.223917 
L 329.404914 80.411599 
L 329.709582 85.394943 
L 330.014251 79.185959 
L 330.318919 78.274269 
L 330.623587 80.849919 
L 330.928256 78.494269 
L 331.537592 85.878228 
L 331.84226 79.978214 
L 332.146929 84.744121 
L 332.756265 76.611753 
L 333.060934 83.209054 
L 333.365602 84.130255 
L 333.67027 82.023513 
L 333.974939 80.804441 
L 334.279607 85.970917 
L 334.584275 82.098218 
L 334.888943 81.812574 
L 335.193612 84.976693 
L 335.49828 81.298557 
L 335.802948 81.642169 
L 336.107617 83.927421 
L 336.412285 75.963393 
L 336.716953 81.91309 
L 337.32629 83.331568 
L 337.630958 80.859165 
L 337.935627 83.775514 
L 338.240295 78.870695 
L 338.544963 82.874684 
L 338.849631 82.131386 
L 339.458968 77.930061 
L 339.763636 81.990792 
L 340.068305 82.986988 
L 340.372973 77.435792 
L 340.677641 75.830169 
L 340.98231 81.768799 
L 341.286978 81.106017 
L 341.591646 80.84112 
L 341.896314 83.599981 
L 342.200983 84.398368 
L 342.505651 77.778188 
L 343.114988 82.81905 
L 343.419656 82.627927 
L 343.724324 85.437181 
L 344.028993 82.37348 
L 344.638329 84.185865 
L 344.942998 82.292315 
L 345.247666 79.554284 
L 345.552334 83.159921 
L 345.857002 83.771226 
L 346.161671 78.783088 
L 346.466339 80.334818 
L 346.771007 80.864483 
L 347.075676 87.100619 
L 347.380344 81.019119 
L 347.685012 80.444527 
L 347.989681 82.112035 
L 348.294349 76.668576 
L 348.599017 84.172883 
L 348.903686 77.792587 
L 349.208354 83.979548 
L 349.513022 77.060033 
L 350.122359 82.602834 
L 350.427027 80.023521 
L 350.731695 84.139545 
L 351.036364 76.241021 
L 351.341032 84.840164 
L 351.6457 83.279044 
L 351.950369 75.797272 
L 352.255037 78.67216 
L 352.559705 85.158813 
L 352.864373 84.518705 
L 353.169042 81.917119 
L 353.778378 79.987409 
L 354.083047 79.423989 
L 354.387715 79.266099 
L 354.692383 83.282487 
L 354.997052 82.169577 
L 355.30172 77.402164 
L 355.606388 82.911298 
L 355.911057 80.430148 
L 356.215725 81.227789 
L 356.520393 82.629043 
L 356.825061 81.906912 
L 357.12973 81.488152 
L 357.434398 77.737224 
L 357.739066 76.596318 
L 358.043735 81.402943 
L 358.348403 80.945837 
L 358.653071 82.104717 
L 358.95774 78.522399 
L 359.262408 82.241219 
L 359.567076 83.847864 
L 359.871744 78.76595 
L 360.176413 84.303025 
L 360.481081 79.455402 
L 360.785749 81.927867 
L 361.090418 81.94749 
L 361.395086 84.945632 
L 361.699754 81.040225 
L 362.309091 78.757058 
L 362.613759 80.820279 
L 363.223096 79.279295 
L 363.527764 81.938526 
L 363.832432 80.543482 
L 364.137101 84.606707 
L 364.441769 82.902111 
L 364.746437 77.985924 
L 365.051106 75.259633 
L 365.355774 85.726049 
L 365.660442 78.61948 
L 365.965111 82.756359 
L 366.269779 74.462944 
L 366.574447 84.059907 
L 366.879115 83.049946 
L 367.183784 81.205783 
L 367.488452 85.000058 
L 367.79312 80.7221 
L 368.097789 79.00469 
L 368.402457 81.493156 
L 368.707125 80.694452 
L 369.011794 77.192769 
L 369.316462 79.290194 
L 369.62113 75.376172 
L 369.925799 83.433236 
L 370.535135 77.276486 
L 370.839803 82.398404 
L 371.144472 78.29818 
L 371.44914 84.753426 
L 371.753808 81.696508 
L 372.058477 81.25578 
L 372.363145 82.037787 
L 372.667813 84.565481 
L 372.972482 81.636708 
L 373.27715 79.92418 
L 373.581818 84.185883 
L 373.581818 84.185883 
" style="fill:none;stroke:#ff7f0e;stroke-linecap:square;stroke-width:1.5;"/>
   </g>
   <g id="line2d_17">
    <path clip-path="url(#p1ef315a60c)" d="M 69.218182 242.116364 
L 69.827518 201.444074 
L 70.132187 193.12145 
L 71.046192 159.596115 
L 71.35086 157.15236 
L 71.655528 141.227482 
L 72.569533 116.539539 
L 73.17887 110.449078 
L 73.483538 109.545754 
L 74.092875 96.506893 
L 74.397543 93.197388 
L 74.702211 93.767905 
L 75.00688 92.914152 
L 75.311548 89.651741 
L 75.616216 83.323718 
L 75.920885 82.702955 
L 76.225553 83.159844 
L 76.530221 86.644097 
L 76.834889 84.245962 
L 77.139558 88.785453 
L 77.444226 86.029328 
L 77.748894 82.156828 
L 78.053563 83.038126 
L 78.358231 78.496725 
L 78.662899 81.679789 
L 78.967568 79.609545 
L 79.272236 79.873206 
L 79.576904 77.949764 
L 79.881572 78.181836 
L 80.186241 77.815789 
L 80.490909 75.180572 
L 80.795577 78.56874 
L 81.100246 79.871604 
L 81.404914 72.133042 
L 81.709582 80.409242 
L 82.014251 77.985705 
L 82.318919 77.236958 
L 82.623587 77.86086 
L 82.928256 77.134338 
L 83.232924 74.293603 
L 83.537592 74.939024 
L 83.84226 74.691046 
L 84.146929 77.093859 
L 84.451597 76.602942 
L 85.060934 83.008826 
L 85.365602 77.325711 
L 85.67027 79.612368 
L 85.974939 76.980663 
L 86.279607 80.486041 
L 86.584275 80.095729 
L 86.888943 76.339331 
L 87.193612 78.123044 
L 87.49828 74.112174 
L 87.802948 78.08702 
L 88.107617 78.266083 
L 88.412285 79.350516 
L 88.716953 78.700932 
L 89.021622 75.811214 
L 89.32629 81.849097 
L 89.630958 78.714552 
L 89.935627 77.797482 
L 90.240295 77.385373 
L 90.544963 73.713751 
L 90.849631 75.513574 
L 91.1543 71.377479 
L 91.458968 77.507936 
L 91.763636 74.913338 
L 92.068305 74.612392 
L 92.372973 80.393238 
L 92.677641 77.239792 
L 92.98231 71.70698 
L 93.286978 76.847337 
L 93.591646 73.445196 
L 93.896314 78.463588 
L 94.200983 77.325666 
L 94.505651 77.048069 
L 94.810319 74.567819 
L 95.114988 76.962672 
L 95.419656 71.637123 
L 95.724324 77.228889 
L 96.028993 78.766807 
L 96.333661 78.468259 
L 96.638329 74.98272 
L 96.942998 78.123978 
L 97.247666 78.238323 
L 97.552334 71.783199 
L 97.857002 79.381126 
L 98.161671 75.51387 
L 98.466339 77.715155 
L 98.771007 76.168242 
L 99.075676 73.97518 
L 99.380344 78.069316 
L 99.685012 71.574131 
L 99.989681 73.894079 
L 100.294349 71.557842 
L 100.599017 79.63741 
L 100.903686 70.436291 
L 101.208354 77.980707 
L 101.513022 75.954342 
L 101.81769 78.960864 
L 102.122359 74.561637 
L 102.427027 75.831862 
L 102.731695 78.262824 
L 103.036364 76.046228 
L 103.341032 78.243098 
L 103.950369 74.984493 
L 104.255037 78.720645 
L 104.559705 72.531974 
L 104.864373 73.569922 
L 105.169042 75.531948 
L 105.47371 73.168412 
L 105.778378 77.424659 
L 106.083047 78.242021 
L 106.387715 74.926355 
L 106.692383 74.835659 
L 106.997052 73.461787 
L 107.30172 74.375613 
L 107.606388 73.324145 
L 107.911057 80.171819 
L 108.215725 75.342783 
L 108.520393 76.174681 
L 108.825061 73.907449 
L 109.12973 73.114105 
L 109.434398 78.271439 
L 109.739066 71.322056 
L 110.348403 71.371962 
L 110.653071 74.965547 
L 110.95774 75.297596 
L 111.262408 74.754338 
L 111.567076 72.913023 
L 111.871744 73.596997 
L 112.176413 76.148439 
L 112.481081 72.898706 
L 112.785749 77.599094 
L 113.090418 71.725135 
L 113.395086 71.766184 
L 113.699754 73.21285 
L 114.004423 77.07607 
L 114.309091 74.351543 
L 114.613759 75.9029 
L 114.918428 73.752061 
L 115.223096 76.655213 
L 115.527764 71.944678 
L 115.832432 77.911301 
L 116.137101 80.133046 
L 116.746437 69.012884 
L 117.051106 74.41146 
L 117.355774 74.438376 
L 117.660442 74.756212 
L 117.965111 73.297868 
L 118.269779 74.561317 
L 118.879115 75.56898 
L 119.183784 72.070268 
L 119.488452 76.93895 
L 119.79312 67.751741 
L 120.097789 73.642986 
L 120.402457 76.64207 
L 120.707125 71.975639 
L 121.011794 75.323254 
L 121.316462 76.714633 
L 121.62113 77.018944 
L 121.925799 75.121324 
L 122.230467 75.960594 
L 122.535135 74.502916 
L 122.839803 72.339682 
L 123.144472 76.095858 
L 123.44914 72.480556 
L 123.753808 75.115662 
L 124.058477 70.075625 
L 124.363145 72.384975 
L 124.667813 69.752922 
L 124.972482 71.350928 
L 125.27715 74.220037 
L 125.581818 73.519392 
L 125.886486 70.200649 
L 126.191155 75.612891 
L 126.495823 72.562379 
L 126.800491 72.592922 
L 127.10516 73.903292 
L 127.409828 77.339905 
L 127.714496 72.34295 
L 128.019165 72.150941 
L 128.323833 73.707231 
L 128.628501 73.259115 
L 128.93317 73.57377 
L 129.542506 75.875967 
L 130.151843 73.945597 
L 130.456511 74.202371 
L 130.761179 72.554699 
L 131.065848 73.842287 
L 131.370516 75.801575 
L 131.675184 78.687933 
L 131.979853 72.541695 
L 132.284521 72.356517 
L 132.589189 70.621067 
L 132.893857 76.836939 
L 133.198526 73.049911 
L 133.503194 74.893612 
L 133.807862 70.269827 
L 134.112531 68.111577 
L 134.417199 74.013386 
L 134.721867 76.78131 
L 135.026536 70.17395 
L 135.331204 70.535883 
L 135.635872 69.879465 
L 135.940541 74.824743 
L 136.245209 75.792409 
L 136.549877 71.953488 
L 136.854545 80.079899 
L 137.159214 71.839933 
L 137.463882 68.052735 
L 137.76855 72.96248 
L 138.073219 74.33986 
L 138.377887 72.389271 
L 138.682555 73.03987 
L 138.987224 74.304732 
L 139.291892 68.826066 
L 139.59656 74.340932 
L 139.901229 70.402688 
L 140.510565 75.568429 
L 140.815233 76.970543 
L 141.119902 71.477125 
L 141.42457 73.246942 
L 141.729238 73.75858 
L 142.033907 69.584356 
L 142.338575 72.760174 
L 142.643243 72.240338 
L 142.947912 69.46994 
L 143.25258 73.606929 
L 143.557248 71.920679 
L 143.861916 72.496338 
L 144.166585 70.439383 
L 144.775921 74.844456 
L 145.08059 73.073344 
L 145.385258 68.184963 
L 145.689926 73.030008 
L 145.994595 75.802681 
L 146.299263 72.088592 
L 146.603931 74.588699 
L 146.9086 70.443359 
L 147.213268 71.190105 
L 147.517936 74.714574 
L 147.822604 70.07361 
L 148.127273 74.513635 
L 148.431941 69.768099 
L 148.736609 69.346238 
L 149.041278 74.342434 
L 149.345946 75.24901 
L 149.650614 76.94921 
L 150.259951 68.399562 
L 150.564619 69.112162 
L 150.869287 73.840733 
L 151.478624 74.504217 
L 151.783292 69.591862 
L 152.087961 72.688709 
L 152.392629 74.178231 
L 152.697297 69.156122 
L 153.001966 71.415744 
L 153.306634 77.314602 
L 153.611302 69.398923 
L 153.915971 68.022419 
L 154.220639 71.652866 
L 154.525307 71.037732 
L 154.829975 73.384101 
L 155.134644 73.567772 
L 155.439312 75.279392 
L 155.74398 74.20138 
L 156.048649 76.337214 
L 156.353317 72.894414 
L 156.657985 74.52287 
L 156.962654 71.065991 
L 157.267322 77.84469 
L 157.57199 74.186874 
L 157.876658 73.673477 
L 158.181327 70.285386 
L 158.485995 72.929306 
L 158.790663 71.47317 
L 159.095332 70.697077 
L 159.4 66.130984 
L 159.704668 73.706619 
L 160.009337 73.872054 
L 160.314005 72.860167 
L 160.618673 73.389803 
L 160.923342 75.777947 
L 161.22801 72.68382 
L 161.532678 71.304056 
L 161.837346 71.095328 
L 162.142015 75.354955 
L 162.446683 68.556039 
L 163.05602 74.393487 
L 163.360688 74.387193 
L 163.665356 69.918668 
L 163.970025 69.325685 
L 164.274693 73.605974 
L 164.579361 73.389039 
L 164.884029 77.211774 
L 165.188698 70.550451 
L 165.493366 74.869889 
L 165.798034 75.284892 
L 166.102703 68.464833 
L 166.407371 73.241948 
L 166.712039 69.406484 
L 167.016708 72.570035 
L 167.321376 69.739804 
L 167.626044 69.78242 
L 167.930713 74.453567 
L 168.235381 74.351446 
L 168.540049 71.266566 
L 169.454054 75.503112 
L 169.758722 72.302079 
L 170.063391 75.723671 
L 170.368059 68.899799 
L 170.672727 74.008617 
L 170.977396 72.147171 
L 171.282064 73.055801 
L 171.586732 66.645935 
L 171.8914 74.276917 
L 172.196069 71.469582 
L 172.500737 71.625678 
L 172.805405 72.384608 
L 173.414742 70.606499 
L 173.71941 70.493822 
L 174.024079 67.226556 
L 174.328747 72.924552 
L 174.633415 69.802552 
L 174.938084 68.799545 
L 175.242752 66.040799 
L 175.852088 73.235313 
L 176.156757 70.286772 
L 176.766093 70.634354 
L 177.070762 72.450617 
L 177.37543 67.162354 
L 177.984767 72.482667 
L 178.289435 71.339354 
L 178.594103 72.568395 
L 178.898771 66.591163 
L 179.20344 72.105419 
L 179.508108 70.862896 
L 179.812776 76.359429 
L 180.117445 69.302076 
L 180.422113 73.076576 
L 180.726781 69.808836 
L 181.03145 75.869865 
L 181.336118 67.925306 
L 181.640786 69.814738 
L 181.945455 66.369552 
L 182.250123 72.186602 
L 182.859459 74.165352 
L 183.164128 72.840503 
L 183.468796 69.553153 
L 183.773464 73.275413 
L 184.078133 74.455505 
L 184.382801 67.717759 
L 184.687469 74.661688 
L 184.992138 70.436839 
L 185.296806 68.42683 
L 185.601474 67.167023 
L 185.906143 66.571664 
L 186.515479 70.855517 
L 187.124816 69.264709 
L 187.429484 73.487797 
L 187.734152 67.584299 
L 188.038821 71.826804 
L 188.343489 70.241597 
L 188.648157 74.081882 
L 188.952826 71.600261 
L 189.257494 67.274325 
L 189.562162 71.071239 
L 189.86683 68.012633 
L 190.171499 69.375969 
L 190.476167 69.414502 
L 190.780835 71.428702 
L 191.085504 71.433044 
L 191.390172 71.825958 
L 191.999509 67.736217 
L 192.304177 69.312466 
L 192.608845 69.840714 
L 192.913514 69.897462 
L 193.218182 73.983757 
L 193.52285 73.146281 
L 193.827518 71.150341 
L 194.132187 70.426467 
L 194.741523 67.105084 
L 195.046192 71.829986 
L 195.35086 69.333037 
L 195.655528 68.518094 
L 195.960197 70.263505 
L 196.264865 69.010138 
L 196.569533 69.930272 
L 196.874201 73.625965 
L 197.17887 68.104196 
L 197.483538 71.672609 
L 197.788206 67.282912 
L 198.092875 69.56593 
L 198.397543 67.029288 
L 198.702211 67.98438 
L 199.00688 70.824616 
L 199.311548 74.920558 
L 199.920885 67.956081 
L 200.225553 67.847083 
L 200.530221 72.402928 
L 200.834889 70.841817 
L 201.139558 70.345982 
L 201.444226 68.472287 
L 201.748894 74.551075 
L 202.053563 72.580822 
L 202.358231 67.62012 
L 202.662899 73.015767 
L 202.967568 67.267827 
L 203.272236 68.689579 
L 203.576904 73.362785 
L 203.881572 68.6379 
L 204.186241 69.848668 
L 204.490909 67.850576 
L 204.795577 71.730809 
L 205.100246 67.004372 
L 205.404914 71.265466 
L 205.709582 68.26628 
L 206.014251 69.629838 
L 206.318919 72.099837 
L 206.623587 69.709051 
L 206.928256 70.718862 
L 207.232924 69.642871 
L 207.537592 74.819572 
L 207.84226 66.68658 
L 208.146929 71.28857 
L 208.451597 67.784355 
L 208.756265 69.342564 
L 209.365602 64.341318 
L 209.67027 74.391006 
L 210.279607 65.461929 
L 210.584275 69.113571 
L 210.888943 68.53591 
L 211.193612 68.967756 
L 211.49828 70.637774 
L 212.107617 70.790736 
L 212.412285 71.192581 
L 212.716953 68.445316 
L 213.021622 69.696065 
L 213.32629 73.075761 
L 213.630958 67.415204 
L 213.935627 71.272364 
L 214.240295 69.093197 
L 214.544963 71.824403 
L 214.849631 69.56648 
L 215.1543 69.471375 
L 215.458968 72.955433 
L 215.763636 64.730161 
L 216.068305 63.571726 
L 216.372973 67.907838 
L 216.677641 73.905534 
L 216.98231 70.590457 
L 217.286978 71.056274 
L 217.591646 72.194114 
L 217.896314 67.895954 
L 218.505651 69.599577 
L 218.810319 68.82224 
L 219.114988 69.564996 
L 219.419656 66.849718 
L 219.724324 67.770094 
L 220.028993 65.77387 
L 220.333661 72.507024 
L 220.638329 66.612981 
L 220.942998 65.795069 
L 221.247666 72.039973 
L 221.552334 69.392067 
L 221.857002 70.9797 
L 222.161671 69.828759 
L 222.466339 69.133486 
L 222.771007 66.930099 
L 223.075676 72.152626 
L 223.380344 72.064638 
L 223.685012 69.069857 
L 223.989681 70.173584 
L 224.294349 70.787406 
L 224.599017 70.065374 
L 224.903686 70.791954 
L 225.208354 70.198575 
L 225.513022 64.758037 
L 225.81769 69.566303 
L 226.122359 67.883394 
L 226.427027 68.283934 
L 226.731695 70.56152 
L 227.036364 65.899495 
L 227.6457 71.510007 
L 227.950369 70.720198 
L 228.559705 66.733444 
L 228.864373 67.615662 
L 229.169042 71.284775 
L 229.47371 68.20244 
L 229.778378 70.409279 
L 230.083047 68.256385 
L 230.387715 67.907051 
L 230.692383 69.132813 
L 230.997052 68.214944 
L 231.30172 73.823873 
L 231.606388 68.444086 
L 231.911057 71.117998 
L 232.215725 69.068144 
L 232.520393 62.412824 
L 232.825061 73.673263 
L 233.12973 71.787881 
L 233.434398 66.821039 
L 233.739066 69.15685 
L 234.043735 69.331329 
L 234.348403 72.931417 
L 234.653071 67.922511 
L 234.95774 71.023303 
L 235.262408 64.427862 
L 235.567076 68.17829 
L 235.871744 68.684784 
L 236.176413 67.983459 
L 236.481081 66.424461 
L 236.785749 66.833109 
L 237.090418 73.310151 
L 237.395086 66.80467 
L 237.699754 67.815215 
L 238.004423 65.470994 
L 238.309091 65.383198 
L 238.613759 61.28061 
L 238.918428 73.257949 
L 239.223096 66.53845 
L 239.527764 70.362495 
L 239.832432 69.062335 
L 240.137101 73.609571 
L 240.441769 71.193989 
L 240.746437 65.931857 
L 241.051106 70.307556 
L 241.355774 67.622879 
L 241.660442 70.100616 
L 241.965111 66.369658 
L 242.269779 71.475761 
L 242.574447 68.917579 
L 243.183784 67.179175 
L 243.488452 72.371181 
L 243.79312 70.913971 
L 244.097789 71.08339 
L 244.402457 65.054873 
L 244.707125 68.885534 
L 245.011794 69.832767 
L 245.316462 71.444342 
L 245.62113 70.257172 
L 245.925799 70.243064 
L 246.230467 64.566327 
L 246.535135 71.102081 
L 246.839803 66.653577 
L 247.144472 64.756526 
L 247.44914 71.145404 
L 247.753808 66.000218 
L 248.363145 71.083397 
L 248.667813 66.397766 
L 248.972482 67.661938 
L 249.27715 68.44356 
L 249.581818 72.865594 
L 249.886486 66.420759 
L 250.191155 69.229236 
L 250.495823 69.678774 
L 250.800491 67.003525 
L 251.10516 68.829254 
L 251.409828 66.106444 
L 251.714496 67.333299 
L 252.019165 64.633554 
L 252.323833 66.59825 
L 252.628501 65.313772 
L 252.93317 68.851052 
L 253.237838 70.156899 
L 253.542506 70.563747 
L 253.847174 65.505736 
L 254.151843 67.264924 
L 255.065848 66.821456 
L 255.370516 69.431261 
L 255.675184 61.111535 
L 255.979853 72.291881 
L 256.284521 61.40958 
L 256.589189 67.890087 
L 256.893857 68.804982 
L 257.198526 66.630961 
L 257.503194 66.837243 
L 257.807862 70.055374 
L 258.112531 64.652768 
L 258.417199 74.452027 
L 258.721867 67.018586 
L 259.026536 67.877947 
L 259.331204 68.122619 
L 259.635872 69.241266 
L 259.940541 66.92257 
L 260.245209 67.597483 
L 260.549877 64.345821 
L 260.854545 71.341978 
L 261.159214 70.662234 
L 261.463882 63.245475 
L 261.76855 70.470795 
L 262.073219 68.005558 
L 262.377887 67.504876 
L 262.682555 69.183516 
L 262.987224 68.507079 
L 263.291892 65.210205 
L 263.59656 68.482914 
L 263.901229 70.336708 
L 264.205897 66.404282 
L 264.510565 71.233325 
L 264.815233 65.344083 
L 265.119902 72.879215 
L 265.42457 71.166984 
L 265.729238 70.260006 
L 266.033907 64.82276 
L 266.338575 66.962296 
L 266.643243 68.048934 
L 266.947912 69.76192 
L 267.25258 66.736655 
L 267.557248 68.473976 
L 267.861916 64.095606 
L 268.166585 68.726728 
L 268.471253 69.051204 
L 268.775921 70.115859 
L 269.08059 63.867739 
L 269.385258 67.163482 
L 269.689926 68.491066 
L 269.994595 67.058844 
L 270.299263 66.446236 
L 270.603931 70.595785 
L 271.213268 65.705741 
L 271.517936 71.803726 
L 271.822604 67.166313 
L 272.127273 65.662995 
L 272.431941 68.22165 
L 272.736609 69.466591 
L 273.041278 63.862905 
L 273.650614 67.187354 
L 273.955283 70.944759 
L 274.259951 69.317378 
L 274.564619 64.843061 
L 274.869287 67.541767 
L 275.173956 65.336829 
L 275.783292 72.549612 
L 276.087961 64.151027 
L 276.392629 68.163913 
L 276.697297 73.854935 
L 277.001966 70.498396 
L 277.306634 70.712906 
L 277.611302 63.386293 
L 277.915971 69.821879 
L 278.525307 64.93404 
L 278.829975 74.767656 
L 279.134644 68.686595 
L 279.439312 65.417773 
L 279.74398 67.237189 
L 280.048649 63.164753 
L 280.353317 68.483593 
L 280.657985 66.253361 
L 280.962654 67.071824 
L 281.267322 67.251883 
L 281.57199 68.568651 
L 281.876658 67.346004 
L 282.181327 69.981503 
L 282.485995 63.945705 
L 282.790663 70.36534 
L 283.095332 63.424275 
L 283.4 68.174854 
L 283.704668 70.219584 
L 284.009337 65.829022 
L 284.314005 67.116588 
L 284.618673 64.740807 
L 284.923342 67.107297 
L 285.22801 67.044371 
L 285.532678 72.107993 
L 285.837346 65.782401 
L 286.142015 65.644778 
L 286.446683 66.074168 
L 286.751351 67.613218 
L 287.360688 66.691665 
L 287.665356 69.065478 
L 287.970025 62.293352 
L 288.274693 67.733573 
L 288.579361 67.80581 
L 288.884029 67.404082 
L 289.188698 67.881944 
L 289.493366 69.330472 
L 289.798034 65.262929 
L 290.102703 65.832102 
L 290.407371 65.500179 
L 290.712039 69.836458 
L 291.016708 64.243667 
L 291.321376 63.816834 
L 291.626044 72.396566 
L 291.930713 74.310991 
L 292.235381 69.815027 
L 292.844717 65.903731 
L 293.149386 69.523383 
L 293.454054 70.95723 
L 293.758722 65.240791 
L 294.063391 66.691426 
L 294.368059 65.62427 
L 294.672727 68.544881 
L 294.977396 65.644105 
L 295.282064 65.577072 
L 295.8914 72.775545 
L 296.500737 63.007029 
L 296.805405 67.789231 
L 297.110074 69.18306 
L 297.414742 68.802489 
L 297.71941 67.917511 
L 298.024079 70.003864 
L 298.328747 68.64062 
L 298.633415 66.725601 
L 298.938084 72.080055 
L 299.242752 66.889718 
L 299.54742 65.765623 
L 299.852088 67.938362 
L 300.156757 60.154184 
L 300.461425 65.246715 
L 300.766093 68.339541 
L 301.070762 63.639483 
L 301.37543 68.00499 
L 301.680098 64.759545 
L 301.984767 67.862079 
L 302.289435 65.402249 
L 302.594103 65.325075 
L 302.898771 63.494462 
L 303.20344 68.22519 
L 303.508108 65.975037 
L 303.812776 70.809467 
L 304.422113 63.793941 
L 304.726781 64.904747 
L 305.03145 67.888565 
L 305.336118 65.542872 
L 305.640786 64.555615 
L 305.945455 70.311181 
L 306.250123 62.455809 
L 306.554791 69.593072 
L 306.859459 67.495623 
L 307.164128 68.049351 
L 307.773464 60.90221 
L 308.078133 65.91015 
L 308.382801 67.193586 
L 308.687469 66.308802 
L 308.992138 64.68475 
L 309.296806 70.03581 
L 309.601474 66.243484 
L 309.906143 65.474175 
L 310.210811 69.481101 
L 310.515479 64.39859 
L 310.820147 63.321973 
L 311.124816 65.699362 
L 311.429484 66.860821 
L 311.734152 63.155757 
L 312.038821 63.24984 
L 312.343489 69.649727 
L 312.648157 64.595214 
L 312.952826 68.053859 
L 313.257494 68.947796 
L 313.562162 65.352726 
L 313.86683 66.453483 
L 314.171499 65.875174 
L 314.476167 70.64973 
L 314.780835 62.180656 
L 315.085504 64.316404 
L 315.390172 64.512621 
L 315.69484 62.275571 
L 315.999509 64.365331 
L 316.304177 69.206901 
L 316.608845 65.37763 
L 317.218182 62.146556 
L 317.52285 63.884834 
L 317.827518 66.479534 
L 318.132187 66.166567 
L 318.436855 66.952631 
L 318.741523 70.283483 
L 319.046192 65.763874 
L 319.35086 66.159737 
L 319.655528 65.196636 
L 319.960197 65.418786 
L 320.569533 62.633173 
L 320.874201 68.427127 
L 321.17887 63.356442 
L 321.483538 64.862328 
L 321.788206 61.103897 
L 322.092875 61.578517 
L 322.397543 63.244954 
L 322.702211 63.01527 
L 323.311548 62.188741 
L 323.616216 65.41536 
L 323.920885 64.58827 
L 324.225553 63.110152 
L 324.530221 68.921789 
L 324.834889 68.037473 
L 325.139558 68.795585 
L 325.444226 59.101035 
L 325.748894 64.691378 
L 326.053563 65.106747 
L 326.358231 65.814004 
L 326.662899 68.961742 
L 326.967568 65.889078 
L 327.272236 65.055325 
L 327.576904 72.944991 
L 327.881572 67.870742 
L 328.186241 66.963474 
L 328.490909 63.761336 
L 328.795577 65.858887 
L 329.100246 69.48386 
L 329.709582 65.973553 
L 330.014251 61.335355 
L 330.318919 63.156396 
L 330.623587 66.869169 
L 330.928256 63.4021 
L 331.232924 62.821968 
L 331.537592 63.459653 
L 331.84226 64.763931 
L 332.146929 62.649141 
L 332.451597 63.864651 
L 332.756265 62.955004 
L 333.060934 65.687056 
L 333.365602 64.787016 
L 333.67027 67.678238 
L 333.974939 64.142311 
L 334.279607 62.989317 
L 334.584275 64.015469 
L 334.888943 64.501189 
L 335.49828 68.900922 
L 335.802948 63.946512 
L 336.107617 65.198878 
L 336.412285 69.501276 
L 336.716953 63.340976 
L 337.021622 67.655812 
L 337.32629 66.850087 
L 337.630958 73.119479 
L 337.935627 66.684172 
L 338.240295 64.107622 
L 338.544963 66.656736 
L 339.1543 68.691155 
L 339.458968 68.563406 
L 339.763636 64.128747 
L 340.068305 64.273167 
L 340.372973 62.68406 
L 340.677641 65.382752 
L 340.98231 70.156176 
L 341.286978 61.370656 
L 341.591646 68.791293 
L 341.896314 60.342132 
L 342.200983 62.269556 
L 342.505651 67.349432 
L 342.810319 63.165501 
L 343.114988 66.042891 
L 343.419656 71.555182 
L 343.724324 64.013101 
L 344.028993 65.673757 
L 344.333661 60.543576 
L 344.638329 67.554943 
L 344.942998 62.43265 
L 345.247666 64.997536 
L 345.552334 68.94333 
L 345.857002 63.059843 
L 346.161671 65.814015 
L 346.466339 63.215856 
L 346.771007 65.429821 
L 347.075676 61.797083 
L 347.380344 65.642853 
L 347.685012 64.089799 
L 347.989681 60.443172 
L 348.294349 63.565037 
L 348.599017 58.199733 
L 349.513022 69.961626 
L 349.81769 64.135621 
L 350.122359 64.886178 
L 350.427027 72.428025 
L 350.731695 65.859952 
L 351.036364 65.410654 
L 351.341032 68.300618 
L 351.6457 62.487399 
L 351.950369 68.841776 
L 352.255037 64.567865 
L 352.559705 65.010074 
L 352.864373 63.318532 
L 353.169042 62.659283 
L 353.47371 65.883447 
L 353.778378 64.083983 
L 354.083047 66.4803 
L 354.387715 66.660717 
L 354.692383 64.349071 
L 354.997052 67.701207 
L 355.30172 68.178193 
L 355.606388 67.968844 
L 355.911057 59.809265 
L 356.215725 63.674787 
L 356.520393 65.799788 
L 356.825061 63.010415 
L 357.12973 65.440642 
L 357.434398 64.802569 
L 357.739066 66.337567 
L 358.043735 65.293169 
L 358.348403 69.28925 
L 358.653071 64.522495 
L 358.95774 66.810218 
L 359.262408 62.861299 
L 359.567076 61.416669 
L 359.871744 61.149585 
L 360.176413 66.64113 
L 360.481081 68.92654 
L 360.785749 64.317514 
L 361.090418 62.17365 
L 361.699754 64.515741 
L 362.004423 64.609596 
L 362.309091 63.592582 
L 362.613759 69.422118 
L 363.527764 61.247612 
L 363.832432 63.133217 
L 364.137101 62.577407 
L 364.441769 67.848026 
L 364.746437 65.358757 
L 365.051106 66.170331 
L 365.660442 63.699506 
L 365.965111 65.032833 
L 366.269779 66.902717 
L 366.879115 63.403273 
L 367.183784 60.386695 
L 367.488452 67.545419 
L 367.79312 68.619108 
L 368.097789 64.727803 
L 368.402457 70.444427 
L 368.707125 64.963945 
L 369.011794 63.439294 
L 369.316462 60.29804 
L 369.62113 65.382588 
L 369.925799 67.521218 
L 370.230467 67.606361 
L 370.535135 66.899239 
L 370.839803 61.536357 
L 371.144472 62.180059 
L 371.44914 64.311545 
L 371.753808 64.531397 
L 372.058477 62.245676 
L 372.667813 65.253691 
L 372.972482 62.957868 
L 373.27715 67.287799 
L 373.581818 66.419514 
L 373.581818 66.419514 
" style="fill:none;stroke:#2ca02c;stroke-linecap:square;stroke-width:1.5;"/>
   </g>
   <g id="patch_3">
    <path d="M 54 252 
L 54 34.56 
" style="fill:none;stroke:#000000;stroke-linecap:square;stroke-linejoin:miter;stroke-width:0.8;"/>
   </g>
   <g id="patch_4">
    <path d="M 388.8 252 
L 388.8 34.56 
" style="fill:none;stroke:#000000;stroke-linecap:square;stroke-linejoin:miter;stroke-width:0.8;"/>
   </g>
   <g id="patch_5">
    <path d="M 54 252 
L 388.8 252 
" style="fill:none;stroke:#000000;stroke-linecap:square;stroke-linejoin:miter;stroke-width:0.8;"/>
   </g>
   <g id="patch_6">
    <path d="M 54 34.56 
L 388.8 34.56 
" style="fill:none;stroke:#000000;stroke-linecap:square;stroke-linejoin:miter;stroke-width:0.8;"/>
   </g>
   <g id="legend_1">
    <g id="patch_7">
     <path d="M 327.660747 247 
L 381.8 247 
Q 383.8 247 383.8 245 
L 383.8 204.188465 
Q 383.8 202.188465 381.8 202.188465 
L 327.660747 202.188465 
Q 325.660747 202.188465 325.660747 204.188465 
L 325.660747 245 
Q 325.660747 247 327.660747 247 
z
" style="fill:#ffffff;opacity:0.8;stroke:#cccccc;stroke-linejoin:miter;"/>
    </g>
    <g id="line2d_18">
     <path d="M 329.660747 209.688465 
L 349.660747 209.688465 
" style="fill:none;stroke:#1f77b4;stroke-linecap:square;stroke-width:1.5;"/>
    </g>
    <g id="line2d_19"/>
    <g id="text_15">
     <!-- e0 -->
     <defs>
      <path d="M 38.09375 23 
C 38.5 23.40625 38.5 23.609375 38.5 24.625 
C 38.5 34.96875 33.09375 44 21.703125 44 
C 11.09375 44 2.703125 33.890625 2.703125 21.609375 
C 2.703125 8.609375 12.203125 -1 22.796875 -1 
C 34 -1 38.40625 9.484375 38.40625 11.5625 
C 38.40625 12.25 37.796875 12.25 37.59375 12.25 
C 36.90625 12.25 36.796875 12.046875 36.40625 10.875 
C 34.203125 4.140625 28.703125 0.796875 23.5 0.796875 
C 19.203125 0.796875 14.90625 3.171875 12.203125 7.5 
C 9.09375 12.546875 9.09375 18.375 9.09375 23 
z
M 9.203125 24.5 
C 9.90625 39.140625 17.59375 42.40625 21.59375 42.40625 
C 28.40625 42.40625 33 35.890625 33.09375 24.5 
z
" id="CMR17-101"/>
     </defs>
     <g transform="translate(357.660747 213.188465)scale(0.1 -0.1)">
      <use transform="scale(0.996264)" xlink:href="#CMR17-101"/>
      <use transform="translate(40.48566 0)scale(0.996264)" xlink:href="#CMR17-48"/>
     </g>
    </g>
    <g id="line2d_20">
     <path d="M 329.660747 223.625643 
L 349.660747 223.625643 
" style="fill:none;stroke:#ff7f0e;stroke-linecap:square;stroke-width:1.5;"/>
    </g>
    <g id="line2d_21"/>
    <g id="text_16">
     <!-- e0.1 -->
     <defs>
      <path d="M 16.59375 4.078125 
C 16.59375 6.5625 14.59375 8.15625 12.5 8.15625 
C 10.5 8.15625 8.40625 6.5625 8.40625 4.078125 
C 8.40625 1.59375 10.40625 0 12.5 0 
C 14.5 0 16.59375 1.59375 16.59375 4.078125 
z
" id="CMR17-46"/>
     </defs>
     <g transform="translate(357.660747 227.125643)scale(0.1 -0.1)">
      <use transform="scale(0.996264)" xlink:href="#CMR17-101"/>
      <use transform="translate(40.48566 0)scale(0.996264)" xlink:href="#CMR17-48"/>
      <use transform="translate(86.176138 0)scale(0.996264)" xlink:href="#CMR17-46"/>
      <use transform="translate(111.047196 0)scale(0.996264)" xlink:href="#CMR17-49"/>
     </g>
    </g>
    <g id="line2d_22">
     <path d="M 329.660747 237.562822 
L 349.660747 237.562822 
" style="fill:none;stroke:#2ca02c;stroke-linecap:square;stroke-width:1.5;"/>
    </g>
    <g id="line2d_23"/>
    <g id="text_17">
     <!-- e0.01 -->
     <g transform="translate(357.660747 241.062822)scale(0.1 -0.1)">
      <use transform="scale(0.996264)" xlink:href="#CMR17-101"/>
      <use transform="translate(40.48566 0)scale(0.996264)" xlink:href="#CMR17-48"/>
      <use transform="translate(86.176138 0)scale(0.996264)" xlink:href="#CMR17-46"/>
      <use transform="translate(111.047196 0)scale(0.996264)" xlink:href="#CMR17-48"/>
      <use transform="translate(156.737673 0)scale(0.996264)" xlink:href="#CMR17-49"/>
     </g>
    </g>
   </g>
  </g>
 </g>
 <defs>
  <clipPath id="p1ef315a60c">
   <rect height="217.44" width="334.8" x="54" y="34.56"/>
  </clipPath>
 </defs>
</svg>
