<?xml version="1.0" encoding="utf-8" standalone="no"?>
<!DOCTYPE svg PUBLIC "-//W3C//DTD SVG 1.1//EN"
  "http://www.w3.org/Graphics/SVG/1.1/DTD/svg11.dtd">
<!-- Created with matplotlib (https://matplotlib.org/) -->
<svg height="288pt" version="1.1" viewBox="0 0 432 288" width="432pt" xmlns="http://www.w3.org/2000/svg" xmlns:xlink="http://www.w3.org/1999/xlink">
 <defs>
  <style type="text/css">
*{stroke-linecap:butt;stroke-linejoin:round;}
  </style>
 </defs>
 <g id="figure_1">
  <g id="patch_1">
   <path d="M 0 288 
L 432 288 
L 432 0 
L 0 0 
z
" style="fill:#ffffff;"/>
  </g>
  <g id="axes_1">
   <g id="patch_2">
    <path d="M 54 252 
L 388.8 252 
L 388.8 34.56 
L 54 34.56 
z
" style="fill:#ffffff;"/>
   </g>
   <g id="matplotlib.axis_1">
    <g id="xtick_1">
     <g id="line2d_1">
      <defs>
       <path d="M 0 0 
L 0 3.5 
" id="m8f9c897219" style="stroke:#000000;stroke-width:0.8;"/>
      </defs>
      <g>
       <use style="stroke:#000000;stroke-width:0.8;" x="69.218182" xlink:href="#m8f9c897219" y="252"/>
      </g>
     </g>
     <g id="text_1">
      <!-- $0$ -->
      <defs>
       <path d="M 42 31.640625 
C 42 37.75 41.90625 48.125 37.703125 56.109375 
C 34 63.109375 28.09375 65.59375 22.90625 65.59375 
C 18.09375 65.59375 12 63.40625 8.203125 56.203125 
C 4.203125 48.71875 3.796875 39.4375 3.796875 31.640625 
C 3.796875 25.953125 3.90625 17.28125 7 9.671875 
C 11.296875 -0.609375 19 -2 22.90625 -2 
C 27.5 -2 34.5 -0.109375 38.59375 9.375 
C 41.59375 16.28125 42 24.359375 42 31.640625 
z
M 22.90625 -0.40625 
C 16.5 -0.40625 12.703125 5.078125 11.296875 12.6875 
C 10.203125 18.5625 10.203125 27.15625 10.203125 32.75 
C 10.203125 40.4375 10.203125 46.828125 11.5 52.921875 
C 13.40625 61.390625 19 64 22.90625 64 
C 27 64 32.296875 61.296875 34.203125 53.125 
C 35.5 47.4375 35.59375 40.734375 35.59375 32.75 
C 35.59375 26.25 35.59375 18.265625 34.40625 12.375 
C 32.296875 1.484375 26.40625 -0.40625 22.90625 -0.40625 
z
" id="CMR17-48"/>
      </defs>
      <g transform="translate(66.727514 265.918498)scale(0.1 -0.1)">
       <use transform="scale(0.996264)" xlink:href="#CMR17-48"/>
      </g>
     </g>
    </g>
    <g id="xtick_2">
     <g id="line2d_2">
      <g>
       <use style="stroke:#000000;stroke-width:0.8;" x="130.151843" xlink:href="#m8f9c897219" y="252"/>
      </g>
     </g>
     <g id="text_2">
      <!-- $200$ -->
      <defs>
       <path d="M 41.703125 15.453125 
L 39.90625 15.453125 
C 38.90625 8.375 38.09375 7.171875 37.703125 6.5625 
C 37.203125 5.765625 30 5.765625 28.59375 5.765625 
L 9.40625 5.765625 
C 13 9.671875 20 16.75 28.5 24.953125 
C 34.59375 30.734375 41.703125 37.53125 41.703125 47.421875 
C 41.703125 59.21875 32.296875 66 21.796875 66 
C 10.796875 66 4.09375 56.3125 4.09375 47.34375 
C 4.09375 43.4375 7 42.9375 8.203125 42.9375 
C 9.203125 42.9375 12.203125 43.546875 12.203125 47.03125 
C 12.203125 50.109375 9.59375 51 8.203125 51 
C 7.59375 51 7 50.90625 6.59375 50.703125 
C 8.5 59.21875 14.296875 63.40625 20.40625 63.40625 
C 29.09375 63.40625 34.796875 56.515625 34.796875 47.421875 
C 34.796875 38.734375 29.703125 31.25 24 24.75 
L 4.09375 2.28125 
L 4.09375 0 
L 39.296875 0 
z
" id="CMR17-50"/>
      </defs>
      <g transform="translate(122.67984 265.918498)scale(0.1 -0.1)">
       <use transform="scale(0.996264)" xlink:href="#CMR17-50"/>
       <use transform="translate(45.690477 0)scale(0.996264)" xlink:href="#CMR17-48"/>
       <use transform="translate(91.380954 0)scale(0.996264)" xlink:href="#CMR17-48"/>
      </g>
     </g>
    </g>
    <g id="xtick_3">
     <g id="line2d_3">
      <g>
       <use style="stroke:#000000;stroke-width:0.8;" x="191.085504" xlink:href="#m8f9c897219" y="252"/>
      </g>
     </g>
     <g id="text_3">
      <!-- $400$ -->
      <defs>
       <path d="M 33.59375 64.40625 
C 33.59375 66.5 33.5 66.5 31.703125 66.5 
L 2 19.59375 
L 2 17 
L 27.796875 17 
L 27.796875 7.140625 
C 27.796875 3.5 27.59375 2.5 20.59375 2.5 
L 18.703125 2.5 
L 18.703125 0 
C 21.90625 0 27.296875 0 30.703125 0 
C 34.09375 0 39.5 0 42.703125 0 
L 42.703125 2.5 
L 40.796875 2.5 
C 33.796875 2.5 33.59375 3.5 33.59375 7.140625 
L 33.59375 17 
L 43.796875 17 
L 43.796875 19.59375 
L 33.59375 19.59375 
z
M 28.09375 57.859375 
L 28.09375 19.59375 
L 4 19.59375 
z
" id="CMR17-52"/>
      </defs>
      <g transform="translate(183.613501 265.918498)scale(0.1 -0.1)">
       <use transform="scale(0.996264)" xlink:href="#CMR17-52"/>
       <use transform="translate(45.690477 0)scale(0.996264)" xlink:href="#CMR17-48"/>
       <use transform="translate(91.380954 0)scale(0.996264)" xlink:href="#CMR17-48"/>
      </g>
     </g>
    </g>
    <g id="xtick_4">
     <g id="line2d_4">
      <g>
       <use style="stroke:#000000;stroke-width:0.8;" x="252.019165" xlink:href="#m8f9c897219" y="252"/>
      </g>
     </g>
     <g id="text_4">
      <!-- $600$ -->
      <defs>
       <path d="M 10.59375 34 
C 10.59375 57.65625 21.796875 63 28.296875 63 
C 30.40625 63 35.5 62.640625 37.5 59 
C 35.90625 59 32.90625 59 32.90625 55.515625 
C 32.90625 52.828125 35.09375 51.921875 36.5 51.921875 
C 37.40625 51.921875 40.09375 52.3125 40.09375 55.625 
C 40.09375 61.78125 35.09375 65.296875 28.203125 65.296875 
C 16.296875 65.296875 3.796875 52.96875 3.796875 31 
C 3.796875 3.953125 15.09375 -2 23.09375 -2 
C 32.796875 -2 42 6.671875 42 20.046875 
C 42 32.515625 33.90625 41.59375 23.703125 41.59375 
C 17.59375 41.59375 13.09375 37.609375 10.59375 30.625 
z
M 23.09375 0.390625 
C 10.796875 0.390625 10.796875 18.75 10.796875 22.4375 
C 10.796875 29.625 14.203125 40 23.5 40 
C 25.203125 40 30.09375 40 33.40625 33.125 
C 35.203125 29.21875 35.203125 25.140625 35.203125 20.140625 
C 35.203125 14.75 35.203125 10.78125 33.09375 6.78125 
C 30.90625 2.671875 27.703125 0.390625 23.09375 0.390625 
z
" id="CMR17-54"/>
      </defs>
      <g transform="translate(244.547162 265.918498)scale(0.1 -0.1)">
       <use transform="scale(0.996264)" xlink:href="#CMR17-54"/>
       <use transform="translate(45.690477 0)scale(0.996264)" xlink:href="#CMR17-48"/>
       <use transform="translate(91.380954 0)scale(0.996264)" xlink:href="#CMR17-48"/>
      </g>
     </g>
    </g>
    <g id="xtick_5">
     <g id="line2d_5">
      <g>
       <use style="stroke:#000000;stroke-width:0.8;" x="312.952826" xlink:href="#m8f9c897219" y="252"/>
      </g>
     </g>
     <g id="text_5">
      <!-- $800$ -->
      <defs>
       <path d="M 27.203125 35.375 
C 33.5 38.546875 39.90625 43.328125 39.90625 50.984375 
C 39.90625 60.015625 31.09375 65.296875 23 65.296875 
C 13.90625 65.296875 5.90625 58.734375 5.90625 49.6875 
C 5.90625 47.203125 6.5 42.921875 10.40625 39.140625 
C 11.40625 38.15625 15.59375 35.171875 18.296875 33.28125 
C 13.796875 30.984375 3.296875 25.53125 3.296875 14.59375 
C 3.296875 4.359375 13.09375 -2 22.796875 -2 
C 33.5 -2 42.5 5.65625 42.5 15.78125 
C 42.5 24.84375 36.40625 29.015625 32.40625 31.703125 
z
M 14.09375 44.09375 
C 13.296875 44.59375 9.296875 47.671875 9.296875 52.359375 
C 9.296875 58.421875 15.59375 63 22.796875 63 
C 30.703125 63 36.5 57.4375 36.5 50.96875 
C 36.5 41.703125 26.09375 36.421875 25.59375 36.421875 
C 25.5 36.421875 25.40625 36.421875 24.59375 37.03125 
z
M 32.5 23.734375 
C 34 22.640625 38.796875 19.375 38.796875 13.296875 
C 38.796875 5.953125 31.40625 0.390625 23 0.390625 
C 13.90625 0.390625 7 6.84375 7 14.6875 
C 7 22.546875 13.09375 29.09375 20 32.1875 
z
" id="CMR17-56"/>
      </defs>
      <g transform="translate(305.480823 265.918498)scale(0.1 -0.1)">
       <use transform="scale(0.996264)" xlink:href="#CMR17-56"/>
       <use transform="translate(45.690477 0)scale(0.996264)" xlink:href="#CMR17-48"/>
       <use transform="translate(91.380954 0)scale(0.996264)" xlink:href="#CMR17-48"/>
      </g>
     </g>
    </g>
    <g id="xtick_6">
     <g id="line2d_6">
      <g>
       <use style="stroke:#000000;stroke-width:0.8;" x="373.886486" xlink:href="#m8f9c897219" y="252"/>
      </g>
     </g>
     <g id="text_6">
      <!-- $1000$ -->
      <defs>
       <path d="M 26.59375 63.40625 
C 26.59375 65.5 26.5 65.5 25.09375 65.5 
C 21.203125 61.1875 15.296875 59.796875 9.703125 59.796875 
C 9.40625 59.796875 8.90625 59.796875 8.796875 59.5 
C 8.703125 59.296875 8.703125 59.09375 8.703125 57 
C 11.796875 57 17 57.59375 21 59.984375 
L 21 7.203125 
C 21 3.6875 20.796875 2.5 12.203125 2.5 
L 9.203125 2.5 
L 9.203125 0 
C 14 0 19 0 23.796875 0 
C 28.59375 0 33.59375 0 38.40625 0 
L 38.40625 2.5 
L 35.40625 2.5 
C 26.796875 2.5 26.59375 3.59375 26.59375 7.15625 
z
" id="CMR17-49"/>
      </defs>
      <g transform="translate(363.923816 265.918498)scale(0.1 -0.1)">
       <use transform="scale(0.996264)" xlink:href="#CMR17-49"/>
       <use transform="translate(45.690477 0)scale(0.996264)" xlink:href="#CMR17-48"/>
       <use transform="translate(91.380954 0)scale(0.996264)" xlink:href="#CMR17-48"/>
       <use transform="translate(137.071431 0)scale(0.996264)" xlink:href="#CMR17-48"/>
      </g>
     </g>
    </g>
    <g id="text_7">
     <!-- \textbf{Timestep} -->
     <defs>
      <path d="M 72 67.265625 
L 6.09375 67.265625 
L 4.09375 43.703125 
L 8.296875 43.703125 
C 9.203125 54.546875 10 63 24.40625 63 
L 32.5 63 
L 32.5 4.171875 
L 17.40625 4.171875 
L 17.40625 0 
C 25.40625 0 35.703125 0 39.09375 0 
C 45.203125 0 52.796875 0 60.796875 0 
L 60.796875 4.171875 
L 45.703125 4.171875 
L 45.703125 63 
L 53.703125 63 
C 68.09375 63 68.90625 54.640625 69.796875 43.703125 
L 74 43.703125 
z
" id="CMBX12-84"/>
      <path d="M 22.296875 61.84375 
C 22.296875 65.921875 19 69 15.09375 69 
C 11 69 7.90625 65.625 7.90625 61.84375 
C 7.90625 58.0625 11 54.6875 15.09375 54.6875 
C 19 54.6875 22.296875 57.765625 22.296875 61.84375 
z
M 4.703125 44 
L 4.703125 39.328125 
C 10.59375 39.328125 11.296875 39.328125 11.296875 35.46875 
L 11.296875 4.0625 
L 4.40625 4.0625 
L 4.40625 -0.203125 
C 6.703125 0 13.59375 0 16.296875 0 
C 19.09375 0 25.5 0 27.90625 -0.203125 
L 27.90625 4.0625 
L 21.703125 4.0625 
L 21.703125 44 
z
" id="CMBX12-105"/>
      <path d="M 84.40625 30.0625 
C 84.40625 39.15625 80.5 44.28125 69.296875 44.28125 
C 59.203125 44.28125 54.5 37.609375 52.90625 34.46875 
C 51.296875 42.8125 44.5 44.28125 38.09375 44.28125 
C 28.5 44.28125 23.296875 38.203125 21.203125 33.484375 
L 21.09375 33.484375 
L 21.09375 44 
L 4.203125 44 
L 4.203125 39.328125 
C 10.40625 39.328125 11.09375 39.328125 11.09375 35.46875 
L 11.09375 4.0625 
L 4.203125 4.0625 
L 4.203125 -0.203125 
C 6.5 0 13.703125 0 16.5 0 
C 19.296875 0 26.59375 0 28.90625 -0.203125 
L 28.90625 4.0625 
L 22 4.0625 
L 22 25.109375 
C 22 35.875 30.09375 41 36.40625 41 
C 40.09375 41 42.296875 38.828125 42.296875 31.140625 
L 42.296875 4.0625 
L 35.40625 4.0625 
L 35.40625 -0.203125 
C 37.703125 0 44.90625 0 47.703125 0 
C 50.5 0 57.796875 0 60.09375 -0.203125 
L 60.09375 4.0625 
L 53.203125 4.0625 
L 53.203125 25.109375 
C 53.203125 35.875 61.296875 41 67.59375 41 
C 71.296875 41 73.5 38.828125 73.5 31.140625 
L 73.5 4.0625 
L 66.59375 4.0625 
L 66.59375 -0.203125 
C 68.90625 0 76.09375 0 78.90625 0 
C 81.703125 0 89 0 91.296875 -0.203125 
L 91.296875 4.0625 
L 84.40625 4.0625 
z
" id="CMBX12-109"/>
      <path d="M 45.203125 22 
C 47.5 22 48.09375 22 48.09375 24.484375 
C 48.09375 27.46875 47.40625 34.890625 42.796875 39.5625 
C 38.59375 43.71875 33 45 27.203125 45 
C 11.59375 45 3.09375 34.890625 3.09375 22.40625 
C 3.09375 8.515625 13.40625 -0.5 28.5 -0.5 
C 43.59375 -0.5 48.09375 10 48.09375 11.6875 
C 48.09375 13.171875 46.59375 13.171875 46 13.171875 
C 44.40625 13.171875 44.296875 12.875 43.703125 11.59375 
C 41.09375 5.15625 34.5 3.078125 29.703125 3.078125 
C 15.203125 3.078125 15.09375 16.453125 15.09375 22 
z
M 15.09375 24.890625 
C 15.296875 28.9375 15.40625 32.8125 17.5 36.375 
C 19.40625 39.546875 22.90625 41.71875 27.203125 41.71875 
C 37.90625 41.71875 38.796875 29.828125 38.90625 24.890625 
z
" id="CMBX12-101"/>
      <path d="M 37.703125 42.421875 
C 37.703125 44.3125 37.703125 45 36.203125 45 
C 35.59375 45 35.40625 45 33.90625 44.109375 
C 33.5 43.8125 32.40625 43.109375 31.90625 42.8125 
C 29.09375 44.40625 25.40625 45 21.796875 45 
C 18.796875 45 3.796875 45 3.796875 32.125 
C 3.796875 21.703125 16.203125 19.53125 19.296875 19.03125 
C 22 18.546875 25.296875 17.9375 25.703125 17.9375 
C 29.703125 17.046875 33.703125 14.5625 33.703125 10.40625 
C 33.703125 2.78125 24.59375 2.78125 22.5 2.78125 
C 17.40625 2.78125 11.09375 4.359375 8.296875 14 
C 7.703125 15.984375 7.59375 15.984375 5.90625 15.984375 
C 3.796875 15.984375 3.796875 15.6875 3.796875 13.40625 
L 3.796875 2.0625 
C 3.796875 0.1875 3.796875 -0.5 5.296875 -0.5 
C 6 -0.5 6.203125 -0.5 8.203125 1.09375 
L 10.796875 2.984375 
C 15.296875 -0.5 20.703125 -0.5 22.5 -0.5 
C 28 -0.5 40.5 0.6875 40.5 13.875 
C 40.5 18.625 37.90625 21.90625 35.90625 23.6875 
C 31.796875 27.046875 28.40625 27.65625 23 28.640625 
C 16.59375 29.734375 10.59375 30.828125 10.59375 35.578125 
C 10.59375 42.015625 19.5 42.015625 21.59375 42.015625 
C 32.703125 42.015625 33.296875 35.078125 33.5 32.609375 
C 33.59375 31.328125 34.40625 31.328125 35.59375 31.328125 
C 37.703125 31.328125 37.703125 31.625 37.703125 33.90625 
z
" id="CMBX12-115"/>
      <path d="M 21.09375 40 
L 35.5 40 
L 35.5 44.265625 
L 21.09375 44.265625 
L 21.09375 63 
L 16.90625 63 
C 16.796875 53.203125 12 43.375 2.09375 43.375 
L 2.09375 40 
L 10.203125 40 
L 10.203125 12.328125 
C 10.203125 1.78125 18.40625 -0.5 25.59375 -0.5 
C 33 -0.5 37.40625 5.078125 37.40625 12.421875 
L 37.40625 17.703125 
L 33.203125 17.703125 
L 33.203125 12.53125 
C 33.203125 5.953125 30.203125 3.078125 27.09375 3.078125 
C 21.09375 3.078125 21.09375 9.75 21.09375 12.03125 
z
" id="CMBX12-116"/>
      <path d="M 28.203125 -14.921875 
L 21.296875 -14.921875 
L 21.296875 4.1875 
C 23.796875 2 28.203125 -0.5 34.203125 -0.5 
C 47.90625 -0.5 58.59375 7.703125 58.59375 22.140625 
C 58.59375 35.78125 49.296875 44.578125 35.796875 44.578125 
C 29.90625 44.578125 24.796875 42.78125 20.796875 39.90625 
L 20.796875 44.671875 
L 3.5 44.671875 
L 3.5 40 
C 9.703125 40 10.40625 40 10.40625 36.09375 
L 10.40625 -14.921875 
L 3.5 -14.921875 
L 3.5 -19.1875 
C 5.796875 -19 13 -19 15.796875 -19 
C 18.59375 -19 25.90625 -19 28.203125 -19.1875 
z
M 21.296875 35.09375 
C 25 39.53125 30.296875 41 34.203125 41 
C 40.703125 41 46.59375 35.171875 46.59375 22.140625 
C 46.59375 7.8125 39.40625 2.78125 33 2.78125 
C 28.703125 2.78125 24.40625 4.984375 21.296875 9.6875 
z
" id="CMBX12-112"/>
     </defs>
     <g transform="translate(195.801977 279.466023)scale(0.11 -0.11)">
      <use transform="scale(0.996264)" xlink:href="#CMBX12-84"/>
      <use transform="translate(77.94837 0)scale(0.996264)" xlink:href="#CMBX12-105"/>
      <use transform="translate(109.081621 0)scale(0.996264)" xlink:href="#CMBX12-109"/>
      <use transform="translate(202.481372 0)scale(0.996264)" xlink:href="#CMBX12-101"/>
      <use transform="translate(253.620639 0)scale(0.996264)" xlink:href="#CMBX12-115"/>
      <use transform="translate(297.829976 0)scale(0.996264)" xlink:href="#CMBX12-116"/>
      <use transform="translate(341.416526 0)scale(0.996264)" xlink:href="#CMBX12-101"/>
      <use transform="translate(392.555794 0)scale(0.996264)" xlink:href="#CMBX12-112"/>
     </g>
    </g>
   </g>
   <g id="matplotlib.axis_2">
    <g id="ytick_1">
     <g id="line2d_7">
      <defs>
       <path d="M 0 0 
L -3.5 0 
" id="mfd1a2288a2" style="stroke:#000000;stroke-width:0.8;"/>
      </defs>
      <g>
       <use style="stroke:#000000;stroke-width:0.8;" x="54" xlink:href="#mfd1a2288a2" y="209.787629"/>
      </g>
     </g>
     <g id="text_8">
      <!-- $0.0$ -->
      <defs>
       <path d="M 18.40625 4.796875 
C 18.40625 7.6875 16 9.671875 13.59375 9.671875 
C 10.703125 9.671875 8.703125 7.28125 8.703125 4.890625 
C 8.703125 2 11.09375 0 13.5 0 
C 16.40625 0 18.40625 2.390625 18.40625 4.796875 
z
" id="CMMI12-58"/>
      </defs>
      <g transform="translate(34.269921 213.246878)scale(0.1 -0.1)">
       <use transform="scale(0.996264)" xlink:href="#CMR17-48"/>
       <use transform="translate(45.690477 0)scale(0.996264)" xlink:href="#CMMI12-58"/>
       <use transform="translate(72.787654 0)scale(0.996264)" xlink:href="#CMR17-48"/>
      </g>
     </g>
    </g>
    <g id="ytick_2">
     <g id="line2d_8">
      <g>
       <use style="stroke:#000000;stroke-width:0.8;" x="54" xlink:href="#mfd1a2288a2" y="166.421256"/>
      </g>
     </g>
     <g id="text_9">
      <!-- $0.5$ -->
      <defs>
       <path d="M 11.40625 57.6875 
C 12.40625 57.28125 16.5 56 20.703125 56 
C 30 56 35.09375 61.109375 38 64.0625 
C 38 64.953125 38 65.5 37.40625 65.5 
C 37.296875 65.5 37.09375 65.5 36.296875 65.046875 
C 32.796875 63.40625 28.703125 62.078125 23.703125 62.078125 
C 20.703125 62.078125 16.203125 62.484375 11.296875 64.671875 
C 10.203125 65.171875 10 65.171875 9.90625 65.171875 
C 9.40625 65.171875 9.296875 65.0625 9.296875 63.078125 
L 9.296875 34.421875 
C 9.296875 32.640625 9.296875 32.140625 10.296875 32.140625 
C 10.796875 32.140625 11 32.34375 11.5 33.03125 
C 14.703125 37.515625 19.09375 39.40625 24.09375 39.40625 
C 27.59375 39.40625 35.09375 37.21875 35.09375 20.140625 
C 35.09375 16.953125 35.09375 11.171875 32.09375 6.578125 
C 29.59375 2.484375 25.703125 0.390625 21.40625 0.390625 
C 14.796875 0.390625 8.09375 5 6.296875 12.71875 
C 6.703125 12.609375 7.5 12.421875 7.90625 12.421875 
C 9.203125 12.421875 11.703125 13.125 11.703125 16.21875 
C 11.703125 18.90625 9.796875 20 7.90625 20 
C 5.59375 20 4.09375 18.59375 4.09375 15.796875 
C 4.09375 7.09375 11 -2 21.59375 -2 
C 31.90625 -2 41.703125 6.875 41.703125 19.75 
C 41.703125 31.71875 33.90625 41 24.203125 41 
C 19.09375 41 14.796875 39.109375 11.40625 35.53125 
z
" id="CMR17-53"/>
      </defs>
      <g transform="translate(34.269921 169.880505)scale(0.1 -0.1)">
       <use transform="scale(0.996264)" xlink:href="#CMR17-48"/>
       <use transform="translate(45.690477 0)scale(0.996264)" xlink:href="#CMMI12-58"/>
       <use transform="translate(72.787654 0)scale(0.996264)" xlink:href="#CMR17-53"/>
      </g>
     </g>
    </g>
    <g id="ytick_3">
     <g id="line2d_9">
      <g>
       <use style="stroke:#000000;stroke-width:0.8;" x="54" xlink:href="#mfd1a2288a2" y="123.054882"/>
      </g>
     </g>
     <g id="text_10">
      <!-- $1.0$ -->
      <g transform="translate(34.269921 126.514131)scale(0.1 -0.1)">
       <use transform="scale(0.996264)" xlink:href="#CMR17-49"/>
       <use transform="translate(45.690477 0)scale(0.996264)" xlink:href="#CMMI12-58"/>
       <use transform="translate(72.787654 0)scale(0.996264)" xlink:href="#CMR17-48"/>
      </g>
     </g>
    </g>
    <g id="ytick_4">
     <g id="line2d_10">
      <g>
       <use style="stroke:#000000;stroke-width:0.8;" x="54" xlink:href="#mfd1a2288a2" y="79.688509"/>
      </g>
     </g>
     <g id="text_11">
      <!-- $1.5$ -->
      <g transform="translate(34.269921 83.147758)scale(0.1 -0.1)">
       <use transform="scale(0.996264)" xlink:href="#CMR17-49"/>
       <use transform="translate(45.690477 0)scale(0.996264)" xlink:href="#CMMI12-58"/>
       <use transform="translate(72.787654 0)scale(0.996264)" xlink:href="#CMR17-53"/>
      </g>
     </g>
    </g>
    <g id="ytick_5">
     <g id="line2d_11">
      <g>
       <use style="stroke:#000000;stroke-width:0.8;" x="54" xlink:href="#mfd1a2288a2" y="36.322135"/>
      </g>
     </g>
     <g id="text_12">
      <!-- $2.0$ -->
      <g transform="translate(34.269921 39.781384)scale(0.1 -0.1)">
       <use transform="scale(0.996264)" xlink:href="#CMR17-50"/>
       <use transform="translate(45.690477 0)scale(0.996264)" xlink:href="#CMMI12-58"/>
       <use transform="translate(72.787654 0)scale(0.996264)" xlink:href="#CMR17-48"/>
      </g>
     </g>
    </g>
    <g id="text_13">
     <!-- \textbf{Average reward} -->
     <defs>
      <path d="M 45.796875 67.203125 
C 45.09375 69 44.90625 69.5 42.5 69.5 
C 40 69.5 39.796875 69 39.09375 67.203125 
L 14.296875 6.453125 
C 13.59375 4.859375 13.59375 4.671875 10.796875 4.359375 
C 8.296875 4.0625 7.90625 4.0625 5.703125 4.0625 
L 3.90625 4.0625 
L 3.90625 -0.203125 
C 6.5 0 12.5 0 15.40625 0 
C 18.09375 0 25.40625 0 27.703125 -0.203125 
L 27.703125 4.0625 
C 25.5 4.0625 21.703125 4.0625 18.90625 5.171875 
C 19.203125 6.09375 19.203125 6.28125 19.40625 6.6875 
L 24.703125 19.71875 
L 51.5 19.71875 
L 57.796875 4.0625 
L 48.40625 4.0625 
L 48.40625 0 
C 51.59375 0 61.296875 0 65.09375 0 
C 68.296875 0 78.5 0 81 -0.203125 
L 81 4.0625 
L 71.5 4.0625 
z
M 38.09375 52.609375 
L 49.703125 24 
L 26.40625 24 
z
" id="CMBX12-65"/>
      <path d="M 49.5 37.53125 
C 50.203125 39.03125 50.59375 39.828125 56.90625 39.828125 
L 56.90625 44 
C 53.296875 44 53.09375 44 49 44 
C 46.296875 44 46.09375 44 40.40625 44 
L 40.40625 39.828125 
C 43.09375 39.828125 45.296875 39.328125 45.296875 38.625 
C 45.296875 38.53125 45.296875 38.4375 44.796875 37.4375 
L 33.09375 11.921875 
L 20.203125 39.828125 
L 25.703125 39.828125 
L 25.703125 44.09375 
C 23.40625 44 16.40625 44 13.703125 44 
C 10.796875 44 5 44 2.40625 44.09375 
L 2.40625 39.828125 
L 8.703125 39.828125 
L 26.296875 1.890625 
C 27.203125 0 27.40625 -0.5 29.703125 -0.5 
C 31.296875 -0.5 32.09375 -0.296875 33 1.6875 
z
" id="CMBX12-118"/>
      <path d="M 20.796875 22.046875 
C 20.796875 25.296875 21.5 41 33.203125 41 
C 31.796875 39.921875 31.09375 38.25 31.09375 36.5 
C 31.09375 32.484375 34.40625 30.8125 36.90625 30.8125 
C 39.40625 30.8125 42.703125 32.484375 42.703125 36.515625 
C 42.703125 41.53125 37.5 44.28125 32.703125 44.28125 
C 24.796875 44.28125 21.40625 37.515625 20 33.390625 
L 19.90625 33.390625 
L 19.90625 44 
L 3.5 44 
L 3.5 39.328125 
C 9.703125 39.328125 10.40625 39.328125 10.40625 35.46875 
L 10.40625 4.0625 
L 3.5 4.0625 
L 3.5 -0.203125 
C 5.796875 0 13.296875 0 16.09375 0 
C 19 0 27.09375 0 29.5 -0.203125 
L 29.5 4.0625 
L 20.796875 4.0625 
z
" id="CMBX12-114"/>
      <path d="M 46 29.65625 
C 46 38.8125 38.703125 44.984375 24.59375 44.984375 
C 19 44.984375 7.203125 44.984375 7.203125 36.46875 
C 7.203125 32.203125 10.40625 30.390625 13.09375 30.390625 
C 16.09375 30.390625 19 32.484375 19 36.296875 
C 19 38.203125 18.296875 39.984375 16.59375 41.09375 
C 19.90625 42 22.296875 42 24.203125 42 
C 31 42 35.09375 38.203125 35.09375 29.984375 
L 35.09375 25.984375 
C 19.296875 25.984375 3.40625 21.59375 3.40625 10.5625 
C 3.40625 1.484375 15 -0.5 21.90625 -0.5 
C 29.59375 -0.5 34.5 3.640625 36.5 7.96875 
C 36.5 4.28125 36.5 0 46.59375 0 
L 51.703125 0 
C 53.796875 0 54.59375 0 54.59375 2.265625 
C 54.59375 4.265625 53.703125 4.265625 52.296875 4.265625 
C 46 4.265625 46 5.84375 46 8.15625 
z
M 35.09375 13.78125 
C 35.09375 4.546875 26.703125 2.78125 23.5 2.78125 
C 18.59375 2.78125 14.5 6.09375 14.5 10.71875 
C 14.5 19.890625 25.296875 23 35.09375 23 
z
" id="CMBX12-97"/>
      <path d="M 13 18.578125 
C 17.796875 16 23.40625 16 24.90625 16 
C 38.703125 16 44.203125 23.65625 44.203125 30.625 
C 44.203125 35.703125 41.296875 39.296875 40.09375 40.28125 
C 43 41.8125 45.40625 42.1875 47.09375 42.390625 
C 46.796875 41.90625 46.5 41.53125 46.5 40.28125 
C 46.5 38.28125 47.90625 36.46875 50.5 36.46875 
C 53.09375 36.46875 54.5 38.359375 54.5 40.4375 
C 54.5 42.828125 52.703125 46 48.5 46 
C 44.203125 46 40.09375 43.796875 38 41.90625 
C 33.90625 44.28125 30 45.171875 24.90625 45.171875 
C 11.09375 45.171875 5.59375 37.546875 5.59375 30.578125 
C 5.59375 27.5 6.59375 23.453125 10.796875 20.078125 
C 9.09375 18.140625 7.296875 14.578125 7.296875 10.921875 
C 7.296875 6.5625 9.59375 2.8125 11.703125 1.1875 
C 9.296875 0.609375 3.09375 -1.640625 3.09375 -7.203125 
C 3.09375 -12.96875 9.59375 -19.5 28 -19.5 
C 44.59375 -19.5 53 -14.21875 53 -6.859375 
C 53 1.78125 47.203125 4.609375 44.703125 5.78125 
C 39.90625 8.140625 33.5 8.140625 24.703125 8.140625 
C 22.203125 8.140625 17.796875 8.140625 17.296875 8.234375 
C 13 8.984375 11.796875 12.953125 11.796875 14.953125 
C 11.796875 15.78125 11.90625 17.296875 13 18.578125 
z
M 24.90625 19.171875 
C 16.203125 19.171875 16.203125 26.015625 16.203125 30.578125 
C 16.203125 35.15625 16.203125 42 24.90625 42 
C 33.59375 42 33.59375 35.15625 33.59375 30.578125 
C 33.59375 26.015625 33.59375 19.171875 24.90625 19.171875 
z
M 30.5 -1 
C 37.796875 -1 44.796875 -2.265625 44.796875 -7.296875 
C 44.796875 -10.703125 41.296875 -16.328125 28.09375 -16.328125 
C 14.90625 -16.328125 11.296875 -10.890625 11.296875 -7.203125 
C 11.296875 -1 17.59375 -1 19.09375 -1 
z
" id="CMBX12-103"/>
      <path d="M 72 37.4375 
C 72.703125 39.125 73 39.828125 78.796875 39.828125 
L 78.796875 44 
C 75.90625 44 74.59375 44 71 44 
C 66.90625 44 65.59375 44 62 44 
L 62 39.828125 
C 62.90625 39.828125 67.796875 39.828125 67.796875 38.53125 
C 67.796875 38.4375 67.796875 38.328125 67.40625 37.34375 
L 56.90625 11.515625 
L 45.40625 39.828125 
L 51.09375 39.828125 
L 51.09375 44.09375 
C 48.703125 44 42.796875 44 40.09375 44 
C 35 44 34.796875 44 29.796875 44 
L 29.796875 39.828125 
L 35.703125 39.828125 
C 36 39.03125 36.5 37.734375 36.90625 36.84375 
C 37.203125 36.25 38.203125 33.859375 38.203125 33.359375 
C 38.203125 33.171875 37.90625 32.46875 37.796875 32.171875 
L 30.203125 13.40625 
L 19.40625 39.828125 
L 25.09375 39.828125 
L 25.09375 44.09375 
C 22.796875 44 16 44 13.296875 44 
C 10.09375 44 5.296875 44 2.296875 44 
L 2.296875 39.828125 
L 8.203125 39.828125 
L 23.5 1.984375 
C 24.203125 0.203125 24.59375 -0.5 26.796875 -0.5 
C 27.90625 -0.5 29.09375 -0.5 29.90625 1.484375 
L 40.5 27.8125 
L 51.09375 1.6875 
C 52 -0.5 53.09375 -0.5 54.296875 -0.5 
C 56.5 -0.5 56.796875 0.09375 57.5 1.890625 
z
" id="CMBX12-119"/>
      <path d="M 34.703125 69 
L 34.703125 64.328125 
C 40.90625 64.328125 41.59375 64.328125 41.59375 60.421875 
L 41.59375 40.234375 
C 39.40625 42.125 35 45 28.09375 45 
C 13.90625 45 3.796875 36.21875 3.796875 22.25 
C 3.796875 7.96875 13.703125 -0.5 27 -0.5 
C 32.5 -0.5 37.203125 1.46875 41.09375 4.859375 
L 41.09375 0 
L 58.90625 0 
L 58.90625 4.5625 
C 52.703125 4.5625 52 4.5625 52 8.4375 
L 52 69 
z
M 41.09375 10.328125 
C 36.90625 4.09375 31.796875 2.78125 28.203125 2.78125 
C 15.796875 2.78125 15.796875 15.453125 15.796875 22.046875 
C 15.796875 26.75 15.796875 31.75 18 35.53125 
C 21.09375 41.125 27 41.71875 29.296875 41.71875 
C 33.40625 41.71875 37.796875 39.9375 41.09375 35.5625 
z
" id="CMBX12-100"/>
     </defs>
     <g transform="translate(28.332743 182.93318)rotate(-90)scale(0.1 -0.1)">
      <use transform="scale(0.996264)" xlink:href="#CMBX12-65"/>
      <use transform="translate(84.636395 0)scale(0.996264)" xlink:href="#CMBX12-118"/>
      <use transform="translate(140.676245 0)scale(0.996264)" xlink:href="#CMBX12-101"/>
      <use transform="translate(191.815512 0)scale(0.996264)" xlink:href="#CMBX12-114"/>
      <use transform="translate(237.59302 0)scale(0.996264)" xlink:href="#CMBX12-97"/>
      <use transform="translate(292.076208 0)scale(0.996264)" xlink:href="#CMBX12-103"/>
      <use transform="translate(348.116058 0)scale(0.996264)" xlink:href="#CMBX12-101"/>
      <use transform="translate(436.615226 0)scale(0.996264)" xlink:href="#CMBX12-114"/>
      <use transform="translate(482.392733 0)scale(0.996264)" xlink:href="#CMBX12-101"/>
      <use transform="translate(533.532 0)scale(0.996264)" xlink:href="#CMBX12-119"/>
      <use transform="translate(611.365126 0)scale(0.996264)" xlink:href="#CMBX12-97"/>
      <use transform="translate(665.848314 0)scale(0.996264)" xlink:href="#CMBX12-114"/>
      <use transform="translate(711.625822 0)scale(0.996264)" xlink:href="#CMBX12-100"/>
     </g>
    </g>
   </g>
   <g id="line2d_12">
    <path clip-path="url(#p1887c0c847)" d="M 69.218182 242.116364 
L 69.52285 213.724802 
L 69.827518 205.328764 
L 70.132187 191.445997 
L 70.436855 185.636259 
L 70.741523 177.544819 
L 71.046192 177.641063 
L 71.35086 168.099123 
L 71.655528 172.037516 
L 72.264865 162.913411 
L 72.569533 163.988027 
L 72.874201 159.536745 
L 73.17887 161.972659 
L 73.483538 162.161856 
L 73.788206 159.791843 
L 74.092875 158.557439 
L 74.397543 158.542407 
L 74.702211 158.305457 
L 75.00688 157.012718 
L 75.311548 158.847862 
L 75.616216 155.747961 
L 75.920885 156.241309 
L 76.225553 159.529595 
L 76.530221 154.456712 
L 76.834889 151.274955 
L 77.139558 153.515495 
L 77.444226 154.831014 
L 77.748894 151.779569 
L 78.053563 154.291899 
L 78.358231 151.608346 
L 78.662899 152.023047 
L 78.967568 151.852389 
L 79.272236 152.298875 
L 79.576904 152.172208 
L 79.881572 154.441154 
L 80.186241 152.911704 
L 80.490909 154.099983 
L 80.795577 151.546788 
L 81.100246 155.802964 
L 81.404914 153.518124 
L 81.709582 152.676788 
L 82.318919 153.449234 
L 82.623587 154.665494 
L 83.232924 149.65408 
L 83.537592 149.314142 
L 83.84226 150.319779 
L 84.146929 153.481276 
L 84.451597 152.32121 
L 84.756265 153.614596 
L 85.060934 148.065887 
L 85.365602 151.561953 
L 85.67027 153.266222 
L 85.974939 153.538689 
L 86.279607 155.210142 
L 86.584275 151.2492 
L 86.888943 155.027642 
L 87.193612 151.146853 
L 87.49828 153.849203 
L 87.802948 154.453867 
L 88.107617 153.987159 
L 88.412285 150.227356 
L 88.716953 155.371333 
L 89.021622 154.649336 
L 89.32629 154.385745 
L 89.630958 150.413716 
L 89.935627 155.160903 
L 90.240295 154.213268 
L 90.544963 155.437006 
L 90.849631 149.916597 
L 91.1543 155.931972 
L 91.458968 152.395725 
L 91.763636 154.908546 
L 92.068305 154.060111 
L 92.372973 152.158245 
L 92.677641 151.924157 
L 93.286978 155.322122 
L 93.591646 154.427312 
L 93.896314 150.278918 
L 94.200983 151.292134 
L 94.505651 153.401171 
L 95.114988 150.512157 
L 95.419656 151.178105 
L 95.724324 155.080632 
L 96.028993 149.41847 
L 96.333661 154.045975 
L 96.638329 149.564368 
L 96.942998 153.476315 
L 97.247666 149.762659 
L 97.552334 154.183284 
L 97.857002 152.345653 
L 98.161671 151.569008 
L 98.771007 157.759494 
L 99.075676 149.454328 
L 99.380344 154.018917 
L 99.685012 151.684625 
L 99.989681 152.661376 
L 100.294349 154.029725 
L 100.599017 153.1771 
L 100.903686 151.891169 
L 101.513022 151.236739 
L 101.81769 154.085093 
L 102.427027 149.055451 
L 102.731695 155.991232 
L 103.036364 150.184979 
L 103.341032 152.576671 
L 103.6457 152.838594 
L 103.950369 149.40991 
L 104.255037 153.817384 
L 104.559705 153.073517 
L 104.864373 151.370908 
L 105.169042 153.467839 
L 105.47371 153.195851 
L 105.778378 152.577495 
L 106.387715 149.807012 
L 106.692383 153.01271 
L 106.997052 150.526655 
L 107.30172 154.441408 
L 107.606388 152.446689 
L 107.911057 147.647851 
L 108.215725 150.824751 
L 108.520393 150.18661 
L 108.825061 154.802429 
L 109.434398 151.068808 
L 109.739066 156.837233 
L 110.043735 148.507236 
L 110.348403 155.510641 
L 110.653071 150.600746 
L 110.95774 152.794763 
L 111.262408 148.931092 
L 111.871744 153.945722 
L 112.176413 153.104935 
L 112.481081 152.609279 
L 112.785749 150.7197 
L 113.090418 151.979898 
L 113.395086 149.41824 
L 114.004423 154.456218 
L 114.309091 154.932594 
L 114.613759 150.780592 
L 114.918428 156.271738 
L 115.223096 150.685991 
L 115.527764 151.156827 
L 115.832432 153.077032 
L 116.137101 154.164852 
L 116.441769 150.984372 
L 117.051106 151.446437 
L 117.355774 151.751646 
L 117.660442 150.636632 
L 117.965111 150.635573 
L 118.574447 155.986387 
L 118.879115 155.453299 
L 119.183784 151.533749 
L 119.488452 153.017926 
L 119.79312 153.492365 
L 120.402457 149.849855 
L 120.707125 153.156166 
L 121.011794 154.57993 
L 121.316462 148.70373 
L 121.62113 151.096266 
L 121.925799 150.731527 
L 122.230467 150.140179 
L 122.535135 155.049564 
L 122.839803 151.182453 
L 123.144472 155.297954 
L 123.44914 152.774459 
L 123.753808 153.418147 
L 124.058477 153.252182 
L 124.363145 149.528209 
L 124.667813 153.35719 
L 124.972482 150.639086 
L 125.27715 152.835885 
L 125.581818 153.276544 
L 126.191155 151.716637 
L 126.495823 154.214886 
L 126.800491 151.759855 
L 127.10516 152.152954 
L 127.409828 151.475123 
L 127.714496 150.478082 
L 128.019165 155.730267 
L 128.323833 152.223282 
L 128.628501 154.65917 
L 128.93317 153.623913 
L 129.237838 151.245115 
L 129.542506 152.742321 
L 129.847174 148.907472 
L 130.151843 150.439764 
L 130.456511 148.513893 
L 130.761179 154.395206 
L 131.065848 152.186294 
L 131.370516 152.875954 
L 131.675184 149.155991 
L 131.979853 153.676899 
L 132.284521 149.747364 
L 132.589189 153.249735 
L 132.893857 150.834977 
L 133.503194 154.360288 
L 133.807862 148.845234 
L 134.417199 154.974645 
L 134.721867 152.872813 
L 135.026536 155.23044 
L 135.331204 147.960978 
L 135.635872 151.137032 
L 135.940541 152.958672 
L 136.245209 153.59919 
L 136.549877 153.241759 
L 136.854545 151.138594 
L 137.159214 153.204857 
L 137.463882 151.816115 
L 137.76855 151.532105 
L 138.073219 149.528083 
L 138.377887 153.478972 
L 138.987224 149.579672 
L 139.291892 147.849765 
L 139.59656 153.077856 
L 139.901229 150.776841 
L 140.205897 150.969116 
L 140.510565 151.559182 
L 140.815233 149.751227 
L 141.119902 154.757407 
L 141.42457 154.683313 
L 141.729238 148.213584 
L 142.033907 154.592648 
L 142.643243 151.699017 
L 142.947912 151.502957 
L 143.25258 152.226284 
L 143.557248 148.839981 
L 143.861916 152.655694 
L 144.166585 148.327088 
L 144.471253 150.42933 
L 144.775921 151.283906 
L 145.08059 153.789565 
L 145.385258 147.423181 
L 145.689926 154.938333 
L 145.994595 147.871953 
L 146.299263 157.528651 
L 146.603931 152.156423 
L 146.9086 151.318629 
L 147.213268 153.370552 
L 147.517936 153.654578 
L 147.822604 150.949566 
L 148.127273 150.158074 
L 148.431941 153.000029 
L 148.736609 154.250253 
L 149.041278 157.044972 
L 149.345946 154.78046 
L 149.650614 148.100163 
L 149.955283 148.199536 
L 150.259951 153.882806 
L 150.564619 151.997006 
L 150.869287 155.222777 
L 151.173956 150.604548 
L 151.478624 152.827609 
L 151.783292 151.347561 
L 152.087961 153.22077 
L 152.392629 149.557934 
L 152.697297 155.211797 
L 153.001966 149.306537 
L 153.306634 149.896956 
L 153.611302 151.070826 
L 153.915971 149.470183 
L 154.220639 156.874711 
L 154.525307 151.430869 
L 154.829975 152.987792 
L 155.134644 155.511636 
L 155.439312 150.630653 
L 155.74398 148.541614 
L 156.048649 148.224122 
L 156.353317 156.000485 
L 156.657985 152.587443 
L 156.962654 152.510387 
L 157.57199 153.921791 
L 157.876658 150.832656 
L 158.181327 150.077386 
L 158.485995 151.543409 
L 158.790663 149.108028 
L 159.095332 152.638225 
L 159.4 151.916731 
L 159.704668 149.044726 
L 160.009337 150.540592 
L 160.314005 148.950006 
L 160.618673 151.237141 
L 160.923342 151.573078 
L 161.22801 151.491586 
L 161.837346 156.400088 
L 162.142015 150.209389 
L 162.446683 151.317822 
L 162.751351 154.650579 
L 163.05602 150.632372 
L 163.360688 150.472416 
L 163.665356 152.019832 
L 163.970025 151.188888 
L 164.274693 149.040972 
L 164.579361 152.639572 
L 164.884029 148.058765 
L 165.493366 152.276323 
L 165.798034 148.404058 
L 166.712039 153.249525 
L 167.016708 149.031979 
L 167.321376 151.485601 
L 167.626044 152.014588 
L 167.930713 149.737871 
L 168.235381 150.552845 
L 168.540049 154.078329 
L 168.844717 148.285466 
L 169.149386 150.666457 
L 169.454054 148.601367 
L 169.758722 157.116524 
L 170.063391 153.550924 
L 170.368059 153.467587 
L 170.672727 156.517422 
L 170.977396 150.808346 
L 171.282064 153.848228 
L 171.586732 151.036188 
L 171.8914 152.028217 
L 172.196069 147.962961 
L 172.500737 153.735498 
L 172.805405 148.432649 
L 173.110074 154.155749 
L 173.414742 150.607009 
L 173.71941 150.768358 
L 174.024079 150.598268 
L 174.328747 153.733876 
L 174.633415 151.612902 
L 175.242752 148.76804 
L 175.54742 150.92808 
L 175.852088 151.083445 
L 176.156757 152.824651 
L 176.461425 153.4486 
L 176.766093 155.847932 
L 177.070762 156.699191 
L 177.37543 148.281522 
L 177.680098 152.701243 
L 177.984767 154.168106 
L 178.289435 150.380431 
L 178.594103 156.455681 
L 179.20344 148.464946 
L 179.508108 153.049237 
L 179.812776 149.828894 
L 180.117445 156.228694 
L 180.422113 148.797072 
L 180.726781 152.316106 
L 181.03145 154.418425 
L 181.336118 154.818281 
L 181.640786 151.165655 
L 181.945455 156.832101 
L 182.250123 149.372208 
L 182.554791 153.26314 
L 182.859459 153.382214 
L 183.164128 153.623995 
L 183.468796 152.647158 
L 184.078133 148.398188 
L 184.382801 152.733255 
L 184.687469 154.918255 
L 184.992138 152.561105 
L 185.296806 152.449558 
L 185.601474 154.028963 
L 185.906143 150.734648 
L 186.515479 154.131522 
L 186.820147 147.781958 
L 187.124816 153.72442 
L 187.429484 150.217084 
L 187.734152 148.818582 
L 188.038821 148.24917 
L 188.343489 148.327963 
L 188.648157 153.054655 
L 188.952826 151.846116 
L 189.257494 155.937829 
L 189.562162 152.473917 
L 189.86683 153.679195 
L 190.171499 150.536771 
L 190.476167 150.978142 
L 190.780835 149.778157 
L 191.085504 153.752953 
L 191.390172 151.512463 
L 191.69484 151.379057 
L 191.999509 150.900272 
L 192.304177 148.3496 
L 192.913514 153.989007 
L 193.218182 152.071885 
L 193.52285 148.677573 
L 193.827518 150.341488 
L 194.132187 148.352729 
L 194.436855 149.069602 
L 194.741523 150.975565 
L 195.046192 147.632262 
L 195.35086 153.83819 
L 195.655528 152.287699 
L 195.960197 155.056387 
L 196.264865 151.589028 
L 196.569533 150.344425 
L 196.874201 150.558253 
L 197.17887 153.28287 
L 197.483538 148.945764 
L 197.788206 154.435784 
L 198.397543 150.386245 
L 198.702211 151.457662 
L 199.311548 154.975941 
L 199.616216 154.692573 
L 199.920885 154.007144 
L 200.225553 153.702919 
L 200.530221 148.71093 
L 200.834889 154.584818 
L 201.139558 149.109478 
L 201.444226 147.978494 
L 201.748894 149.78791 
L 202.358231 154.502644 
L 202.662899 148.51368 
L 202.967568 149.215874 
L 203.272236 152.736575 
L 203.576904 153.069404 
L 203.881572 152.912724 
L 204.186241 145.091001 
L 204.490909 150.909633 
L 204.795577 153.629128 
L 205.100246 151.000544 
L 205.404914 153.991334 
L 205.709582 148.588956 
L 206.623587 151.967745 
L 206.928256 154.041266 
L 207.232924 149.473289 
L 207.537592 153.404831 
L 207.84226 153.370622 
L 208.146929 151.275097 
L 208.451597 151.874709 
L 208.756265 155.087193 
L 209.060934 151.470337 
L 209.365602 152.254103 
L 209.67027 148.535798 
L 210.279607 156.135342 
L 210.584275 151.051861 
L 210.888943 150.560482 
L 211.193612 148.728409 
L 211.49828 152.950483 
L 211.802948 152.697959 
L 212.107617 149.802244 
L 212.412285 150.890099 
L 212.716953 150.66543 
L 213.021622 150.003986 
L 213.32629 153.483678 
L 213.630958 151.661998 
L 213.935627 151.478034 
L 214.240295 151.518224 
L 214.544963 153.850107 
L 214.849631 151.864103 
L 215.1543 152.434015 
L 215.458968 152.166971 
L 215.763636 150.028887 
L 216.372973 154.522986 
L 216.677641 151.106085 
L 216.98231 151.634966 
L 217.286978 151.684986 
L 217.591646 148.827268 
L 217.896314 153.067827 
L 218.200983 153.38978 
L 218.505651 149.109617 
L 218.810319 152.517937 
L 219.114988 153.69536 
L 219.419656 153.925526 
L 219.724324 149.944287 
L 220.028993 150.125834 
L 220.333661 150.527897 
L 220.638329 155.801606 
L 220.942998 151.284102 
L 221.247666 154.065347 
L 221.552334 149.818311 
L 222.161671 152.717082 
L 222.771007 145.886123 
L 223.075676 154.483754 
L 223.380344 156.060852 
L 223.685012 152.112881 
L 223.989681 150.994496 
L 224.294349 151.727845 
L 224.599017 151.213434 
L 224.903686 150.253636 
L 225.208354 153.034494 
L 225.513022 151.473001 
L 225.81769 151.018501 
L 226.122359 149.567627 
L 226.427027 152.019066 
L 226.731695 152.948007 
L 227.036364 150.847248 
L 227.341032 150.489641 
L 227.6457 154.036334 
L 227.950369 150.861921 
L 228.255037 150.668768 
L 228.559705 150.641853 
L 228.864373 153.615826 
L 229.169042 153.16175 
L 229.47371 148.773998 
L 229.778378 150.445623 
L 230.083047 153.808994 
L 230.387715 150.549044 
L 230.997052 153.772036 
L 231.30172 154.393637 
L 231.606388 155.270342 
L 231.911057 148.960604 
L 232.520393 151.21636 
L 232.825061 151.400243 
L 233.12973 150.126927 
L 233.434398 151.238134 
L 233.739066 153.152806 
L 234.043735 151.963219 
L 234.653071 159.089822 
L 234.95774 153.050541 
L 235.262408 150.940086 
L 235.567076 151.832027 
L 235.871744 154.148097 
L 236.176413 152.079243 
L 236.481081 151.731657 
L 236.785749 152.016789 
L 237.090418 154.373882 
L 237.395086 151.586246 
L 237.699754 152.076709 
L 238.004423 154.249206 
L 238.309091 154.437322 
L 238.613759 149.891692 
L 238.918428 155.899606 
L 239.527764 148.664169 
L 239.832432 153.208325 
L 240.137101 154.976967 
L 240.441769 149.321959 
L 240.746437 152.310179 
L 241.051106 151.497567 
L 241.355774 151.145299 
L 241.660442 151.260182 
L 241.965111 152.589192 
L 242.269779 151.283271 
L 242.879115 151.032205 
L 243.183784 157.052669 
L 243.488452 152.254108 
L 243.79312 152.575372 
L 244.097789 153.220555 
L 244.402457 153.204271 
L 244.707125 154.833932 
L 245.011794 151.203512 
L 245.316462 150.068566 
L 245.62113 154.924456 
L 245.925799 151.203713 
L 246.230467 151.786042 
L 246.535135 152.630859 
L 246.839803 150.063807 
L 247.144472 153.3645 
L 247.44914 154.256312 
L 247.753808 151.291008 
L 248.058477 153.111958 
L 248.363145 151.913345 
L 248.667813 152.494277 
L 248.972482 154.383611 
L 249.27715 146.44728 
L 249.886486 153.804209 
L 250.191155 151.737976 
L 250.495823 151.076183 
L 250.800491 151.544557 
L 251.10516 149.556865 
L 251.409828 151.477458 
L 251.714496 151.391083 
L 252.019165 150.867082 
L 252.323833 152.057504 
L 252.628501 146.139355 
L 252.93317 154.514984 
L 253.542506 149.261703 
L 253.847174 154.235783 
L 254.151843 155.333307 
L 254.456511 148.802924 
L 255.065848 152.213431 
L 255.370516 150.393625 
L 255.675184 154.196641 
L 255.979853 148.951881 
L 256.284521 149.340558 
L 256.589189 150.764427 
L 256.893857 149.370638 
L 257.198526 154.919459 
L 257.503194 153.445905 
L 257.807862 157.064819 
L 258.112531 153.536873 
L 258.417199 154.939508 
L 258.721867 150.806617 
L 259.026536 151.618517 
L 259.331204 151.055859 
L 259.635872 151.166469 
L 259.940541 154.540564 
L 260.245209 149.2085 
L 260.549877 152.254035 
L 260.854545 150.540756 
L 261.159214 151.653191 
L 261.463882 154.006333 
L 261.76855 151.914677 
L 262.073219 151.708315 
L 262.377887 151.902014 
L 262.682555 152.281842 
L 262.987224 153.878618 
L 263.291892 151.215786 
L 263.59656 150.148354 
L 263.901229 149.52994 
L 264.205897 149.480162 
L 264.510565 148.115644 
L 265.119902 153.399879 
L 265.42457 150.483883 
L 265.729238 156.642602 
L 266.033907 150.660951 
L 266.338575 150.203529 
L 266.643243 150.708299 
L 266.947912 150.961246 
L 267.25258 153.47738 
L 267.557248 149.801082 
L 267.861916 149.823137 
L 268.166585 147.221784 
L 268.775921 153.252219 
L 269.08059 149.956549 
L 269.385258 150.88672 
L 269.689926 150.779573 
L 269.994595 152.123923 
L 270.299263 151.731384 
L 270.603931 153.029675 
L 270.9086 147.46839 
L 271.213268 151.950187 
L 271.517936 147.249069 
L 271.822604 149.765495 
L 272.127273 150.729472 
L 272.431941 149.213696 
L 272.736609 149.662106 
L 273.041278 152.398356 
L 273.345946 152.071469 
L 273.650614 148.838092 
L 274.259951 151.989776 
L 274.564619 152.72944 
L 274.869287 150.755265 
L 275.173956 153.337405 
L 275.478624 153.383057 
L 275.783292 150.153049 
L 276.087961 152.269606 
L 276.392629 153.352029 
L 276.697297 151.233135 
L 277.001966 150.11719 
L 277.611302 154.620913 
L 277.915971 149.253063 
L 278.220639 153.331594 
L 278.525307 154.086294 
L 278.829975 154.372205 
L 279.74398 152.295646 
L 280.048649 149.095772 
L 280.353317 151.797748 
L 280.657985 149.067059 
L 280.962654 152.017671 
L 281.267322 150.998651 
L 281.57199 153.594335 
L 281.876658 154.684965 
L 282.181327 154.006746 
L 282.790663 148.277449 
L 283.095332 152.456659 
L 283.4 150.918309 
L 283.704668 152.897373 
L 284.009337 153.738487 
L 284.314005 152.823307 
L 284.618673 151.054828 
L 284.923342 150.140704 
L 285.22801 152.893186 
L 285.532678 150.972684 
L 286.142015 151.74279 
L 286.446683 152.9816 
L 286.751351 148.009382 
L 287.05602 149.878178 
L 287.360688 153.130338 
L 287.665356 148.079223 
L 288.274693 152.192313 
L 288.579361 153.641317 
L 288.884029 157.119711 
L 289.188698 150.006505 
L 289.493366 150.937478 
L 289.798034 153.852845 
L 290.102703 154.885722 
L 290.407371 153.821697 
L 290.712039 152.350359 
L 291.016708 153.57801 
L 291.321376 149.127333 
L 291.626044 152.523825 
L 291.930713 148.49999 
L 292.235381 153.12113 
L 292.540049 150.166622 
L 292.844717 151.301613 
L 293.149386 150.86976 
L 293.454054 152.019286 
L 293.758722 153.653346 
L 294.063391 152.93345 
L 294.368059 152.772767 
L 294.672727 156.137393 
L 294.977396 154.331752 
L 295.282064 154.022407 
L 295.586732 151.092758 
L 295.8914 151.214546 
L 296.196069 148.913285 
L 296.500737 150.493784 
L 296.805405 154.509811 
L 297.110074 153.338873 
L 297.414742 150.96703 
L 297.71941 151.947485 
L 298.024079 150.035023 
L 298.328747 151.80102 
L 298.633415 150.435282 
L 298.938084 150.179074 
L 299.242752 152.659412 
L 299.54742 149.507893 
L 299.852088 154.534977 
L 300.156757 150.524164 
L 300.461425 150.376099 
L 300.766093 151.466192 
L 301.070762 153.546242 
L 301.37543 151.800484 
L 301.680098 151.560041 
L 301.984767 153.386346 
L 302.289435 150.735408 
L 302.594103 152.467793 
L 302.898771 150.123314 
L 303.20344 153.22999 
L 303.508108 154.469551 
L 303.812776 152.877214 
L 304.117445 152.293125 
L 304.422113 152.389515 
L 304.726781 152.693319 
L 305.03145 154.448888 
L 305.336118 149.645377 
L 305.640786 153.639739 
L 305.945455 153.78303 
L 306.250123 150.676483 
L 306.554791 151.407275 
L 306.859459 149.817865 
L 307.164128 149.571408 
L 307.468796 152.205596 
L 307.773464 150.972078 
L 308.078133 145.649243 
L 308.382801 153.405401 
L 308.687469 152.577233 
L 308.992138 149.529501 
L 309.296806 150.475146 
L 309.601474 156.135902 
L 309.906143 152.694379 
L 310.210811 152.28596 
L 310.515479 152.556631 
L 311.124816 150.388252 
L 311.429484 154.505908 
L 311.734152 145.87985 
L 312.038821 151.422699 
L 312.343489 149.026652 
L 312.648157 153.596104 
L 312.952826 150.735305 
L 313.257494 151.522164 
L 313.562162 151.721623 
L 313.86683 150.854781 
L 314.171499 154.282657 
L 314.476167 151.283211 
L 314.780835 154.335381 
L 315.085504 149.865432 
L 315.390172 153.332313 
L 315.69484 149.66762 
L 315.999509 155.271871 
L 316.304177 154.961225 
L 317.218182 149.1035 
L 317.52285 152.163299 
L 317.827518 149.455702 
L 318.132187 151.542384 
L 318.741523 152.715141 
L 319.046192 152.171688 
L 319.35086 152.607274 
L 319.655528 151.903138 
L 319.960197 155.040714 
L 320.264865 155.068572 
L 320.569533 152.381726 
L 320.874201 151.856874 
L 321.17887 149.976642 
L 321.483538 153.048749 
L 321.788206 150.998027 
L 322.092875 153.962214 
L 322.397543 153.798099 
L 322.702211 153.162428 
L 323.00688 152.93204 
L 323.311548 149.29954 
L 323.616216 154.173536 
L 323.920885 150.092896 
L 324.225553 153.541394 
L 324.530221 154.221044 
L 324.834889 153.237422 
L 325.139558 153.872429 
L 325.444226 154.981718 
L 325.748894 148.922271 
L 326.053563 153.061384 
L 326.358231 151.202841 
L 326.662899 156.248111 
L 326.967568 158.211704 
L 327.272236 153.387804 
L 327.576904 152.001607 
L 327.881572 150.082348 
L 328.186241 150.934119 
L 328.490909 149.285218 
L 328.795577 153.770103 
L 329.100246 153.54885 
L 329.404914 151.090175 
L 329.709582 153.139701 
L 330.014251 150.273274 
L 330.318919 155.195633 
L 330.623587 150.093817 
L 330.928256 152.818153 
L 331.232924 149.867901 
L 331.537592 150.748507 
L 331.84226 155.550798 
L 332.146929 147.990705 
L 332.451597 151.163625 
L 332.756265 149.827572 
L 333.060934 151.810468 
L 333.365602 152.158711 
L 333.67027 152.306798 
L 333.974939 151.684447 
L 334.584275 149.348268 
L 334.888943 155.028172 
L 335.193612 153.166823 
L 335.49828 152.252099 
L 335.802948 150.719821 
L 336.107617 152.080788 
L 336.412285 151.980061 
L 336.716953 153.325788 
L 337.021622 153.078958 
L 337.32629 152.498878 
L 337.630958 154.032058 
L 337.935627 153.637326 
L 338.240295 151.770942 
L 338.544963 151.36779 
L 338.849631 150.291962 
L 339.1543 154.556691 
L 339.458968 150.48807 
L 339.763636 153.8933 
L 340.068305 152.105441 
L 340.372973 151.044016 
L 340.677641 150.93365 
L 340.98231 150.367613 
L 341.286978 151.930394 
L 341.591646 150.291702 
L 341.896314 152.047046 
L 342.200983 154.894319 
L 342.505651 151.801687 
L 342.810319 152.508886 
L 343.114988 152.805718 
L 343.419656 151.144865 
L 343.724324 153.847545 
L 344.028993 153.410659 
L 344.333661 150.293361 
L 344.638329 151.728427 
L 344.942998 152.143408 
L 345.247666 152.185103 
L 345.552334 153.450643 
L 346.161671 151.750619 
L 346.466339 150.830095 
L 346.771007 152.672319 
L 347.075676 151.774708 
L 347.380344 153.560721 
L 347.685012 149.014845 
L 347.989681 152.826412 
L 348.294349 151.241224 
L 348.599017 154.391162 
L 348.903686 155.257989 
L 349.208354 150.920174 
L 349.513022 151.922693 
L 349.81769 152.327236 
L 350.122359 147.968692 
L 350.427027 156.300399 
L 350.731695 149.513232 
L 351.036364 151.010925 
L 351.341032 151.091545 
L 351.6457 149.465208 
L 351.950369 151.412846 
L 352.255037 148.907137 
L 352.559705 149.976538 
L 352.864373 148.193911 
L 353.169042 150.109044 
L 353.47371 147.994975 
L 353.778378 154.54958 
L 354.083047 156.009487 
L 354.387715 151.824418 
L 354.692383 152.985891 
L 354.997052 149.292214 
L 355.30172 153.464117 
L 355.606388 149.965164 
L 355.911057 150.962746 
L 356.215725 150.991196 
L 356.520393 152.165324 
L 356.825061 152.512099 
L 357.12973 151.844697 
L 357.434398 150.727329 
L 357.739066 153.00962 
L 358.043735 150.370029 
L 358.348403 152.856937 
L 358.653071 151.075775 
L 358.95774 150.600464 
L 359.262408 152.503972 
L 359.567076 151.572409 
L 359.871744 149.585297 
L 360.481081 154.791607 
L 360.785749 151.243494 
L 361.090418 151.905168 
L 361.395086 150.523568 
L 361.699754 152.607866 
L 362.004423 150.709498 
L 362.309091 152.112256 
L 362.613759 147.576232 
L 363.223096 154.663744 
L 363.527764 149.034145 
L 363.832432 151.872067 
L 364.137101 149.78656 
L 364.441769 152.277449 
L 364.746437 147.914249 
L 365.051106 155.196819 
L 365.355774 153.173456 
L 365.660442 152.788484 
L 365.965111 153.92946 
L 366.269779 154.371606 
L 366.574447 148.253586 
L 366.879115 151.599623 
L 367.488452 149.574549 
L 367.79312 152.448607 
L 368.097789 153.883365 
L 368.707125 149.462841 
L 369.011794 151.427637 
L 369.316462 150.771774 
L 369.62113 153.120443 
L 369.925799 153.868809 
L 370.230467 151.031652 
L 370.535135 152.499039 
L 370.839803 149.632395 
L 371.144472 152.460804 
L 371.753808 148.079963 
L 372.058477 150.641385 
L 372.363145 149.184626 
L 372.667813 151.3628 
L 372.972482 149.299854 
L 373.27715 155.494746 
L 373.581818 153.004532 
L 373.581818 153.004532 
" style="fill:none;stroke:#1f77b4;stroke-linecap:square;stroke-width:1.5;"/>
   </g>
   <g id="line2d_13">
    <path clip-path="url(#p1887c0c847)" d="M 69.218182 225.768897 
L 69.52285 185.720008 
L 70.436855 136.278666 
L 70.741523 133.622051 
L 71.35086 118.400462 
L 71.655528 118.502605 
L 71.960197 110.341428 
L 72.264865 111.425477 
L 72.569533 106.047984 
L 72.874201 110.181295 
L 73.483538 101.292285 
L 73.788206 105.692924 
L 74.092875 101.785232 
L 74.397543 96.060539 
L 74.702211 96.38385 
L 75.00688 101.249835 
L 75.311548 99.245541 
L 75.616216 98.709935 
L 75.920885 98.511308 
L 76.225553 100.97882 
L 76.530221 102.496598 
L 76.834889 93.74364 
L 77.139558 97.134956 
L 77.748894 92.886959 
L 78.053563 92.60696 
L 78.358231 97.450378 
L 78.662899 93.962443 
L 79.272236 97.347018 
L 79.576904 92.369889 
L 79.881572 91.170552 
L 80.186241 92.063213 
L 80.490909 89.328288 
L 80.795577 89.978998 
L 81.100246 89.43534 
L 81.404914 96.323659 
L 81.709582 89.196417 
L 82.318919 89.750035 
L 82.623587 91.136582 
L 82.928256 89.798581 
L 83.232924 83.93152 
L 83.537592 84.176921 
L 83.84226 83.248677 
L 84.146929 81.045952 
L 84.451597 87.194391 
L 84.756265 88.487661 
L 85.060934 87.446799 
L 85.365602 83.997456 
L 85.67027 85.604743 
L 85.974939 80.855173 
L 86.584275 80.02902 
L 86.888943 81.840589 
L 87.193612 86.203517 
L 87.49828 80.297062 
L 87.802948 82.207932 
L 88.107617 82.484305 
L 88.412285 82.201771 
L 88.716953 79.721095 
L 89.021622 81.273362 
L 89.32629 83.503597 
L 89.630958 78.858857 
L 89.935627 81.700767 
L 90.240295 82.052359 
L 90.544963 80.161077 
L 90.849631 80.918814 
L 91.763636 76.870999 
L 92.068305 78.345126 
L 92.372973 82.847712 
L 92.677641 79.142986 
L 92.98231 76.922601 
L 93.286978 73.50305 
L 93.591646 76.218629 
L 93.896314 71.689242 
L 94.200983 81.602008 
L 94.505651 74.697576 
L 95.114988 73.31198 
L 95.419656 73.270813 
L 95.724324 76.252575 
L 96.028993 72.306713 
L 96.638329 78.575606 
L 96.942998 76.491372 
L 97.247666 78.302605 
L 97.552334 76.021309 
L 97.857002 72.563966 
L 98.161671 74.446724 
L 98.466339 68.515186 
L 99.075676 75.75584 
L 99.380344 75.008329 
L 99.989681 65.95776 
L 100.599017 72.416731 
L 100.903686 75.850294 
L 101.208354 65.98349 
L 101.513022 70.91904 
L 101.81769 71.820398 
L 102.122359 68.545886 
L 102.427027 72.946195 
L 103.036364 69.710943 
L 103.341032 69.242615 
L 103.6457 66.920665 
L 103.950369 72.365891 
L 104.255037 69.101967 
L 104.559705 70.937499 
L 104.864373 69.545103 
L 105.169042 63.243238 
L 105.778378 73.300183 
L 106.083047 66.319023 
L 106.387715 68.742668 
L 106.997052 67.320148 
L 107.30172 66.66317 
L 107.606388 70.467745 
L 107.911057 67.208221 
L 108.215725 69.727682 
L 108.520393 64.844097 
L 109.12973 67.513495 
L 109.434398 67.776918 
L 109.739066 61.040218 
L 110.043735 66.26155 
L 110.348403 63.208 
L 110.95774 68.927707 
L 111.262408 65.856396 
L 111.567076 68.489215 
L 111.871744 67.238104 
L 112.176413 61.492105 
L 112.481081 65.27023 
L 112.785749 64.784661 
L 113.090418 62.089712 
L 113.395086 63.538064 
L 113.699754 66.987842 
L 114.004423 60.929475 
L 114.309091 66.280002 
L 114.613759 58.724182 
L 114.918428 68.725993 
L 115.223096 60.21284 
L 115.527764 64.108276 
L 115.832432 64.7383 
L 116.137101 60.36506 
L 116.441769 63.854098 
L 116.746437 65.031725 
L 117.051106 60.612062 
L 117.355774 60.868026 
L 117.965111 65.300475 
L 118.269779 63.241041 
L 118.574447 62.900319 
L 119.183784 68.193336 
L 119.488452 63.996285 
L 119.79312 63.710413 
L 120.097789 60.706626 
L 120.402457 65.674893 
L 120.707125 62.873372 
L 121.316462 62.574148 
L 121.62113 62.363526 
L 121.925799 58.241636 
L 122.230467 63.263947 
L 122.535135 58.865769 
L 122.839803 62.647342 
L 123.144472 61.0343 
L 123.44914 63.427978 
L 123.753808 57.926504 
L 124.058477 63.478643 
L 124.363145 60.378653 
L 124.667813 61.694262 
L 124.972482 60.961389 
L 125.27715 63.895805 
L 125.886486 59.605536 
L 126.495823 58.186058 
L 126.800491 64.343859 
L 127.10516 59.935761 
L 127.409828 60.810875 
L 127.714496 53.726919 
L 128.019165 62.909479 
L 128.628501 59.759588 
L 129.237838 64.437453 
L 129.542506 59.266756 
L 129.847174 56.943105 
L 130.151843 59.929378 
L 130.456511 59.28885 
L 130.761179 62.493511 
L 131.065848 60.675708 
L 131.370516 60.67027 
L 131.675184 58.056399 
L 131.979853 62.41799 
L 132.589189 58.642497 
L 132.893857 61.748699 
L 133.198526 62.233742 
L 133.807862 57.812779 
L 134.112531 57.676093 
L 134.417199 56.342829 
L 134.721867 63.416234 
L 135.026536 60.912985 
L 135.331204 61.811287 
L 135.635872 57.007117 
L 135.940541 60.593883 
L 136.245209 57.288954 
L 136.549877 57.270516 
L 136.854545 56.660184 
L 137.159214 56.651849 
L 137.463882 58.193926 
L 137.76855 57.277261 
L 138.073219 62.006665 
L 138.377887 54.964809 
L 138.682555 58.470194 
L 138.987224 56.609279 
L 139.291892 61.539954 
L 139.59656 58.056006 
L 139.901229 57.807927 
L 140.205897 63.401409 
L 140.510565 62.47745 
L 140.815233 55.077099 
L 141.119902 61.305422 
L 141.729238 58.896511 
L 142.033907 56.067124 
L 142.338575 62.47526 
L 142.643243 61.421262 
L 142.947912 55.580934 
L 143.25258 60.291064 
L 143.557248 54.954491 
L 143.861916 58.39294 
L 144.166585 56.3561 
L 144.471253 58.624153 
L 144.775921 57.976408 
L 145.08059 55.031873 
L 145.385258 56.845387 
L 145.689926 61.620036 
L 145.994595 58.614004 
L 146.299263 59.836722 
L 146.603931 54.74133 
L 146.9086 59.148418 
L 147.213268 58.996 
L 147.517936 58.078475 
L 147.822604 56.692707 
L 148.127273 60.7177 
L 148.431941 58.669767 
L 148.736609 55.635519 
L 149.041278 58.375155 
L 149.345946 59.253496 
L 149.955283 55.206222 
L 150.259951 53.651461 
L 150.564619 53.994128 
L 150.869287 60.397252 
L 151.478624 56.527109 
L 151.783292 55.488049 
L 152.087961 58.35212 
L 152.392629 56.582871 
L 152.697297 56.886506 
L 153.001966 54.632176 
L 153.306634 56.837308 
L 153.611302 60.453576 
L 153.915971 57.661464 
L 154.220639 56.442504 
L 154.525307 57.151318 
L 154.829975 52.457742 
L 155.134644 57.599345 
L 155.439312 53.010066 
L 155.74398 57.841564 
L 156.048649 54.765592 
L 156.353317 57.746475 
L 156.657985 55.598232 
L 156.962654 59.355733 
L 157.267322 53.840905 
L 157.57199 54.676016 
L 157.876658 62.187997 
L 158.181327 59.650169 
L 158.485995 59.006166 
L 158.790663 55.76195 
L 159.095332 54.039876 
L 159.4 57.733702 
L 159.704668 51.385882 
L 160.009337 59.053081 
L 160.314005 50.687669 
L 160.618673 54.995861 
L 160.923342 54.163998 
L 161.22801 48.586867 
L 161.532678 55.775192 
L 161.837346 58.475699 
L 162.142015 53.437328 
L 162.446683 59.193578 
L 162.751351 58.157668 
L 163.05602 53.928905 
L 163.360688 54.801393 
L 163.665356 57.834747 
L 163.970025 52.857197 
L 164.579361 53.637114 
L 164.884029 60.197397 
L 165.188698 60.287788 
L 165.493366 55.403231 
L 165.798034 55.100278 
L 166.102703 60.004903 
L 166.407371 55.431357 
L 166.712039 54.643429 
L 167.016708 54.29574 
L 167.321376 58.229301 
L 167.626044 50.861329 
L 167.930713 51.64334 
L 168.235381 51.461308 
L 168.540049 56.296621 
L 168.844717 57.128379 
L 169.149386 54.632742 
L 169.454054 56.003602 
L 169.758722 58.574222 
L 170.063391 55.415695 
L 170.368059 55.124178 
L 170.672727 52.948919 
L 170.977396 60.571376 
L 171.282064 52.280525 
L 171.586732 53.949334 
L 171.8914 57.989841 
L 172.196069 59.000686 
L 172.500737 53.201889 
L 172.805405 53.018034 
L 173.110074 52.603184 
L 173.71941 55.917893 
L 174.024079 56.511558 
L 174.328747 56.450752 
L 174.633415 57.300404 
L 174.938084 54.651915 
L 175.242752 55.640211 
L 175.852088 56.489986 
L 176.156757 57.856797 
L 176.461425 58.081092 
L 176.766093 53.511669 
L 177.070762 58.445276 
L 177.37543 56.647035 
L 177.680098 58.72031 
L 177.984767 56.865745 
L 178.289435 54.143625 
L 178.594103 57.012745 
L 178.898771 56.242135 
L 179.20344 57.465715 
L 179.508108 56.143831 
L 179.812776 51.724339 
L 180.117445 55.095396 
L 180.726781 57.444462 
L 181.03145 53.568556 
L 181.336118 60.456995 
L 181.640786 56.233711 
L 181.945455 54.829648 
L 182.250123 55.743736 
L 182.554791 61.704489 
L 182.859459 51.858456 
L 183.164128 49.728673 
L 183.468796 54.893106 
L 183.773464 52.174347 
L 184.078133 56.944917 
L 184.382801 54.272478 
L 184.687469 54.540679 
L 184.992138 54.007461 
L 185.296806 58.51709 
L 185.601474 54.957398 
L 185.906143 53.31631 
L 186.210811 56.611805 
L 186.515479 57.107794 
L 186.820147 52.560224 
L 187.124816 56.175752 
L 187.429484 52.968601 
L 187.734152 55.794029 
L 188.038821 55.199628 
L 188.343489 50.074828 
L 188.648157 55.859535 
L 188.952826 54.797728 
L 189.257494 55.828956 
L 189.562162 55.990936 
L 189.86683 51.496378 
L 190.171499 55.844008 
L 190.476167 52.252218 
L 190.780835 56.136454 
L 191.085504 55.412978 
L 191.390172 52.49246 
L 191.69484 50.960765 
L 191.999509 50.601982 
L 192.304177 55.905478 
L 192.608845 52.76089 
L 192.913514 56.103202 
L 193.218182 55.696789 
L 193.52285 54.379224 
L 193.827518 49.585558 
L 194.132187 53.468615 
L 194.741523 56.056107 
L 195.046192 52.708988 
L 195.35086 57.40495 
L 195.655528 53.919772 
L 195.960197 52.619709 
L 196.264865 52.473969 
L 196.569533 53.954297 
L 196.874201 51.317418 
L 197.17887 56.441974 
L 197.483538 49.632891 
L 197.788206 54.548566 
L 198.092875 54.163397 
L 198.397543 53.239736 
L 198.702211 54.17183 
L 199.00688 50.936576 
L 199.311548 50.285139 
L 199.616216 55.29473 
L 199.920885 54.967566 
L 200.225553 52.792471 
L 200.530221 52.378245 
L 200.834889 56.737095 
L 201.139558 53.649584 
L 201.444226 53.113432 
L 201.748894 52.976336 
L 202.053563 57.38299 
L 202.967568 51.412243 
L 203.272236 56.107912 
L 203.576904 55.716986 
L 203.881572 52.573437 
L 204.186241 57.295345 
L 204.490909 51.77953 
L 204.795577 52.697564 
L 205.404914 50.580153 
L 205.709582 57.285783 
L 206.014251 56.61216 
L 206.623587 52.033194 
L 206.928256 56.390369 
L 207.232924 44.454722 
L 207.537592 51.610797 
L 207.84226 55.582297 
L 208.146929 55.38029 
L 208.451597 51.807439 
L 208.756265 49.825887 
L 209.365602 54.590312 
L 209.67027 50.846991 
L 209.974939 52.143359 
L 210.279607 57.17155 
L 210.584275 53.300396 
L 210.888943 51.755736 
L 211.193612 51.86294 
L 211.49828 55.383636 
L 211.802948 48.880475 
L 212.107617 53.239312 
L 212.412285 52.556371 
L 212.716953 53.352158 
L 213.021622 51.929507 
L 213.32629 54.367763 
L 213.630958 51.412749 
L 213.935627 51.502556 
L 214.240295 55.200345 
L 214.544963 51.730645 
L 214.849631 55.600535 
L 215.1543 49.617163 
L 215.458968 53.483975 
L 215.763636 55.639483 
L 216.068305 54.507957 
L 216.372973 56.197027 
L 216.677641 53.708138 
L 216.98231 53.082116 
L 217.286978 58.286342 
L 217.591646 51.066507 
L 217.896314 51.293651 
L 218.200983 52.437394 
L 218.505651 57.057593 
L 218.810319 53.495616 
L 219.114988 55.52787 
L 219.419656 52.194493 
L 219.724324 53.111558 
L 220.028993 54.750716 
L 220.333661 49.404572 
L 220.638329 52.035829 
L 221.247666 54.313817 
L 221.552334 51.740244 
L 221.857002 54.490818 
L 222.161671 54.589404 
L 222.466339 54.225089 
L 222.771007 52.920735 
L 223.075676 49.14048 
L 223.380344 52.432858 
L 223.685012 59.791917 
L 223.989681 48.540026 
L 224.294349 55.043738 
L 224.599017 50.626926 
L 224.903686 53.638386 
L 225.208354 54.757704 
L 225.513022 49.977536 
L 225.81769 54.565536 
L 226.122359 50.791141 
L 226.731695 57.378261 
L 227.036364 54.055089 
L 227.341032 53.928697 
L 227.6457 51.918957 
L 227.950369 53.863736 
L 228.255037 52.810276 
L 228.559705 55.030355 
L 228.864373 52.820537 
L 229.169042 52.136502 
L 229.47371 55.995005 
L 229.778378 57.02013 
L 230.083047 52.171552 
L 230.387715 55.836793 
L 230.692383 57.37407 
L 230.997052 54.384927 
L 231.30172 49.710872 
L 231.606388 52.383185 
L 231.911057 51.616694 
L 232.215725 51.90268 
L 232.520393 49.547445 
L 232.825061 54.335003 
L 233.12973 53.246294 
L 233.434398 50.341632 
L 233.739066 51.23784 
L 234.043735 54.196036 
L 234.348403 53.396231 
L 234.653071 55.487352 
L 234.95774 54.877601 
L 235.262408 53.615188 
L 235.567076 51.09207 
L 235.871744 50.306032 
L 236.176413 48.164258 
L 236.481081 52.149236 
L 236.785749 50.593387 
L 237.090418 51.842234 
L 237.395086 51.74771 
L 237.699754 52.232943 
L 238.004423 52.218828 
L 238.309091 48.384778 
L 238.613759 57.418953 
L 238.918428 52.544377 
L 239.223096 53.749198 
L 239.527764 56.063629 
L 240.441769 50.994651 
L 240.746437 51.826494 
L 241.051106 51.251594 
L 241.355774 58.628979 
L 241.965111 54.584885 
L 242.269779 48.970576 
L 242.574447 54.393539 
L 243.183784 46.986679 
L 243.488452 49.948609 
L 243.79312 58.295305 
L 244.402457 50.688023 
L 244.707125 52.043184 
L 245.011794 49.290242 
L 245.316462 54.432157 
L 245.62113 52.140283 
L 245.925799 45.499771 
L 246.230467 56.094936 
L 246.535135 48.413398 
L 246.839803 49.93573 
L 247.144472 54.572572 
L 247.44914 50.958957 
L 247.753808 53.179382 
L 248.058477 54.365025 
L 248.363145 47.383959 
L 248.667813 52.087568 
L 248.972482 50.525126 
L 249.27715 54.657573 
L 249.581818 48.837834 
L 249.886486 51.800921 
L 250.191155 51.841296 
L 250.495823 56.982522 
L 250.800491 47.407206 
L 251.10516 49.455284 
L 251.409828 53.536265 
L 251.714496 51.188065 
L 252.019165 57.367963 
L 252.323833 51.570732 
L 252.628501 54.872594 
L 252.93317 54.439372 
L 253.237838 49.601623 
L 253.542506 55.574222 
L 253.847174 53.41335 
L 254.151843 55.508123 
L 254.456511 56.179523 
L 254.761179 55.960357 
L 255.370516 48.917038 
L 255.675184 52.191301 
L 255.979853 53.88965 
L 256.284521 47.806217 
L 256.589189 52.647062 
L 257.198526 50.563538 
L 257.807862 55.541324 
L 258.112531 51.282029 
L 258.417199 49.169346 
L 259.026536 55.475806 
L 259.331204 54.551135 
L 259.635872 55.184145 
L 259.940541 49.917327 
L 260.245209 51.495925 
L 260.549877 50.246059 
L 260.854545 50.101187 
L 261.159214 52.820894 
L 261.463882 53.176891 
L 261.76855 50.846392 
L 262.073219 50.404715 
L 262.377887 51.923365 
L 262.682555 55.619346 
L 262.987224 49.764483 
L 263.291892 47.924222 
L 263.59656 53.132908 
L 263.901229 54.374721 
L 264.205897 56.916915 
L 264.510565 52.850997 
L 264.815233 56.161293 
L 265.119902 48.16809 
L 265.42457 54.253691 
L 265.729238 49.835733 
L 266.033907 56.037835 
L 266.338575 49.4507 
L 266.643243 53.000259 
L 266.947912 51.307197 
L 267.25258 51.730612 
L 267.861916 49.341949 
L 268.166585 54.171346 
L 268.471253 49.743047 
L 268.775921 53.791286 
L 269.08059 47.50965 
L 269.385258 48.125716 
L 269.689926 53.951077 
L 269.994595 50.765682 
L 270.299263 50.588463 
L 270.603931 53.457637 
L 270.9086 52.817362 
L 271.213268 49.761615 
L 271.822604 51.003208 
L 272.127273 51.136701 
L 272.431941 53.349911 
L 272.736609 54.384621 
L 273.041278 47.205093 
L 273.650614 54.313772 
L 273.955283 50.986638 
L 274.259951 54.506819 
L 274.564619 56.324275 
L 274.869287 53.871531 
L 275.173956 53.78859 
L 275.478624 51.372621 
L 275.783292 51.546044 
L 276.087961 52.772584 
L 276.392629 53.521617 
L 276.697297 53.466167 
L 277.001966 49.489407 
L 277.306634 48.78906 
L 277.611302 53.058455 
L 277.915971 49.07651 
L 278.220639 53.359174 
L 278.525307 53.364661 
L 278.829975 56.428435 
L 279.134644 48.937223 
L 279.439312 52.427291 
L 279.74398 52.478667 
L 280.048649 52.643259 
L 280.353317 48.1425 
L 280.657985 50.37301 
L 280.962654 50.162668 
L 281.57199 55.858847 
L 281.876658 51.42499 
L 282.181327 50.363513 
L 282.485995 53.944082 
L 282.790663 52.057725 
L 283.095332 51.236436 
L 283.704668 53.697513 
L 284.009337 48.583162 
L 284.314005 51.355291 
L 284.618673 47.544296 
L 284.923342 47.397868 
L 285.22801 51.199116 
L 285.532678 51.211697 
L 285.837346 55.021725 
L 286.142015 54.352052 
L 286.446683 51.346864 
L 287.05602 51.477211 
L 287.360688 55.199585 
L 287.665356 53.534264 
L 287.970025 50.037212 
L 288.274693 53.487937 
L 288.579361 52.043573 
L 288.884029 49.035436 
L 289.188698 47.2286 
L 289.493366 53.630766 
L 289.798034 50.446828 
L 290.102703 48.445408 
L 290.407371 48.984471 
L 290.712039 54.018102 
L 291.016708 50.801539 
L 291.321376 50.84242 
L 291.626044 51.537735 
L 291.930713 50.917088 
L 292.235381 51.901757 
L 292.540049 47.53513 
L 292.844717 55.315306 
L 293.149386 50.524201 
L 293.454054 50.519252 
L 293.758722 54.086155 
L 294.063391 54.054573 
L 294.368059 53.477364 
L 294.672727 59.296809 
L 294.977396 48.623831 
L 295.282064 52.835634 
L 295.8914 47.923489 
L 296.196069 46.005076 
L 296.805405 51.168455 
L 297.110074 48.95393 
L 297.414742 51.18824 
L 297.71941 57.407771 
L 298.024079 50.696317 
L 298.328747 52.374424 
L 298.633415 51.591818 
L 298.938084 55.577961 
L 299.242752 49.218087 
L 299.54742 49.497681 
L 299.852088 53.082374 
L 300.156757 53.912402 
L 300.766093 46.293112 
L 301.37543 55.466398 
L 301.680098 50.358305 
L 301.984767 52.118036 
L 302.289435 53.168685 
L 302.594103 52.112972 
L 302.898771 51.792224 
L 303.20344 50.251461 
L 303.508108 51.773594 
L 303.812776 51.188198 
L 304.117445 52.197792 
L 304.422113 49.586582 
L 304.726781 51.570898 
L 305.03145 47.588214 
L 305.336118 49.083431 
L 305.640786 55.364434 
L 305.945455 49.639928 
L 306.250123 53.619583 
L 306.554791 49.750258 
L 306.859459 52.674793 
L 307.468796 49.10728 
L 307.773464 50.645855 
L 308.382801 55.697638 
L 308.687469 54.036041 
L 308.992138 49.623968 
L 309.296806 50.989045 
L 309.601474 49.195505 
L 309.906143 55.140723 
L 310.210811 51.312254 
L 310.515479 45.780126 
L 310.820147 49.590582 
L 311.124816 49.905547 
L 311.429484 51.924573 
L 311.734152 50.62011 
L 312.038821 53.28658 
L 312.343489 51.077256 
L 312.648157 47.878784 
L 312.952826 49.548834 
L 313.257494 52.763119 
L 313.562162 46.273061 
L 313.86683 51.34596 
L 314.171499 50.251669 
L 314.476167 51.476216 
L 314.780835 53.336905 
L 315.085504 45.231117 
L 315.69484 56.322207 
L 315.999509 48.766719 
L 316.304177 53.007633 
L 316.608845 49.087786 
L 316.913514 55.632405 
L 317.218182 54.833639 
L 317.52285 55.495136 
L 317.827518 49.881309 
L 318.132187 49.469716 
L 319.046192 54.048564 
L 319.35086 46.770761 
L 319.655528 53.41677 
L 319.960197 54.498564 
L 320.264865 47.716474 
L 320.569533 50.623389 
L 320.874201 51.816452 
L 321.17887 51.389451 
L 321.483538 53.204629 
L 321.788206 50.209794 
L 322.092875 50.25116 
L 322.397543 50.154666 
L 322.702211 49.308659 
L 323.00688 49.059775 
L 323.311548 50.152593 
L 323.616216 47.930994 
L 323.920885 51.823123 
L 324.225553 48.969269 
L 324.530221 49.426785 
L 324.834889 55.464292 
L 325.139558 46.396231 
L 325.444226 52.717942 
L 326.053563 52.274547 
L 326.662899 48.600173 
L 326.967568 50.226819 
L 327.272236 44.443636 
L 327.576904 52.189214 
L 327.881572 48.424135 
L 328.186241 52.363494 
L 328.490909 48.102487 
L 328.795577 52.719032 
L 329.100246 52.642294 
L 329.404914 52.808313 
L 329.709582 51.185047 
L 330.014251 47.069303 
L 330.318919 49.295911 
L 330.623587 47.370269 
L 330.928256 54.500576 
L 331.232924 53.254245 
L 331.537592 53.184555 
L 331.84226 52.496528 
L 332.146929 53.405441 
L 332.451597 51.627292 
L 332.756265 52.579771 
L 333.060934 50.086869 
L 333.365602 50.495983 
L 333.974939 47.559455 
L 334.279607 50.289841 
L 334.584275 49.180959 
L 334.888943 50.245728 
L 335.193612 52.018916 
L 335.49828 57.688206 
L 335.802948 52.476338 
L 336.107617 50.386441 
L 336.412285 53.01886 
L 336.716953 49.50242 
L 337.021622 47.545018 
L 337.32629 50.33414 
L 337.630958 50.877397 
L 338.240295 52.871771 
L 338.544963 49.276232 
L 338.849631 52.033531 
L 339.1543 49.834739 
L 339.458968 55.725736 
L 339.763636 47.850638 
L 340.068305 49.688202 
L 340.372973 55.236598 
L 340.677641 49.484727 
L 340.98231 48.673988 
L 341.286978 52.054742 
L 341.591646 53.444705 
L 341.896314 49.38537 
L 342.200983 54.264224 
L 342.505651 54.478723 
L 343.114988 46.521334 
L 343.419656 47.749593 
L 343.724324 50.101791 
L 344.028993 47.020881 
L 344.333661 52.208473 
L 344.638329 48.403024 
L 344.942998 49.961594 
L 345.247666 47.299387 
L 345.552334 50.499282 
L 345.857002 52.474535 
L 346.161671 52.633732 
L 346.466339 47.433217 
L 346.771007 49.175222 
L 347.075676 52.74483 
L 347.685012 53.406376 
L 347.989681 47.042856 
L 348.294349 47.699124 
L 348.599017 51.360861 
L 349.208354 46.314732 
L 349.513022 48.788836 
L 349.81769 49.631222 
L 350.122359 47.165969 
L 350.427027 52.088293 
L 351.036364 53.825184 
L 351.6457 51.619502 
L 351.950369 49.553236 
L 352.255037 49.633382 
L 352.559705 48.296019 
L 352.864373 48.050572 
L 353.169042 48.261467 
L 353.47371 47.999662 
L 353.778378 48.456334 
L 354.083047 52.892931 
L 354.387715 55.254313 
L 354.692383 50.177579 
L 354.997052 47.134695 
L 355.30172 54.652695 
L 355.606388 53.735899 
L 355.911057 53.839408 
L 356.520393 48.21474 
L 356.825061 51.211777 
L 357.12973 52.209165 
L 357.434398 49.926146 
L 357.739066 52.01662 
L 358.043735 48.48027 
L 358.653071 50.158833 
L 358.95774 48.840604 
L 359.262408 50.755496 
L 359.567076 50.561463 
L 359.871744 51.032847 
L 360.176413 54.63165 
L 360.481081 49.503876 
L 360.785749 52.68944 
L 361.090418 49.925352 
L 361.395086 49.549322 
L 361.699754 48.177083 
L 362.004423 50.057591 
L 362.309091 50.514171 
L 362.613759 48.998576 
L 362.918428 48.051054 
L 363.223096 53.858547 
L 363.527764 52.107877 
L 363.832432 51.875036 
L 364.137101 53.149188 
L 364.441769 51.006284 
L 364.746437 52.939213 
L 365.051106 53.461178 
L 365.355774 51.397531 
L 365.660442 51.761594 
L 365.965111 48.875579 
L 366.269779 49.434142 
L 366.574447 49.14372 
L 367.183784 52.96439 
L 367.488452 50.387588 
L 367.79312 50.240507 
L 368.097789 54.928304 
L 369.011794 49.891872 
L 369.316462 52.185672 
L 369.62113 50.141908 
L 369.925799 53.689389 
L 370.230467 48.783028 
L 370.535135 49.304352 
L 370.839803 49.590939 
L 371.144472 50.178867 
L 371.44914 50.466864 
L 371.753808 49.900915 
L 372.058477 48.717701 
L 372.363145 55.069204 
L 372.667813 52.640795 
L 372.972482 47.18582 
L 373.27715 53.494832 
L 373.581818 47.78285 
L 373.581818 47.78285 
" style="fill:none;stroke:#ff7f0e;stroke-linecap:square;stroke-width:1.5;"/>
   </g>
   <g id="line2d_14">
    <path clip-path="url(#p1887c0c847)" d="M 69.218182 191.379964 
L 69.52285 174.874817 
L 70.436855 148.984146 
L 70.741523 144.060278 
L 71.655528 137.336123 
L 71.960197 135.474052 
L 72.264865 132.48556 
L 72.569533 127.489698 
L 72.874201 131.858585 
L 73.17887 125.106819 
L 73.483538 126.598337 
L 73.788206 126.491787 
L 74.397543 123.362537 
L 74.702211 123.264409 
L 75.00688 122.322288 
L 75.311548 120.59697 
L 75.616216 120.098857 
L 75.920885 117.707563 
L 76.225553 121.480925 
L 76.530221 115.226165 
L 76.834889 120.385518 
L 77.139558 123.055296 
L 77.748894 120.218165 
L 78.053563 117.541925 
L 78.358231 120.048841 
L 78.662899 117.465719 
L 78.967568 118.27173 
L 79.272236 117.319142 
L 79.576904 118.378623 
L 79.881572 115.13436 
L 80.186241 116.282323 
L 80.795577 117.507547 
L 81.100246 116.36314 
L 81.404914 117.104876 
L 81.709582 115.729994 
L 82.014251 115.973493 
L 82.318919 112.787675 
L 82.623587 115.883712 
L 82.928256 114.84514 
L 83.232924 118.294467 
L 83.537592 116.320864 
L 84.146929 110.817021 
L 84.756265 115.261999 
L 85.060934 112.15709 
L 85.365602 111.752076 
L 85.67027 113.638399 
L 85.974939 110.692357 
L 86.279607 114.083509 
L 86.584275 112.435822 
L 86.888943 114.416248 
L 87.193612 112.281163 
L 87.49828 111.259662 
L 87.802948 109.607462 
L 88.107617 113.669857 
L 88.412285 112.09038 
L 88.716953 112.641916 
L 89.32629 114.419151 
L 89.630958 114.939433 
L 90.240295 109.350719 
L 90.544963 109.916665 
L 90.849631 109.688367 
L 91.1543 111.272551 
L 91.458968 111.763429 
L 91.763636 112.947434 
L 92.068305 111.99611 
L 92.372973 108.890419 
L 92.677641 114.93745 
L 92.98231 108.120441 
L 93.286978 108.633004 
L 93.591646 111.357031 
L 93.896314 111.225746 
L 94.200983 109.884053 
L 94.505651 109.634186 
L 94.810319 112.834099 
L 95.114988 109.40438 
L 96.028993 113.944175 
L 96.333661 109.493905 
L 96.638329 108.85498 
L 96.942998 109.126424 
L 97.247666 109.755674 
L 97.857002 111.461913 
L 98.161671 112.174718 
L 98.466339 107.453893 
L 98.771007 107.551689 
L 99.075676 110.543375 
L 99.380344 109.657768 
L 99.685012 107.848662 
L 99.989681 112.697525 
L 100.294349 107.772138 
L 100.599017 106.199083 
L 100.903686 109.000967 
L 101.208354 108.021139 
L 101.513022 109.069366 
L 101.81769 108.358134 
L 102.122359 107.96355 
L 102.427027 105.186182 
L 102.731695 109.875146 
L 103.036364 108.599696 
L 103.341032 110.669841 
L 103.6457 108.747455 
L 103.950369 105.111638 
L 104.255037 109.073684 
L 104.559705 108.707732 
L 104.864373 112.45728 
L 105.169042 106.392041 
L 105.47371 111.320457 
L 105.778378 109.884569 
L 106.083047 109.331631 
L 106.387715 109.373601 
L 106.692383 111.107447 
L 106.997052 110.390102 
L 107.606388 108.035246 
L 107.911057 109.130149 
L 108.215725 109.371246 
L 108.520393 108.999148 
L 108.825061 106.052183 
L 109.12973 108.016121 
L 109.434398 108.658551 
L 109.739066 106.429942 
L 110.043735 108.993463 
L 110.653071 105.774034 
L 111.262408 109.688149 
L 111.871744 106.26503 
L 112.481081 107.63835 
L 112.785749 106.858075 
L 113.090418 105.512511 
L 113.395086 104.84025 
L 113.699754 103.594063 
L 114.004423 108.96833 
L 114.309091 108.050275 
L 114.613759 111.072895 
L 114.918428 107.454226 
L 115.223096 107.74591 
L 115.527764 107.390393 
L 116.137101 106.010575 
L 116.441769 106.32833 
L 116.746437 107.894427 
L 117.051106 105.06068 
L 117.355774 108.300257 
L 117.660442 108.462831 
L 117.965111 104.37225 
L 118.269779 108.348433 
L 118.574447 104.265123 
L 118.879115 106.714818 
L 119.183784 108.143942 
L 119.488452 105.606367 
L 119.79312 107.883394 
L 120.097789 105.437433 
L 120.402457 107.323458 
L 120.707125 107.593325 
L 121.011794 104.728892 
L 121.316462 107.439241 
L 121.62113 109.133522 
L 121.925799 105.984836 
L 122.230467 109.197945 
L 122.535135 108.833965 
L 122.839803 108.793039 
L 123.144472 106.465455 
L 123.44914 107.045075 
L 123.753808 105.778131 
L 124.058477 107.594011 
L 124.363145 107.995537 
L 124.667813 106.967473 
L 124.972482 106.760824 
L 125.27715 106.151586 
L 125.581818 105.116694 
L 125.886486 104.519175 
L 126.191155 99.316304 
L 126.495823 103.504395 
L 126.800491 105.500674 
L 127.10516 105.08118 
L 127.409828 104.272861 
L 127.714496 104.352152 
L 128.019165 106.073437 
L 128.323833 106.262129 
L 128.628501 105.984376 
L 128.93317 106.262574 
L 129.237838 108.532764 
L 129.542506 107.135871 
L 129.847174 106.482696 
L 130.151843 107.411189 
L 130.456511 107.245577 
L 130.761179 105.131278 
L 131.065848 105.168894 
L 131.370516 109.370926 
L 131.675184 106.847712 
L 131.979853 101.451654 
L 132.284521 104.127236 
L 132.589189 105.225349 
L 132.893857 104.64218 
L 133.198526 102.972644 
L 133.503194 105.671244 
L 133.807862 103.023758 
L 134.112531 108.099037 
L 134.721867 102.16739 
L 135.026536 104.087987 
L 135.331204 102.874096 
L 135.635872 102.968241 
L 135.940541 103.399778 
L 136.245209 109.574712 
L 136.549877 103.271298 
L 137.159214 107.494534 
L 137.463882 105.962758 
L 137.76855 107.062415 
L 138.377887 106.288031 
L 138.682555 103.342393 
L 139.291892 102.85468 
L 139.59656 103.974148 
L 139.901229 106.697978 
L 140.205897 108.028832 
L 140.510565 104.225369 
L 140.815233 108.140688 
L 141.119902 104.61414 
L 141.42457 105.949448 
L 141.729238 106.405077 
L 142.033907 103.8058 
L 142.338575 106.739275 
L 142.947912 99.144902 
L 143.25258 103.516982 
L 143.557248 105.068066 
L 143.861916 103.133016 
L 144.166585 104.628742 
L 144.471253 103.810626 
L 144.775921 103.479941 
L 145.08059 107.252438 
L 145.385258 99.742755 
L 145.689926 101.654604 
L 145.994595 104.865099 
L 146.299263 104.719416 
L 146.603931 103.243365 
L 146.9086 104.234367 
L 147.213268 102.132208 
L 147.517936 104.299956 
L 147.822604 103.835472 
L 148.127273 102.148117 
L 148.431941 102.548175 
L 148.736609 101.650951 
L 149.041278 102.124854 
L 149.345946 101.635669 
L 149.650614 103.153443 
L 149.955283 102.544844 
L 150.259951 101.092941 
L 150.564619 101.749425 
L 150.869287 102.947979 
L 151.173956 98.608901 
L 151.478624 104.124825 
L 151.783292 102.472256 
L 152.087961 103.482138 
L 152.392629 103.319361 
L 152.697297 104.892573 
L 153.001966 101.371574 
L 153.306634 102.087491 
L 153.611302 100.373439 
L 153.915971 101.690207 
L 154.220639 102.50406 
L 154.525307 101.132982 
L 154.829975 102.040353 
L 155.134644 104.545744 
L 155.439312 102.600474 
L 155.74398 102.981565 
L 156.353317 104.984385 
L 156.657985 104.827102 
L 156.962654 100.970856 
L 157.267322 104.599227 
L 157.57199 99.930337 
L 157.876658 103.241303 
L 158.181327 105.177175 
L 158.485995 101.537921 
L 159.095332 104.080545 
L 159.4 104.011858 
L 159.704668 102.315505 
L 160.009337 101.95082 
L 160.314005 100.617665 
L 160.618673 103.538488 
L 160.923342 99.877121 
L 161.532678 102.543946 
L 162.142015 99.64322 
L 162.446683 100.558564 
L 162.751351 104.036095 
L 163.05602 103.84984 
L 163.360688 96.918408 
L 163.665356 101.633526 
L 163.970025 102.155062 
L 164.274693 102.007316 
L 164.579361 101.058905 
L 164.884029 98.735792 
L 165.188698 101.404576 
L 165.493366 99.479218 
L 165.798034 105.516658 
L 166.407371 100.64196 
L 166.712039 105.563464 
L 167.016708 100.98091 
L 167.321376 101.412896 
L 167.626044 103.328697 
L 167.930713 99.561462 
L 168.235381 102.717611 
L 168.540049 100.831781 
L 168.844717 101.542991 
L 169.149386 100.92601 
L 169.454054 103.263777 
L 169.758722 98.309283 
L 170.063391 102.45009 
L 170.368059 99.907201 
L 170.672727 102.193185 
L 170.977396 101.171472 
L 171.282064 101.759679 
L 171.586732 101.61582 
L 171.8914 97.579285 
L 172.196069 100.329083 
L 172.500737 101.247529 
L 172.805405 100.729413 
L 173.110074 99.936383 
L 173.414742 100.708386 
L 173.71941 99.304302 
L 174.024079 101.752329 
L 174.328747 102.888846 
L 174.633415 103.455768 
L 174.938084 100.487962 
L 175.242752 102.28857 
L 175.54742 99.181614 
L 175.852088 100.692168 
L 176.156757 101.192663 
L 176.461425 98.04293 
L 176.766093 99.268469 
L 177.070762 97.79179 
L 177.37543 99.767757 
L 177.680098 99.107895 
L 177.984767 99.650185 
L 178.289435 102.589595 
L 178.594103 96.376659 
L 178.898771 101.854694 
L 179.20344 99.805701 
L 179.508108 99.016174 
L 179.812776 97.131378 
L 180.726781 100.193043 
L 181.03145 98.729182 
L 181.336118 98.597799 
L 181.640786 99.697805 
L 181.945455 99.237595 
L 182.250123 101.315024 
L 182.554791 101.243728 
L 182.859459 99.089156 
L 183.164128 95.793929 
L 183.468796 99.644777 
L 183.773464 97.037483 
L 184.078133 102.27953 
L 184.382801 97.840993 
L 184.687469 99.854845 
L 184.992138 99.208048 
L 185.296806 99.119124 
L 185.601474 100.949307 
L 185.906143 97.815478 
L 186.210811 97.437919 
L 186.515479 99.365258 
L 186.820147 99.509521 
L 187.124816 98.957522 
L 187.734152 97.010217 
L 188.343489 100.501687 
L 188.648157 99.986079 
L 188.952826 99.014849 
L 189.257494 98.701679 
L 189.86683 102.095881 
L 190.171499 96.607832 
L 190.476167 99.933783 
L 190.780835 100.804193 
L 191.085504 101.122493 
L 191.69484 97.344894 
L 191.999509 100.232618 
L 192.304177 101.291067 
L 192.608845 99.748652 
L 192.913514 96.728927 
L 193.218182 98.394056 
L 193.52285 97.69954 
L 193.827518 94.009601 
L 194.132187 100.266977 
L 194.741523 94.349516 
L 195.046192 101.057104 
L 195.35086 99.245523 
L 195.655528 98.865155 
L 195.960197 94.288262 
L 196.569533 100.734852 
L 196.874201 99.717867 
L 197.17887 99.943681 
L 197.483538 97.024582 
L 197.788206 97.652254 
L 198.092875 96.714486 
L 198.397543 99.960108 
L 199.00688 97.85713 
L 199.311548 101.745146 
L 199.920885 95.18782 
L 200.225553 96.741257 
L 200.834889 98.028477 
L 201.139558 96.953192 
L 201.444226 98.703072 
L 201.748894 97.671456 
L 202.053563 97.418002 
L 202.358231 94.230212 
L 202.967568 97.781313 
L 203.272236 100.35505 
L 203.881572 96.573827 
L 204.186241 96.921893 
L 204.490909 97.029096 
L 204.795577 97.569871 
L 205.100246 99.019607 
L 205.404914 98.106101 
L 205.709582 99.170347 
L 206.014251 95.518346 
L 206.318919 95.519975 
L 206.623587 96.852691 
L 206.928256 100.132486 
L 207.232924 98.924796 
L 207.537592 94.411833 
L 207.84226 95.635421 
L 208.146929 93.83923 
L 208.451597 100.504542 
L 208.756265 98.942289 
L 209.060934 93.88675 
L 209.365602 94.598326 
L 209.67027 96.221196 
L 209.974939 96.171234 
L 210.279607 96.759375 
L 210.584275 94.355375 
L 210.888943 96.996768 
L 211.193612 94.889512 
L 211.49828 98.583571 
L 212.107617 92.477182 
L 212.412285 96.329586 
L 212.716953 95.357873 
L 213.021622 95.258797 
L 213.32629 95.499169 
L 213.630958 94.162455 
L 213.935627 98.4275 
L 214.240295 97.062132 
L 214.544963 97.207207 
L 214.849631 93.754498 
L 215.1543 96.758873 
L 215.458968 94.190911 
L 215.763636 97.139189 
L 216.372973 94.482491 
L 216.677641 98.071783 
L 216.98231 97.80308 
L 217.286978 97.02383 
L 217.591646 93.652623 
L 217.896314 92.147194 
L 218.200983 96.951408 
L 218.505651 96.761742 
L 218.810319 94.560946 
L 219.114988 94.197938 
L 219.419656 95.347248 
L 219.724324 94.745255 
L 220.333661 93.106842 
L 220.638329 97.254819 
L 220.942998 96.392481 
L 221.247666 92.704877 
L 221.552334 97.878342 
L 221.857002 92.192561 
L 222.161671 96.01404 
L 222.466339 97.683334 
L 223.380344 94.445027 
L 223.685012 92.045255 
L 223.989681 96.115337 
L 224.294349 96.125529 
L 224.599017 95.786024 
L 224.903686 99.464318 
L 225.208354 96.689087 
L 225.513022 96.573052 
L 225.81769 93.273085 
L 226.427027 97.74734 
L 227.036364 96.408648 
L 227.341032 94.253427 
L 227.6457 95.509366 
L 227.950369 95.354534 
L 228.255037 97.323857 
L 228.559705 98.426 
L 228.864373 94.714601 
L 229.169042 93.462594 
L 229.47371 95.755307 
L 229.778378 96.615944 
L 230.083047 93.084602 
L 230.387715 93.936079 
L 230.692383 99.533251 
L 230.997052 95.457169 
L 231.30172 95.249968 
L 231.606388 93.965965 
L 231.911057 94.62192 
L 232.215725 95.706131 
L 232.520393 95.323671 
L 232.825061 95.991955 
L 233.12973 93.398425 
L 233.434398 95.11898 
L 233.739066 92.730686 
L 234.348403 94.625255 
L 234.653071 92.937152 
L 234.95774 93.102039 
L 235.262408 96.61229 
L 235.567076 93.426867 
L 235.871744 93.563375 
L 236.176413 93.297868 
L 236.481081 94.32956 
L 236.785749 92.878224 
L 237.090418 98.351252 
L 237.395086 97.659745 
L 237.699754 93.9496 
L 238.004423 95.541919 
L 238.309091 94.845867 
L 238.613759 96.278477 
L 238.918428 96.00645 
L 239.223096 94.952302 
L 239.832432 98.025682 
L 240.137101 95.958207 
L 240.441769 96.227879 
L 241.051106 91.979421 
L 241.355774 92.213085 
L 241.660442 90.13179 
L 241.965111 89.18965 
L 242.269779 98.008716 
L 242.574447 93.025884 
L 242.879115 95.278521 
L 243.183784 95.108558 
L 243.488452 92.789247 
L 243.79312 92.216112 
L 244.097789 95.979867 
L 244.402457 97.33835 
L 244.707125 93.032339 
L 245.011794 94.015683 
L 245.316462 94.157983 
L 245.62113 94.527547 
L 245.925799 90.526186 
L 246.230467 94.628475 
L 246.535135 91.815481 
L 246.839803 91.552015 
L 247.144472 93.705473 
L 247.44914 92.949868 
L 247.753808 96.717427 
L 248.058477 97.718249 
L 248.667813 93.190459 
L 249.27715 90.005606 
L 249.581818 92.244343 
L 249.886486 90.53582 
L 250.191155 96.273167 
L 250.495823 84.17687 
L 250.800491 93.695226 
L 251.10516 93.199602 
L 251.409828 95.132266 
L 251.714496 90.418975 
L 252.019165 94.78332 
L 252.323833 91.326503 
L 252.628501 91.588581 
L 252.93317 94.552715 
L 253.237838 89.260956 
L 253.847174 92.78544 
L 254.151843 93.417086 
L 254.456511 92.631424 
L 254.761179 94.324565 
L 255.065848 91.96979 
L 255.370516 95.677064 
L 255.675184 90.976328 
L 255.979853 90.819114 
L 256.284521 91.904445 
L 256.589189 90.129212 
L 256.893857 95.756999 
L 257.198526 92.934963 
L 257.503194 92.231311 
L 257.807862 95.876487 
L 258.112531 93.985275 
L 258.417199 95.970019 
L 259.026536 92.853948 
L 259.331204 94.539611 
L 259.635872 93.237369 
L 259.940541 93.270314 
L 260.245209 92.33267 
L 260.549877 92.738731 
L 260.854545 92.783034 
L 261.159214 95.09613 
L 261.463882 94.678497 
L 261.76855 93.923956 
L 262.073219 93.603554 
L 262.377887 93.039946 
L 262.682555 89.958352 
L 262.987224 90.208156 
L 263.291892 92.042837 
L 263.901229 89.876308 
L 264.205897 90.627397 
L 264.510565 93.766078 
L 264.815233 90.365449 
L 265.119902 89.836255 
L 265.42457 91.670694 
L 265.729238 91.889636 
L 266.033907 94.495977 
L 266.338575 91.571864 
L 266.643243 91.230826 
L 266.947912 90.546929 
L 267.25258 94.082471 
L 267.557248 95.841412 
L 267.861916 89.694677 
L 268.166585 94.628942 
L 268.471253 88.708544 
L 268.775921 94.457073 
L 269.08059 93.101056 
L 269.385258 91.026318 
L 269.689926 93.658887 
L 269.994595 89.905888 
L 270.299263 93.371293 
L 270.603931 90.232138 
L 271.213268 95.049286 
L 271.517936 92.508642 
L 271.822604 94.200926 
L 272.127273 93.186464 
L 272.431941 91.522485 
L 272.736609 94.103883 
L 273.041278 97.91507 
L 273.345946 92.042536 
L 273.650614 91.259158 
L 273.955283 92.760219 
L 274.259951 92.11882 
L 274.564619 88.136825 
L 274.869287 90.877887 
L 275.173956 94.730992 
L 275.478624 88.693665 
L 275.783292 91.411507 
L 276.087961 86.954947 
L 276.392629 95.339952 
L 276.697297 90.751801 
L 277.001966 91.602045 
L 277.306634 94.119239 
L 277.611302 90.286046 
L 277.915971 91.671947 
L 278.220639 88.958094 
L 278.525307 88.808518 
L 278.829975 93.199987 
L 279.134644 92.445127 
L 279.439312 90.171146 
L 279.74398 90.93015 
L 280.048649 84.851699 
L 280.353317 89.913031 
L 280.657985 92.395125 
L 280.962654 91.813017 
L 281.267322 92.605299 
L 281.57199 95.594924 
L 281.876658 92.125413 
L 282.181327 93.391972 
L 282.485995 90.975792 
L 282.790663 94.439229 
L 283.095332 89.9883 
L 283.4 91.454943 
L 283.704668 93.909225 
L 284.009337 92.274633 
L 284.314005 92.6591 
L 284.618673 91.18505 
L 285.22801 94.976473 
L 285.532678 91.916421 
L 285.837346 90.547346 
L 286.142015 92.488088 
L 286.446683 87.180807 
L 286.751351 92.106406 
L 287.05602 91.083008 
L 287.360688 88.259255 
L 287.665356 90.735162 
L 287.970025 88.001744 
L 288.274693 93.262933 
L 288.579361 90.127961 
L 288.884029 89.785078 
L 289.188698 91.053824 
L 289.493366 93.802353 
L 289.798034 92.753538 
L 290.102703 85.435824 
L 290.712039 93.295367 
L 291.016708 92.308939 
L 291.321376 88.819504 
L 291.626044 91.049823 
L 291.930713 89.563461 
L 292.235381 87.354063 
L 292.540049 89.215348 
L 292.844717 92.301269 
L 293.454054 89.977301 
L 293.758722 89.628633 
L 294.063391 89.89595 
L 294.368059 88.920163 
L 294.672727 88.976117 
L 294.977396 87.99802 
L 295.282064 88.974636 
L 295.586732 93.251419 
L 295.8914 87.576546 
L 296.500737 92.107516 
L 296.805405 89.580952 
L 297.110074 94.77885 
L 297.414742 90.769221 
L 297.71941 88.236582 
L 298.024079 92.169185 
L 298.328747 90.52702 
L 298.633415 86.745056 
L 298.938084 88.327807 
L 299.242752 88.20453 
L 299.54742 87.767664 
L 299.852088 91.651147 
L 300.156757 92.399368 
L 300.461425 88.022518 
L 300.766093 88.281922 
L 301.070762 86.298117 
L 301.37543 89.521226 
L 301.680098 90.070755 
L 301.984767 90.101078 
L 302.289435 88.977793 
L 302.594103 91.220518 
L 302.898771 89.312993 
L 303.508108 91.338233 
L 303.812776 90.784997 
L 304.117445 90.832807 
L 304.422113 92.347099 
L 304.726781 89.168555 
L 305.336118 93.465935 
L 305.640786 88.190826 
L 305.945455 91.629099 
L 306.250123 89.383129 
L 306.554791 90.621834 
L 306.859459 90.603976 
L 307.468796 88.261653 
L 308.078133 92.891765 
L 308.382801 89.59869 
L 308.687469 89.639099 
L 308.992138 88.275722 
L 309.296806 90.934613 
L 309.906143 91.018576 
L 310.210811 90.303826 
L 310.515479 91.2729 
L 310.820147 89.197557 
L 311.124816 89.288536 
L 311.734152 92.86 
L 312.038821 89.844781 
L 312.343489 91.063843 
L 312.648157 89.166571 
L 312.952826 88.327347 
L 313.562162 90.888265 
L 313.86683 89.552211 
L 314.476167 90.0616 
L 314.780835 86.547535 
L 315.085504 90.743449 
L 315.390172 91.46715 
L 315.69484 88.277091 
L 315.999509 88.459441 
L 316.304177 91.078474 
L 316.913514 88.768997 
L 317.218182 92.297383 
L 317.52285 87.930023 
L 317.827518 87.356003 
L 318.132187 91.333104 
L 318.436855 86.541568 
L 318.741523 91.206296 
L 319.046192 88.27769 
L 319.35086 89.411323 
L 319.655528 88.680164 
L 319.960197 86.252657 
L 320.264865 87.684854 
L 320.569533 88.417492 
L 320.874201 89.511752 
L 321.17887 86.366524 
L 321.483538 86.3116 
L 321.788206 90.313484 
L 322.092875 87.607895 
L 322.397543 88.072081 
L 323.00688 88.128246 
L 323.311548 88.352354 
L 323.616216 91.086983 
L 323.920885 84.809829 
L 324.225553 86.526189 
L 324.530221 89.22698 
L 324.834889 86.870808 
L 325.139558 89.297315 
L 325.444226 87.715942 
L 325.748894 88.861687 
L 326.053563 87.657711 
L 326.358231 88.134102 
L 326.662899 92.251836 
L 326.967568 91.112454 
L 327.272236 86.793195 
L 327.576904 89.34756 
L 327.881572 84.340463 
L 328.186241 87.992928 
L 328.490909 87.641158 
L 328.795577 89.669794 
L 329.100246 86.354197 
L 329.404914 91.920195 
L 330.014251 87.725487 
L 330.318919 86.802401 
L 330.623587 88.150277 
L 330.928256 87.113706 
L 331.232924 90.515514 
L 331.84226 87.219676 
L 332.756265 89.849441 
L 333.060934 87.930075 
L 333.365602 87.98791 
L 333.67027 87.104454 
L 333.974939 85.809519 
L 334.279607 88.97266 
L 334.584275 86.605987 
L 334.888943 87.751427 
L 335.193612 85.948086 
L 335.49828 89.274229 
L 335.802948 87.075593 
L 336.412285 92.046258 
L 336.716953 87.259677 
L 337.021622 88.633266 
L 337.32629 84.781416 
L 337.630958 88.540575 
L 337.935627 89.560304 
L 338.240295 90.108307 
L 338.849631 84.564468 
L 339.1543 88.473792 
L 339.458968 85.658436 
L 339.763636 86.834449 
L 340.068305 84.913125 
L 340.372973 85.836211 
L 340.677641 84.149004 
L 340.98231 88.102411 
L 341.286978 86.965569 
L 341.591646 89.954268 
L 341.896314 88.198458 
L 342.200983 89.619425 
L 342.505651 83.082044 
L 342.810319 88.549679 
L 343.114988 84.961688 
L 343.724324 87.792243 
L 344.028993 84.330423 
L 344.333661 87.798073 
L 344.638329 85.862047 
L 344.942998 86.239524 
L 345.247666 92.046326 
L 345.552334 86.943871 
L 345.857002 88.412141 
L 346.161671 85.78898 
L 346.771007 87.220762 
L 347.075676 90.984344 
L 347.685012 85.111026 
L 347.989681 84.971233 
L 348.294349 87.749618 
L 348.599017 87.255555 
L 348.903686 88.776402 
L 349.208354 83.408127 
L 349.513022 84.712455 
L 349.81769 83.494333 
L 350.122359 86.381122 
L 350.427027 86.301447 
L 350.731695 88.989551 
L 351.036364 88.392958 
L 351.341032 83.525956 
L 351.6457 86.41689 
L 351.950369 83.968933 
L 352.559705 88.044925 
L 352.864373 86.721506 
L 353.169042 85.895504 
L 353.47371 88.286656 
L 353.778378 88.85852 
L 354.083047 85.911991 
L 354.387715 84.07313 
L 354.692383 88.551222 
L 354.997052 90.552314 
L 355.30172 89.017424 
L 355.606388 85.393429 
L 356.215725 84.673758 
L 356.520393 89.629024 
L 357.434398 85.928153 
L 357.739066 86.350624 
L 358.043735 84.876968 
L 358.348403 84.344557 
L 358.653071 85.869094 
L 358.95774 88.57568 
L 359.262408 85.329511 
L 359.567076 84.634855 
L 359.871744 88.445789 
L 360.176413 89.044721 
L 360.481081 84.574367 
L 360.785749 83.764452 
L 361.090418 87.696116 
L 361.395086 86.288094 
L 361.699754 83.556837 
L 362.004423 84.980178 
L 362.309091 84.888901 
L 362.613759 87.580592 
L 362.918428 87.97641 
L 363.223096 85.793363 
L 363.527764 89.327846 
L 363.832432 83.928865 
L 364.137101 84.915037 
L 364.441769 87.921899 
L 365.051106 85.83549 
L 365.355774 88.19502 
L 365.660442 88.166341 
L 365.965111 88.489396 
L 366.269779 86.556001 
L 366.574447 89.759131 
L 366.879115 87.636412 
L 367.183784 87.588835 
L 367.488452 86.612335 
L 368.097789 82.287467 
L 368.402457 85.855386 
L 368.707125 83.599958 
L 369.011794 88.389332 
L 369.316462 88.876348 
L 369.62113 86.32255 
L 369.925799 85.870574 
L 370.230467 86.491466 
L 370.535135 84.920982 
L 370.839803 88.5319 
L 371.144472 84.255497 
L 371.44914 85.004275 
L 371.753808 87.251683 
L 372.363145 85.327003 
L 372.667813 85.091043 
L 372.972482 85.408158 
L 373.27715 83.87604 
L 373.581818 86.628989 
L 373.581818 86.628989 
" style="fill:none;stroke:#2ca02c;stroke-linecap:square;stroke-width:1.5;"/>
   </g>
   <g id="patch_3">
    <path d="M 54 252 
L 54 34.56 
" style="fill:none;stroke:#000000;stroke-linecap:square;stroke-linejoin:miter;stroke-width:0.8;"/>
   </g>
   <g id="patch_4">
    <path d="M 388.8 252 
L 388.8 34.56 
" style="fill:none;stroke:#000000;stroke-linecap:square;stroke-linejoin:miter;stroke-width:0.8;"/>
   </g>
   <g id="patch_5">
    <path d="M 54 252 
L 388.8 252 
" style="fill:none;stroke:#000000;stroke-linecap:square;stroke-linejoin:miter;stroke-width:0.8;"/>
   </g>
   <g id="patch_6">
    <path d="M 54 34.56 
L 388.8 34.56 
" style="fill:none;stroke:#000000;stroke-linecap:square;stroke-linejoin:miter;stroke-width:0.8;"/>
   </g>
   <g id="legend_1">
    <g id="patch_7">
     <path d="M 327.660747 247 
L 381.8 247 
Q 383.8 247 383.8 245 
L 383.8 204.188465 
Q 383.8 202.188465 381.8 202.188465 
L 327.660747 202.188465 
Q 325.660747 202.188465 325.660747 204.188465 
L 325.660747 245 
Q 325.660747 247 327.660747 247 
z
" style="fill:#ffffff;opacity:0.8;stroke:#cccccc;stroke-linejoin:miter;"/>
    </g>
    <g id="line2d_15">
     <path d="M 329.660747 209.688465 
L 349.660747 209.688465 
" style="fill:none;stroke:#1f77b4;stroke-linecap:square;stroke-width:1.5;"/>
    </g>
    <g id="line2d_16"/>
    <g id="text_14">
     <!-- e0 -->
     <defs>
      <path d="M 38.09375 23 
C 38.5 23.40625 38.5 23.609375 38.5 24.625 
C 38.5 34.96875 33.09375 44 21.703125 44 
C 11.09375 44 2.703125 33.890625 2.703125 21.609375 
C 2.703125 8.609375 12.203125 -1 22.796875 -1 
C 34 -1 38.40625 9.484375 38.40625 11.5625 
C 38.40625 12.25 37.796875 12.25 37.59375 12.25 
C 36.90625 12.25 36.796875 12.046875 36.40625 10.875 
C 34.203125 4.140625 28.703125 0.796875 23.5 0.796875 
C 19.203125 0.796875 14.90625 3.171875 12.203125 7.5 
C 9.09375 12.546875 9.09375 18.375 9.09375 23 
z
M 9.203125 24.5 
C 9.90625 39.140625 17.59375 42.40625 21.59375 42.40625 
C 28.40625 42.40625 33 35.890625 33.09375 24.5 
z
" id="CMR17-101"/>
     </defs>
     <g transform="translate(357.660747 213.188465)scale(0.1 -0.1)">
      <use transform="scale(0.996264)" xlink:href="#CMR17-101"/>
      <use transform="translate(40.48566 0)scale(0.996264)" xlink:href="#CMR17-48"/>
     </g>
    </g>
    <g id="line2d_17">
     <path d="M 329.660747 223.625643 
L 349.660747 223.625643 
" style="fill:none;stroke:#ff7f0e;stroke-linecap:square;stroke-width:1.5;"/>
    </g>
    <g id="line2d_18"/>
    <g id="text_15">
     <!-- e0.1 -->
     <defs>
      <path d="M 16.59375 4.078125 
C 16.59375 6.5625 14.59375 8.15625 12.5 8.15625 
C 10.5 8.15625 8.40625 6.5625 8.40625 4.078125 
C 8.40625 1.59375 10.40625 0 12.5 0 
C 14.5 0 16.59375 1.59375 16.59375 4.078125 
z
" id="CMR17-46"/>
     </defs>
     <g transform="translate(357.660747 227.125643)scale(0.1 -0.1)">
      <use transform="scale(0.996264)" xlink:href="#CMR17-101"/>
      <use transform="translate(40.48566 0)scale(0.996264)" xlink:href="#CMR17-48"/>
      <use transform="translate(86.176138 0)scale(0.996264)" xlink:href="#CMR17-46"/>
      <use transform="translate(111.047196 0)scale(0.996264)" xlink:href="#CMR17-49"/>
     </g>
    </g>
    <g id="line2d_19">
     <path d="M 329.660747 237.562822 
L 349.660747 237.562822 
" style="fill:none;stroke:#2ca02c;stroke-linecap:square;stroke-width:1.5;"/>
    </g>
    <g id="line2d_20"/>
    <g id="text_16">
     <!-- e0.01 -->
     <g transform="translate(357.660747 241.062822)scale(0.1 -0.1)">
      <use transform="scale(0.996264)" xlink:href="#CMR17-101"/>
      <use transform="translate(40.48566 0)scale(0.996264)" xlink:href="#CMR17-48"/>
      <use transform="translate(86.176138 0)scale(0.996264)" xlink:href="#CMR17-46"/>
      <use transform="translate(111.047196 0)scale(0.996264)" xlink:href="#CMR17-48"/>
      <use transform="translate(156.737673 0)scale(0.996264)" xlink:href="#CMR17-49"/>
     </g>
    </g>
   </g>
  </g>
 </g>
 <defs>
  <clipPath id="p1887c0c847">
   <rect height="217.44" width="334.8" x="54" y="34.56"/>
  </clipPath>
 </defs>
</svg>
