<?xml version="1.0" encoding="utf-8" standalone="no"?>
<!DOCTYPE svg PUBLIC "-//W3C//DTD SVG 1.1//EN"
  "http://www.w3.org/Graphics/SVG/1.1/DTD/svg11.dtd">
<!-- Created with matplotlib (https://matplotlib.org/) -->
<svg height="288pt" version="1.1" viewBox="0 0 432 288" width="432pt" xmlns="http://www.w3.org/2000/svg" xmlns:xlink="http://www.w3.org/1999/xlink">
 <defs>
  <style type="text/css">
*{stroke-linecap:butt;stroke-linejoin:round;}
  </style>
 </defs>
 <g id="figure_1">
  <g id="patch_1">
   <path d="M 0 288 
L 432 288 
L 432 0 
L 0 0 
z
" style="fill:#ffffff;"/>
  </g>
  <g id="axes_1">
   <g id="patch_2">
    <path d="M 54 252 
L 388.8 252 
L 388.8 34.56 
L 54 34.56 
z
" style="fill:#ffffff;"/>
   </g>
   <g id="matplotlib.axis_1">
    <g id="xtick_1">
     <g id="line2d_1">
      <defs>
       <path d="M 0 0 
L 0 3.5 
" id="m360a942665" style="stroke:#000000;stroke-width:0.8;"/>
      </defs>
      <g>
       <use style="stroke:#000000;stroke-width:0.8;" x="69.218182" xlink:href="#m360a942665" y="252"/>
      </g>
     </g>
     <g id="text_1">
      <!-- $0$ -->
      <defs>
       <path d="M 42 31.640625 
C 42 37.75 41.90625 48.125 37.703125 56.109375 
C 34 63.109375 28.09375 65.59375 22.90625 65.59375 
C 18.09375 65.59375 12 63.40625 8.203125 56.203125 
C 4.203125 48.71875 3.796875 39.4375 3.796875 31.640625 
C 3.796875 25.953125 3.90625 17.28125 7 9.671875 
C 11.296875 -0.609375 19 -2 22.90625 -2 
C 27.5 -2 34.5 -0.109375 38.59375 9.375 
C 41.59375 16.28125 42 24.359375 42 31.640625 
z
M 22.90625 -0.40625 
C 16.5 -0.40625 12.703125 5.078125 11.296875 12.6875 
C 10.203125 18.5625 10.203125 27.15625 10.203125 32.75 
C 10.203125 40.4375 10.203125 46.828125 11.5 52.921875 
C 13.40625 61.390625 19 64 22.90625 64 
C 27 64 32.296875 61.296875 34.203125 53.125 
C 35.5 47.4375 35.59375 40.734375 35.59375 32.75 
C 35.59375 26.25 35.59375 18.265625 34.40625 12.375 
C 32.296875 1.484375 26.40625 -0.40625 22.90625 -0.40625 
z
" id="CMR17-48"/>
      </defs>
      <g transform="translate(66.727514 265.918498)scale(0.1 -0.1)">
       <use transform="scale(0.996264)" xlink:href="#CMR17-48"/>
      </g>
     </g>
    </g>
    <g id="xtick_2">
     <g id="line2d_2">
      <g>
       <use style="stroke:#000000;stroke-width:0.8;" x="130.151843" xlink:href="#m360a942665" y="252"/>
      </g>
     </g>
     <g id="text_2">
      <!-- $200$ -->
      <defs>
       <path d="M 41.703125 15.453125 
L 39.90625 15.453125 
C 38.90625 8.375 38.09375 7.171875 37.703125 6.5625 
C 37.203125 5.765625 30 5.765625 28.59375 5.765625 
L 9.40625 5.765625 
C 13 9.671875 20 16.75 28.5 24.953125 
C 34.59375 30.734375 41.703125 37.53125 41.703125 47.421875 
C 41.703125 59.21875 32.296875 66 21.796875 66 
C 10.796875 66 4.09375 56.3125 4.09375 47.34375 
C 4.09375 43.4375 7 42.9375 8.203125 42.9375 
C 9.203125 42.9375 12.203125 43.546875 12.203125 47.03125 
C 12.203125 50.109375 9.59375 51 8.203125 51 
C 7.59375 51 7 50.90625 6.59375 50.703125 
C 8.5 59.21875 14.296875 63.40625 20.40625 63.40625 
C 29.09375 63.40625 34.796875 56.515625 34.796875 47.421875 
C 34.796875 38.734375 29.703125 31.25 24 24.75 
L 4.09375 2.28125 
L 4.09375 0 
L 39.296875 0 
z
" id="CMR17-50"/>
      </defs>
      <g transform="translate(122.67984 265.918498)scale(0.1 -0.1)">
       <use transform="scale(0.996264)" xlink:href="#CMR17-50"/>
       <use transform="translate(45.690477 0)scale(0.996264)" xlink:href="#CMR17-48"/>
       <use transform="translate(91.380954 0)scale(0.996264)" xlink:href="#CMR17-48"/>
      </g>
     </g>
    </g>
    <g id="xtick_3">
     <g id="line2d_3">
      <g>
       <use style="stroke:#000000;stroke-width:0.8;" x="191.085504" xlink:href="#m360a942665" y="252"/>
      </g>
     </g>
     <g id="text_3">
      <!-- $400$ -->
      <defs>
       <path d="M 33.59375 64.40625 
C 33.59375 66.5 33.5 66.5 31.703125 66.5 
L 2 19.59375 
L 2 17 
L 27.796875 17 
L 27.796875 7.140625 
C 27.796875 3.5 27.59375 2.5 20.59375 2.5 
L 18.703125 2.5 
L 18.703125 0 
C 21.90625 0 27.296875 0 30.703125 0 
C 34.09375 0 39.5 0 42.703125 0 
L 42.703125 2.5 
L 40.796875 2.5 
C 33.796875 2.5 33.59375 3.5 33.59375 7.140625 
L 33.59375 17 
L 43.796875 17 
L 43.796875 19.59375 
L 33.59375 19.59375 
z
M 28.09375 57.859375 
L 28.09375 19.59375 
L 4 19.59375 
z
" id="CMR17-52"/>
      </defs>
      <g transform="translate(183.613501 265.918498)scale(0.1 -0.1)">
       <use transform="scale(0.996264)" xlink:href="#CMR17-52"/>
       <use transform="translate(45.690477 0)scale(0.996264)" xlink:href="#CMR17-48"/>
       <use transform="translate(91.380954 0)scale(0.996264)" xlink:href="#CMR17-48"/>
      </g>
     </g>
    </g>
    <g id="xtick_4">
     <g id="line2d_4">
      <g>
       <use style="stroke:#000000;stroke-width:0.8;" x="252.019165" xlink:href="#m360a942665" y="252"/>
      </g>
     </g>
     <g id="text_4">
      <!-- $600$ -->
      <defs>
       <path d="M 10.59375 34 
C 10.59375 57.65625 21.796875 63 28.296875 63 
C 30.40625 63 35.5 62.640625 37.5 59 
C 35.90625 59 32.90625 59 32.90625 55.515625 
C 32.90625 52.828125 35.09375 51.921875 36.5 51.921875 
C 37.40625 51.921875 40.09375 52.3125 40.09375 55.625 
C 40.09375 61.78125 35.09375 65.296875 28.203125 65.296875 
C 16.296875 65.296875 3.796875 52.96875 3.796875 31 
C 3.796875 3.953125 15.09375 -2 23.09375 -2 
C 32.796875 -2 42 6.671875 42 20.046875 
C 42 32.515625 33.90625 41.59375 23.703125 41.59375 
C 17.59375 41.59375 13.09375 37.609375 10.59375 30.625 
z
M 23.09375 0.390625 
C 10.796875 0.390625 10.796875 18.75 10.796875 22.4375 
C 10.796875 29.625 14.203125 40 23.5 40 
C 25.203125 40 30.09375 40 33.40625 33.125 
C 35.203125 29.21875 35.203125 25.140625 35.203125 20.140625 
C 35.203125 14.75 35.203125 10.78125 33.09375 6.78125 
C 30.90625 2.671875 27.703125 0.390625 23.09375 0.390625 
z
" id="CMR17-54"/>
      </defs>
      <g transform="translate(244.547162 265.918498)scale(0.1 -0.1)">
       <use transform="scale(0.996264)" xlink:href="#CMR17-54"/>
       <use transform="translate(45.690477 0)scale(0.996264)" xlink:href="#CMR17-48"/>
       <use transform="translate(91.380954 0)scale(0.996264)" xlink:href="#CMR17-48"/>
      </g>
     </g>
    </g>
    <g id="xtick_5">
     <g id="line2d_5">
      <g>
       <use style="stroke:#000000;stroke-width:0.8;" x="312.952826" xlink:href="#m360a942665" y="252"/>
      </g>
     </g>
     <g id="text_5">
      <!-- $800$ -->
      <defs>
       <path d="M 27.203125 35.375 
C 33.5 38.546875 39.90625 43.328125 39.90625 50.984375 
C 39.90625 60.015625 31.09375 65.296875 23 65.296875 
C 13.90625 65.296875 5.90625 58.734375 5.90625 49.6875 
C 5.90625 47.203125 6.5 42.921875 10.40625 39.140625 
C 11.40625 38.15625 15.59375 35.171875 18.296875 33.28125 
C 13.796875 30.984375 3.296875 25.53125 3.296875 14.59375 
C 3.296875 4.359375 13.09375 -2 22.796875 -2 
C 33.5 -2 42.5 5.65625 42.5 15.78125 
C 42.5 24.84375 36.40625 29.015625 32.40625 31.703125 
z
M 14.09375 44.09375 
C 13.296875 44.59375 9.296875 47.671875 9.296875 52.359375 
C 9.296875 58.421875 15.59375 63 22.796875 63 
C 30.703125 63 36.5 57.4375 36.5 50.96875 
C 36.5 41.703125 26.09375 36.421875 25.59375 36.421875 
C 25.5 36.421875 25.40625 36.421875 24.59375 37.03125 
z
M 32.5 23.734375 
C 34 22.640625 38.796875 19.375 38.796875 13.296875 
C 38.796875 5.953125 31.40625 0.390625 23 0.390625 
C 13.90625 0.390625 7 6.84375 7 14.6875 
C 7 22.546875 13.09375 29.09375 20 32.1875 
z
" id="CMR17-56"/>
      </defs>
      <g transform="translate(305.480823 265.918498)scale(0.1 -0.1)">
       <use transform="scale(0.996264)" xlink:href="#CMR17-56"/>
       <use transform="translate(45.690477 0)scale(0.996264)" xlink:href="#CMR17-48"/>
       <use transform="translate(91.380954 0)scale(0.996264)" xlink:href="#CMR17-48"/>
      </g>
     </g>
    </g>
    <g id="xtick_6">
     <g id="line2d_6">
      <g>
       <use style="stroke:#000000;stroke-width:0.8;" x="373.886486" xlink:href="#m360a942665" y="252"/>
      </g>
     </g>
     <g id="text_6">
      <!-- $1000$ -->
      <defs>
       <path d="M 26.59375 63.40625 
C 26.59375 65.5 26.5 65.5 25.09375 65.5 
C 21.203125 61.1875 15.296875 59.796875 9.703125 59.796875 
C 9.40625 59.796875 8.90625 59.796875 8.796875 59.5 
C 8.703125 59.296875 8.703125 59.09375 8.703125 57 
C 11.796875 57 17 57.59375 21 59.984375 
L 21 7.203125 
C 21 3.6875 20.796875 2.5 12.203125 2.5 
L 9.203125 2.5 
L 9.203125 0 
C 14 0 19 0 23.796875 0 
C 28.59375 0 33.59375 0 38.40625 0 
L 38.40625 2.5 
L 35.40625 2.5 
C 26.796875 2.5 26.59375 3.59375 26.59375 7.15625 
z
" id="CMR17-49"/>
      </defs>
      <g transform="translate(363.923816 265.918498)scale(0.1 -0.1)">
       <use transform="scale(0.996264)" xlink:href="#CMR17-49"/>
       <use transform="translate(45.690477 0)scale(0.996264)" xlink:href="#CMR17-48"/>
       <use transform="translate(91.380954 0)scale(0.996264)" xlink:href="#CMR17-48"/>
       <use transform="translate(137.071431 0)scale(0.996264)" xlink:href="#CMR17-48"/>
      </g>
     </g>
    </g>
   </g>
   <g id="matplotlib.axis_2">
    <g id="ytick_1">
     <g id="line2d_7">
      <defs>
       <path d="M 0 0 
L -3.5 0 
" id="mc84a94029d" style="stroke:#000000;stroke-width:0.8;"/>
      </defs>
      <g>
       <use style="stroke:#000000;stroke-width:0.8;" x="54" xlink:href="#mc84a94029d" y="239.33696"/>
      </g>
     </g>
     <g id="text_7">
      <!-- $-1.0$ -->
      <defs>
       <path d="M 65.90625 23 
C 67.59375 23 69.40625 23 69.40625 25 
C 69.40625 27 67.59375 27 65.90625 27 
L 11.796875 27 
C 10.09375 27 8.296875 27 8.296875 25 
C 8.296875 23 10.09375 23 11.796875 23 
z
" id="CMSY10-0"/>
       <path d="M 18.40625 4.796875 
C 18.40625 7.6875 16 9.671875 13.59375 9.671875 
C 10.703125 9.671875 8.703125 7.28125 8.703125 4.890625 
C 8.703125 2 11.09375 0 13.5 0 
C 16.40625 0 18.40625 2.390625 18.40625 4.796875 
z
" id="CMMI12-58"/>
      </defs>
      <g transform="translate(26.521177 242.79621)scale(0.1 -0.1)">
       <use transform="scale(0.996264)" xlink:href="#CMSY10-0"/>
       <use transform="translate(77.487468 0)scale(0.996264)" xlink:href="#CMR17-49"/>
       <use transform="translate(123.177945 0)scale(0.996264)" xlink:href="#CMMI12-58"/>
       <use transform="translate(150.275122 0)scale(0.996264)" xlink:href="#CMR17-48"/>
      </g>
     </g>
    </g>
    <g id="ytick_2">
     <g id="line2d_8">
      <g>
       <use style="stroke:#000000;stroke-width:0.8;" x="54" xlink:href="#mc84a94029d" y="197.7281"/>
      </g>
     </g>
     <g id="text_8">
      <!-- $-0.5$ -->
      <defs>
       <path d="M 11.40625 57.6875 
C 12.40625 57.28125 16.5 56 20.703125 56 
C 30 56 35.09375 61.109375 38 64.0625 
C 38 64.953125 38 65.5 37.40625 65.5 
C 37.296875 65.5 37.09375 65.5 36.296875 65.046875 
C 32.796875 63.40625 28.703125 62.078125 23.703125 62.078125 
C 20.703125 62.078125 16.203125 62.484375 11.296875 64.671875 
C 10.203125 65.171875 10 65.171875 9.90625 65.171875 
C 9.40625 65.171875 9.296875 65.0625 9.296875 63.078125 
L 9.296875 34.421875 
C 9.296875 32.640625 9.296875 32.140625 10.296875 32.140625 
C 10.796875 32.140625 11 32.34375 11.5 33.03125 
C 14.703125 37.515625 19.09375 39.40625 24.09375 39.40625 
C 27.59375 39.40625 35.09375 37.21875 35.09375 20.140625 
C 35.09375 16.953125 35.09375 11.171875 32.09375 6.578125 
C 29.59375 2.484375 25.703125 0.390625 21.40625 0.390625 
C 14.796875 0.390625 8.09375 5 6.296875 12.71875 
C 6.703125 12.609375 7.5 12.421875 7.90625 12.421875 
C 9.203125 12.421875 11.703125 13.125 11.703125 16.21875 
C 11.703125 18.90625 9.796875 20 7.90625 20 
C 5.59375 20 4.09375 18.59375 4.09375 15.796875 
C 4.09375 7.09375 11 -2 21.59375 -2 
C 31.90625 -2 41.703125 6.875 41.703125 19.75 
C 41.703125 31.71875 33.90625 41 24.203125 41 
C 19.09375 41 14.796875 39.109375 11.40625 35.53125 
z
" id="CMR17-53"/>
      </defs>
      <g transform="translate(26.521177 201.187349)scale(0.1 -0.1)">
       <use transform="scale(0.996264)" xlink:href="#CMSY10-0"/>
       <use transform="translate(77.487468 0)scale(0.996264)" xlink:href="#CMR17-48"/>
       <use transform="translate(123.177945 0)scale(0.996264)" xlink:href="#CMMI12-58"/>
       <use transform="translate(150.275122 0)scale(0.996264)" xlink:href="#CMR17-53"/>
      </g>
     </g>
    </g>
    <g id="ytick_3">
     <g id="line2d_9">
      <g>
       <use style="stroke:#000000;stroke-width:0.8;" x="54" xlink:href="#mc84a94029d" y="156.119239"/>
      </g>
     </g>
     <g id="text_9">
      <!-- $0.0$ -->
      <g transform="translate(34.269921 159.578488)scale(0.1 -0.1)">
       <use transform="scale(0.996264)" xlink:href="#CMR17-48"/>
       <use transform="translate(45.690477 0)scale(0.996264)" xlink:href="#CMMI12-58"/>
       <use transform="translate(72.787654 0)scale(0.996264)" xlink:href="#CMR17-48"/>
      </g>
     </g>
    </g>
    <g id="ytick_4">
     <g id="line2d_10">
      <g>
       <use style="stroke:#000000;stroke-width:0.8;" x="54" xlink:href="#mc84a94029d" y="114.510378"/>
      </g>
     </g>
     <g id="text_10">
      <!-- $0.5$ -->
      <g transform="translate(34.269921 117.969627)scale(0.1 -0.1)">
       <use transform="scale(0.996264)" xlink:href="#CMR17-48"/>
       <use transform="translate(45.690477 0)scale(0.996264)" xlink:href="#CMMI12-58"/>
       <use transform="translate(72.787654 0)scale(0.996264)" xlink:href="#CMR17-53"/>
      </g>
     </g>
    </g>
    <g id="ytick_5">
     <g id="line2d_11">
      <g>
       <use style="stroke:#000000;stroke-width:0.8;" x="54" xlink:href="#mc84a94029d" y="72.901517"/>
      </g>
     </g>
     <g id="text_11">
      <!-- $1.0$ -->
      <g transform="translate(34.269921 76.360766)scale(0.1 -0.1)">
       <use transform="scale(0.996264)" xlink:href="#CMR17-49"/>
       <use transform="translate(45.690477 0)scale(0.996264)" xlink:href="#CMMI12-58"/>
       <use transform="translate(72.787654 0)scale(0.996264)" xlink:href="#CMR17-48"/>
      </g>
     </g>
    </g>
   </g>
   <g id="line2d_12">
    <path clip-path="url(#pc37f882ed2)" d="M 69.218182 139.157071 
L 69.827518 106.023846 
L 70.132187 103.782495 
L 70.741523 90.891408 
L 71.046192 86.816992 
L 71.35086 84.539292 
L 71.655528 85.394278 
L 71.960197 85.034801 
L 72.264865 86.308104 
L 72.569533 84.641802 
L 72.874201 84.932448 
L 73.17887 86.004225 
L 73.483538 83.230513 
L 73.788206 83.76693 
L 74.092875 81.380788 
L 74.397543 80.199374 
L 74.702211 82.214695 
L 75.00688 81.178767 
L 75.311548 81.31358 
L 75.616216 83.770786 
L 75.920885 80.191502 
L 76.225553 79.729651 
L 76.530221 82.629233 
L 76.834889 79.712802 
L 77.139558 80.956155 
L 77.444226 80.574752 
L 77.748894 81.706127 
L 78.053563 79.440414 
L 78.358231 80.968115 
L 78.662899 80.234907 
L 79.272236 79.647402 
L 79.576904 78.170363 
L 79.881572 80.21729 
L 80.186241 78.678669 
L 80.490909 80.759721 
L 80.795577 85.967593 
L 81.100246 83.387028 
L 81.404914 83.865882 
L 81.709582 80.325501 
L 82.318919 77.889064 
L 82.623587 76.297816 
L 82.928256 79.0729 
L 83.232924 78.375008 
L 83.537592 76.428949 
L 83.84226 82.355557 
L 84.451597 79.740676 
L 84.756265 83.30155 
L 85.060934 82.276549 
L 85.365602 82.156899 
L 85.67027 82.766567 
L 85.974939 82.363485 
L 86.279607 81.455396 
L 86.584275 81.040278 
L 86.888943 77.818005 
L 87.193612 78.40101 
L 87.49828 81.419834 
L 87.802948 81.350476 
L 88.107617 76.341635 
L 88.412285 77.842407 
L 88.716953 80.251997 
L 89.021622 80.342164 
L 89.32629 78.200328 
L 89.630958 77.700203 
L 89.935627 83.139208 
L 90.240295 78.059352 
L 90.544963 80.067146 
L 90.849631 79.907083 
L 91.1543 80.725222 
L 91.458968 78.095385 
L 92.068305 79.887339 
L 92.372973 80.291 
L 92.677641 81.976813 
L 93.286978 74.420871 
L 93.896314 79.810123 
L 94.200983 80.542114 
L 94.505651 78.733875 
L 94.810319 74.922724 
L 95.114988 79.210161 
L 95.419656 77.736045 
L 95.724324 78.780091 
L 96.028993 80.976599 
L 96.333661 80.278607 
L 96.638329 76.572476 
L 96.942998 76.309902 
L 97.247666 80.02692 
L 97.552334 79.274515 
L 97.857002 76.548805 
L 98.161671 80.690023 
L 98.466339 80.36749 
L 98.771007 79.296268 
L 99.075676 76.496849 
L 99.380344 77.907514 
L 99.685012 80.195109 
L 99.989681 78.744053 
L 100.294349 78.529052 
L 100.599017 77.957949 
L 100.903686 78.18498 
L 101.208354 80.253514 
L 101.513022 77.140874 
L 102.122359 79.257269 
L 102.427027 79.877197 
L 102.731695 83.078876 
L 103.036364 79.693042 
L 103.341032 78.439075 
L 103.6457 78.841719 
L 103.950369 76.541492 
L 104.255037 77.972399 
L 104.559705 78.644382 
L 104.864373 81.758126 
L 105.169042 81.145426 
L 105.47371 75.966023 
L 105.778378 76.879895 
L 106.083047 76.38113 
L 106.387715 82.03365 
L 106.692383 80.81736 
L 106.997052 78.412543 
L 107.30172 81.018892 
L 107.606388 78.725243 
L 107.911057 79.32902 
L 108.215725 79.466113 
L 108.520393 79.341578 
L 108.825061 80.363451 
L 109.12973 81.845539 
L 109.434398 79.668529 
L 109.739066 84.166246 
L 110.043735 79.721177 
L 110.348403 78.050562 
L 110.653071 75.235764 
L 110.95774 83.025219 
L 111.871744 75.30297 
L 112.176413 79.550369 
L 112.481081 80.748082 
L 112.785749 80.573781 
L 113.090418 79.945145 
L 113.395086 82.027754 
L 113.699754 77.95613 
L 114.004423 79.385228 
L 114.309091 79.798649 
L 114.613759 76.71623 
L 115.223096 80.586672 
L 115.527764 79.439322 
L 115.832432 79.416359 
L 116.137101 79.015394 
L 116.441769 78.958815 
L 116.746437 85.434631 
L 117.051106 77.376088 
L 117.355774 80.206236 
L 117.660442 76.980556 
L 117.965111 78.152532 
L 118.269779 80.789292 
L 118.574447 76.446789 
L 118.879115 77.674247 
L 119.183784 75.907315 
L 119.79312 79.860491 
L 120.097789 79.877258 
L 120.402457 78.260591 
L 120.707125 78.575982 
L 121.011794 76.157713 
L 121.316462 83.559771 
L 121.62113 79.679619 
L 121.925799 79.166747 
L 122.230467 77.248116 
L 122.535135 79.056316 
L 122.839803 79.575548 
L 123.144472 75.969356 
L 123.44914 77.899537 
L 123.753808 79.095143 
L 124.058477 79.396434 
L 124.363145 79.030687 
L 124.667813 79.207843 
L 124.972482 78.302638 
L 125.27715 79.572142 
L 125.581818 79.410295 
L 125.886486 81.856347 
L 126.191155 77.68943 
L 126.495823 79.711157 
L 126.800491 79.882155 
L 127.10516 78.459824 
L 127.409828 76.11137 
L 127.714496 79.708663 
L 128.019165 76.987001 
L 128.323833 82.212901 
L 128.628501 78.477454 
L 128.93317 76.618808 
L 129.237838 75.975055 
L 129.847174 80.440818 
L 130.456511 74.805255 
L 130.761179 80.100913 
L 131.065848 81.861476 
L 131.370516 79.821996 
L 131.675184 79.387546 
L 131.979853 80.952404 
L 132.284521 76.021203 
L 132.589189 78.609566 
L 132.893857 78.852314 
L 133.198526 80.066131 
L 133.503194 80.511513 
L 133.807862 79.277816 
L 134.112531 80.218368 
L 134.417199 77.551967 
L 134.721867 79.30859 
L 135.026536 80.361398 
L 135.331204 82.795338 
L 135.635872 79.690633 
L 135.940541 80.66577 
L 136.245209 78.139623 
L 136.549877 77.608717 
L 136.854545 80.622302 
L 137.463882 79.334584 
L 137.76855 76.150082 
L 138.073219 78.173988 
L 138.377887 82.326144 
L 138.987224 81.184151 
L 139.59656 76.793356 
L 139.901229 76.904135 
L 140.205897 80.391063 
L 140.510565 77.058381 
L 140.815233 79.574392 
L 141.119902 77.057295 
L 141.42457 78.430261 
L 141.729238 77.380366 
L 142.033907 76.736979 
L 142.338575 79.204429 
L 142.643243 79.346569 
L 142.947912 82.14297 
L 143.25258 80.352667 
L 143.557248 79.279665 
L 143.861916 80.612678 
L 144.166585 77.187383 
L 144.471253 78.217745 
L 144.775921 81.535363 
L 145.08059 76.015764 
L 145.385258 80.525236 
L 145.689926 78.386649 
L 145.994595 82.706623 
L 146.299263 80.576731 
L 146.603931 81.412462 
L 147.213268 76.683937 
L 147.517936 79.75002 
L 147.822604 79.816132 
L 148.127273 79.233078 
L 148.431941 79.329601 
L 148.736609 79.207465 
L 149.345946 74.835555 
L 149.650614 75.660674 
L 149.955283 82.896256 
L 150.259951 78.591437 
L 150.564619 77.517596 
L 150.869287 79.029595 
L 151.173956 79.345759 
L 151.478624 78.616466 
L 151.783292 76.994435 
L 152.087961 80.606668 
L 152.392629 81.074563 
L 152.697297 80.155035 
L 153.001966 78.144309 
L 153.306634 78.474443 
L 153.611302 78.29975 
L 153.915971 80.332556 
L 154.220639 79.530054 
L 154.525307 79.740509 
L 154.829975 77.765349 
L 155.134644 81.88863 
L 155.74398 78.268099 
L 156.048649 77.387299 
L 156.657985 80.602134 
L 156.962654 81.159409 
L 157.267322 82.806508 
L 157.57199 77.454608 
L 157.876658 78.681863 
L 158.181327 81.586636 
L 158.790663 78.19337 
L 159.095332 79.240564 
L 159.4 78.512825 
L 159.704668 81.100205 
L 160.009337 81.255511 
L 160.314005 83.718241 
L 160.618673 78.594706 
L 160.923342 76.114623 
L 161.22801 79.922233 
L 161.532678 79.95588 
L 161.837346 77.613449 
L 162.142015 76.742305 
L 162.446683 74.39303 
L 162.751351 74.932677 
L 163.360688 81.260475 
L 163.665356 77.669286 
L 163.970025 77.215841 
L 164.274693 78.383206 
L 164.579361 77.328834 
L 164.884029 79.957415 
L 165.188698 80.985531 
L 165.493366 79.002041 
L 165.798034 80.448807 
L 166.102703 77.069203 
L 166.407371 79.030524 
L 166.712039 77.70389 
L 167.016708 77.058228 
L 167.321376 77.94993 
L 167.626044 78.006859 
L 167.930713 78.701884 
L 168.235381 80.334288 
L 168.540049 79.661068 
L 168.844717 81.464207 
L 169.149386 80.002412 
L 169.454054 76.482253 
L 169.758722 79.104322 
L 170.063391 78.9655 
L 170.368059 81.05612 
L 170.977396 76.6739 
L 171.282064 81.583409 
L 171.586732 78.82713 
L 171.8914 80.445382 
L 172.196069 80.232122 
L 172.500737 81.524506 
L 172.805405 80.887632 
L 173.110074 78.457327 
L 173.414742 78.292591 
L 173.71941 79.730215 
L 174.024079 77.612881 
L 174.328747 79.877762 
L 174.633415 77.279052 
L 174.938084 80.812427 
L 175.242752 78.101481 
L 175.54742 80.571875 
L 175.852088 80.980536 
L 176.156757 78.580796 
L 176.461425 78.645516 
L 176.766093 79.243188 
L 177.070762 77.626339 
L 177.37543 80.052782 
L 177.680098 79.954437 
L 177.984767 81.937436 
L 178.594103 80.560688 
L 178.898771 78.597959 
L 179.20344 74.841775 
L 179.812776 76.760027 
L 180.117445 80.671216 
L 180.422113 79.361377 
L 180.726781 79.870236 
L 181.03145 77.226381 
L 181.640786 78.76375 
L 181.945455 79.825877 
L 182.250123 81.40603 
L 182.554791 75.30917 
L 183.164128 80.34075 
L 183.468796 78.809371 
L 183.773464 78.686533 
L 184.078133 81.03878 
L 184.382801 79.063621 
L 184.687469 78.426036 
L 184.992138 78.516914 
L 185.296806 75.946889 
L 185.601474 79.631004 
L 185.906143 77.546981 
L 186.210811 77.796953 
L 186.515479 81.25936 
L 186.820147 78.702313 
L 187.124816 80.8805 
L 187.429484 80.381953 
L 187.734152 77.904153 
L 188.038821 81.030131 
L 188.343489 77.88518 
L 188.648157 78.704293 
L 188.952826 78.672092 
L 189.257494 79.220392 
L 189.562162 78.442351 
L 189.86683 79.494352 
L 190.171499 78.280547 
L 190.476167 78.225499 
L 190.780835 77.885846 
L 191.085504 80.238913 
L 191.390172 80.65355 
L 191.69484 80.186921 
L 191.999509 78.369278 
L 192.304177 81.904564 
L 192.913514 75.076808 
L 193.218182 82.433735 
L 193.52285 76.193859 
L 193.827518 80.278985 
L 194.132187 76.906956 
L 194.436855 80.703319 
L 194.741523 79.937212 
L 195.046192 78.248391 
L 195.35086 78.141075 
L 195.960197 80.356302 
L 196.264865 78.206851 
L 196.569533 74.467494 
L 196.874201 79.938256 
L 197.17887 77.430191 
L 197.483538 80.250634 
L 197.788206 80.207113 
L 198.092875 79.685941 
L 198.397543 78.892758 
L 198.702211 79.831549 
L 199.00688 77.691215 
L 199.311548 76.831702 
L 199.920885 81.202057 
L 200.225553 82.117461 
L 200.530221 79.505199 
L 200.834889 80.56209 
L 201.139558 78.298682 
L 201.444226 79.715591 
L 202.358231 78.22237 
L 202.662899 79.537981 
L 202.967568 78.809963 
L 203.272236 80.693961 
L 203.881572 74.764011 
L 204.186241 78.225465 
L 204.490909 79.355753 
L 205.100246 77.03332 
L 205.404914 79.658302 
L 205.709582 80.10038 
L 206.318919 79.215021 
L 206.623587 78.459234 
L 206.928256 78.790779 
L 207.232924 81.947661 
L 207.537592 77.160163 
L 207.84226 82.694489 
L 208.146929 77.760768 
L 208.451597 78.915272 
L 208.756265 78.648175 
L 209.060934 78.11437 
L 209.365602 78.484643 
L 209.67027 76.765763 
L 209.974939 79.778839 
L 210.584275 80.613343 
L 210.888943 78.831953 
L 211.193612 81.248122 
L 211.49828 77.711573 
L 211.802948 79.219109 
L 212.107617 79.979561 
L 212.716953 80.355184 
L 213.021622 78.613866 
L 213.32629 78.443148 
L 213.630958 78.050278 
L 213.935627 78.954384 
L 214.240295 76.578179 
L 214.544963 76.951513 
L 215.1543 80.696068 
L 215.458968 78.173985 
L 215.763636 79.270765 
L 216.068305 78.701701 
L 216.372973 73.154605 
L 216.677641 82.525513 
L 216.98231 76.625189 
L 217.286978 80.233342 
L 217.591646 80.605577 
L 217.896314 79.375585 
L 218.200983 78.967169 
L 218.505651 77.867043 
L 218.810319 75.734725 
L 219.114988 83.199775 
L 219.419656 79.764039 
L 219.724324 80.07204 
L 220.028993 78.624796 
L 220.333661 77.990916 
L 220.638329 80.882607 
L 221.247666 78.003257 
L 221.552334 81.007896 
L 221.857002 78.71028 
L 222.161671 79.392601 
L 222.466339 78.790597 
L 222.771007 79.324849 
L 223.075676 77.686001 
L 223.380344 80.491727 
L 223.685012 78.010164 
L 223.989681 76.625077 
L 224.294349 78.774922 
L 224.599017 81.746282 
L 224.903686 77.04789 
L 225.208354 78.988741 
L 225.513022 80.027646 
L 225.81769 79.395001 
L 226.122359 79.218482 
L 226.427027 82.392213 
L 226.731695 76.237557 
L 227.036364 82.47217 
L 227.6457 77.437009 
L 227.950369 79.588764 
L 228.255037 82.558175 
L 228.864373 81.167378 
L 229.169042 76.479395 
L 229.778378 79.417491 
L 230.083047 76.365661 
L 230.387715 78.917436 
L 230.997052 80.189818 
L 231.30172 78.901133 
L 231.606388 82.679985 
L 231.911057 77.390189 
L 232.520393 82.701494 
L 232.825061 78.278533 
L 233.12973 77.657248 
L 233.434398 76.679103 
L 233.739066 76.380873 
L 234.043735 80.861433 
L 234.348403 79.532629 
L 234.653071 76.641852 
L 234.95774 81.219209 
L 235.262408 75.866879 
L 235.567076 78.091244 
L 235.871744 74.955428 
L 236.176413 80.311217 
L 236.481081 80.59112 
L 236.785749 78.898864 
L 237.090418 80.181994 
L 237.395086 81.953431 
L 237.699754 78.027507 
L 238.004423 78.241693 
L 238.309091 81.021879 
L 238.613759 80.750541 
L 238.918428 80.176098 
L 239.223096 80.128696 
L 239.527764 78.291068 
L 239.832432 79.962632 
L 240.137101 77.253839 
L 240.441769 81.335304 
L 240.746437 80.498232 
L 241.051106 80.185191 
L 241.660442 75.44137 
L 241.965111 78.457216 
L 242.269779 79.384225 
L 242.574447 79.095865 
L 242.879115 78.371917 
L 243.183784 78.367005 
L 243.488452 79.845286 
L 243.79312 78.889396 
L 244.097789 81.618074 
L 244.402457 78.575355 
L 244.707125 80.514902 
L 245.011794 80.495903 
L 245.316462 81.296181 
L 245.62113 77.20803 
L 245.925799 79.159831 
L 246.230467 77.911203 
L 246.535135 79.87748 
L 246.839803 77.048177 
L 247.144472 80.928486 
L 247.44914 79.534106 
L 247.753808 77.458978 
L 248.058477 80.02982 
L 248.667813 76.816023 
L 248.972482 79.638245 
L 249.27715 79.360524 
L 249.581818 79.613209 
L 249.886486 80.337761 
L 250.191155 77.980521 
L 250.495823 76.608507 
L 250.800491 80.801208 
L 251.10516 77.186713 
L 251.409828 82.190826 
L 251.714496 79.383656 
L 252.019165 80.067453 
L 252.323833 77.955263 
L 252.93317 78.74319 
L 253.237838 73.816633 
L 253.542506 78.790099 
L 253.847174 78.17943 
L 254.151843 81.564847 
L 254.456511 80.567235 
L 254.761179 76.982774 
L 255.370516 80.564293 
L 255.675184 75.965501 
L 255.979853 78.477929 
L 256.284521 78.531851 
L 256.589189 74.501648 
L 256.893857 78.709959 
L 257.198526 78.007817 
L 257.503194 80.271987 
L 257.807862 77.899461 
L 258.112531 78.748058 
L 258.417199 81.873704 
L 258.721867 81.246196 
L 259.026536 78.629969 
L 259.331204 81.17009 
L 259.635872 76.68696 
L 259.940541 80.175784 
L 260.245209 80.688117 
L 260.549877 84.937279 
L 260.854545 77.663777 
L 261.159214 79.856239 
L 261.463882 77.252642 
L 261.76855 76.605703 
L 262.073219 76.871645 
L 262.377887 74.695817 
L 262.682555 76.851976 
L 262.987224 82.343834 
L 263.291892 76.386279 
L 263.59656 80.36157 
L 263.901229 78.464888 
L 264.205897 80.074742 
L 264.510565 77.834422 
L 264.815233 78.012558 
L 265.119902 78.941811 
L 265.729238 83.224567 
L 266.338575 79.305333 
L 266.643243 81.210379 
L 266.947912 77.183014 
L 267.25258 77.208435 
L 267.861916 78.413078 
L 268.166585 82.276096 
L 268.471253 78.578326 
L 268.775921 78.430125 
L 269.08059 78.678361 
L 269.385258 80.562298 
L 269.689926 79.576302 
L 269.994595 80.917542 
L 270.603931 77.325774 
L 270.9086 78.171378 
L 271.213268 77.716608 
L 271.517936 78.322946 
L 271.822604 80.547608 
L 272.127273 79.075884 
L 272.431941 78.756273 
L 272.736609 79.54067 
L 273.041278 84.069716 
L 273.345946 80.815344 
L 273.650614 79.614377 
L 273.955283 80.615179 
L 274.259951 83.2745 
L 274.564619 78.814126 
L 274.869287 77.800036 
L 275.173956 83.620993 
L 275.478624 77.102318 
L 275.783292 79.533309 
L 276.087961 77.488511 
L 276.392629 77.475587 
L 276.697297 81.007243 
L 277.001966 79.696582 
L 277.306634 77.537505 
L 277.611302 80.070382 
L 277.915971 79.543385 
L 278.220639 81.781522 
L 278.829975 74.878146 
L 279.439312 78.912568 
L 279.74398 79.272511 
L 280.048649 80.121554 
L 280.353317 77.856722 
L 280.657985 80.740276 
L 280.962654 81.067199 
L 281.267322 76.262876 
L 281.57199 80.184098 
L 281.876658 76.593846 
L 282.485995 76.888026 
L 282.790663 81.258552 
L 283.095332 83.286129 
L 283.4 81.306254 
L 283.704668 78.575478 
L 284.009337 78.013391 
L 284.314005 79.364439 
L 284.618673 75.272929 
L 284.923342 76.57686 
L 285.22801 80.340505 
L 285.532678 80.85169 
L 285.837346 77.620538 
L 286.142015 77.843679 
L 286.446683 78.51458 
L 286.751351 80.768006 
L 287.05602 79.126599 
L 287.360688 78.429488 
L 287.665356 78.415662 
L 287.970025 77.173221 
L 288.274693 79.41744 
L 288.579361 78.281683 
L 288.884029 77.607739 
L 289.188698 81.562886 
L 289.493366 75.552741 
L 290.102703 80.066766 
L 290.407371 81.374759 
L 290.712039 77.467375 
L 291.321376 79.429691 
L 291.626044 77.444556 
L 291.930713 78.458759 
L 292.235381 78.567799 
L 292.540049 80.23434 
L 292.844717 75.845705 
L 293.149386 77.426017 
L 293.454054 80.000922 
L 293.758722 81.532573 
L 294.063391 80.981507 
L 294.368059 79.685172 
L 294.672727 80.318395 
L 294.977396 76.020572 
L 295.282064 80.064115 
L 295.586732 79.61972 
L 295.8914 75.957023 
L 296.196069 77.152477 
L 296.500737 80.161237 
L 296.805405 79.699288 
L 297.110074 81.302378 
L 297.71941 76.002796 
L 298.024079 81.886327 
L 298.328747 81.689193 
L 298.633415 75.17702 
L 299.242752 80.702327 
L 299.54742 78.515855 
L 299.852088 81.733968 
L 300.156757 75.778704 
L 300.461425 80.932704 
L 300.766093 76.837695 
L 301.070762 77.32528 
L 301.37543 80.914611 
L 301.680098 77.601267 
L 301.984767 79.245716 
L 302.289435 82.185806 
L 302.594103 81.582553 
L 302.898771 78.054689 
L 303.20344 78.735522 
L 303.508108 79.11968 
L 303.812776 79.197683 
L 304.117445 80.575395 
L 304.726781 79.707662 
L 305.03145 78.181076 
L 305.336118 74.690636 
L 305.640786 79.656217 
L 305.945455 77.239769 
L 306.250123 79.841171 
L 306.554791 79.786942 
L 306.859459 83.033341 
L 307.164128 79.202354 
L 307.468796 79.39998 
L 307.773464 81.689286 
L 308.078133 78.809004 
L 308.382801 82.07995 
L 308.687469 77.831232 
L 308.992138 79.414852 
L 309.296806 77.874195 
L 309.601474 79.383539 
L 309.906143 77.58526 
L 310.210811 79.143978 
L 310.515479 78.634666 
L 310.820147 79.597385 
L 311.124816 75.771077 
L 311.734152 80.364866 
L 312.038821 79.224958 
L 312.343489 80.604492 
L 312.648157 77.365303 
L 312.952826 77.980893 
L 313.257494 77.825931 
L 313.562162 79.71049 
L 313.86683 74.846085 
L 314.171499 76.091524 
L 314.476167 78.283719 
L 314.780835 76.086875 
L 315.085504 77.037834 
L 315.390172 79.478642 
L 315.69484 78.046374 
L 315.999509 79.90132 
L 316.304177 76.184752 
L 316.913514 78.620744 
L 317.218182 76.924029 
L 317.52285 76.782328 
L 317.827518 78.184357 
L 318.132187 80.988907 
L 318.436855 79.501733 
L 318.741523 77.291037 
L 319.046192 79.094499 
L 319.35086 77.450934 
L 319.655528 81.488535 
L 319.960197 76.809197 
L 320.264865 79.274805 
L 320.569533 75.994678 
L 320.874201 78.199572 
L 321.17887 79.468824 
L 321.483538 78.711651 
L 321.788206 77.646078 
L 322.092875 81.542751 
L 322.397543 81.670814 
L 322.702211 80.640443 
L 323.00688 78.581456 
L 323.311548 79.997777 
L 323.616216 78.414956 
L 323.920885 77.956814 
L 324.225553 80.814506 
L 324.530221 79.388358 
L 324.834889 75.401557 
L 325.139558 79.344052 
L 325.444226 80.106385 
L 325.748894 80.11212 
L 326.053563 79.569181 
L 326.358231 77.918463 
L 326.662899 81.44799 
L 327.272236 81.815994 
L 327.576904 77.742801 
L 327.881572 79.414295 
L 328.186241 79.631654 
L 328.490909 76.738647 
L 329.100246 80.898797 
L 329.404914 77.715355 
L 329.709582 80.813703 
L 330.318919 80.311952 
L 330.623587 76.942148 
L 331.537592 81.198163 
L 331.84226 79.513325 
L 332.146929 80.691459 
L 332.451597 75.151032 
L 332.756265 77.551762 
L 333.060934 78.597704 
L 333.365602 77.60454 
L 333.67027 80.078247 
L 333.974939 79.215655 
L 334.279607 79.88357 
L 334.584275 78.854994 
L 334.888943 79.531443 
L 335.193612 77.069296 
L 335.49828 80.989979 
L 335.802948 78.669721 
L 336.107617 74.981925 
L 336.412285 78.740844 
L 337.021622 81.690777 
L 337.32629 77.203447 
L 337.630958 79.750561 
L 337.935627 77.288718 
L 338.240295 76.267093 
L 338.544963 77.563837 
L 338.849631 78.025189 
L 339.1543 77.955669 
L 339.458968 79.125384 
L 339.763636 78.062053 
L 340.068305 80.258149 
L 340.372973 80.298203 
L 340.677641 75.920146 
L 340.98231 80.414029 
L 341.286978 80.312404 
L 341.591646 80.069067 
L 341.896314 79.243981 
L 342.200983 82.004635 
L 342.505651 78.300412 
L 342.810319 78.462433 
L 343.114988 79.332709 
L 343.419656 82.667713 
L 343.724324 82.182053 
L 344.028993 78.039329 
L 344.333661 76.395101 
L 344.638329 82.85743 
L 344.942998 77.924619 
L 345.247666 77.587431 
L 345.552334 76.511467 
L 345.857002 77.595167 
L 346.466339 82.419494 
L 346.771007 81.127437 
L 347.075676 77.463088 
L 347.380344 78.25311 
L 347.685012 81.374585 
L 347.989681 81.554993 
L 348.294349 82.236567 
L 348.599017 77.01072 
L 348.903686 77.245365 
L 349.513022 80.563727 
L 349.81769 76.165104 
L 350.122359 76.488184 
L 350.427027 83.76859 
L 350.731695 78.533653 
L 351.6457 76.341739 
L 351.950369 80.39045 
L 352.255037 79.368847 
L 352.559705 76.271755 
L 352.864373 78.868193 
L 353.169042 77.836709 
L 353.778378 80.606708 
L 354.083047 78.37574 
L 354.387715 80.371695 
L 354.997052 79.317931 
L 355.30172 80.072049 
L 355.606388 76.828691 
L 355.911057 81.135653 
L 356.215725 78.847052 
L 356.520393 79.959631 
L 356.825061 77.344223 
L 357.12973 78.197602 
L 357.434398 78.195429 
L 357.739066 79.584691 
L 358.043735 78.811524 
L 358.348403 78.907496 
L 358.95774 81.968112 
L 359.262408 79.061004 
L 359.567076 80.694883 
L 359.871744 78.43103 
L 360.176413 79.201118 
L 360.481081 79.521191 
L 360.785749 76.606645 
L 361.395086 78.946083 
L 361.699754 77.668475 
L 362.004423 80.743186 
L 362.309091 76.971338 
L 362.613759 77.950684 
L 362.918428 81.043952 
L 363.223096 78.230385 
L 363.527764 79.850623 
L 363.832432 76.815626 
L 364.441769 78.938863 
L 364.746437 79.354608 
L 365.355774 77.290324 
L 365.660442 77.921513 
L 365.965111 79.075938 
L 366.269779 78.110077 
L 366.574447 76.44337 
L 366.879115 77.238407 
L 367.183784 78.63656 
L 367.488452 77.406775 
L 367.79312 77.498851 
L 368.097789 81.75426 
L 368.402457 78.205265 
L 368.707125 78.109093 
L 369.011794 81.614498 
L 369.316462 75.837757 
L 369.62113 78.789869 
L 369.925799 76.706787 
L 370.535135 79.220821 
L 370.839803 78.21582 
L 371.144472 76.227148 
L 371.44914 77.779978 
L 371.753808 80.461929 
L 372.058477 80.218997 
L 372.363145 78.988082 
L 372.667813 79.943499 
L 372.972482 80.139536 
L 373.27715 76.884125 
L 373.581818 77.468176 
L 373.581818 77.468176 
" style="fill:none;stroke:#1f77b4;stroke-linecap:square;stroke-width:1.5;"/>
   </g>
   <g id="line2d_13">
    <path clip-path="url(#pc37f882ed2)" d="M 69.218182 242.116364 
L 69.52285 220.054021 
L 70.132187 201.614699 
L 70.436855 196.67515 
L 70.741523 189.78253 
L 71.046192 179.948928 
L 71.35086 175.039202 
L 71.655528 173.779745 
L 72.264865 162.499651 
L 72.569533 161.899578 
L 72.874201 156.98615 
L 73.17887 155.960867 
L 73.483538 150.704982 
L 73.788206 157.145093 
L 74.092875 145.988915 
L 74.397543 149.236176 
L 74.702211 148.412331 
L 75.00688 147.950828 
L 75.311548 145.52504 
L 75.616216 140.133842 
L 75.920885 142.697276 
L 76.225553 141.033054 
L 76.834889 143.194807 
L 77.139558 139.663486 
L 77.444226 142.444664 
L 78.053563 136.85206 
L 78.358231 138.562918 
L 78.662899 141.130942 
L 78.967568 138.378494 
L 79.272236 140.222605 
L 79.576904 138.652455 
L 79.881572 138.384831 
L 80.186241 137.428065 
L 80.490909 139.517554 
L 80.795577 138.742464 
L 81.100246 141.671512 
L 81.404914 135.774042 
L 81.709582 134.49832 
L 82.318919 138.900465 
L 82.623587 137.588913 
L 82.928256 139.339602 
L 83.232924 137.599219 
L 83.537592 144.102018 
L 83.84226 138.732303 
L 84.146929 138.092188 
L 84.451597 139.141943 
L 84.756265 136.289231 
L 85.060934 138.513552 
L 85.365602 138.510764 
L 85.67027 138.805077 
L 85.974939 136.831898 
L 86.279607 139.031732 
L 86.584275 136.586722 
L 86.888943 137.509159 
L 87.193612 137.175666 
L 87.49828 138.301384 
L 87.802948 136.834677 
L 88.107617 136.521498 
L 88.412285 139.022368 
L 88.716953 136.799876 
L 89.021622 136.315344 
L 89.32629 137.689274 
L 89.630958 138.086435 
L 90.240295 135.385537 
L 90.544963 137.908441 
L 90.849631 136.306483 
L 91.1543 138.710351 
L 91.458968 138.439224 
L 91.763636 135.967221 
L 92.068305 141.261821 
L 92.372973 137.44232 
L 92.677641 137.199035 
L 92.98231 138.84441 
L 93.286978 139.234922 
L 93.591646 133.579108 
L 93.896314 136.523324 
L 94.200983 137.74443 
L 94.505651 137.247334 
L 94.810319 139.477966 
L 95.114988 131.760085 
L 95.419656 134.672425 
L 95.724324 138.972532 
L 96.028993 133.707346 
L 96.333661 132.976886 
L 96.638329 139.335311 
L 96.942998 134.133789 
L 97.247666 134.181147 
L 97.552334 135.264457 
L 97.857002 134.292554 
L 98.161671 137.490055 
L 98.466339 135.876389 
L 98.771007 136.534142 
L 99.075676 138.889458 
L 99.380344 139.222877 
L 99.685012 142.76277 
L 99.989681 134.639589 
L 100.294349 133.60323 
L 100.599017 131.82407 
L 100.903686 139.515123 
L 101.208354 132.613135 
L 101.513022 137.667031 
L 101.81769 136.832459 
L 102.427027 136.179241 
L 103.036364 138.346151 
L 103.6457 134.002389 
L 103.950369 136.629967 
L 104.255037 135.398291 
L 104.559705 133.005309 
L 104.864373 132.785606 
L 105.169042 134.157492 
L 105.47371 131.826917 
L 106.083047 139.080402 
L 106.387715 135.884541 
L 106.692383 135.711379 
L 106.997052 137.949405 
L 107.30172 138.934806 
L 107.606388 136.082878 
L 107.911057 139.486207 
L 108.215725 137.127214 
L 108.520393 136.908397 
L 108.825061 132.222673 
L 109.12973 138.102179 
L 109.434398 133.344289 
L 109.739066 133.242317 
L 110.043735 135.124723 
L 110.348403 132.727105 
L 110.95774 138.42641 
L 111.262408 134.19203 
L 111.567076 136.486182 
L 111.871744 135.063315 
L 112.176413 137.43073 
L 112.481081 137.322441 
L 112.785749 134.196072 
L 113.090418 135.107944 
L 113.395086 134.031577 
L 113.699754 136.040905 
L 114.004423 135.679884 
L 114.309091 134.440626 
L 114.613759 136.357785 
L 114.918428 136.503985 
L 115.223096 134.040446 
L 115.527764 136.730445 
L 115.832432 136.005864 
L 116.137101 133.035628 
L 116.441769 133.269503 
L 116.746437 136.310973 
L 117.051106 132.631126 
L 117.355774 135.08766 
L 117.660442 134.84535 
L 117.965111 135.491668 
L 118.269779 138.701825 
L 118.574447 133.006605 
L 118.879115 136.472319 
L 119.183784 137.459368 
L 119.488452 132.612118 
L 119.79312 132.215394 
L 120.097789 136.471321 
L 120.402457 131.786181 
L 120.707125 138.548391 
L 121.011794 131.356159 
L 121.316462 135.161006 
L 121.62113 135.550028 
L 121.925799 133.284723 
L 122.230467 134.721132 
L 122.535135 134.344236 
L 122.839803 136.872756 
L 123.144472 136.380284 
L 123.44914 132.859771 
L 123.753808 137.71542 
L 124.058477 133.945662 
L 124.363145 132.618855 
L 124.667813 136.676943 
L 124.972482 133.879026 
L 125.27715 135.230619 
L 125.581818 132.866027 
L 125.886486 138.685866 
L 126.191155 133.225197 
L 126.495823 136.671574 
L 126.800491 132.385618 
L 127.409828 134.706681 
L 127.714496 128.831213 
L 128.019165 135.791315 
L 128.323833 134.19211 
L 128.93317 135.439644 
L 129.237838 133.314474 
L 129.542506 136.990206 
L 129.847174 134.021799 
L 130.151843 132.848433 
L 130.456511 135.219415 
L 130.761179 131.563645 
L 131.065848 132.727716 
L 131.370516 136.027993 
L 131.979853 132.04795 
L 132.284521 138.486889 
L 132.589189 134.896497 
L 132.893857 133.629853 
L 133.198526 134.645334 
L 133.503194 135.253018 
L 133.807862 131.877314 
L 134.112531 132.40498 
L 134.417199 132.214019 
L 134.721867 134.465488 
L 135.026536 135.142382 
L 135.331204 137.26249 
L 135.635872 136.964724 
L 135.940541 134.848464 
L 136.245209 133.613942 
L 136.549877 133.631061 
L 136.854545 132.358317 
L 137.159214 133.245751 
L 137.76855 136.517357 
L 138.073219 131.855775 
L 138.377887 133.849876 
L 138.682555 134.250101 
L 138.987224 132.535471 
L 139.291892 132.326195 
L 139.59656 136.812039 
L 139.901229 134.300255 
L 140.205897 134.361294 
L 140.510565 133.874011 
L 140.815233 132.205032 
L 141.119902 136.014661 
L 141.42457 131.654382 
L 141.729238 130.44529 
L 142.033907 133.952823 
L 142.338575 133.494949 
L 142.643243 135.976668 
L 142.947912 134.43526 
L 143.25258 136.551222 
L 143.557248 136.418023 
L 143.861916 134.078655 
L 144.166585 136.963231 
L 144.471253 132.780372 
L 145.08059 135.95167 
L 145.689926 133.240176 
L 145.994595 135.846548 
L 146.299263 132.084572 
L 146.603931 132.884565 
L 146.9086 135.49679 
L 147.213268 135.283345 
L 147.517936 133.744061 
L 148.127273 132.807704 
L 148.431941 132.908145 
L 148.736609 133.215544 
L 149.041278 135.987995 
L 149.345946 132.818197 
L 149.650614 131.649014 
L 149.955283 134.52365 
L 150.259951 134.498266 
L 150.564619 133.638432 
L 150.869287 135.611645 
L 151.173956 133.413451 
L 151.478624 135.631519 
L 151.783292 132.363637 
L 152.087961 134.966909 
L 152.392629 136.201497 
L 152.697297 134.363965 
L 153.001966 135.176233 
L 153.306634 135.45584 
L 153.611302 131.864635 
L 153.915971 136.321118 
L 154.220639 131.321953 
L 154.525307 130.826942 
L 154.829975 135.722534 
L 155.134644 130.148468 
L 155.74398 135.271388 
L 156.048649 136.780596 
L 156.353317 133.466261 
L 156.657985 132.046082 
L 157.267322 138.481957 
L 157.57199 133.392872 
L 157.876658 132.987207 
L 158.181327 129.744564 
L 158.790663 134.400811 
L 159.095332 133.73395 
L 159.4 134.376785 
L 159.704668 136.104962 
L 160.009337 135.254168 
L 160.314005 132.190032 
L 160.618673 133.864334 
L 160.923342 134.226233 
L 161.22801 132.622069 
L 161.837346 134.522683 
L 162.142015 131.510414 
L 162.446683 130.650678 
L 162.751351 130.139463 
L 163.05602 131.635097 
L 163.665356 133.229453 
L 163.970025 134.98777 
L 164.274693 132.601694 
L 164.579361 134.893011 
L 165.188698 131.01667 
L 165.493366 135.940062 
L 165.798034 133.144763 
L 166.102703 132.130902 
L 166.407371 134.10632 
L 167.016708 130.35159 
L 167.321376 130.074796 
L 167.626044 136.941615 
L 167.930713 133.855064 
L 168.235381 134.45284 
L 168.540049 133.824546 
L 168.844717 134.508927 
L 169.149386 131.830062 
L 169.454054 132.808448 
L 169.758722 137.919054 
L 170.063391 129.839267 
L 170.368059 133.57051 
L 170.672727 133.168547 
L 170.977396 130.506419 
L 171.282064 128.929515 
L 171.586732 134.1859 
L 171.8914 133.631439 
L 172.196069 132.791743 
L 172.500737 132.448503 
L 172.805405 134.960676 
L 173.110074 133.387451 
L 173.414742 133.344736 
L 173.71941 134.977994 
L 174.024079 132.745651 
L 174.328747 129.234952 
L 174.633415 132.85047 
L 174.938084 134.697095 
L 175.242752 134.035419 
L 175.54742 130.53783 
L 175.852088 136.931042 
L 176.156757 131.161186 
L 176.461425 130.351369 
L 176.766093 131.022353 
L 177.070762 129.751763 
L 177.37543 130.509223 
L 177.680098 140.4044 
L 177.984767 136.879205 
L 178.289435 131.28786 
L 178.594103 134.113762 
L 178.898771 130.955917 
L 179.20344 132.78956 
L 179.508108 131.078834 
L 180.117445 135.057826 
L 180.422113 131.734949 
L 180.726781 133.133505 
L 181.03145 133.383691 
L 181.336118 132.239147 
L 181.640786 131.570923 
L 181.945455 135.049556 
L 182.250123 136.048898 
L 182.554791 133.667165 
L 182.859459 133.817022 
L 183.164128 136.248614 
L 183.468796 132.36732 
L 183.773464 132.868836 
L 184.078133 135.178848 
L 184.382801 133.851534 
L 184.687469 129.828892 
L 184.992138 133.737422 
L 185.296806 134.890587 
L 185.601474 134.494981 
L 185.906143 138.192635 
L 186.210811 132.2283 
L 186.515479 135.588323 
L 186.820147 135.870639 
L 187.124816 132.767425 
L 187.429484 138.79499 
L 187.734152 133.437708 
L 188.038821 133.936293 
L 188.343489 131.629004 
L 188.648157 133.055929 
L 188.952826 130.746832 
L 189.257494 138.601934 
L 189.562162 134.637337 
L 189.86683 136.231436 
L 190.171499 134.323959 
L 190.780835 132.206026 
L 191.085504 133.524484 
L 191.390172 136.590052 
L 191.69484 136.112915 
L 192.304177 129.701024 
L 192.608845 131.318435 
L 192.913514 134.291171 
L 193.218182 133.360264 
L 193.52285 136.307544 
L 193.827518 130.357054 
L 194.132187 129.844881 
L 194.436855 138.211224 
L 194.741523 136.164279 
L 195.046192 133.135456 
L 195.655528 129.658648 
L 195.960197 132.477494 
L 196.264865 133.89148 
L 196.569533 127.094029 
L 196.874201 132.776978 
L 197.17887 132.879258 
L 197.483538 131.703629 
L 197.788206 134.262276 
L 198.092875 132.996411 
L 198.397543 130.812097 
L 198.702211 131.272757 
L 199.00688 132.380966 
L 199.311548 131.983301 
L 199.616216 133.422584 
L 199.920885 130.631607 
L 200.225553 133.755776 
L 200.530221 133.906418 
L 200.834889 131.953804 
L 201.444226 133.806258 
L 201.748894 133.035683 
L 202.053563 130.793118 
L 202.358231 131.835442 
L 202.662899 131.232699 
L 202.967568 134.65193 
L 203.272236 135.716137 
L 203.576904 133.573889 
L 203.881572 134.608817 
L 204.186241 133.468682 
L 204.490909 135.35406 
L 204.795577 132.255107 
L 205.100246 134.421781 
L 205.404914 132.346959 
L 206.014251 135.589145 
L 206.318919 135.174515 
L 206.623587 130.521472 
L 207.232924 135.278446 
L 207.537592 133.199812 
L 207.84226 125.847765 
L 208.146929 133.149225 
L 208.451597 135.866345 
L 208.756265 135.189812 
L 209.365602 131.954181 
L 209.67027 136.034394 
L 209.974939 134.137276 
L 210.279607 135.347433 
L 210.584275 135.826927 
L 210.888943 135.179665 
L 211.193612 133.478566 
L 211.49828 134.160541 
L 211.802948 131.032647 
L 212.107617 133.056825 
L 212.412285 132.833934 
L 212.716953 134.677657 
L 213.021622 133.080483 
L 213.32629 133.580744 
L 213.630958 133.409703 
L 213.935627 132.98568 
L 214.240295 134.76263 
L 214.544963 133.095771 
L 214.849631 135.67293 
L 215.1543 133.067667 
L 215.458968 135.436477 
L 215.763636 134.589115 
L 216.068305 132.78412 
L 216.372973 137.367516 
L 216.677641 134.578454 
L 216.98231 130.086524 
L 217.286978 134.2379 
L 217.591646 135.302927 
L 217.896314 133.484738 
L 218.200983 130.960339 
L 218.505651 137.150379 
L 218.810319 130.234898 
L 219.419656 135.877639 
L 220.028993 131.287759 
L 220.333661 134.034588 
L 220.638329 133.316285 
L 220.942998 131.501109 
L 221.247666 132.29099 
L 221.552334 137.026402 
L 221.857002 132.679449 
L 222.161671 134.94774 
L 222.466339 130.619584 
L 222.771007 132.983731 
L 223.075676 133.825225 
L 223.380344 133.873349 
L 223.685012 132.555897 
L 224.294349 134.19836 
L 224.599017 130.805005 
L 224.903686 135.207292 
L 225.208354 132.218534 
L 225.513022 134.216891 
L 225.81769 133.357211 
L 226.122359 133.145289 
L 226.427027 134.876431 
L 226.731695 132.241214 
L 227.036364 136.664866 
L 227.341032 131.363397 
L 227.950369 134.777705 
L 228.255037 131.007862 
L 228.559705 133.155224 
L 228.864373 133.018205 
L 229.169042 134.780115 
L 229.47371 129.310165 
L 229.778378 134.334953 
L 230.083047 127.680997 
L 230.692383 134.774531 
L 230.997052 126.747535 
L 231.30172 135.620752 
L 231.606388 132.762872 
L 231.911057 131.941748 
L 232.215725 136.449875 
L 232.520393 132.637316 
L 232.825061 131.689227 
L 233.12973 135.365778 
L 233.434398 135.34323 
L 233.739066 127.354652 
L 234.653071 134.286267 
L 234.95774 131.840498 
L 235.262408 134.252168 
L 235.567076 131.888606 
L 235.871744 132.938826 
L 236.176413 133.128568 
L 236.481081 129.288543 
L 236.785749 134.617621 
L 237.090418 134.171234 
L 237.395086 133.931136 
L 237.699754 131.694567 
L 238.004423 130.858906 
L 238.309091 133.442128 
L 238.613759 134.271391 
L 238.918428 130.963361 
L 239.223096 133.669811 
L 239.527764 133.643553 
L 239.832432 133.339692 
L 240.137101 133.579522 
L 240.441769 131.832579 
L 240.746437 133.612759 
L 241.051106 132.517434 
L 241.355774 135.887722 
L 241.660442 133.688556 
L 241.965111 130.184511 
L 242.269779 133.367649 
L 242.574447 134.902782 
L 242.879115 132.584743 
L 243.183784 132.422001 
L 243.488452 132.832292 
L 243.79312 131.656226 
L 244.097789 131.390975 
L 244.402457 135.566888 
L 244.707125 134.507247 
L 245.011794 131.713299 
L 245.316462 131.525508 
L 245.62113 136.831339 
L 245.925799 136.582245 
L 246.535135 129.96932 
L 246.839803 135.452154 
L 247.144472 132.827861 
L 247.44914 132.998684 
L 247.753808 131.937975 
L 248.058477 133.954638 
L 248.363145 130.176008 
L 248.667813 132.46762 
L 248.972482 129.182034 
L 249.27715 130.096209 
L 249.581818 133.162811 
L 249.886486 130.937881 
L 250.191155 133.364601 
L 250.495823 137.092344 
L 251.10516 132.085243 
L 251.409828 134.682012 
L 251.714496 135.03521 
L 252.019165 134.712402 
L 252.323833 131.675663 
L 252.628501 131.234718 
L 252.93317 132.792272 
L 253.237838 135.471942 
L 253.542506 131.098007 
L 253.847174 130.656346 
L 254.151843 131.322367 
L 254.456511 129.898041 
L 254.761179 131.668858 
L 255.065848 131.191698 
L 255.370516 131.493406 
L 255.675184 133.406604 
L 255.979853 133.215247 
L 256.284521 133.538206 
L 256.589189 131.996546 
L 256.893857 132.89356 
L 257.198526 134.766159 
L 257.503194 132.950521 
L 257.807862 136.604505 
L 258.112531 130.576165 
L 258.417199 133.143619 
L 258.721867 133.848228 
L 259.026536 130.718899 
L 259.331204 132.77883 
L 259.635872 131.257802 
L 259.940541 135.334553 
L 260.245209 131.935323 
L 260.549877 138.697909 
L 260.854545 134.671327 
L 261.159214 133.545982 
L 261.463882 133.636898 
L 261.76855 131.576039 
L 262.073219 135.08089 
L 262.377887 134.836099 
L 262.682555 133.890035 
L 263.291892 130.650015 
L 263.59656 133.958338 
L 263.901229 130.998278 
L 264.205897 130.424237 
L 264.510565 130.86434 
L 264.815233 135.007154 
L 265.119902 133.771656 
L 265.42457 134.573268 
L 265.729238 129.004759 
L 266.033907 133.511078 
L 266.338575 134.360776 
L 266.643243 133.912969 
L 266.947912 131.388329 
L 267.25258 131.161779 
L 267.557248 130.426641 
L 267.861916 131.310162 
L 268.166585 130.625579 
L 268.471253 131.245839 
L 268.775921 134.202172 
L 269.08059 131.211513 
L 269.385258 135.822401 
L 269.689926 134.655418 
L 269.994595 131.315154 
L 270.299263 129.854637 
L 270.603931 131.412209 
L 270.9086 135.978698 
L 271.517936 132.690574 
L 271.822604 133.93562 
L 272.127273 132.382828 
L 272.431941 132.777386 
L 272.736609 131.495145 
L 273.041278 129.409831 
L 273.345946 131.337803 
L 273.650614 132.127965 
L 273.955283 133.768936 
L 274.259951 133.859064 
L 274.564619 132.169964 
L 274.869287 131.557434 
L 275.173956 128.071363 
L 275.478624 128.887706 
L 275.783292 130.121428 
L 276.087961 126.996028 
L 276.392629 128.966941 
L 276.697297 133.125649 
L 277.001966 132.575487 
L 277.306634 135.290378 
L 277.611302 131.055152 
L 277.915971 132.475539 
L 278.220639 131.614075 
L 278.525307 128.800279 
L 278.829975 131.171793 
L 279.134644 132.292916 
L 279.439312 130.915273 
L 279.74398 134.156513 
L 280.048649 132.496964 
L 280.353317 135.284724 
L 280.657985 132.237824 
L 280.962654 132.816766 
L 281.267322 131.496323 
L 281.57199 128.90066 
L 281.876658 129.848674 
L 282.181327 129.449837 
L 282.485995 132.79474 
L 282.790663 127.24693 
L 283.095332 131.24985 
L 283.4 130.836852 
L 283.704668 133.14386 
L 284.009337 129.764028 
L 284.314005 134.081461 
L 284.618673 128.389736 
L 284.923342 135.625898 
L 285.22801 130.902413 
L 285.837346 132.069804 
L 286.142015 127.81659 
L 286.446683 132.043839 
L 286.751351 134.269255 
L 287.05602 134.863476 
L 287.360688 131.616053 
L 287.665356 129.921333 
L 287.970025 132.384809 
L 288.274693 131.775591 
L 288.579361 133.757255 
L 288.884029 132.1245 
L 289.188698 132.082198 
L 289.493366 132.232915 
L 289.798034 130.573408 
L 290.102703 131.357424 
L 290.407371 133.761717 
L 290.712039 131.934748 
L 291.321376 132.392961 
L 291.626044 130.862025 
L 291.930713 127.762698 
L 292.235381 133.224052 
L 292.540049 134.37981 
L 292.844717 129.953149 
L 293.149386 127.643979 
L 293.454054 135.562779 
L 293.758722 131.410449 
L 294.063391 131.927552 
L 294.672727 136.106275 
L 294.977396 132.700959 
L 295.282064 131.319096 
L 295.8914 133.187637 
L 296.196069 132.067201 
L 296.500737 134.572161 
L 296.805405 131.474833 
L 297.110074 132.865675 
L 297.414742 132.476024 
L 298.024079 127.435585 
L 298.328747 134.355001 
L 298.633415 135.771599 
L 298.938084 130.0621 
L 299.242752 131.446648 
L 299.54742 133.936429 
L 300.461425 129.126738 
L 300.766093 134.173281 
L 301.070762 132.135548 
L 301.37543 131.255512 
L 301.680098 132.301487 
L 301.984767 137.184614 
L 302.289435 131.49242 
L 302.594103 130.402662 
L 302.898771 129.773725 
L 303.20344 132.393865 
L 303.508108 132.127038 
L 303.812776 130.574509 
L 304.117445 131.325312 
L 304.422113 130.079792 
L 305.03145 132.531919 
L 305.336118 135.461079 
L 305.640786 130.532959 
L 305.945455 131.864072 
L 306.250123 131.474465 
L 306.554791 131.80331 
L 306.859459 131.309218 
L 307.164128 131.1042 
L 307.468796 132.202419 
L 307.773464 131.379471 
L 308.078133 136.588944 
L 308.687469 128.187043 
L 308.992138 132.377668 
L 309.296806 131.405785 
L 309.601474 132.916676 
L 309.906143 132.320249 
L 310.210811 133.402282 
L 310.515479 131.891521 
L 310.820147 133.771773 
L 311.124816 129.887001 
L 311.429484 133.037357 
L 311.734152 131.645687 
L 312.038821 130.810481 
L 312.343489 134.367928 
L 312.648157 129.667866 
L 312.952826 133.678336 
L 313.257494 127.613978 
L 313.562162 134.769127 
L 313.86683 134.220684 
L 314.171499 132.235278 
L 314.476167 134.057447 
L 314.780835 131.75661 
L 315.085504 132.534311 
L 315.390172 132.678287 
L 315.69484 133.136374 
L 315.999509 130.774061 
L 316.304177 132.694932 
L 316.608845 136.017114 
L 316.913514 133.737818 
L 317.218182 133.533457 
L 317.52285 133.975507 
L 317.827518 130.653337 
L 318.132187 132.90306 
L 318.436855 132.612128 
L 318.741523 134.256454 
L 319.046192 129.859011 
L 319.35086 129.508267 
L 319.655528 133.431502 
L 319.960197 133.618098 
L 320.264865 133.22251 
L 320.569533 134.162692 
L 320.874201 133.403577 
L 321.17887 132.209101 
L 321.483538 132.134956 
L 321.788206 132.905423 
L 322.092875 132.408955 
L 322.397543 134.934235 
L 322.702211 133.863201 
L 323.00688 128.656524 
L 323.311548 132.087571 
L 323.616216 131.733507 
L 323.920885 132.504002 
L 324.225553 131.459142 
L 324.530221 134.76472 
L 325.139558 129.774187 
L 325.444226 134.396288 
L 325.748894 133.563116 
L 326.053563 128.699175 
L 326.662899 133.430296 
L 326.967568 131.808737 
L 327.272236 135.97774 
L 327.576904 132.531016 
L 327.881572 132.198383 
L 328.186241 129.428036 
L 328.490909 130.793103 
L 328.795577 135.224833 
L 329.100246 132.030139 
L 329.404914 132.201703 
L 329.709582 134.990695 
L 330.014251 132.63856 
L 330.318919 135.032248 
L 330.623587 132.996272 
L 331.232924 130.912044 
L 331.537592 132.987738 
L 331.84226 132.294967 
L 332.146929 134.730762 
L 332.451597 136.24201 
L 332.756265 133.489451 
L 333.060934 129.28136 
L 333.365602 132.638846 
L 333.67027 132.671015 
L 333.974939 129.655543 
L 334.279607 132.23345 
L 334.584275 132.137169 
L 334.888943 135.757431 
L 335.193612 134.93034 
L 335.49828 135.256565 
L 335.802948 134.237329 
L 336.107617 130.506287 
L 336.412285 133.922098 
L 336.716953 130.291625 
L 337.32629 133.057104 
L 337.630958 133.706309 
L 337.935627 133.28742 
L 338.240295 135.223701 
L 338.544963 128.690604 
L 338.849631 132.291781 
L 339.1543 132.46473 
L 339.458968 130.889315 
L 339.763636 133.735603 
L 340.068305 129.227006 
L 340.372973 132.824282 
L 340.677641 134.309979 
L 340.98231 135.066031 
L 341.286978 131.597018 
L 341.591646 130.738088 
L 341.896314 130.259289 
L 342.200983 132.345851 
L 342.505651 132.583692 
L 342.810319 132.264544 
L 343.114988 133.943907 
L 343.419656 134.059644 
L 343.724324 135.389633 
L 344.028993 131.757626 
L 344.333661 132.272423 
L 344.638329 130.195765 
L 344.942998 130.408605 
L 345.247666 131.220054 
L 345.552334 133.075782 
L 345.857002 130.780679 
L 346.161671 133.523124 
L 346.466339 128.103277 
L 346.771007 134.479109 
L 347.075676 132.19209 
L 347.380344 131.610744 
L 347.685012 131.962573 
L 347.989681 132.753969 
L 348.294349 132.203074 
L 348.599017 136.559169 
L 349.208354 130.052288 
L 349.513022 131.624882 
L 349.81769 129.768967 
L 350.122359 132.756364 
L 350.427027 133.806166 
L 350.731695 130.566494 
L 351.036364 133.903083 
L 351.341032 129.864944 
L 351.6457 133.828262 
L 351.950369 131.084504 
L 352.255037 130.798994 
L 352.559705 131.217364 
L 352.864373 127.837791 
L 353.169042 132.932394 
L 353.47371 128.964521 
L 353.778378 135.395174 
L 354.083047 132.900991 
L 354.387715 129.106684 
L 354.692383 135.188048 
L 354.997052 132.87648 
L 355.30172 133.257577 
L 355.606388 132.943649 
L 356.215725 132.545824 
L 356.520393 130.263338 
L 356.825061 130.286704 
L 357.12973 136.122085 
L 357.434398 131.508406 
L 357.739066 133.26934 
L 358.043735 131.471596 
L 358.653071 133.66018 
L 358.95774 132.708577 
L 359.262408 130.969235 
L 359.567076 128.242042 
L 359.871744 130.108694 
L 360.176413 133.359947 
L 360.481081 132.541302 
L 360.785749 132.865232 
L 361.090418 130.869061 
L 361.395086 129.644526 
L 361.699754 135.539731 
L 362.004423 131.990061 
L 362.309091 132.663874 
L 362.613759 133.027895 
L 362.918428 137.876966 
L 363.223096 130.945053 
L 363.527764 132.094077 
L 363.832432 135.389885 
L 364.137101 134.495561 
L 364.441769 128.424412 
L 364.746437 133.976516 
L 365.051106 131.551701 
L 365.355774 130.853083 
L 365.660442 132.026111 
L 365.965111 132.017948 
L 366.269779 132.44612 
L 366.574447 129.75845 
L 366.879115 131.6407 
L 367.183784 131.776031 
L 367.79312 137.889089 
L 368.097789 134.43073 
L 368.402457 129.181235 
L 368.707125 128.68455 
L 369.011794 134.516826 
L 369.316462 135.393161 
L 369.62113 130.334472 
L 369.925799 130.089654 
L 370.230467 132.450596 
L 370.535135 130.840503 
L 370.839803 129.904543 
L 371.144472 133.541676 
L 371.44914 130.005145 
L 371.753808 134.234543 
L 372.058477 131.053516 
L 372.363145 135.234342 
L 372.667813 132.236472 
L 372.972482 134.851236 
L 373.27715 131.524583 
L 373.581818 133.356167 
L 373.581818 133.356167 
" style="fill:none;stroke:#ff7f0e;stroke-linecap:square;stroke-width:1.5;"/>
   </g>
   <g id="line2d_14">
    <path clip-path="url(#pc37f882ed2)" d="M 69.218182 210.36286 
L 69.827518 165.004851 
L 70.436855 136.398938 
L 71.655528 97.899251 
L 72.264865 81.361093 
L 72.569533 79.542278 
L 72.874201 73.392571 
L 73.17887 73.429995 
L 73.483538 71.76446 
L 73.788206 67.715277 
L 74.092875 70.398733 
L 74.397543 70.562653 
L 74.702211 66.230523 
L 75.311548 68.749917 
L 75.616216 67.880754 
L 75.920885 67.846219 
L 76.225553 64.863795 
L 76.530221 64.270251 
L 76.834889 63.107093 
L 77.444226 64.401857 
L 77.748894 63.869553 
L 78.053563 67.565067 
L 78.358231 67.565743 
L 78.967568 61.72287 
L 79.272236 62.459791 
L 79.576904 64.005046 
L 79.881572 62.769415 
L 80.186241 63.550991 
L 80.490909 67.394251 
L 81.100246 60.730295 
L 81.404914 64.907436 
L 81.709582 61.616533 
L 82.014251 62.774188 
L 82.318919 65.428012 
L 82.623587 63.846948 
L 82.928256 63.955322 
L 83.232924 60.168287 
L 83.537592 60.403814 
L 83.84226 61.036955 
L 84.146929 61.271368 
L 84.451597 61.127571 
L 84.756265 61.666072 
L 85.060934 63.360894 
L 85.365602 60.999149 
L 85.67027 61.847125 
L 85.974939 60.548958 
L 86.279607 62.536619 
L 86.584275 61.214615 
L 86.888943 62.839688 
L 87.193612 60.659192 
L 87.49828 57.534837 
L 87.802948 63.523448 
L 88.107617 61.701509 
L 88.412285 63.371505 
L 88.716953 59.768201 
L 89.021622 58.662865 
L 89.32629 62.277613 
L 89.630958 58.874812 
L 90.240295 63.375627 
L 90.544963 61.176835 
L 90.849631 62.929496 
L 91.1543 65.368943 
L 91.458968 62.772446 
L 91.763636 63.236083 
L 92.068305 61.644948 
L 92.372973 63.448819 
L 92.677641 58.303131 
L 92.98231 60.529062 
L 93.286978 58.829379 
L 93.591646 60.731448 
L 93.896314 58.091535 
L 94.200983 61.697719 
L 94.505651 58.0675 
L 94.810319 60.854412 
L 95.114988 60.620268 
L 95.419656 56.504738 
L 95.724324 62.33795 
L 96.333661 58.62007 
L 96.638329 63.744983 
L 97.247666 58.100023 
L 97.552334 61.271549 
L 97.857002 60.303169 
L 98.161671 62.327146 
L 98.466339 54.985935 
L 98.771007 63.270756 
L 99.075676 62.655118 
L 99.380344 60.860012 
L 99.685012 60.697223 
L 99.989681 60.966652 
L 100.294349 60.012157 
L 100.599017 61.540351 
L 100.903686 59.225353 
L 101.208354 61.01351 
L 101.513022 58.341269 
L 101.81769 58.925105 
L 102.122359 60.314581 
L 102.427027 58.153955 
L 102.731695 60.5008 
L 103.036364 60.326978 
L 103.341032 61.089804 
L 103.6457 60.50608 
L 104.255037 55.947443 
L 104.559705 59.373383 
L 104.864373 58.766306 
L 105.169042 59.673598 
L 105.47371 59.320647 
L 106.083047 62.972015 
L 106.387715 57.513091 
L 106.692383 58.419544 
L 106.997052 57.731182 
L 107.30172 63.822008 
L 107.606388 58.143991 
L 107.911057 61.159049 
L 108.215725 57.073991 
L 108.520393 58.907064 
L 108.825061 59.148407 
L 109.12973 60.454212 
L 109.434398 58.643973 
L 109.739066 62.971728 
L 110.043735 62.164532 
L 110.348403 61.792595 
L 110.653071 57.540803 
L 110.95774 57.405364 
L 111.262408 56.153895 
L 111.567076 58.496241 
L 111.871744 59.855022 
L 112.176413 60.323806 
L 112.481081 58.055606 
L 112.785749 58.952731 
L 113.090418 60.302474 
L 113.395086 59.851897 
L 113.699754 55.373383 
L 114.004423 59.996243 
L 114.309091 61.484296 
L 114.613759 60.227364 
L 114.918428 60.198793 
L 115.223096 61.415067 
L 115.527764 59.876335 
L 115.832432 55.462556 
L 116.137101 57.958278 
L 116.441769 58.841394 
L 116.746437 58.870613 
L 117.051106 61.727857 
L 117.355774 60.989607 
L 117.660442 61.693722 
L 118.269779 55.742472 
L 118.574447 56.982695 
L 118.879115 57.189571 
L 119.488452 59.144828 
L 119.79312 60.106272 
L 120.097789 59.267666 
L 120.402457 56.714308 
L 120.707125 60.468348 
L 121.011794 58.729486 
L 121.316462 60.675743 
L 121.62113 61.517012 
L 122.230467 56.324513 
L 122.839803 59.15488 
L 123.144472 58.77542 
L 123.44914 58.632547 
L 123.753808 54.720945 
L 124.363145 59.768177 
L 124.667813 57.970582 
L 124.972482 62.564587 
L 125.581818 56.516573 
L 125.886486 59.205416 
L 126.191155 57.009059 
L 126.495823 55.979996 
L 126.800491 61.861024 
L 127.10516 59.861362 
L 127.409828 61.399186 
L 127.714496 58.151443 
L 128.019165 59.678676 
L 128.323833 58.72251 
L 128.93317 62.513894 
L 129.237838 62.886379 
L 129.542506 59.82523 
L 129.847174 59.821708 
L 130.151843 60.406092 
L 130.456511 61.867183 
L 130.761179 56.143882 
L 131.065848 60.007494 
L 131.675184 54.633184 
L 131.979853 55.260224 
L 132.284521 59.585657 
L 132.589189 60.783269 
L 132.893857 58.498563 
L 133.198526 58.608382 
L 133.503194 58.093747 
L 133.807862 58.774271 
L 134.112531 58.237688 
L 134.417199 57.013374 
L 134.721867 57.678533 
L 135.026536 59.747103 
L 135.331204 56.286503 
L 135.635872 58.068895 
L 135.940541 58.667468 
L 136.245209 56.966348 
L 136.549877 56.401095 
L 136.854545 58.87222 
L 137.159214 56.085859 
L 137.463882 60.361036 
L 138.073219 57.280226 
L 138.377887 58.532132 
L 138.682555 54.782494 
L 138.987224 62.041586 
L 139.291892 56.571093 
L 139.59656 57.019681 
L 139.901229 57.885128 
L 140.205897 59.89241 
L 140.510565 58.482986 
L 140.815233 59.675735 
L 141.119902 57.349051 
L 141.42457 60.808004 
L 141.729238 58.56925 
L 142.033907 57.966424 
L 142.338575 59.273923 
L 142.643243 55.788516 
L 142.947912 56.120375 
L 143.25258 59.403383 
L 143.557248 58.158815 
L 143.861916 59.662923 
L 144.166585 57.974634 
L 144.471253 57.460038 
L 144.775921 56.577534 
L 145.08059 58.273254 
L 145.385258 56.912005 
L 145.994595 58.893415 
L 146.299263 55.51377 
L 146.603931 58.539312 
L 146.9086 54.193839 
L 147.213268 58.985452 
L 147.517936 57.197829 
L 147.822604 56.34498 
L 148.127273 57.309208 
L 148.431941 56.991371 
L 148.736609 57.560392 
L 149.345946 56.738869 
L 149.650614 57.004404 
L 149.955283 57.550683 
L 150.259951 60.208563 
L 150.564619 58.877248 
L 150.869287 55.965954 
L 151.173956 56.646737 
L 151.478624 62.628631 
L 151.783292 57.480531 
L 152.392629 54.791317 
L 152.697297 59.425394 
L 153.001966 57.258902 
L 153.611302 58.31126 
L 153.915971 55.569931 
L 154.220639 58.542582 
L 154.829975 53.890829 
L 155.134644 55.616772 
L 155.439312 53.418912 
L 155.74398 55.418852 
L 156.353317 57.34453 
L 156.657985 57.531666 
L 156.962654 55.167969 
L 157.267322 59.558333 
L 157.57199 53.4934 
L 157.876658 56.369493 
L 158.181327 56.597788 
L 158.485995 56.239831 
L 158.790663 58.140942 
L 159.095332 56.67807 
L 159.4 58.002977 
L 159.704668 56.422941 
L 160.009337 57.199884 
L 160.314005 55.353059 
L 160.618673 55.488954 
L 160.923342 61.094012 
L 161.532678 54.978995 
L 161.837346 58.417194 
L 162.142015 56.981736 
L 162.446683 56.491098 
L 162.751351 57.215449 
L 163.05602 58.941383 
L 163.360688 58.736585 
L 163.665356 57.047092 
L 163.970025 56.104771 
L 164.274693 58.077832 
L 164.579361 57.518386 
L 164.884029 57.669688 
L 165.188698 55.404544 
L 165.493366 56.7239 
L 165.798034 53.680466 
L 166.102703 56.471469 
L 166.407371 56.112614 
L 166.712039 56.760273 
L 167.016708 61.3737 
L 167.626044 56.550489 
L 167.930713 58.293204 
L 168.235381 52.378885 
L 168.540049 62.10581 
L 168.844717 56.643057 
L 169.149386 53.735296 
L 169.454054 54.681886 
L 169.758722 53.785742 
L 170.368059 56.876652 
L 170.672727 56.5482 
L 170.977396 58.673506 
L 171.282064 51.622294 
L 171.586732 57.508115 
L 171.8914 54.077903 
L 172.196069 52.23767 
L 172.500737 56.538073 
L 172.805405 55.804897 
L 173.110074 58.045988 
L 173.414742 54.072537 
L 173.71941 56.170549 
L 174.024079 53.126322 
L 174.328747 56.57185 
L 174.633415 54.032323 
L 174.938084 56.99294 
L 175.242752 56.344948 
L 175.852088 53.368021 
L 176.156757 55.870682 
L 176.461425 54.678967 
L 176.766093 55.920855 
L 177.070762 57.982218 
L 177.37543 55.729903 
L 177.680098 51.4384 
L 177.984767 58.790559 
L 178.289435 59.243536 
L 178.594103 55.298998 
L 178.898771 55.183944 
L 179.20344 54.555668 
L 179.508108 59.793027 
L 179.812776 52.013702 
L 180.117445 58.969814 
L 180.422113 57.205943 
L 180.726781 54.078234 
L 181.03145 54.723976 
L 181.336118 53.846247 
L 181.640786 54.735294 
L 181.945455 55.050651 
L 182.250123 57.492045 
L 182.554791 54.431002 
L 182.859459 55.499243 
L 183.164128 52.578471 
L 183.773464 54.98845 
L 184.078133 53.320069 
L 184.382801 56.079455 
L 184.687469 54.38727 
L 184.992138 58.858002 
L 185.296806 57.489582 
L 185.601474 55.474037 
L 185.906143 54.438081 
L 186.210811 57.91117 
L 186.515479 55.889782 
L 186.820147 56.278357 
L 187.124816 55.629577 
L 187.429484 55.833597 
L 187.734152 54.831799 
L 188.038821 56.495056 
L 188.343489 55.535792 
L 188.648157 53.908563 
L 188.952826 57.37595 
L 189.257494 55.556919 
L 189.562162 56.52774 
L 189.86683 55.846217 
L 190.171499 57.493423 
L 190.476167 56.884861 
L 190.780835 55.402896 
L 191.085504 55.912247 
L 191.390172 58.883117 
L 191.69484 54.56104 
L 191.999509 55.732426 
L 192.304177 52.241512 
L 192.913514 57.727821 
L 193.52285 54.997621 
L 193.827518 55.43239 
L 194.132187 56.112504 
L 194.436855 56.240255 
L 194.741523 56.559628 
L 195.046192 54.695517 
L 195.35086 55.010169 
L 195.655528 54.847201 
L 195.960197 58.588097 
L 196.264865 58.139902 
L 196.569533 56.74983 
L 196.874201 56.966525 
L 197.17887 52.415988 
L 197.483538 54.035994 
L 197.788206 58.301478 
L 198.092875 57.833878 
L 198.397543 54.679981 
L 198.702211 54.671092 
L 199.311548 55.370748 
L 199.616216 55.35375 
L 199.920885 57.339094 
L 200.225553 55.05872 
L 200.530221 55.033338 
L 200.834889 57.948552 
L 201.139558 52.823774 
L 201.444226 56.077698 
L 201.748894 54.333595 
L 202.053563 58.334495 
L 202.358231 55.259308 
L 202.662899 53.590912 
L 202.967568 57.717619 
L 203.272236 55.869367 
L 203.576904 55.170377 
L 203.881572 53.709158 
L 204.186241 55.606661 
L 204.490909 51.919612 
L 204.795577 53.362151 
L 205.100246 55.937789 
L 205.404914 52.302286 
L 205.709582 57.010686 
L 206.014251 55.782118 
L 206.318919 56.51235 
L 206.623587 59.381557 
L 206.928256 56.475471 
L 207.232924 57.01852 
L 207.537592 52.987164 
L 207.84226 53.947987 
L 208.146929 54.470464 
L 208.451597 55.485608 
L 208.756265 55.634359 
L 209.365602 53.567771 
L 209.67027 53.146099 
L 209.974939 58.711714 
L 210.279607 55.615272 
L 210.584275 51.261803 
L 210.888943 58.793927 
L 211.193612 55.740598 
L 211.49828 55.76044 
L 211.802948 55.395804 
L 212.107617 51.061428 
L 212.412285 56.22122 
L 212.716953 55.08798 
L 213.021622 54.489304 
L 213.630958 55.541999 
L 213.935627 57.074736 
L 214.240295 54.961393 
L 214.544963 53.702827 
L 214.849631 55.534053 
L 215.1543 53.670233 
L 215.458968 55.458703 
L 215.763636 55.018427 
L 216.068305 54.960204 
L 216.372973 54.011235 
L 216.677641 57.052622 
L 216.98231 55.448542 
L 217.286978 58.351738 
L 217.896314 52.53912 
L 218.200983 55.557775 
L 218.505651 52.343935 
L 218.810319 50.755527 
L 219.114988 57.446143 
L 219.419656 52.089143 
L 219.724324 50.146984 
L 220.028993 58.221496 
L 220.333661 51.953848 
L 220.942998 54.839548 
L 221.247666 53.267428 
L 221.857002 52.481339 
L 222.161671 55.354104 
L 222.466339 53.066186 
L 222.771007 56.136605 
L 223.075676 56.409534 
L 223.380344 58.503921 
L 223.685012 53.247758 
L 223.989681 55.166715 
L 224.294349 54.903307 
L 224.599017 53.262786 
L 224.903686 54.827969 
L 225.208354 54.38656 
L 225.513022 55.835287 
L 225.81769 56.337683 
L 226.122359 57.253979 
L 226.427027 51.863479 
L 226.731695 55.442308 
L 227.036364 53.138016 
L 227.341032 54.18766 
L 227.6457 52.244764 
L 227.950369 55.280012 
L 228.255037 56.011042 
L 228.864373 53.643135 
L 229.169042 54.96482 
L 229.47371 52.806636 
L 229.778378 54.515929 
L 230.387715 49.968925 
L 230.692383 58.271394 
L 230.997052 53.758414 
L 231.30172 54.503575 
L 231.606388 53.020114 
L 231.911057 57.395917 
L 232.215725 59.170448 
L 232.520393 52.297703 
L 232.825061 50.821489 
L 233.12973 58.349029 
L 233.434398 52.309902 
L 233.739066 53.203448 
L 234.043735 54.89866 
L 234.348403 53.649307 
L 234.653071 49.924728 
L 234.95774 52.619294 
L 235.262408 53.660083 
L 235.567076 55.839369 
L 235.871744 56.068782 
L 236.176413 54.625597 
L 236.481081 53.90941 
L 236.785749 55.081225 
L 237.090418 53.206156 
L 237.395086 50.227477 
L 237.699754 58.223877 
L 238.004423 53.880511 
L 238.309091 55.067016 
L 238.613759 55.220887 
L 239.223096 50.778226 
L 239.527764 55.657494 
L 239.832432 55.114402 
L 240.137101 52.377331 
L 240.441769 57.122125 
L 240.746437 50.646793 
L 241.051106 54.63228 
L 241.355774 53.217652 
L 241.660442 52.8541 
L 241.965111 56.360637 
L 242.269779 57.466744 
L 242.574447 50.460437 
L 243.183784 56.482569 
L 243.79312 51.652584 
L 244.097789 55.324222 
L 244.402457 54.63207 
L 244.707125 54.991152 
L 245.011794 51.822385 
L 245.316462 54.431507 
L 245.62113 52.088416 
L 245.925799 53.911705 
L 246.230467 52.410395 
L 246.535135 53.486491 
L 246.839803 52.804306 
L 247.144472 55.169335 
L 247.44914 51.864266 
L 247.753808 54.451016 
L 248.058477 51.380729 
L 248.363145 51.462434 
L 248.972482 52.768072 
L 249.27715 48.807489 
L 249.581818 56.06575 
L 249.886486 56.268437 
L 250.191155 52.792662 
L 250.495823 51.150427 
L 250.800491 51.980954 
L 251.10516 55.55004 
L 251.409828 51.351097 
L 251.714496 54.038235 
L 252.323833 54.982491 
L 252.628501 55.002665 
L 252.93317 52.689348 
L 253.237838 53.61087 
L 253.542506 56.896609 
L 253.847174 53.246478 
L 254.151843 52.111669 
L 254.456511 54.420941 
L 254.761179 48.896003 
L 255.065848 54.80109 
L 255.370516 54.43287 
L 255.675184 53.586569 
L 255.979853 53.354174 
L 256.284521 52.5469 
L 256.589189 52.991776 
L 256.893857 55.911186 
L 257.198526 53.489717 
L 257.503194 53.657871 
L 257.807862 51.512837 
L 258.112531 54.959645 
L 258.721867 51.559825 
L 259.026536 54.965957 
L 259.331204 53.49155 
L 259.635872 57.138246 
L 259.940541 51.470715 
L 260.245209 53.689422 
L 260.549877 53.731418 
L 260.854545 50.758102 
L 261.159214 53.352227 
L 261.463882 53.964562 
L 261.76855 57.039928 
L 262.377887 54.201819 
L 262.682555 50.260507 
L 262.987224 53.866315 
L 263.291892 52.564522 
L 263.59656 58.538918 
L 263.901229 51.041974 
L 264.205897 53.109911 
L 264.510565 53.162002 
L 264.815233 51.263617 
L 265.119902 52.943871 
L 265.42457 52.210222 
L 265.729238 54.272602 
L 266.033907 49.658338 
L 266.338575 52.582133 
L 266.643243 51.538919 
L 266.947912 55.872123 
L 267.25258 52.275195 
L 267.557248 51.310015 
L 267.861916 51.736311 
L 268.166585 52.363826 
L 268.471253 52.207227 
L 268.775921 50.449485 
L 269.08059 54.227706 
L 269.385258 51.559802 
L 269.689926 52.531395 
L 269.994595 54.527669 
L 270.299263 53.949644 
L 270.603931 54.74094 
L 270.9086 52.844861 
L 271.213268 54.639517 
L 271.517936 49.320943 
L 271.822604 52.973658 
L 272.127273 50.867955 
L 272.431941 51.088869 
L 272.736609 53.349371 
L 273.345946 53.648523 
L 273.955283 51.799852 
L 274.259951 51.186122 
L 274.564619 53.628469 
L 274.869287 52.700343 
L 275.173956 53.821243 
L 275.478624 49.023282 
L 275.783292 49.73295 
L 276.087961 52.371789 
L 276.392629 51.300419 
L 277.001966 51.248391 
L 277.306634 49.058889 
L 277.611302 53.20979 
L 277.915971 51.591211 
L 278.220639 52.493348 
L 278.525307 52.989613 
L 278.829975 56.153181 
L 279.134644 52.975107 
L 279.439312 48.264711 
L 279.74398 51.950333 
L 280.048649 53.596024 
L 280.353317 52.174925 
L 280.657985 52.984384 
L 280.962654 51.806511 
L 281.267322 55.537243 
L 281.57199 48.936617 
L 281.876658 51.392588 
L 282.181327 49.72986 
L 282.485995 51.787517 
L 282.790663 51.462414 
L 283.095332 49.736849 
L 283.704668 52.975701 
L 284.009337 50.575892 
L 284.314005 54.537257 
L 284.618673 54.693509 
L 284.923342 48.734515 
L 285.22801 51.801437 
L 285.532678 48.968885 
L 285.837346 53.184534 
L 286.142015 53.000454 
L 286.446683 52.423941 
L 286.751351 51.444028 
L 287.05602 52.287214 
L 287.360688 51.747274 
L 287.665356 49.33419 
L 287.970025 56.675966 
L 288.274693 52.334479 
L 288.579361 50.078333 
L 288.884029 53.391198 
L 289.188698 51.380685 
L 289.493366 53.339694 
L 289.798034 53.748708 
L 290.102703 49.916801 
L 290.407371 49.777889 
L 290.712039 50.405706 
L 291.016708 51.295954 
L 291.321376 49.796075 
L 291.626044 54.419241 
L 291.930713 52.478411 
L 292.235381 48.53662 
L 292.844717 56.000059 
L 293.149386 52.035846 
L 293.454054 49.997371 
L 293.758722 50.713627 
L 294.368059 52.903438 
L 294.672727 52.823507 
L 294.977396 50.969511 
L 295.282064 50.356627 
L 295.586732 51.529169 
L 295.8914 48.440993 
L 296.196069 54.711996 
L 296.500737 54.909204 
L 296.805405 49.744582 
L 297.110074 50.707027 
L 297.414742 50.369741 
L 297.71941 51.134442 
L 298.024079 49.65804 
L 298.328747 50.300462 
L 298.633415 52.805209 
L 298.938084 47.687894 
L 299.242752 53.944339 
L 299.54742 51.165101 
L 299.852088 50.447988 
L 300.461425 55.058062 
L 300.766093 51.24891 
L 301.070762 49.386365 
L 301.37543 52.59931 
L 301.680098 52.485538 
L 301.984767 52.979125 
L 302.289435 51.018145 
L 302.594103 51.266263 
L 302.898771 51.15083 
L 303.20344 51.645496 
L 303.508108 49.62702 
L 303.812776 53.593394 
L 304.117445 52.339676 
L 304.726781 51.566809 
L 305.03145 51.95063 
L 305.336118 50.919395 
L 305.640786 48.241349 
L 305.945455 51.076724 
L 306.250123 50.578995 
L 306.554791 48.311882 
L 306.859459 52.897968 
L 307.164128 50.156292 
L 307.468796 55.58769 
L 307.773464 48.428728 
L 308.078133 52.871478 
L 308.382801 51.089148 
L 308.687469 50.618425 
L 308.992138 50.373732 
L 309.296806 48.535079 
L 309.601474 52.964398 
L 309.906143 50.543138 
L 310.210811 50.659013 
L 310.515479 51.483934 
L 310.820147 54.593548 
L 311.429484 50.767858 
L 311.734152 54.800267 
L 312.038821 52.817373 
L 312.648157 51.010628 
L 313.257494 53.98934 
L 313.562162 51.779307 
L 313.86683 53.653663 
L 314.476167 50.33981 
L 314.780835 53.761357 
L 315.085504 51.845203 
L 315.390172 52.257359 
L 315.69484 54.452643 
L 315.999509 51.780966 
L 316.304177 57.812268 
L 316.608845 50.582153 
L 316.913514 50.950698 
L 317.218182 49.250255 
L 317.52285 53.500889 
L 317.827518 50.916697 
L 318.132187 50.403525 
L 318.436855 54.433762 
L 318.741523 53.9647 
L 319.046192 55.080115 
L 319.35086 49.846202 
L 319.960197 49.728905 
L 320.264865 54.230144 
L 320.874201 48.998139 
L 321.17887 51.062858 
L 321.483538 51.831806 
L 321.788206 53.162864 
L 322.092875 49.863369 
L 322.702211 53.517966 
L 323.00688 50.203325 
L 323.311548 50.747289 
L 323.616216 53.572224 
L 323.920885 51.258069 
L 324.225553 51.628374 
L 324.530221 51.554992 
L 324.834889 49.92009 
L 325.139558 49.67151 
L 325.444226 50.762117 
L 325.748894 51.132714 
L 326.358231 48.206173 
L 326.662899 48.984917 
L 326.967568 48.395712 
L 327.272236 53.177899 
L 327.576904 50.814904 
L 327.881572 52.232589 
L 328.186241 49.843895 
L 328.490909 53.191247 
L 328.795577 46.230241 
L 329.100246 52.419433 
L 329.709582 49.901815 
L 330.014251 50.284098 
L 330.318919 49.635314 
L 330.623587 49.902522 
L 330.928256 48.168854 
L 331.232924 48.152079 
L 331.84226 51.978919 
L 332.146929 49.385244 
L 332.451597 52.019747 
L 332.756265 49.93217 
L 333.060934 55.277784 
L 333.365602 50.602212 
L 333.67027 49.583249 
L 333.974939 54.741612 
L 334.279607 50.435125 
L 334.584275 51.629154 
L 334.888943 51.049246 
L 335.193612 52.807704 
L 335.49828 53.226384 
L 335.802948 51.356851 
L 336.107617 50.636377 
L 336.412285 52.726636 
L 336.716953 49.303666 
L 337.021622 48.02016 
L 337.32629 52.202528 
L 337.630958 52.899306 
L 337.935627 51.152909 
L 338.240295 48.186047 
L 338.849631 50.394393 
L 339.1543 49.947606 
L 339.458968 48.435006 
L 339.763636 49.635402 
L 340.068305 54.484859 
L 340.372973 49.245097 
L 340.677641 49.04524 
L 340.98231 50.47635 
L 341.286978 47.431146 
L 341.591646 53.407339 
L 341.896314 50.557678 
L 342.505651 47.807209 
L 342.810319 50.694952 
L 343.114988 48.369422 
L 343.419656 52.513458 
L 343.724324 51.33555 
L 344.028993 52.575101 
L 344.333661 52.247582 
L 344.638329 47.191515 
L 344.942998 52.274697 
L 345.247666 51.242593 
L 345.552334 48.928032 
L 345.857002 51.47606 
L 346.161671 50.503591 
L 346.466339 48.207812 
L 346.771007 49.422198 
L 347.075676 52.946903 
L 347.380344 47.998844 
L 347.685012 51.238188 
L 347.989681 50.447965 
L 348.294349 48.418864 
L 348.599017 50.267233 
L 349.208354 50.191143 
L 349.513022 52.714843 
L 349.81769 52.84054 
L 350.122359 49.463482 
L 350.427027 44.443636 
L 350.731695 50.888704 
L 351.036364 49.891045 
L 351.341032 49.856926 
L 351.6457 50.570931 
L 351.950369 51.651743 
L 352.255037 51.683125 
L 352.559705 50.398928 
L 352.864373 50.902349 
L 353.169042 49.24883 
L 353.47371 52.620723 
L 353.778378 53.478503 
L 354.083047 48.050848 
L 354.387715 49.197534 
L 354.692383 49.86516 
L 354.997052 49.138672 
L 355.30172 49.941633 
L 355.911057 48.989094 
L 356.215725 47.148066 
L 356.520393 49.51697 
L 356.825061 50.680968 
L 357.12973 48.409191 
L 357.434398 51.834994 
L 357.739066 49.738418 
L 358.043735 50.093811 
L 358.348403 51.069164 
L 358.653071 51.184257 
L 358.95774 48.629547 
L 359.262408 48.231578 
L 359.567076 44.46744 
L 359.871744 46.523939 
L 360.176413 51.362055 
L 360.481081 51.87698 
L 360.785749 53.741036 
L 361.090418 51.384925 
L 361.395086 47.830459 
L 362.004423 50.669209 
L 362.309091 49.750999 
L 362.613759 49.237122 
L 362.918428 49.27827 
L 363.223096 47.243447 
L 363.527764 52.02505 
L 363.832432 48.401772 
L 364.137101 50.287171 
L 364.441769 50.112902 
L 364.746437 48.81447 
L 365.051106 48.981311 
L 365.355774 50.199244 
L 365.660442 49.882982 
L 365.965111 48.677693 
L 366.269779 49.329469 
L 366.574447 50.542963 
L 366.879115 50.950218 
L 367.183784 48.139178 
L 367.488452 46.726062 
L 367.79312 47.699912 
L 368.097789 50.889335 
L 368.402457 49.317349 
L 368.707125 48.548721 
L 369.011794 53.818796 
L 369.316462 48.44327 
L 369.62113 49.432959 
L 369.925799 46.029199 
L 370.839803 50.61393 
L 371.144472 49.933765 
L 371.44914 52.284437 
L 371.753808 50.358841 
L 372.058477 50.247668 
L 372.363145 48.640182 
L 372.667813 50.093547 
L 372.972482 50.350097 
L 373.581818 48.900862 
L 373.581818 48.900862 
" style="fill:none;stroke:#2ca02c;stroke-linecap:square;stroke-width:1.5;"/>
   </g>
   <g id="patch_3">
    <path d="M 54 252 
L 54 34.56 
" style="fill:none;stroke:#000000;stroke-linecap:square;stroke-linejoin:miter;stroke-width:0.8;"/>
   </g>
   <g id="patch_4">
    <path d="M 388.8 252 
L 388.8 34.56 
" style="fill:none;stroke:#000000;stroke-linecap:square;stroke-linejoin:miter;stroke-width:0.8;"/>
   </g>
   <g id="patch_5">
    <path d="M 54 252 
L 388.8 252 
" style="fill:none;stroke:#000000;stroke-linecap:square;stroke-linejoin:miter;stroke-width:0.8;"/>
   </g>
   <g id="patch_6">
    <path d="M 54 34.56 
L 388.8 34.56 
" style="fill:none;stroke:#000000;stroke-linecap:square;stroke-linejoin:miter;stroke-width:0.8;"/>
   </g>
   <g id="legend_1">
    <g id="patch_7">
     <path d="M 327.660747 247 
L 381.8 247 
Q 383.8 247 383.8 245 
L 383.8 204.188465 
Q 383.8 202.188465 381.8 202.188465 
L 327.660747 202.188465 
Q 325.660747 202.188465 325.660747 204.188465 
L 325.660747 245 
Q 325.660747 247 327.660747 247 
z
" style="fill:#ffffff;opacity:0.8;stroke:#cccccc;stroke-linejoin:miter;"/>
    </g>
    <g id="line2d_15">
     <path d="M 329.660747 209.688465 
L 349.660747 209.688465 
" style="fill:none;stroke:#1f77b4;stroke-linecap:square;stroke-width:1.5;"/>
    </g>
    <g id="line2d_16"/>
    <g id="text_12">
     <!-- e0 -->
     <defs>
      <path d="M 38.09375 23 
C 38.5 23.40625 38.5 23.609375 38.5 24.625 
C 38.5 34.96875 33.09375 44 21.703125 44 
C 11.09375 44 2.703125 33.890625 2.703125 21.609375 
C 2.703125 8.609375 12.203125 -1 22.796875 -1 
C 34 -1 38.40625 9.484375 38.40625 11.5625 
C 38.40625 12.25 37.796875 12.25 37.59375 12.25 
C 36.90625 12.25 36.796875 12.046875 36.40625 10.875 
C 34.203125 4.140625 28.703125 0.796875 23.5 0.796875 
C 19.203125 0.796875 14.90625 3.171875 12.203125 7.5 
C 9.09375 12.546875 9.09375 18.375 9.09375 23 
z
M 9.203125 24.5 
C 9.90625 39.140625 17.59375 42.40625 21.59375 42.40625 
C 28.40625 42.40625 33 35.890625 33.09375 24.5 
z
" id="CMR17-101"/>
     </defs>
     <g transform="translate(357.660747 213.188465)scale(0.1 -0.1)">
      <use transform="scale(0.996264)" xlink:href="#CMR17-101"/>
      <use transform="translate(40.48566 0)scale(0.996264)" xlink:href="#CMR17-48"/>
     </g>
    </g>
    <g id="line2d_17">
     <path d="M 329.660747 223.625643 
L 349.660747 223.625643 
" style="fill:none;stroke:#ff7f0e;stroke-linecap:square;stroke-width:1.5;"/>
    </g>
    <g id="line2d_18"/>
    <g id="text_13">
     <!-- e0.1 -->
     <defs>
      <path d="M 16.59375 4.078125 
C 16.59375 6.5625 14.59375 8.15625 12.5 8.15625 
C 10.5 8.15625 8.40625 6.5625 8.40625 4.078125 
C 8.40625 1.59375 10.40625 0 12.5 0 
C 14.5 0 16.59375 1.59375 16.59375 4.078125 
z
" id="CMR17-46"/>
     </defs>
     <g transform="translate(357.660747 227.125643)scale(0.1 -0.1)">
      <use transform="scale(0.996264)" xlink:href="#CMR17-101"/>
      <use transform="translate(40.48566 0)scale(0.996264)" xlink:href="#CMR17-48"/>
      <use transform="translate(86.176138 0)scale(0.996264)" xlink:href="#CMR17-46"/>
      <use transform="translate(111.047196 0)scale(0.996264)" xlink:href="#CMR17-49"/>
     </g>
    </g>
    <g id="line2d_19">
     <path d="M 329.660747 237.562822 
L 349.660747 237.562822 
" style="fill:none;stroke:#2ca02c;stroke-linecap:square;stroke-width:1.5;"/>
    </g>
    <g id="line2d_20"/>
    <g id="text_14">
     <!-- e0.01 -->
     <g transform="translate(357.660747 241.062822)scale(0.1 -0.1)">
      <use transform="scale(0.996264)" xlink:href="#CMR17-101"/>
      <use transform="translate(40.48566 0)scale(0.996264)" xlink:href="#CMR17-48"/>
      <use transform="translate(86.176138 0)scale(0.996264)" xlink:href="#CMR17-46"/>
      <use transform="translate(111.047196 0)scale(0.996264)" xlink:href="#CMR17-48"/>
      <use transform="translate(156.737673 0)scale(0.996264)" xlink:href="#CMR17-49"/>
     </g>
    </g>
   </g>
  </g>
 </g>
 <defs>
  <clipPath id="pc37f882ed2">
   <rect height="217.44" width="334.8" x="54" y="34.56"/>
  </clipPath>
 </defs>
</svg>
