<?xml version="1.0" encoding="utf-8" standalone="no"?>
<!DOCTYPE svg PUBLIC "-//W3C//DTD SVG 1.1//EN"
  "http://www.w3.org/Graphics/SVG/1.1/DTD/svg11.dtd">
<!-- Created with matplotlib (https://matplotlib.org/) -->
<svg height="288pt" version="1.1" viewBox="0 0 432 288" width="432pt" xmlns="http://www.w3.org/2000/svg" xmlns:xlink="http://www.w3.org/1999/xlink">
 <defs>
  <style type="text/css">
*{stroke-linecap:butt;stroke-linejoin:round;}
  </style>
 </defs>
 <g id="figure_1">
  <g id="patch_1">
   <path d="M 0 288 
L 432 288 
L 432 0 
L 0 0 
z
" style="fill:#ffffff;"/>
  </g>
  <g id="axes_1">
   <g id="patch_2">
    <path d="M 54 252 
L 388.8 252 
L 388.8 34.56 
L 54 34.56 
z
" style="fill:#ffffff;"/>
   </g>
   <g id="matplotlib.axis_1">
    <g id="xtick_1">
     <g id="line2d_1">
      <defs>
       <path d="M 0 0 
L 0 3.5 
" id="m10534e0423" style="stroke:#000000;stroke-width:0.8;"/>
      </defs>
      <g>
       <use style="stroke:#000000;stroke-width:0.8;" x="69.218182" xlink:href="#m10534e0423" y="252"/>
      </g>
     </g>
     <g id="text_1">
      <!-- $0$ -->
      <defs>
       <path d="M 42 31.640625 
C 42 37.75 41.90625 48.125 37.703125 56.109375 
C 34 63.109375 28.09375 65.59375 22.90625 65.59375 
C 18.09375 65.59375 12 63.40625 8.203125 56.203125 
C 4.203125 48.71875 3.796875 39.4375 3.796875 31.640625 
C 3.796875 25.953125 3.90625 17.28125 7 9.671875 
C 11.296875 -0.609375 19 -2 22.90625 -2 
C 27.5 -2 34.5 -0.109375 38.59375 9.375 
C 41.59375 16.28125 42 24.359375 42 31.640625 
z
M 22.90625 -0.40625 
C 16.5 -0.40625 12.703125 5.078125 11.296875 12.6875 
C 10.203125 18.5625 10.203125 27.15625 10.203125 32.75 
C 10.203125 40.4375 10.203125 46.828125 11.5 52.921875 
C 13.40625 61.390625 19 64 22.90625 64 
C 27 64 32.296875 61.296875 34.203125 53.125 
C 35.5 47.4375 35.59375 40.734375 35.59375 32.75 
C 35.59375 26.25 35.59375 18.265625 34.40625 12.375 
C 32.296875 1.484375 26.40625 -0.40625 22.90625 -0.40625 
z
" id="CMR17-48"/>
      </defs>
      <g transform="translate(66.727514 265.918498)scale(0.1 -0.1)">
       <use transform="scale(0.996264)" xlink:href="#CMR17-48"/>
      </g>
     </g>
    </g>
    <g id="xtick_2">
     <g id="line2d_2">
      <g>
       <use style="stroke:#000000;stroke-width:0.8;" x="130.151843" xlink:href="#m10534e0423" y="252"/>
      </g>
     </g>
     <g id="text_2">
      <!-- $200$ -->
      <defs>
       <path d="M 41.703125 15.453125 
L 39.90625 15.453125 
C 38.90625 8.375 38.09375 7.171875 37.703125 6.5625 
C 37.203125 5.765625 30 5.765625 28.59375 5.765625 
L 9.40625 5.765625 
C 13 9.671875 20 16.75 28.5 24.953125 
C 34.59375 30.734375 41.703125 37.53125 41.703125 47.421875 
C 41.703125 59.21875 32.296875 66 21.796875 66 
C 10.796875 66 4.09375 56.3125 4.09375 47.34375 
C 4.09375 43.4375 7 42.9375 8.203125 42.9375 
C 9.203125 42.9375 12.203125 43.546875 12.203125 47.03125 
C 12.203125 50.109375 9.59375 51 8.203125 51 
C 7.59375 51 7 50.90625 6.59375 50.703125 
C 8.5 59.21875 14.296875 63.40625 20.40625 63.40625 
C 29.09375 63.40625 34.796875 56.515625 34.796875 47.421875 
C 34.796875 38.734375 29.703125 31.25 24 24.75 
L 4.09375 2.28125 
L 4.09375 0 
L 39.296875 0 
z
" id="CMR17-50"/>
      </defs>
      <g transform="translate(122.67984 265.918498)scale(0.1 -0.1)">
       <use transform="scale(0.996264)" xlink:href="#CMR17-50"/>
       <use transform="translate(45.690477 0)scale(0.996264)" xlink:href="#CMR17-48"/>
       <use transform="translate(91.380954 0)scale(0.996264)" xlink:href="#CMR17-48"/>
      </g>
     </g>
    </g>
    <g id="xtick_3">
     <g id="line2d_3">
      <g>
       <use style="stroke:#000000;stroke-width:0.8;" x="191.085504" xlink:href="#m10534e0423" y="252"/>
      </g>
     </g>
     <g id="text_3">
      <!-- $400$ -->
      <defs>
       <path d="M 33.59375 64.40625 
C 33.59375 66.5 33.5 66.5 31.703125 66.5 
L 2 19.59375 
L 2 17 
L 27.796875 17 
L 27.796875 7.140625 
C 27.796875 3.5 27.59375 2.5 20.59375 2.5 
L 18.703125 2.5 
L 18.703125 0 
C 21.90625 0 27.296875 0 30.703125 0 
C 34.09375 0 39.5 0 42.703125 0 
L 42.703125 2.5 
L 40.796875 2.5 
C 33.796875 2.5 33.59375 3.5 33.59375 7.140625 
L 33.59375 17 
L 43.796875 17 
L 43.796875 19.59375 
L 33.59375 19.59375 
z
M 28.09375 57.859375 
L 28.09375 19.59375 
L 4 19.59375 
z
" id="CMR17-52"/>
      </defs>
      <g transform="translate(183.613501 265.918498)scale(0.1 -0.1)">
       <use transform="scale(0.996264)" xlink:href="#CMR17-52"/>
       <use transform="translate(45.690477 0)scale(0.996264)" xlink:href="#CMR17-48"/>
       <use transform="translate(91.380954 0)scale(0.996264)" xlink:href="#CMR17-48"/>
      </g>
     </g>
    </g>
    <g id="xtick_4">
     <g id="line2d_4">
      <g>
       <use style="stroke:#000000;stroke-width:0.8;" x="252.019165" xlink:href="#m10534e0423" y="252"/>
      </g>
     </g>
     <g id="text_4">
      <!-- $600$ -->
      <defs>
       <path d="M 10.59375 34 
C 10.59375 57.65625 21.796875 63 28.296875 63 
C 30.40625 63 35.5 62.640625 37.5 59 
C 35.90625 59 32.90625 59 32.90625 55.515625 
C 32.90625 52.828125 35.09375 51.921875 36.5 51.921875 
C 37.40625 51.921875 40.09375 52.3125 40.09375 55.625 
C 40.09375 61.78125 35.09375 65.296875 28.203125 65.296875 
C 16.296875 65.296875 3.796875 52.96875 3.796875 31 
C 3.796875 3.953125 15.09375 -2 23.09375 -2 
C 32.796875 -2 42 6.671875 42 20.046875 
C 42 32.515625 33.90625 41.59375 23.703125 41.59375 
C 17.59375 41.59375 13.09375 37.609375 10.59375 30.625 
z
M 23.09375 0.390625 
C 10.796875 0.390625 10.796875 18.75 10.796875 22.4375 
C 10.796875 29.625 14.203125 40 23.5 40 
C 25.203125 40 30.09375 40 33.40625 33.125 
C 35.203125 29.21875 35.203125 25.140625 35.203125 20.140625 
C 35.203125 14.75 35.203125 10.78125 33.09375 6.78125 
C 30.90625 2.671875 27.703125 0.390625 23.09375 0.390625 
z
" id="CMR17-54"/>
      </defs>
      <g transform="translate(244.547162 265.918498)scale(0.1 -0.1)">
       <use transform="scale(0.996264)" xlink:href="#CMR17-54"/>
       <use transform="translate(45.690477 0)scale(0.996264)" xlink:href="#CMR17-48"/>
       <use transform="translate(91.380954 0)scale(0.996264)" xlink:href="#CMR17-48"/>
      </g>
     </g>
    </g>
    <g id="xtick_5">
     <g id="line2d_5">
      <g>
       <use style="stroke:#000000;stroke-width:0.8;" x="312.952826" xlink:href="#m10534e0423" y="252"/>
      </g>
     </g>
     <g id="text_5">
      <!-- $800$ -->
      <defs>
       <path d="M 27.203125 35.375 
C 33.5 38.546875 39.90625 43.328125 39.90625 50.984375 
C 39.90625 60.015625 31.09375 65.296875 23 65.296875 
C 13.90625 65.296875 5.90625 58.734375 5.90625 49.6875 
C 5.90625 47.203125 6.5 42.921875 10.40625 39.140625 
C 11.40625 38.15625 15.59375 35.171875 18.296875 33.28125 
C 13.796875 30.984375 3.296875 25.53125 3.296875 14.59375 
C 3.296875 4.359375 13.09375 -2 22.796875 -2 
C 33.5 -2 42.5 5.65625 42.5 15.78125 
C 42.5 24.84375 36.40625 29.015625 32.40625 31.703125 
z
M 14.09375 44.09375 
C 13.296875 44.59375 9.296875 47.671875 9.296875 52.359375 
C 9.296875 58.421875 15.59375 63 22.796875 63 
C 30.703125 63 36.5 57.4375 36.5 50.96875 
C 36.5 41.703125 26.09375 36.421875 25.59375 36.421875 
C 25.5 36.421875 25.40625 36.421875 24.59375 37.03125 
z
M 32.5 23.734375 
C 34 22.640625 38.796875 19.375 38.796875 13.296875 
C 38.796875 5.953125 31.40625 0.390625 23 0.390625 
C 13.90625 0.390625 7 6.84375 7 14.6875 
C 7 22.546875 13.09375 29.09375 20 32.1875 
z
" id="CMR17-56"/>
      </defs>
      <g transform="translate(305.480823 265.918498)scale(0.1 -0.1)">
       <use transform="scale(0.996264)" xlink:href="#CMR17-56"/>
       <use transform="translate(45.690477 0)scale(0.996264)" xlink:href="#CMR17-48"/>
       <use transform="translate(91.380954 0)scale(0.996264)" xlink:href="#CMR17-48"/>
      </g>
     </g>
    </g>
    <g id="xtick_6">
     <g id="line2d_6">
      <g>
       <use style="stroke:#000000;stroke-width:0.8;" x="373.886486" xlink:href="#m10534e0423" y="252"/>
      </g>
     </g>
     <g id="text_6">
      <!-- $1000$ -->
      <defs>
       <path d="M 26.59375 63.40625 
C 26.59375 65.5 26.5 65.5 25.09375 65.5 
C 21.203125 61.1875 15.296875 59.796875 9.703125 59.796875 
C 9.40625 59.796875 8.90625 59.796875 8.796875 59.5 
C 8.703125 59.296875 8.703125 59.09375 8.703125 57 
C 11.796875 57 17 57.59375 21 59.984375 
L 21 7.203125 
C 21 3.6875 20.796875 2.5 12.203125 2.5 
L 9.203125 2.5 
L 9.203125 0 
C 14 0 19 0 23.796875 0 
C 28.59375 0 33.59375 0 38.40625 0 
L 38.40625 2.5 
L 35.40625 2.5 
C 26.796875 2.5 26.59375 3.59375 26.59375 7.15625 
z
" id="CMR17-49"/>
      </defs>
      <g transform="translate(363.923816 265.918498)scale(0.1 -0.1)">
       <use transform="scale(0.996264)" xlink:href="#CMR17-49"/>
       <use transform="translate(45.690477 0)scale(0.996264)" xlink:href="#CMR17-48"/>
       <use transform="translate(91.380954 0)scale(0.996264)" xlink:href="#CMR17-48"/>
       <use transform="translate(137.071431 0)scale(0.996264)" xlink:href="#CMR17-48"/>
      </g>
     </g>
    </g>
   </g>
   <g id="matplotlib.axis_2">
    <g id="ytick_1">
     <g id="line2d_7">
      <defs>
       <path d="M 0 0 
L -3.5 0 
" id="mcb9f0b90ec" style="stroke:#000000;stroke-width:0.8;"/>
      </defs>
      <g>
       <use style="stroke:#000000;stroke-width:0.8;" x="54" xlink:href="#mcb9f0b90ec" y="242.854857"/>
      </g>
     </g>
     <g id="text_7">
      <!-- $-0.5$ -->
      <defs>
       <path d="M 65.90625 23 
C 67.59375 23 69.40625 23 69.40625 25 
C 69.40625 27 67.59375 27 65.90625 27 
L 11.796875 27 
C 10.09375 27 8.296875 27 8.296875 25 
C 8.296875 23 10.09375 23 11.796875 23 
z
" id="CMSY10-0"/>
       <path d="M 18.40625 4.796875 
C 18.40625 7.6875 16 9.671875 13.59375 9.671875 
C 10.703125 9.671875 8.703125 7.28125 8.703125 4.890625 
C 8.703125 2 11.09375 0 13.5 0 
C 16.40625 0 18.40625 2.390625 18.40625 4.796875 
z
" id="CMMI12-58"/>
       <path d="M 11.40625 57.6875 
C 12.40625 57.28125 16.5 56 20.703125 56 
C 30 56 35.09375 61.109375 38 64.0625 
C 38 64.953125 38 65.5 37.40625 65.5 
C 37.296875 65.5 37.09375 65.5 36.296875 65.046875 
C 32.796875 63.40625 28.703125 62.078125 23.703125 62.078125 
C 20.703125 62.078125 16.203125 62.484375 11.296875 64.671875 
C 10.203125 65.171875 10 65.171875 9.90625 65.171875 
C 9.40625 65.171875 9.296875 65.0625 9.296875 63.078125 
L 9.296875 34.421875 
C 9.296875 32.640625 9.296875 32.140625 10.296875 32.140625 
C 10.796875 32.140625 11 32.34375 11.5 33.03125 
C 14.703125 37.515625 19.09375 39.40625 24.09375 39.40625 
C 27.59375 39.40625 35.09375 37.21875 35.09375 20.140625 
C 35.09375 16.953125 35.09375 11.171875 32.09375 6.578125 
C 29.59375 2.484375 25.703125 0.390625 21.40625 0.390625 
C 14.796875 0.390625 8.09375 5 6.296875 12.71875 
C 6.703125 12.609375 7.5 12.421875 7.90625 12.421875 
C 9.203125 12.421875 11.703125 13.125 11.703125 16.21875 
C 11.703125 18.90625 9.796875 20 7.90625 20 
C 5.59375 20 4.09375 18.59375 4.09375 15.796875 
C 4.09375 7.09375 11 -2 21.59375 -2 
C 31.90625 -2 41.703125 6.875 41.703125 19.75 
C 41.703125 31.71875 33.90625 41 24.203125 41 
C 19.09375 41 14.796875 39.109375 11.40625 35.53125 
z
" id="CMR17-53"/>
      </defs>
      <g transform="translate(26.521177 246.314106)scale(0.1 -0.1)">
       <use transform="scale(0.996264)" xlink:href="#CMSY10-0"/>
       <use transform="translate(77.487468 0)scale(0.996264)" xlink:href="#CMR17-48"/>
       <use transform="translate(123.177945 0)scale(0.996264)" xlink:href="#CMMI12-58"/>
       <use transform="translate(150.275122 0)scale(0.996264)" xlink:href="#CMR17-53"/>
      </g>
     </g>
    </g>
    <g id="ytick_2">
     <g id="line2d_8">
      <g>
       <use style="stroke:#000000;stroke-width:0.8;" x="54" xlink:href="#mcb9f0b90ec" y="204.744875"/>
      </g>
     </g>
     <g id="text_8">
      <!-- $0.0$ -->
      <g transform="translate(34.269921 208.204124)scale(0.1 -0.1)">
       <use transform="scale(0.996264)" xlink:href="#CMR17-48"/>
       <use transform="translate(45.690477 0)scale(0.996264)" xlink:href="#CMMI12-58"/>
       <use transform="translate(72.787654 0)scale(0.996264)" xlink:href="#CMR17-48"/>
      </g>
     </g>
    </g>
    <g id="ytick_3">
     <g id="line2d_9">
      <g>
       <use style="stroke:#000000;stroke-width:0.8;" x="54" xlink:href="#mcb9f0b90ec" y="166.634893"/>
      </g>
     </g>
     <g id="text_9">
      <!-- $0.5$ -->
      <g transform="translate(34.269921 170.094142)scale(0.1 -0.1)">
       <use transform="scale(0.996264)" xlink:href="#CMR17-48"/>
       <use transform="translate(45.690477 0)scale(0.996264)" xlink:href="#CMMI12-58"/>
       <use transform="translate(72.787654 0)scale(0.996264)" xlink:href="#CMR17-53"/>
      </g>
     </g>
    </g>
    <g id="ytick_4">
     <g id="line2d_10">
      <g>
       <use style="stroke:#000000;stroke-width:0.8;" x="54" xlink:href="#mcb9f0b90ec" y="128.52491"/>
      </g>
     </g>
     <g id="text_10">
      <!-- $1.0$ -->
      <g transform="translate(34.269921 131.984159)scale(0.1 -0.1)">
       <use transform="scale(0.996264)" xlink:href="#CMR17-49"/>
       <use transform="translate(45.690477 0)scale(0.996264)" xlink:href="#CMMI12-58"/>
       <use transform="translate(72.787654 0)scale(0.996264)" xlink:href="#CMR17-48"/>
      </g>
     </g>
    </g>
    <g id="ytick_5">
     <g id="line2d_11">
      <g>
       <use style="stroke:#000000;stroke-width:0.8;" x="54" xlink:href="#mcb9f0b90ec" y="90.414928"/>
      </g>
     </g>
     <g id="text_11">
      <!-- $1.5$ -->
      <g transform="translate(34.269921 93.874177)scale(0.1 -0.1)">
       <use transform="scale(0.996264)" xlink:href="#CMR17-49"/>
       <use transform="translate(45.690477 0)scale(0.996264)" xlink:href="#CMMI12-58"/>
       <use transform="translate(72.787654 0)scale(0.996264)" xlink:href="#CMR17-53"/>
      </g>
     </g>
    </g>
    <g id="ytick_6">
     <g id="line2d_12">
      <g>
       <use style="stroke:#000000;stroke-width:0.8;" x="54" xlink:href="#mcb9f0b90ec" y="52.304946"/>
      </g>
     </g>
     <g id="text_12">
      <!-- $2.0$ -->
      <g transform="translate(34.269921 55.764195)scale(0.1 -0.1)">
       <use transform="scale(0.996264)" xlink:href="#CMR17-50"/>
       <use transform="translate(45.690477 0)scale(0.996264)" xlink:href="#CMMI12-58"/>
       <use transform="translate(72.787654 0)scale(0.996264)" xlink:href="#CMR17-48"/>
      </g>
     </g>
    </g>
   </g>
   <g id="line2d_13">
    <path clip-path="url(#p741fc3970a)" d="M 69.218182 197.322419 
L 69.52285 176.911824 
L 69.827518 169.172778 
L 70.132187 158.04629 
L 70.741523 151.057893 
L 71.046192 148.728049 
L 71.35086 148.258772 
L 71.655528 145.539377 
L 71.960197 146.969254 
L 72.264865 146.949501 
L 72.569533 144.095688 
L 72.874201 144.573864 
L 73.17887 142.699021 
L 73.483538 142.619563 
L 74.397543 138.094527 
L 74.702211 142.631764 
L 75.00688 139.239545 
L 75.311548 139.650515 
L 75.616216 141.463548 
L 75.920885 137.938445 
L 76.225553 142.801218 
L 76.530221 137.943557 
L 76.834889 140.172857 
L 77.139558 138.527476 
L 77.444226 140.524807 
L 77.748894 140.516354 
L 78.053563 141.671931 
L 78.358231 141.219186 
L 78.662899 139.22267 
L 78.967568 139.727471 
L 79.272236 142.216009 
L 79.576904 138.806977 
L 79.881572 142.039171 
L 80.186241 138.598351 
L 80.490909 137.095364 
L 80.795577 140.098154 
L 81.404914 137.541696 
L 82.014251 139.048063 
L 82.318919 138.451474 
L 82.623587 138.434072 
L 82.928256 139.663601 
L 83.232924 136.580981 
L 83.537592 142.838549 
L 83.84226 138.233327 
L 84.146929 138.450364 
L 84.451597 138.021056 
L 84.756265 141.496535 
L 85.365602 136.070617 
L 85.67027 135.6622 
L 85.974939 140.790903 
L 86.279607 136.028172 
L 86.584275 139.540851 
L 86.888943 137.044399 
L 87.49828 141.191571 
L 87.802948 141.488718 
L 88.107617 137.396104 
L 88.716953 142.219482 
L 89.021622 137.028771 
L 89.32629 139.467017 
L 89.630958 137.630038 
L 89.935627 136.492223 
L 90.240295 139.430564 
L 90.544963 139.767391 
L 90.849631 135.636792 
L 91.1543 138.475021 
L 91.458968 138.499428 
L 91.763636 140.322928 
L 92.068305 139.616646 
L 92.677641 136.625102 
L 92.98231 137.264275 
L 93.286978 139.634268 
L 93.591646 137.07504 
L 93.896314 136.576384 
L 94.505651 138.581411 
L 94.810319 135.532332 
L 95.114988 137.779603 
L 95.419656 137.032327 
L 95.724324 135.092573 
L 96.028993 139.752327 
L 96.333661 138.974493 
L 96.638329 138.546345 
L 97.247666 136.119458 
L 97.552334 139.057772 
L 97.857002 138.113028 
L 98.161671 135.895759 
L 98.466339 138.43512 
L 98.771007 136.576031 
L 99.075676 141.1828 
L 99.380344 142.029358 
L 99.685012 138.017465 
L 99.989681 138.558517 
L 100.599017 135.467281 
L 100.903686 135.02879 
L 101.208354 140.524657 
L 101.513022 139.392348 
L 101.81769 135.866046 
L 102.427027 141.142887 
L 102.731695 138.422546 
L 103.036364 139.161863 
L 103.341032 135.740453 
L 103.6457 137.517191 
L 103.950369 137.716595 
L 104.255037 138.105805 
L 104.559705 138.996752 
L 104.864373 134.084253 
L 105.169042 139.786691 
L 105.47371 136.125751 
L 105.778378 137.013666 
L 106.083047 141.43337 
L 106.387715 135.907079 
L 106.692383 138.368585 
L 106.997052 135.900538 
L 107.30172 139.489259 
L 107.911057 134.505596 
L 108.215725 134.871167 
L 108.520393 137.43248 
L 108.825061 138.472741 
L 109.12973 137.426517 
L 109.434398 142.034785 
L 109.739066 139.053137 
L 110.043735 138.691748 
L 110.348403 137.549568 
L 110.653071 141.095013 
L 110.95774 135.883206 
L 111.262408 137.68565 
L 111.567076 135.975957 
L 111.871744 136.871689 
L 112.176413 139.957368 
L 112.481081 136.131908 
L 112.785749 138.394544 
L 113.090418 138.971526 
L 113.395086 137.28873 
L 113.699754 136.610554 
L 114.004423 136.652086 
L 114.309091 140.520406 
L 114.613759 136.421929 
L 114.918428 138.696328 
L 115.223096 139.75518 
L 115.527764 137.862699 
L 115.832432 138.479951 
L 116.137101 139.349791 
L 116.746437 136.413283 
L 117.051106 136.93447 
L 117.355774 135.527381 
L 117.660442 135.984422 
L 117.965111 139.131212 
L 118.269779 134.854784 
L 118.574447 136.346624 
L 118.879115 136.059553 
L 119.183784 133.034916 
L 119.488452 138.137751 
L 119.79312 137.899059 
L 120.097789 138.747879 
L 120.402457 138.823852 
L 120.707125 137.052741 
L 121.011794 137.989589 
L 121.316462 135.614452 
L 121.62113 140.725003 
L 121.925799 137.106758 
L 122.230467 136.309798 
L 122.535135 139.373711 
L 122.839803 136.582214 
L 123.144472 141.610887 
L 123.44914 136.742258 
L 123.753808 138.67365 
L 124.058477 138.124001 
L 124.363145 136.944396 
L 124.972482 140.777539 
L 125.27715 138.356552 
L 125.581818 137.048455 
L 125.886486 137.035747 
L 126.191155 136.586871 
L 126.495823 136.911141 
L 126.800491 136.078894 
L 127.10516 138.249906 
L 127.409828 137.317827 
L 127.714496 138.237228 
L 128.019165 138.678315 
L 128.323833 139.405577 
L 128.93317 135.413112 
L 129.237838 134.935379 
L 129.542506 136.472196 
L 129.847174 136.831259 
L 130.151843 139.48966 
L 130.761179 135.876572 
L 131.065848 137.647121 
L 131.370516 135.696713 
L 131.675184 136.00222 
L 131.979853 136.040371 
L 132.284521 139.010116 
L 132.589189 138.580516 
L 132.893857 137.175843 
L 133.198526 136.950865 
L 133.503194 137.806817 
L 133.807862 139.553848 
L 134.417199 134.090156 
L 134.721867 136.32026 
L 135.026536 136.457858 
L 135.331204 139.022085 
L 135.635872 140.201938 
L 135.940541 135.803193 
L 136.245209 135.124989 
L 136.549877 137.145092 
L 136.854545 135.378069 
L 137.159214 138.359145 
L 137.463882 138.430193 
L 137.76855 137.538049 
L 138.073219 140.764776 
L 138.377887 136.606437 
L 138.682555 138.73092 
L 138.987224 136.089299 
L 139.291892 138.415244 
L 139.59656 136.377443 
L 139.901229 137.423602 
L 140.510565 135.148457 
L 140.815233 141.809069 
L 141.119902 137.877867 
L 141.42457 137.550364 
L 141.729238 136.825997 
L 142.033907 138.40953 
L 142.338575 137.631278 
L 142.643243 138.165638 
L 142.947912 134.625001 
L 143.25258 139.016103 
L 143.557248 136.25334 
L 143.861916 136.771989 
L 144.166585 137.67356 
L 144.471253 136.317809 
L 144.775921 138.680192 
L 145.08059 137.073601 
L 145.385258 138.337727 
L 145.689926 137.936428 
L 145.994595 138.380592 
L 146.299263 140.030323 
L 146.603931 139.638983 
L 146.9086 137.05969 
L 147.213268 137.10426 
L 147.517936 135.704467 
L 147.822604 138.615738 
L 148.127273 137.904682 
L 148.431941 139.690078 
L 148.736609 137.256339 
L 149.041278 136.927162 
L 149.345946 138.078642 
L 149.650614 141.154381 
L 149.955283 137.361544 
L 150.259951 139.713299 
L 150.564619 138.488102 
L 150.869287 139.700737 
L 151.478624 135.828277 
L 151.783292 136.977671 
L 152.087961 135.975054 
L 152.392629 136.35034 
L 152.697297 136.061756 
L 153.001966 134.644091 
L 153.306634 135.232471 
L 153.611302 138.350418 
L 153.915971 136.756696 
L 154.220639 137.193759 
L 154.525307 135.88264 
L 154.829975 136.409794 
L 155.134644 137.210207 
L 155.439312 139.750146 
L 155.74398 133.546103 
L 156.048649 135.931684 
L 156.353317 134.135503 
L 156.657985 138.409072 
L 156.962654 137.915746 
L 157.267322 137.931747 
L 157.57199 132.321322 
L 157.876658 135.542438 
L 158.181327 137.172633 
L 158.485995 138.03139 
L 158.790663 139.462783 
L 159.4 137.039686 
L 159.704668 137.614297 
L 160.009337 136.576687 
L 160.314005 136.503926 
L 160.618673 137.7318 
L 161.22801 138.333162 
L 161.532678 140.734329 
L 161.837346 138.73317 
L 162.142015 139.564732 
L 162.446683 140.024491 
L 162.751351 136.158835 
L 163.05602 138.900893 
L 163.360688 137.844598 
L 163.665356 137.88093 
L 163.970025 136.652588 
L 164.274693 138.046516 
L 164.579361 137.338319 
L 164.884029 139.081583 
L 165.188698 138.668504 
L 165.493366 136.762863 
L 165.798034 137.513101 
L 166.102703 135.193868 
L 166.407371 138.735491 
L 166.712039 138.178274 
L 167.321376 137.606045 
L 167.626044 139.164703 
L 167.930713 136.46157 
L 168.235381 136.130906 
L 168.540049 139.212235 
L 169.149386 136.525208 
L 169.454054 139.220726 
L 169.758722 136.223749 
L 170.063391 136.263311 
L 170.672727 138.9584 
L 170.977396 137.52023 
L 171.282064 139.196288 
L 171.586732 139.729573 
L 171.8914 137.818558 
L 172.196069 137.321016 
L 172.500737 137.274946 
L 172.805405 136.362976 
L 173.110074 139.7263 
L 173.414742 136.886352 
L 173.71941 137.818232 
L 174.024079 140.400683 
L 174.328747 137.849603 
L 174.633415 136.513874 
L 174.938084 139.008872 
L 175.242752 135.734992 
L 175.54742 137.428543 
L 175.852088 133.69339 
L 176.156757 137.240041 
L 176.461425 138.849266 
L 176.766093 134.981729 
L 177.070762 137.377086 
L 177.37543 136.919967 
L 177.984767 140.447277 
L 178.594103 133.95654 
L 178.898771 140.370685 
L 179.20344 138.965521 
L 179.508108 136.376023 
L 179.812776 141.425232 
L 180.117445 135.492095 
L 180.422113 139.307069 
L 180.726781 137.360687 
L 181.03145 136.550467 
L 181.336118 137.611509 
L 181.640786 137.465939 
L 181.945455 135.664177 
L 182.250123 135.487218 
L 182.554791 138.930741 
L 182.859459 135.878721 
L 183.164128 141.409497 
L 183.468796 137.127725 
L 183.773464 138.439518 
L 184.382801 139.59849 
L 184.687469 136.740985 
L 184.992138 139.285258 
L 185.296806 139.730143 
L 185.601474 137.499004 
L 185.906143 138.519342 
L 186.210811 137.678736 
L 186.820147 140.976245 
L 187.124816 136.637623 
L 187.429484 138.856464 
L 187.734152 134.639836 
L 188.038821 142.412564 
L 188.343489 136.809254 
L 188.952826 138.668751 
L 189.257494 141.681997 
L 189.562162 139.356246 
L 189.86683 134.858157 
L 190.171499 135.457799 
L 190.476167 140.914914 
L 190.780835 137.00644 
L 191.085504 136.432492 
L 191.390172 136.603571 
L 191.69484 135.977313 
L 191.999509 135.010999 
L 192.304177 139.515707 
L 192.608845 140.175911 
L 192.913514 137.271154 
L 193.218182 137.256893 
L 193.52285 137.868676 
L 193.827518 140.121664 
L 194.132187 137.834673 
L 194.436855 141.509947 
L 195.046192 134.15089 
L 195.35086 137.573274 
L 195.655528 135.27139 
L 196.264865 137.608059 
L 196.569533 135.51053 
L 196.874201 138.18598 
L 197.17887 138.698719 
L 197.483538 137.033504 
L 197.788206 138.328058 
L 198.092875 137.421905 
L 198.397543 138.868019 
L 198.702211 137.105633 
L 199.00688 140.535992 
L 199.311548 136.241084 
L 199.616216 138.950201 
L 200.225553 139.353901 
L 200.834889 137.462812 
L 201.139558 134.608108 
L 201.444226 138.47147 
L 201.748894 138.853408 
L 202.053563 139.797673 
L 202.358231 137.094508 
L 202.662899 137.729899 
L 202.967568 140.218396 
L 203.272236 140.582472 
L 203.576904 137.099891 
L 203.881572 136.79998 
L 204.186241 139.295074 
L 204.490909 137.539364 
L 204.795577 139.595978 
L 205.100246 138.352296 
L 205.404914 138.410191 
L 206.014251 136.77676 
L 206.318919 134.616482 
L 206.623587 138.616169 
L 206.928256 135.816237 
L 207.232924 139.675736 
L 207.537592 138.835389 
L 207.84226 135.364098 
L 208.146929 135.976513 
L 208.451597 140.399925 
L 208.756265 136.912078 
L 209.060934 138.069056 
L 209.365602 136.327447 
L 209.67027 138.127572 
L 209.974939 138.112082 
L 210.279607 137.259 
L 210.584275 137.712213 
L 210.888943 139.751732 
L 211.193612 136.903044 
L 211.49828 138.935503 
L 211.802948 138.701537 
L 212.107617 138.691354 
L 212.412285 136.756554 
L 213.021622 139.46972 
L 213.32629 139.028289 
L 213.630958 135.919714 
L 213.935627 137.770502 
L 214.240295 141.483584 
L 214.849631 134.630581 
L 215.1543 136.623837 
L 215.458968 139.802889 
L 215.763636 136.441842 
L 216.068305 139.805186 
L 216.372973 139.912292 
L 216.677641 137.891502 
L 216.98231 138.872814 
L 217.286978 138.611945 
L 217.591646 135.001839 
L 217.896314 137.013956 
L 218.200983 134.477406 
L 218.505651 138.074331 
L 218.810319 138.667185 
L 219.114988 137.867981 
L 219.419656 138.28231 
L 219.724324 136.56876 
L 220.028993 138.15377 
L 220.333661 140.494981 
L 220.638329 135.200128 
L 220.942998 139.27619 
L 221.247666 139.383415 
L 221.552334 135.139624 
L 221.857002 136.693453 
L 222.161671 137.030877 
L 222.466339 137.639757 
L 222.771007 143.790036 
L 223.075676 135.511435 
L 223.380344 135.435734 
L 223.685012 137.788489 
L 224.294349 140.086016 
L 224.599017 134.614223 
L 224.903686 137.49744 
L 225.208354 137.10553 
L 225.513022 134.858405 
L 225.81769 143.586919 
L 226.122359 135.593983 
L 226.427027 138.119891 
L 226.731695 139.28565 
L 227.036364 137.053046 
L 227.341032 137.052682 
L 227.6457 137.610287 
L 227.950369 135.448919 
L 228.255037 137.527552 
L 228.559705 136.397612 
L 228.864373 138.355483 
L 229.169042 136.670025 
L 229.47371 137.555379 
L 229.778378 137.702347 
L 230.083047 137.094 
L 230.387715 135.693666 
L 230.692383 139.666569 
L 230.997052 138.380096 
L 231.30172 135.748772 
L 231.606388 138.035005 
L 231.911057 141.250334 
L 232.215725 139.228264 
L 232.520393 138.181328 
L 232.825061 137.877527 
L 233.12973 138.130663 
L 233.434398 138.983619 
L 233.739066 139.471797 
L 234.043735 139.475856 
L 234.348403 138.969508 
L 234.653071 138.015852 
L 234.95774 136.306117 
L 235.262408 136.589258 
L 235.567076 137.407591 
L 235.871744 136.572293 
L 236.176413 139.535976 
L 236.481081 141.209822 
L 236.785749 136.839961 
L 237.090418 138.656069 
L 237.395086 137.724028 
L 237.699754 140.652304 
L 238.004423 140.358569 
L 238.309091 137.753865 
L 238.613759 137.299228 
L 238.918428 135.939408 
L 239.223096 136.146395 
L 239.527764 136.032664 
L 239.832432 139.69796 
L 240.137101 138.137956 
L 240.441769 135.141743 
L 240.746437 133.393428 
L 241.051106 138.502514 
L 241.355774 138.551275 
L 241.660442 136.859857 
L 241.965111 138.190671 
L 242.269779 136.51844 
L 242.574447 138.940061 
L 242.879115 137.593215 
L 243.183784 139.103986 
L 243.488452 138.702469 
L 243.79312 139.131297 
L 244.097789 136.51215 
L 244.402457 137.192644 
L 244.707125 139.180454 
L 245.011794 136.742492 
L 245.316462 139.184736 
L 245.925799 137.109953 
L 246.230467 138.797939 
L 246.535135 139.069349 
L 246.839803 137.685381 
L 247.144472 134.948464 
L 247.44914 140.276801 
L 247.753808 137.432654 
L 248.058477 137.103753 
L 248.363145 138.800707 
L 248.667813 136.090414 
L 248.972482 141.211362 
L 249.27715 140.678183 
L 249.581818 134.313595 
L 249.886486 138.197079 
L 250.191155 139.263671 
L 250.495823 139.005354 
L 250.800491 139.549187 
L 251.10516 139.836123 
L 251.409828 135.517036 
L 251.714496 135.912502 
L 252.019165 139.658812 
L 252.323833 139.750916 
L 252.628501 140.461141 
L 252.93317 137.763587 
L 253.237838 136.461439 
L 253.542506 139.043061 
L 253.847174 136.747827 
L 254.151843 138.904885 
L 254.456511 136.607376 
L 254.761179 136.959926 
L 255.065848 133.596815 
L 255.370516 138.620021 
L 255.675184 137.397261 
L 255.979853 137.519601 
L 256.284521 138.27398 
L 256.589189 136.840347 
L 256.893857 137.417718 
L 257.198526 138.571171 
L 257.503194 135.032874 
L 257.807862 137.242691 
L 258.112531 137.754813 
L 258.417199 137.897661 
L 258.721867 137.881457 
L 259.026536 135.243171 
L 259.331204 137.004397 
L 259.635872 136.934156 
L 259.940541 135.7082 
L 260.245209 135.575269 
L 260.549877 134.762252 
L 260.854545 139.123006 
L 261.159214 137.209065 
L 261.463882 139.83544 
L 261.76855 135.07586 
L 262.073219 137.331181 
L 262.377887 135.695184 
L 262.682555 140.038103 
L 263.291892 137.656618 
L 263.901229 138.835812 
L 264.205897 136.000601 
L 264.815233 137.911688 
L 265.119902 137.141079 
L 265.42457 139.559666 
L 265.729238 135.904107 
L 266.033907 143.073158 
L 266.338575 138.360827 
L 266.947912 138.541569 
L 267.25258 139.658029 
L 267.557248 137.464112 
L 267.861916 136.249064 
L 268.166585 136.64899 
L 268.471253 134.983508 
L 269.08059 141.643928 
L 269.385258 139.388714 
L 269.689926 141.882011 
L 269.994595 136.256848 
L 270.299263 138.047644 
L 270.603931 138.994833 
L 270.9086 138.508457 
L 271.213268 137.646994 
L 271.517936 137.972625 
L 271.822604 136.366776 
L 272.127273 136.30966 
L 272.431941 133.813819 
L 272.736609 135.418615 
L 273.345946 137.132721 
L 273.650614 135.34264 
L 273.955283 138.958727 
L 274.259951 138.858052 
L 274.564619 136.494399 
L 274.869287 137.545489 
L 275.173956 135.503393 
L 275.478624 138.721387 
L 275.783292 139.557207 
L 276.087961 137.453766 
L 276.392629 137.668917 
L 276.697297 139.795955 
L 277.001966 138.826877 
L 277.306634 138.780735 
L 277.611302 139.067932 
L 277.915971 139.138005 
L 278.525307 135.941787 
L 278.829975 139.766004 
L 279.134644 139.329962 
L 279.439312 138.25407 
L 279.74398 139.594014 
L 280.353317 135.818049 
L 280.657985 138.221249 
L 280.962654 139.007221 
L 281.267322 138.298327 
L 281.57199 136.06491 
L 281.876658 138.705334 
L 282.181327 133.452522 
L 282.485995 139.320889 
L 282.790663 140.174204 
L 283.095332 137.768657 
L 283.4 137.278459 
L 283.704668 138.638326 
L 284.009337 137.550839 
L 284.314005 140.229025 
L 284.923342 137.153717 
L 285.22801 136.419535 
L 285.532678 137.447245 
L 285.837346 139.145349 
L 286.142015 137.985685 
L 286.446683 136.374812 
L 286.751351 138.560582 
L 287.05602 138.47152 
L 287.360688 135.767774 
L 287.665356 134.772523 
L 287.970025 139.396285 
L 288.274693 135.517739 
L 288.579361 137.111314 
L 288.884029 137.115604 
L 289.188698 135.312975 
L 289.493366 138.350665 
L 289.798034 138.715886 
L 290.102703 138.341199 
L 290.407371 139.23129 
L 290.712039 139.610738 
L 291.016708 137.703971 
L 291.321376 137.606002 
L 291.626044 137.896241 
L 291.930713 140.173832 
L 292.235381 135.537402 
L 292.540049 138.494942 
L 292.844717 137.871657 
L 293.149386 134.967516 
L 293.454054 136.284364 
L 293.758722 136.534739 
L 294.063391 136.945155 
L 294.368059 134.636693 
L 294.672727 138.043702 
L 294.977396 137.040791 
L 295.282064 139.446059 
L 295.586732 136.576819 
L 295.8914 137.952557 
L 296.196069 137.73333 
L 296.500737 137.352049 
L 296.805405 134.023973 
L 297.110074 139.47516 
L 297.414742 139.020458 
L 297.71941 139.52565 
L 298.024079 136.587629 
L 298.328747 136.821854 
L 298.633415 139.926874 
L 298.938084 136.519361 
L 299.242752 140.265919 
L 299.54742 138.243161 
L 299.852088 137.183085 
L 300.156757 136.824926 
L 300.766093 139.220468 
L 301.070762 138.276578 
L 301.37543 138.790119 
L 301.680098 135.101727 
L 301.984767 137.219264 
L 302.289435 137.136135 
L 302.594103 135.312449 
L 302.898771 139.771243 
L 303.20344 138.729793 
L 303.508108 136.447413 
L 303.812776 135.991166 
L 304.117445 139.099441 
L 304.422113 138.811024 
L 305.03145 136.426034 
L 305.336118 138.234665 
L 305.640786 137.514723 
L 305.945455 138.915999 
L 306.250123 137.410002 
L 306.859459 139.300399 
L 307.164128 135.866098 
L 307.468796 137.266709 
L 307.773464 136.978302 
L 308.078133 139.549366 
L 308.382801 136.810017 
L 308.687469 139.325546 
L 308.992138 139.024765 
L 309.296806 138.115558 
L 309.601474 141.263241 
L 309.906143 136.794032 
L 310.210811 138.152565 
L 310.820147 136.82117 
L 311.124816 137.701388 
L 311.429484 139.708924 
L 311.734152 138.121292 
L 312.038821 135.54854 
L 312.343489 138.138094 
L 312.648157 139.066018 
L 312.952826 139.143836 
L 313.257494 138.852643 
L 313.562162 135.294773 
L 314.171499 141.230906 
L 314.476167 137.664886 
L 314.780835 137.245464 
L 315.085504 139.018785 
L 315.390172 138.422662 
L 315.69484 139.093563 
L 315.999509 134.317836 
L 316.304177 140.127051 
L 316.608845 136.42208 
L 316.913514 140.545259 
L 317.218182 135.510089 
L 317.52285 140.158121 
L 317.827518 139.918461 
L 318.132187 140.85394 
L 318.436855 134.882637 
L 318.741523 139.992433 
L 319.046192 137.357791 
L 319.35086 137.785079 
L 319.960197 136.952352 
L 320.264865 141.119737 
L 320.569533 134.073007 
L 320.874201 138.381766 
L 321.17887 135.425304 
L 321.483538 134.539089 
L 321.788206 138.469925 
L 322.092875 137.600677 
L 322.397543 137.674962 
L 322.702211 138.137835 
L 323.00688 137.13406 
L 323.311548 138.090228 
L 323.616216 136.370241 
L 324.225553 135.994086 
L 324.530221 134.976336 
L 325.139558 139.286575 
L 325.444226 138.136013 
L 325.748894 140.67922 
L 326.053563 136.649929 
L 326.662899 136.789973 
L 326.967568 135.602396 
L 327.272236 135.372777 
L 327.576904 137.223201 
L 327.881572 137.702345 
L 328.186241 138.607058 
L 328.490909 137.651708 
L 328.795577 134.767271 
L 329.404914 136.82197 
L 329.709582 136.874758 
L 330.014251 138.655523 
L 330.318919 135.689367 
L 330.623587 138.975146 
L 330.928256 139.751135 
L 331.232924 138.833661 
L 331.537592 138.676404 
L 331.84226 135.176968 
L 332.146929 139.314959 
L 332.451597 139.593934 
L 332.756265 137.796563 
L 333.060934 139.425581 
L 333.365602 134.919097 
L 333.67027 137.449637 
L 333.974939 136.55627 
L 334.279607 139.640311 
L 334.888943 135.134513 
L 335.193612 138.158518 
L 335.49828 134.893114 
L 335.802948 138.917307 
L 336.107617 138.759192 
L 336.412285 136.653716 
L 336.716953 137.222238 
L 337.021622 139.556155 
L 337.32629 137.821041 
L 337.630958 137.266868 
L 337.935627 136.439985 
L 338.240295 134.631143 
L 338.544963 138.334387 
L 338.849631 137.718355 
L 339.1543 137.940653 
L 339.458968 136.143643 
L 339.763636 136.773588 
L 340.068305 136.552954 
L 340.372973 135.676389 
L 340.677641 138.532603 
L 340.98231 136.501326 
L 341.286978 135.524325 
L 341.591646 137.682996 
L 341.896314 138.908274 
L 342.200983 136.188827 
L 342.505651 136.894123 
L 342.810319 136.198834 
L 343.419656 136.496506 
L 343.724324 137.292782 
L 344.028993 139.600628 
L 344.333661 138.107255 
L 344.638329 141.265973 
L 344.942998 138.061573 
L 345.247666 139.959483 
L 345.552334 137.291 
L 345.857002 139.403879 
L 346.466339 135.732719 
L 346.771007 138.764786 
L 347.075676 137.633975 
L 347.380344 137.702447 
L 347.685012 136.486312 
L 347.989681 137.959639 
L 348.294349 136.231012 
L 348.599017 136.664698 
L 348.903686 138.379858 
L 349.208354 137.857117 
L 349.513022 140.185099 
L 349.81769 137.988943 
L 350.122359 136.887857 
L 350.427027 138.494724 
L 350.731695 135.26449 
L 351.036364 137.491674 
L 351.341032 141.16154 
L 351.6457 139.66213 
L 351.950369 136.797178 
L 352.255037 136.297766 
L 352.559705 137.176001 
L 352.864373 139.152308 
L 353.47371 135.591556 
L 353.778378 137.024963 
L 354.083047 141.602306 
L 354.387715 139.863848 
L 354.692383 136.594782 
L 354.997052 136.630603 
L 355.30172 138.065794 
L 355.606388 137.783976 
L 355.911057 138.809845 
L 356.215725 138.19496 
L 356.520393 137.903612 
L 356.825061 138.315487 
L 357.434398 135.256129 
L 357.739066 136.791936 
L 358.043735 136.865758 
L 358.348403 136.12024 
L 358.653071 137.918 
L 358.95774 137.801148 
L 359.567076 135.076566 
L 359.871744 138.836688 
L 360.176413 140.895987 
L 360.481081 139.168282 
L 360.785749 138.176119 
L 361.090418 141.029454 
L 361.395086 137.935651 
L 361.699754 136.604168 
L 362.004423 134.350961 
L 362.309091 137.962257 
L 362.613759 136.878297 
L 362.918428 136.247231 
L 363.527764 137.246942 
L 363.832432 138.763508 
L 364.137101 139.160116 
L 364.441769 136.413921 
L 364.746437 135.012784 
L 365.051106 141.322228 
L 365.355774 136.406524 
L 365.660442 136.876209 
L 365.965111 137.663328 
L 366.269779 136.860315 
L 366.574447 136.833324 
L 367.183784 138.10885 
L 367.488452 132.763934 
L 367.79312 138.563353 
L 368.097789 138.453809 
L 368.402457 137.896131 
L 368.707125 136.736809 
L 369.011794 136.450662 
L 369.316462 136.613373 
L 369.62113 138.71304 
L 370.230467 137.224946 
L 370.535135 137.316363 
L 370.839803 138.255878 
L 371.144472 139.726543 
L 371.44914 132.615506 
L 371.753808 138.685423 
L 372.058477 139.803332 
L 372.363145 136.171616 
L 372.667813 140.856097 
L 372.972482 140.02346 
L 373.27715 137.678555 
L 373.581818 139.363858 
L 373.581818 139.363858 
" style="fill:none;stroke:#1f77b4;stroke-linecap:square;stroke-width:1.5;"/>
   </g>
   <g id="line2d_14">
    <path clip-path="url(#p741fc3970a)" d="M 69.218182 212.3625 
L 69.827518 193.098367 
L 70.436855 182.725388 
L 70.741523 174.662251 
L 71.046192 169.852925 
L 71.35086 172.663419 
L 71.655528 169.467193 
L 72.264865 166.878254 
L 72.569533 164.056486 
L 72.874201 163.527586 
L 73.17887 158.877993 
L 73.483538 158.761307 
L 73.788206 159.563865 
L 74.092875 161.189871 
L 74.397543 160.137645 
L 74.702211 157.833735 
L 75.00688 159.696155 
L 75.311548 158.296829 
L 75.616216 154.232958 
L 75.920885 154.27181 
L 76.225553 157.65959 
L 76.530221 153.672213 
L 76.834889 153.341826 
L 77.139558 156.10894 
L 77.748894 156.327091 
L 78.358231 153.481595 
L 78.662899 154.881267 
L 78.967568 150.728664 
L 79.272236 152.117322 
L 79.576904 151.652449 
L 79.881572 156.255941 
L 80.490909 154.17042 
L 80.795577 156.290019 
L 81.100246 154.806106 
L 81.404914 151.554521 
L 81.709582 154.31998 
L 82.014251 154.690793 
L 82.318919 152.380596 
L 82.623587 153.406141 
L 82.928256 155.803231 
L 83.232924 150.871391 
L 83.84226 154.135711 
L 84.146929 152.522232 
L 84.451597 154.399439 
L 85.060934 151.536579 
L 85.365602 154.669994 
L 85.974939 150.556225 
L 86.279607 152.184107 
L 86.584275 152.275211 
L 86.888943 150.517705 
L 87.193612 153.880208 
L 87.49828 154.516386 
L 87.802948 154.114429 
L 88.107617 149.138478 
L 88.716953 158.059807 
L 89.021622 152.901075 
L 89.32629 152.454183 
L 89.630958 150.985102 
L 89.935627 151.507496 
L 90.240295 149.401162 
L 90.544963 152.541093 
L 90.849631 150.841975 
L 91.1543 151.886119 
L 91.458968 152.081038 
L 91.763636 153.82922 
L 92.068305 150.723136 
L 92.372973 151.825051 
L 92.677641 152.176242 
L 92.98231 150.714825 
L 93.286978 150.365209 
L 93.591646 149.541963 
L 93.896314 147.564444 
L 94.200983 150.786496 
L 94.505651 151.803583 
L 94.810319 150.211249 
L 95.114988 151.457531 
L 95.419656 151.696076 
L 95.724324 153.578755 
L 96.028993 148.458245 
L 96.333661 151.539969 
L 96.638329 150.246751 
L 96.942998 149.812674 
L 97.247666 147.005541 
L 97.552334 152.454353 
L 97.857002 150.738977 
L 98.161671 154.471192 
L 98.466339 149.574144 
L 98.771007 148.43418 
L 99.075676 151.155346 
L 99.380344 151.149275 
L 99.989681 149.229806 
L 100.599017 155.383181 
L 100.903686 151.274138 
L 101.208354 149.166047 
L 101.513022 151.735807 
L 101.81769 151.653104 
L 102.122359 150.921628 
L 102.427027 150.668677 
L 102.731695 151.264897 
L 103.036364 154.509958 
L 103.341032 152.667922 
L 103.6457 149.313869 
L 103.950369 154.061867 
L 104.255037 149.351544 
L 104.559705 149.131509 
L 104.864373 150.162179 
L 105.169042 148.273932 
L 105.47371 150.119272 
L 105.778378 148.098199 
L 106.083047 149.22743 
L 106.387715 153.808014 
L 106.692383 147.336449 
L 106.997052 150.108568 
L 107.30172 150.191323 
L 107.606388 146.25827 
L 108.215725 151.031503 
L 108.520393 147.974512 
L 109.12973 145.869541 
L 110.043735 151.103954 
L 110.348403 148.150156 
L 110.653071 149.046102 
L 110.95774 150.929151 
L 111.262408 149.415979 
L 111.567076 145.588378 
L 111.871744 147.518401 
L 112.176413 146.797658 
L 112.481081 150.964859 
L 112.785749 145.759155 
L 113.090418 149.38833 
L 113.395086 150.060849 
L 113.699754 145.308656 
L 114.004423 147.991557 
L 114.309091 148.912912 
L 114.613759 147.613887 
L 114.918428 150.609665 
L 115.223096 150.397868 
L 115.527764 151.898161 
L 115.832432 146.264207 
L 116.137101 149.348341 
L 116.441769 149.19724 
L 116.746437 148.162435 
L 117.051106 151.532293 
L 117.355774 152.07395 
L 117.660442 148.317178 
L 117.965111 148.434422 
L 118.269779 147.517227 
L 118.574447 147.184977 
L 118.879115 147.646606 
L 119.183784 149.839812 
L 119.488452 148.79512 
L 119.79312 149.946602 
L 120.097789 145.873074 
L 120.402457 150.091596 
L 120.707125 145.562841 
L 121.316462 149.985938 
L 121.62113 149.179546 
L 121.925799 145.789311 
L 122.230467 146.375137 
L 122.535135 150.039411 
L 122.839803 145.595398 
L 123.144472 148.798625 
L 123.44914 148.477418 
L 123.753808 150.019221 
L 124.058477 147.834429 
L 124.363145 148.806121 
L 124.972482 145.922389 
L 125.27715 151.899764 
L 125.581818 147.274278 
L 125.886486 146.683902 
L 126.191155 144.871481 
L 126.495823 144.287168 
L 126.800491 147.666137 
L 127.10516 149.661326 
L 127.409828 148.608047 
L 127.714496 146.640367 
L 128.019165 148.729647 
L 128.323833 146.803727 
L 128.628501 148.947231 
L 128.93317 146.340844 
L 129.237838 150.17333 
L 129.542506 148.75898 
L 129.847174 149.997219 
L 130.151843 147.039225 
L 130.456511 150.780818 
L 130.761179 149.435872 
L 131.065848 146.203517 
L 131.370516 148.33822 
L 131.675184 145.317192 
L 131.979853 143.679993 
L 132.284521 144.67658 
L 132.589189 143.669496 
L 132.893857 149.24005 
L 133.198526 145.263878 
L 133.503194 145.982174 
L 133.807862 149.215836 
L 134.112531 146.729019 
L 134.417199 149.115858 
L 134.721867 146.699811 
L 135.026536 147.206573 
L 135.331204 146.741285 
L 135.940541 150.86101 
L 136.245209 146.385103 
L 136.549877 148.468094 
L 136.854545 145.613979 
L 137.159214 149.035955 
L 137.463882 145.395468 
L 137.76855 145.668211 
L 138.073219 146.404838 
L 138.377887 149.876602 
L 138.682555 143.636397 
L 138.987224 146.520106 
L 139.291892 145.975375 
L 139.59656 148.567406 
L 139.901229 149.840585 
L 140.205897 150.173322 
L 140.510565 149.334051 
L 140.815233 150.840716 
L 141.119902 146.790379 
L 141.42457 147.185984 
L 141.729238 148.960511 
L 142.033907 143.021176 
L 142.338575 148.313253 
L 142.643243 146.772164 
L 142.947912 147.441152 
L 143.25258 147.491326 
L 143.557248 149.156739 
L 143.861916 145.009643 
L 144.166585 152.087056 
L 144.471253 147.036641 
L 144.775921 148.733345 
L 145.08059 143.271471 
L 145.385258 151.699069 
L 145.994595 146.318936 
L 146.299263 150.112923 
L 146.603931 149.065907 
L 146.9086 145.833281 
L 147.213268 146.670347 
L 147.517936 148.551596 
L 147.822604 149.657449 
L 148.127273 144.925042 
L 148.431941 146.666723 
L 148.736609 146.482302 
L 149.041278 145.284646 
L 149.345946 148.631981 
L 149.650614 146.663207 
L 149.955283 148.104531 
L 150.259951 147.072175 
L 150.564619 145.50342 
L 150.869287 147.072464 
L 151.173956 143.265383 
L 151.478624 150.544034 
L 151.783292 144.974883 
L 152.087961 147.38338 
L 152.392629 147.984597 
L 152.697297 147.651249 
L 153.001966 146.897114 
L 153.306634 145.411582 
L 153.915971 145.176427 
L 154.220639 146.287408 
L 154.525307 144.215374 
L 155.134644 148.690566 
L 155.439312 143.767026 
L 155.74398 145.668512 
L 156.048649 145.629671 
L 156.353317 148.124292 
L 156.657985 148.681966 
L 156.962654 145.40433 
L 157.267322 143.901066 
L 157.57199 149.158447 
L 157.876658 145.531766 
L 158.181327 148.14797 
L 158.485995 148.596075 
L 158.790663 149.63546 
L 159.095332 144.303658 
L 159.4 146.434093 
L 159.704668 146.329882 
L 160.009337 147.958688 
L 160.314005 145.722471 
L 160.618673 144.413982 
L 160.923342 147.342571 
L 161.22801 145.248948 
L 161.532678 148.215726 
L 161.837346 142.803058 
L 162.142015 144.848087 
L 162.751351 147.137049 
L 163.05602 148.97329 
L 163.360688 146.037713 
L 163.665356 145.445183 
L 163.970025 146.905453 
L 164.274693 146.065542 
L 164.579361 144.706013 
L 164.884029 149.400071 
L 165.188698 148.204557 
L 165.798034 145.332681 
L 166.102703 148.687797 
L 166.407371 148.655585 
L 166.712039 149.091997 
L 167.016708 144.513746 
L 167.626044 146.802359 
L 167.930713 147.437316 
L 168.235381 146.742565 
L 168.540049 144.540492 
L 168.844717 146.955758 
L 169.454054 147.373617 
L 169.758722 143.829688 
L 170.063391 144.415316 
L 170.368059 143.472981 
L 170.672727 145.090458 
L 170.977396 143.997018 
L 171.282064 147.340354 
L 171.586732 149.2704 
L 171.8914 145.924511 
L 172.196069 147.555736 
L 172.500737 140.778825 
L 172.805405 145.135317 
L 173.110074 145.775398 
L 173.414742 147.818157 
L 173.71941 145.206248 
L 174.024079 148.352132 
L 174.328747 144.244766 
L 174.633415 145.555387 
L 174.938084 145.596206 
L 175.242752 148.51704 
L 175.54742 142.641546 
L 175.852088 144.576267 
L 176.156757 148.102804 
L 176.461425 145.299859 
L 176.766093 146.445391 
L 177.070762 145.633045 
L 177.37543 145.520745 
L 177.680098 146.834277 
L 177.984767 146.411425 
L 178.289435 147.534282 
L 178.594103 144.898979 
L 178.898771 147.609606 
L 179.20344 147.281074 
L 179.508108 142.498448 
L 179.812776 148.545798 
L 180.117445 142.21519 
L 180.422113 148.084496 
L 180.726781 146.589173 
L 181.03145 146.502744 
L 181.336118 146.009484 
L 181.640786 144.292366 
L 182.250123 148.811488 
L 182.554791 146.134572 
L 182.859459 147.935697 
L 183.468796 143.713574 
L 183.773464 143.359731 
L 184.078133 147.540364 
L 184.382801 143.475248 
L 184.687469 147.717128 
L 184.992138 143.769933 
L 185.296806 144.03157 
L 185.601474 150.768236 
L 185.906143 143.072537 
L 186.210811 146.533005 
L 186.515479 142.58097 
L 186.820147 144.277175 
L 187.124816 143.988128 
L 187.429484 145.875042 
L 187.734152 145.314319 
L 188.038821 145.427006 
L 188.343489 145.341189 
L 188.648157 147.541808 
L 188.952826 144.622217 
L 189.257494 151.66419 
L 189.562162 142.64764 
L 189.86683 144.737266 
L 190.171499 149.317589 
L 190.476167 142.890745 
L 191.085504 144.941287 
L 191.390172 144.595659 
L 191.69484 143.519038 
L 191.999509 145.730323 
L 192.304177 146.680375 
L 192.608845 144.968615 
L 193.218182 145.327914 
L 193.52285 143.283792 
L 193.827518 146.776057 
L 194.132187 145.428735 
L 194.436855 145.141599 
L 194.741523 144.115822 
L 195.046192 144.85136 
L 195.35086 146.19402 
L 195.655528 145.590982 
L 195.960197 143.732418 
L 196.264865 145.892941 
L 196.569533 145.384748 
L 196.874201 143.445717 
L 197.17887 144.783738 
L 197.483538 140.991072 
L 197.788206 146.985066 
L 198.397543 146.523422 
L 198.702211 144.797673 
L 199.00688 145.468188 
L 199.311548 143.74309 
L 199.616216 145.512082 
L 199.920885 144.241365 
L 200.225553 144.137332 
L 200.530221 145.683775 
L 200.834889 146.022406 
L 201.139558 143.715704 
L 201.444226 142.628796 
L 201.748894 144.878516 
L 202.053563 146.107275 
L 202.358231 145.187797 
L 202.662899 147.207807 
L 202.967568 143.848024 
L 203.272236 145.436581 
L 203.576904 144.642489 
L 203.881572 148.813583 
L 204.186241 146.240409 
L 204.490909 148.146045 
L 204.795577 148.934981 
L 205.100246 145.596465 
L 205.404914 146.862746 
L 205.709582 144.091494 
L 206.014251 144.973692 
L 206.318919 146.64566 
L 206.623587 145.728279 
L 206.928256 147.244253 
L 207.232924 147.649384 
L 207.537592 144.501765 
L 207.84226 144.014971 
L 208.146929 144.444531 
L 208.451597 142.384078 
L 208.756265 146.254673 
L 209.060934 147.208853 
L 209.365602 145.207707 
L 209.67027 145.889333 
L 209.974939 149.522765 
L 210.279607 148.313796 
L 210.584275 147.615522 
L 210.888943 145.747811 
L 211.193612 145.112537 
L 211.49828 145.346171 
L 211.802948 144.299829 
L 212.107617 142.219299 
L 212.716953 147.875903 
L 213.021622 147.846546 
L 213.32629 144.711925 
L 213.630958 143.787573 
L 213.935627 145.647278 
L 214.240295 146.075977 
L 214.544963 143.789143 
L 214.849631 145.72218 
L 215.1543 145.231719 
L 215.458968 143.546804 
L 216.068305 147.043463 
L 216.372973 143.90114 
L 216.677641 144.112678 
L 216.98231 141.699391 
L 217.286978 144.783009 
L 217.591646 143.815691 
L 217.896314 146.29883 
L 218.200983 141.748034 
L 218.505651 147.225888 
L 218.810319 149.90213 
L 219.114988 145.467178 
L 219.419656 143.699388 
L 220.028993 147.37467 
L 220.333661 146.121187 
L 220.638329 146.642997 
L 221.247666 145.356706 
L 221.552334 143.473688 
L 221.857002 146.099541 
L 222.161671 143.752731 
L 222.466339 143.473888 
L 222.771007 145.350052 
L 223.075676 146.249161 
L 223.380344 146.051366 
L 223.685012 146.321638 
L 223.989681 145.176922 
L 224.294349 148.674549 
L 224.599017 143.304024 
L 224.903686 146.321855 
L 225.208354 145.681027 
L 225.513022 144.101169 
L 225.81769 144.48537 
L 226.122359 144.000148 
L 226.427027 144.623497 
L 226.731695 143.57554 
L 227.036364 146.811771 
L 227.341032 142.857141 
L 227.6457 143.793642 
L 227.950369 147.747825 
L 228.559705 144.372528 
L 228.864373 143.172441 
L 229.169042 147.111474 
L 229.47371 144.94259 
L 229.778378 144.834248 
L 230.083047 146.261403 
L 230.387715 145.937938 
L 230.692383 146.126004 
L 230.997052 142.514392 
L 231.606388 147.897019 
L 231.911057 148.343868 
L 232.215725 148.418793 
L 232.520393 148.241874 
L 232.825061 146.897619 
L 233.12973 146.122442 
L 233.434398 144.869383 
L 233.739066 146.801473 
L 234.043735 142.968612 
L 234.348403 143.418354 
L 234.653071 144.826192 
L 234.95774 147.525859 
L 235.871744 143.454442 
L 236.176413 145.548795 
L 236.481081 143.328686 
L 236.785749 144.626073 
L 237.090418 144.516029 
L 237.395086 142.619411 
L 238.004423 148.95947 
L 238.309091 147.562025 
L 238.613759 144.890675 
L 238.918428 144.959293 
L 239.223096 142.592298 
L 239.527764 144.997669 
L 239.832432 144.970908 
L 240.137101 141.315838 
L 240.441769 141.532895 
L 240.746437 146.709235 
L 241.051106 142.821293 
L 241.355774 144.155242 
L 241.660442 142.04794 
L 241.965111 141.812432 
L 242.269779 143.989011 
L 242.574447 145.201506 
L 242.879115 145.936862 
L 243.183784 144.93686 
L 243.488452 145.846764 
L 243.79312 147.350636 
L 244.707125 141.992504 
L 245.011794 146.616609 
L 245.316462 144.031924 
L 245.62113 142.478796 
L 245.925799 145.868398 
L 246.230467 145.273775 
L 246.535135 144.192247 
L 247.44914 149.207332 
L 247.753808 145.315455 
L 248.058477 146.376012 
L 248.363145 144.816613 
L 248.972482 145.279932 
L 249.27715 145.308951 
L 249.581818 150.456722 
L 249.886486 145.276172 
L 250.191155 144.461701 
L 250.495823 146.985675 
L 251.10516 143.292147 
L 251.409828 146.981279 
L 251.714496 144.727818 
L 252.019165 144.85587 
L 252.323833 146.748994 
L 252.628501 145.303382 
L 252.93317 140.167997 
L 253.237838 145.869686 
L 253.542506 146.682855 
L 253.847174 146.731799 
L 254.456511 146.255295 
L 254.761179 146.55393 
L 255.065848 149.28834 
L 255.370516 143.541966 
L 255.675184 143.435905 
L 255.979853 143.530933 
L 256.284521 145.419888 
L 256.589189 145.798141 
L 256.893857 142.518125 
L 257.198526 148.164413 
L 257.503194 145.024025 
L 257.807862 145.383225 
L 258.112531 144.411591 
L 258.417199 143.960543 
L 258.721867 145.598819 
L 259.026536 144.864898 
L 259.331204 148.556964 
L 259.635872 145.686527 
L 260.245209 142.930494 
L 260.549877 146.667032 
L 260.854545 144.624435 
L 261.159214 145.260743 
L 261.463882 146.791385 
L 261.76855 143.971905 
L 262.377887 144.941112 
L 262.682555 144.446708 
L 262.987224 144.461437 
L 263.291892 144.153745 
L 263.59656 145.27097 
L 263.901229 145.636468 
L 264.205897 146.958415 
L 264.510565 146.188884 
L 264.815233 145.017412 
L 265.119902 148.662618 
L 265.42457 145.900494 
L 265.729238 148.153541 
L 266.033907 147.488892 
L 266.338575 146.235779 
L 266.643243 141.770948 
L 266.947912 145.219432 
L 267.25258 146.853774 
L 267.861916 145.388046 
L 268.166585 145.294036 
L 268.471253 142.440664 
L 268.775921 149.540322 
L 269.08059 142.233792 
L 269.385258 147.465135 
L 269.689926 143.954597 
L 269.994595 143.884219 
L 270.299263 146.165904 
L 270.603931 142.985505 
L 271.213268 145.500406 
L 271.517936 145.018531 
L 271.822604 145.603324 
L 272.127273 144.252544 
L 272.431941 148.385747 
L 272.736609 143.707904 
L 273.041278 145.8018 
L 273.345946 144.734974 
L 273.955283 147.698308 
L 274.259951 142.720283 
L 274.564619 144.599369 
L 274.869287 143.673374 
L 275.173956 145.423281 
L 275.478624 146.304781 
L 276.087961 140.890304 
L 276.392629 143.828665 
L 276.697297 148.873365 
L 277.001966 148.300042 
L 277.306634 145.212219 
L 277.915971 145.121518 
L 278.525307 142.319752 
L 278.829975 144.439229 
L 279.134644 142.826159 
L 279.439312 148.734292 
L 280.048649 144.244762 
L 280.353317 145.397215 
L 280.657985 144.62169 
L 280.962654 144.812401 
L 281.267322 145.372081 
L 281.57199 145.602904 
L 281.876658 147.368539 
L 282.181327 144.19861 
L 282.485995 145.611521 
L 282.790663 142.54509 
L 283.095332 142.705765 
L 283.4 144.186208 
L 283.704668 143.899437 
L 284.009337 140.967394 
L 284.314005 145.827988 
L 284.618673 143.393161 
L 284.923342 142.166826 
L 285.22801 142.239932 
L 285.532678 144.99879 
L 286.142015 146.86339 
L 286.446683 145.381401 
L 286.751351 141.658746 
L 287.05602 143.855583 
L 287.360688 143.877746 
L 287.665356 143.657489 
L 287.970025 142.794358 
L 288.274693 144.177267 
L 288.579361 144.438764 
L 288.884029 144.859865 
L 289.188698 144.342224 
L 289.493366 144.098051 
L 289.798034 143.467483 
L 290.102703 145.62261 
L 290.407371 142.829993 
L 290.712039 144.74894 
L 291.016708 145.905221 
L 291.321376 147.690546 
L 291.626044 147.01968 
L 291.930713 146.632469 
L 292.235381 140.977417 
L 292.540049 142.569142 
L 292.844717 146.588306 
L 293.454054 143.755579 
L 293.758722 144.811964 
L 294.063391 144.16352 
L 294.368059 143.049631 
L 294.672727 144.106416 
L 294.977396 141.918207 
L 295.282064 144.242431 
L 295.586732 144.467144 
L 295.8914 143.359288 
L 296.196069 147.009926 
L 296.500737 145.435369 
L 296.805405 142.097096 
L 297.110074 146.324715 
L 297.414742 143.710203 
L 297.71941 145.757343 
L 298.024079 140.578532 
L 298.633415 147.119101 
L 299.242752 142.881816 
L 299.54742 144.672821 
L 299.852088 143.682723 
L 300.156757 144.470707 
L 300.461425 145.710372 
L 300.766093 145.897213 
L 301.070762 143.898285 
L 301.37543 144.504118 
L 301.680098 143.167816 
L 301.984767 149.05747 
L 302.289435 143.185907 
L 302.594103 149.20944 
L 303.20344 141.163742 
L 303.508108 144.205478 
L 303.812776 144.159415 
L 304.117445 146.319447 
L 304.422113 145.396919 
L 304.726781 145.538534 
L 305.03145 146.744402 
L 305.336118 146.04669 
L 305.640786 146.7485 
L 305.945455 145.532036 
L 306.250123 147.621724 
L 306.554791 145.725068 
L 306.859459 147.202081 
L 307.164128 143.671078 
L 307.468796 145.507254 
L 307.773464 144.531848 
L 308.078133 144.632393 
L 308.382801 145.559763 
L 308.687469 144.463191 
L 308.992138 146.340561 
L 309.296806 147.352554 
L 309.601474 145.367726 
L 309.906143 147.017531 
L 310.210811 143.587979 
L 310.515479 142.300359 
L 310.820147 142.452499 
L 311.124816 148.411993 
L 311.734152 143.096026 
L 312.038821 147.295884 
L 312.343489 147.44148 
L 312.648157 145.674866 
L 312.952826 147.259926 
L 313.257494 144.545249 
L 313.562162 147.270005 
L 314.171499 143.144311 
L 314.476167 145.585998 
L 314.780835 140.684251 
L 315.085504 145.775762 
L 315.390172 144.53278 
L 315.69484 144.284603 
L 315.999509 141.085889 
L 316.608845 146.57932 
L 316.913514 144.084288 
L 317.218182 144.870067 
L 317.52285 142.578054 
L 317.827518 145.3589 
L 318.132187 144.827214 
L 318.436855 144.930865 
L 318.741523 142.013484 
L 319.046192 143.572519 
L 319.35086 143.807005 
L 319.655528 145.257725 
L 319.960197 145.07174 
L 320.264865 142.305258 
L 320.569533 148.69858 
L 320.874201 147.917677 
L 321.17887 141.723785 
L 321.483538 143.168358 
L 321.788206 147.594826 
L 322.092875 142.952768 
L 322.397543 147.25564 
L 322.702211 142.484272 
L 323.311548 144.23785 
L 323.616216 143.565823 
L 323.920885 148.542505 
L 324.225553 143.306293 
L 324.530221 145.618161 
L 324.834889 145.298847 
L 325.139558 142.327459 
L 325.444226 143.375812 
L 325.748894 145.304358 
L 326.358231 145.700586 
L 326.662899 142.568782 
L 326.967568 144.651702 
L 327.272236 143.86747 
L 327.576904 144.262445 
L 327.881572 145.542785 
L 328.186241 145.866379 
L 328.490909 142.434081 
L 328.795577 145.207767 
L 329.100246 144.948846 
L 329.404914 144.371239 
L 329.709582 144.560044 
L 330.014251 142.647035 
L 330.318919 143.240146 
L 330.623587 145.962696 
L 330.928256 143.613751 
L 331.232924 143.742158 
L 331.84226 143.753233 
L 332.146929 146.62775 
L 332.451597 143.701196 
L 332.756265 146.002394 
L 333.060934 145.714912 
L 333.365602 142.37176 
L 333.67027 144.412531 
L 333.974939 142.860062 
L 334.279607 144.50276 
L 334.584275 145.289237 
L 334.888943 142.194293 
L 335.193612 143.338441 
L 335.49828 145.658231 
L 335.802948 146.326618 
L 336.107617 145.509963 
L 336.412285 145.453092 
L 336.716953 145.600606 
L 337.021622 143.285817 
L 337.32629 142.077553 
L 337.630958 148.701417 
L 337.935627 144.995782 
L 338.544963 146.217762 
L 339.1543 142.447187 
L 339.458968 148.619595 
L 339.763636 148.75959 
L 340.068305 141.501538 
L 340.372973 144.109425 
L 340.677641 143.495393 
L 340.98231 144.278925 
L 341.286978 146.19301 
L 341.591646 146.230559 
L 341.896314 143.591492 
L 342.200983 148.927425 
L 342.505651 146.701071 
L 342.810319 142.266305 
L 343.114988 145.716565 
L 343.419656 143.4743 
L 344.028993 147.414147 
L 344.333661 146.653135 
L 344.638329 140.585838 
L 344.942998 142.586584 
L 345.247666 145.52363 
L 345.552334 144.672357 
L 345.857002 143.030922 
L 346.161671 143.200439 
L 346.466339 145.301385 
L 346.771007 144.744858 
L 347.075676 146.429369 
L 347.685012 141.278409 
L 347.989681 143.985397 
L 348.294349 145.323566 
L 349.208354 140.343089 
L 349.513022 144.941449 
L 349.81769 145.957493 
L 350.122359 143.445149 
L 350.427027 144.933258 
L 350.731695 143.732123 
L 351.036364 145.39415 
L 351.341032 145.886319 
L 351.6457 142.689827 
L 351.950369 143.545338 
L 352.255037 142.442136 
L 352.559705 145.62827 
L 352.864373 142.164995 
L 353.169042 141.836974 
L 353.778378 148.462376 
L 354.083047 142.728291 
L 354.387715 146.627428 
L 354.692383 143.036058 
L 354.997052 141.961105 
L 355.30172 140.23472 
L 355.606388 143.829466 
L 355.911057 144.938915 
L 356.520393 140.950027 
L 356.825061 147.127898 
L 357.12973 145.947281 
L 357.434398 146.813315 
L 357.739066 143.574195 
L 358.043735 145.569813 
L 358.348403 142.877676 
L 358.653071 145.610635 
L 358.95774 144.31358 
L 359.262408 139.624165 
L 359.567076 140.612986 
L 359.871744 146.455286 
L 360.176413 144.612804 
L 360.481081 147.416554 
L 360.785749 144.958995 
L 361.090418 144.098082 
L 361.395086 144.557991 
L 361.699754 141.808813 
L 362.004423 141.744182 
L 362.309091 144.987923 
L 362.613759 143.129612 
L 362.918428 147.403575 
L 363.223096 142.768883 
L 363.527764 144.118692 
L 363.832432 142.415124 
L 364.137101 143.363966 
L 364.441769 146.811739 
L 364.746437 143.975451 
L 365.051106 146.486441 
L 365.355774 145.370249 
L 365.660442 145.505323 
L 365.965111 141.278516 
L 366.269779 145.50331 
L 366.574447 145.714467 
L 366.879115 144.086478 
L 367.183784 148.755868 
L 367.488452 146.569484 
L 367.79312 147.035492 
L 368.097789 140.189997 
L 368.402457 143.99701 
L 368.707125 143.309343 
L 369.011794 141.365243 
L 369.316462 142.512526 
L 369.62113 145.088828 
L 369.925799 145.454212 
L 370.230467 147.113141 
L 370.535135 146.962492 
L 370.839803 143.84497 
L 371.144472 142.219485 
L 371.44914 147.335772 
L 371.753808 144.765106 
L 372.363145 143.341743 
L 372.667813 147.269889 
L 372.972482 144.489347 
L 373.27715 143.155127 
L 373.581818 144.655407 
L 373.581818 144.655407 
" style="fill:none;stroke:#ff7f0e;stroke-linecap:square;stroke-width:1.5;"/>
   </g>
   <g id="line2d_15">
    <path clip-path="url(#p741fc3970a)" d="M 69.218182 242.116364 
L 69.827518 202.283853 
L 70.132187 180.363306 
L 70.436855 170.885013 
L 71.046192 147.840862 
L 71.960197 119.009126 
L 73.17887 95.423422 
L 73.483538 96.769807 
L 73.788206 90.353952 
L 74.092875 88.294946 
L 74.397543 87.279015 
L 75.00688 78.17187 
L 75.311548 77.122828 
L 75.616216 77.255456 
L 75.920885 79.570832 
L 76.530221 75.178159 
L 76.834889 71.852729 
L 77.139558 74.837682 
L 77.444226 71.678626 
L 77.748894 70.79495 
L 78.358231 69.756854 
L 78.662899 69.928805 
L 78.967568 66.122645 
L 79.272236 68.334265 
L 79.576904 72.696923 
L 79.881572 67.026931 
L 80.186241 67.135307 
L 80.490909 69.661324 
L 80.795577 69.831375 
L 81.404914 68.721631 
L 81.709582 64.950981 
L 82.014251 69.482577 
L 82.318919 67.728368 
L 82.623587 68.266563 
L 82.928256 68.06599 
L 83.232924 63.985049 
L 83.84226 65.543153 
L 84.146929 66.279823 
L 84.451597 65.731168 
L 84.756265 63.856067 
L 85.060934 63.845801 
L 85.365602 64.034444 
L 85.67027 65.125652 
L 85.974939 64.402123 
L 86.279607 66.345373 
L 86.584275 64.512907 
L 86.888943 61.523437 
L 87.193612 67.731948 
L 87.49828 63.459992 
L 87.802948 66.893237 
L 88.107617 61.842211 
L 88.412285 65.350199 
L 88.716953 65.093194 
L 89.021622 61.629689 
L 89.630958 64.748605 
L 89.935627 65.746831 
L 90.240295 64.049589 
L 90.544963 63.506461 
L 90.849631 64.037649 
L 91.1543 62.42039 
L 91.458968 65.457499 
L 91.763636 61.899832 
L 92.068305 67.200905 
L 92.372973 62.40662 
L 92.677641 62.136403 
L 92.98231 64.094033 
L 93.286978 63.630849 
L 93.591646 61.260162 
L 93.896314 60.078972 
L 94.200983 61.358929 
L 94.505651 61.053695 
L 95.114988 64.380664 
L 95.419656 61.063273 
L 96.028993 63.339534 
L 96.333661 61.012732 
L 96.638329 61.975228 
L 97.247666 64.882846 
L 97.552334 60.329448 
L 97.857002 57.511717 
L 98.161671 59.967672 
L 98.466339 60.810054 
L 98.771007 62.25041 
L 99.075676 60.262549 
L 99.380344 61.209736 
L 99.685012 58.187879 
L 99.989681 57.905309 
L 100.294349 57.854411 
L 100.599017 58.645288 
L 100.903686 57.759928 
L 101.208354 62.124633 
L 101.513022 58.024251 
L 101.81769 60.097105 
L 102.122359 59.497176 
L 102.427027 58.607648 
L 102.731695 59.597191 
L 103.341032 62.353261 
L 103.6457 58.187932 
L 103.950369 59.20963 
L 104.255037 61.325443 
L 104.559705 59.144564 
L 104.864373 61.057745 
L 105.169042 58.869356 
L 105.778378 58.139019 
L 106.083047 59.055189 
L 106.387715 61.440059 
L 106.692383 57.438885 
L 106.997052 60.659731 
L 107.30172 59.993348 
L 107.606388 56.648681 
L 107.911057 61.67139 
L 108.825061 55.655682 
L 109.434398 59.857878 
L 109.739066 56.885993 
L 110.043735 59.341479 
L 110.348403 59.954711 
L 110.653071 57.248947 
L 110.95774 57.764596 
L 111.262408 62.291257 
L 111.567076 61.146992 
L 111.871744 59.514788 
L 112.176413 60.037092 
L 112.481081 62.354032 
L 112.785749 59.173512 
L 113.090418 60.354808 
L 113.395086 58.477017 
L 113.699754 59.063509 
L 114.004423 60.455303 
L 114.309091 57.519357 
L 114.613759 59.750812 
L 114.918428 58.238836 
L 115.223096 57.81133 
L 115.527764 55.126514 
L 115.832432 56.52986 
L 116.441769 57.941108 
L 116.746437 57.886631 
L 117.051106 58.839565 
L 117.355774 58.405344 
L 117.660442 57.131863 
L 117.965111 58.789139 
L 118.269779 56.789383 
L 118.574447 59.254199 
L 118.879115 55.707837 
L 119.183784 60.439593 
L 119.488452 59.014439 
L 120.097789 54.460774 
L 120.402457 59.918999 
L 121.011794 54.655657 
L 121.316462 60.263273 
L 121.62113 58.0774 
L 121.925799 58.614928 
L 122.230467 58.498446 
L 122.535135 58.162423 
L 122.839803 56.225828 
L 123.144472 56.53108 
L 123.44914 59.772361 
L 123.753808 58.691619 
L 124.058477 59.644379 
L 124.363145 57.39181 
L 124.667813 58.785312 
L 124.972482 58.218819 
L 125.27715 55.734616 
L 125.581818 58.940483 
L 125.886486 56.077315 
L 126.191155 56.917233 
L 126.495823 58.578602 
L 126.800491 61.597005 
L 127.10516 56.114772 
L 127.409828 56.843609 
L 127.714496 60.164349 
L 128.019165 60.254199 
L 128.323833 58.586299 
L 128.628501 60.919831 
L 128.93317 59.836556 
L 129.237838 57.070192 
L 129.542506 56.114132 
L 129.847174 54.602926 
L 130.151843 58.56461 
L 130.761179 56.307007 
L 131.065848 55.585321 
L 131.675184 59.411397 
L 131.979853 58.985331 
L 132.589189 56.422123 
L 132.893857 56.555382 
L 133.198526 54.911417 
L 133.503194 59.011513 
L 133.807862 59.734286 
L 134.112531 55.071763 
L 134.417199 57.504272 
L 134.721867 56.887298 
L 135.026536 55.287569 
L 135.331204 55.927692 
L 135.635872 59.953864 
L 135.940541 57.826978 
L 136.549877 55.998368 
L 136.854545 56.882587 
L 137.159214 55.715278 
L 137.463882 60.807779 
L 138.377887 55.54482 
L 138.682555 58.13691 
L 138.987224 55.578357 
L 139.291892 56.970064 
L 139.59656 56.508273 
L 139.901229 58.293559 
L 140.205897 58.980692 
L 140.510565 58.686783 
L 140.815233 54.862647 
L 141.42457 59.314023 
L 141.729238 56.241223 
L 142.033907 56.215523 
L 142.338575 55.061013 
L 142.643243 55.226522 
L 142.947912 57.765623 
L 143.25258 54.98383 
L 143.557248 55.19781 
L 143.861916 59.360651 
L 144.471253 55.097141 
L 144.775921 58.84716 
L 145.08059 57.53801 
L 145.385258 53.335611 
L 145.689926 54.073479 
L 145.994595 56.042365 
L 146.299263 55.603894 
L 146.603931 54.760262 
L 146.9086 58.452692 
L 147.213268 56.827861 
L 147.517936 57.11559 
L 147.822604 54.203002 
L 148.127273 53.52529 
L 148.431941 56.170899 
L 148.736609 56.102877 
L 149.041278 54.430732 
L 149.345946 57.479105 
L 149.650614 54.838488 
L 149.955283 57.346303 
L 150.259951 55.745388 
L 150.564619 58.416985 
L 150.869287 57.586615 
L 151.173956 55.235541 
L 151.478624 58.337137 
L 151.783292 53.866208 
L 152.087961 55.877629 
L 152.392629 59.638665 
L 152.697297 54.497721 
L 153.001966 56.980088 
L 153.306634 56.126634 
L 153.611302 56.231155 
L 153.915971 54.561263 
L 154.220639 56.880358 
L 154.525307 51.303013 
L 154.829975 57.051044 
L 155.134644 54.448023 
L 155.439312 56.367199 
L 155.74398 56.588245 
L 156.048649 53.965697 
L 156.353317 54.933078 
L 156.657985 54.079993 
L 156.962654 55.363762 
L 157.267322 54.495745 
L 157.57199 57.392416 
L 157.876658 54.572105 
L 158.181327 54.540262 
L 158.485995 54.320244 
L 158.790663 52.732757 
L 159.095332 56.680057 
L 159.4 52.951011 
L 159.704668 53.803145 
L 160.009337 56.074769 
L 160.314005 55.22043 
L 160.618673 57.661674 
L 160.923342 54.427577 
L 161.22801 53.609752 
L 161.532678 55.379551 
L 161.837346 52.829425 
L 162.142015 56.294203 
L 162.446683 55.190863 
L 162.751351 55.336522 
L 163.05602 54.088298 
L 163.360688 54.880867 
L 163.970025 58.37149 
L 164.274693 54.98802 
L 164.579361 56.5529 
L 164.884029 57.44358 
L 165.188698 54.751253 
L 165.493366 56.251971 
L 165.798034 55.58931 
L 166.102703 55.525933 
L 166.407371 53.362537 
L 166.712039 56.177535 
L 167.016708 55.721577 
L 167.321376 56.060208 
L 167.626044 60.117385 
L 167.930713 58.217288 
L 168.235381 54.19102 
L 168.540049 55.509109 
L 168.844717 54.69229 
L 169.149386 56.357223 
L 169.454054 55.218503 
L 169.758722 55.667429 
L 170.063391 52.617686 
L 170.672727 56.468476 
L 170.977396 51.089803 
L 171.282064 56.371785 
L 171.586732 53.816995 
L 171.8914 52.435281 
L 172.196069 54.944393 
L 172.500737 51.122704 
L 173.110074 57.906112 
L 173.414742 53.751122 
L 173.71941 51.222964 
L 174.024079 55.577132 
L 174.328747 52.560351 
L 174.633415 56.40036 
L 175.242752 53.034057 
L 175.54742 55.358959 
L 175.852088 55.743136 
L 176.156757 53.507518 
L 176.461425 54.81438 
L 176.766093 52.248786 
L 177.070762 54.266475 
L 177.37543 55.303165 
L 177.680098 52.341307 
L 177.984767 52.96558 
L 178.289435 53.919973 
L 178.594103 53.73671 
L 178.898771 53.077689 
L 179.20344 54.941298 
L 179.508108 55.074267 
L 179.812776 54.392368 
L 180.117445 55.180808 
L 180.422113 52.345908 
L 180.726781 52.219932 
L 181.03145 54.122014 
L 181.336118 53.533355 
L 181.640786 52.222261 
L 181.945455 58.810386 
L 182.250123 53.777954 
L 182.859459 54.565257 
L 183.164128 56.912588 
L 183.773464 51.847355 
L 184.078133 57.724787 
L 184.382801 55.587628 
L 184.687469 54.888219 
L 184.992138 53.794147 
L 185.296806 55.338973 
L 185.601474 54.371198 
L 185.906143 49.645591 
L 186.210811 55.290768 
L 186.515479 53.718513 
L 186.820147 54.073547 
L 187.124816 56.724585 
L 187.429484 51.420179 
L 187.734152 53.576424 
L 188.038821 51.755863 
L 188.343489 54.806198 
L 188.648157 54.651868 
L 188.952826 53.34573 
L 189.257494 52.840263 
L 189.86683 58.303449 
L 190.171499 56.898895 
L 190.476167 50.746067 
L 190.780835 57.465959 
L 191.085504 56.152807 
L 191.390172 54.271765 
L 191.69484 54.970197 
L 191.999509 55.390369 
L 192.304177 53.984615 
L 192.608845 54.417694 
L 192.913514 55.133099 
L 193.218182 54.175999 
L 193.52285 54.59179 
L 193.827518 55.872175 
L 194.132187 53.73983 
L 194.436855 55.490661 
L 194.741523 53.935912 
L 195.046192 55.170619 
L 195.35086 54.111269 
L 195.655528 54.016088 
L 195.960197 54.71513 
L 196.264865 56.161243 
L 196.569533 55.629228 
L 196.874201 56.34498 
L 197.17887 55.443554 
L 197.483538 52.686609 
L 197.788206 54.334164 
L 198.092875 53.702484 
L 198.397543 55.898762 
L 198.702211 51.964936 
L 199.00688 53.37005 
L 199.311548 57.065615 
L 199.616216 53.934185 
L 199.920885 59.805521 
L 200.225553 52.486518 
L 200.530221 55.974736 
L 200.834889 54.20525 
L 201.139558 54.022592 
L 201.444226 54.363122 
L 201.748894 52.755645 
L 202.053563 57.025969 
L 202.358231 54.341426 
L 202.662899 54.638595 
L 203.272236 53.270549 
L 203.576904 53.016307 
L 203.881572 55.216236 
L 204.186241 51.47378 
L 204.490909 50.296285 
L 204.795577 52.38405 
L 205.100246 55.417519 
L 205.404914 56.618999 
L 205.709582 53.816829 
L 206.014251 55.231563 
L 206.318919 56.049265 
L 206.623587 57.430666 
L 206.928256 54.852687 
L 207.232924 56.651426 
L 207.537592 50.665525 
L 207.84226 53.202212 
L 208.146929 54.2129 
L 208.451597 52.88715 
L 208.756265 54.998395 
L 209.060934 53.297173 
L 209.365602 55.512919 
L 209.67027 52.285794 
L 210.279607 54.844043 
L 210.584275 55.570722 
L 210.888943 53.909514 
L 211.193612 53.775784 
L 211.49828 54.212027 
L 211.802948 51.912523 
L 212.107617 53.921621 
L 212.412285 54.04289 
L 212.716953 53.046504 
L 213.021622 53.662482 
L 213.32629 53.908758 
L 213.630958 54.746034 
L 213.935627 54.387424 
L 214.240295 56.506683 
L 214.544963 54.763515 
L 214.849631 54.130641 
L 215.458968 53.752717 
L 215.763636 55.172413 
L 216.068305 52.191844 
L 216.372973 55.002176 
L 216.677641 53.792583 
L 216.98231 53.469873 
L 217.286978 54.952907 
L 217.896314 52.043108 
L 218.200983 51.892163 
L 218.505651 56.257759 
L 218.810319 54.811519 
L 219.114988 51.877253 
L 219.419656 56.1645 
L 219.724324 51.398312 
L 220.028993 59.227436 
L 220.333661 54.311434 
L 220.638329 52.140365 
L 220.942998 55.928822 
L 221.247666 52.072957 
L 221.552334 53.437576 
L 221.857002 55.87954 
L 222.161671 52.438467 
L 222.771007 55.658223 
L 223.380344 51.192076 
L 223.685012 52.231475 
L 223.989681 54.929409 
L 224.294349 53.536252 
L 224.599017 53.097807 
L 224.903686 53.411166 
L 225.208354 52.767181 
L 225.513022 51.57621 
L 225.81769 53.128193 
L 226.122359 58.87317 
L 226.427027 53.798973 
L 226.731695 54.809517 
L 227.036364 52.969316 
L 227.341032 53.791384 
L 227.6457 53.482626 
L 227.950369 54.233191 
L 228.255037 54.600166 
L 228.559705 54.120247 
L 228.864373 48.450152 
L 229.169042 53.587172 
L 229.47371 52.117712 
L 229.778378 52.012329 
L 230.083047 53.330398 
L 230.387715 52.358568 
L 230.997052 54.74117 
L 231.30172 53.066749 
L 231.606388 52.264277 
L 231.911057 54.069812 
L 232.215725 53.755539 
L 232.520393 52.123055 
L 232.825061 53.245111 
L 233.12973 51.042572 
L 233.434398 50.320531 
L 233.739066 53.227492 
L 234.043735 52.93572 
L 234.348403 55.436981 
L 234.95774 50.860008 
L 235.262408 57.830711 
L 235.567076 55.822839 
L 235.871744 52.914562 
L 236.176413 52.234689 
L 236.785749 55.888395 
L 237.090418 51.340354 
L 237.395086 54.454422 
L 237.699754 53.874195 
L 238.004423 55.078481 
L 238.309091 52.802183 
L 238.613759 54.29617 
L 238.918428 51.163504 
L 239.223096 52.568125 
L 239.527764 53.338373 
L 239.832432 50.672307 
L 240.137101 52.682183 
L 240.441769 56.219506 
L 240.746437 53.779124 
L 241.051106 54.537608 
L 241.660442 51.741186 
L 242.269779 55.190858 
L 242.574447 53.166163 
L 242.879115 53.416161 
L 243.183784 54.633901 
L 243.488452 54.184088 
L 243.79312 53.206881 
L 244.097789 51.767648 
L 244.402457 52.995811 
L 244.707125 50.886198 
L 245.011794 51.04411 
L 245.316462 53.880198 
L 245.62113 53.493239 
L 245.925799 53.895941 
L 246.230467 50.487038 
L 246.535135 54.598639 
L 246.839803 54.175 
L 247.144472 55.878089 
L 247.44914 50.303418 
L 247.753808 49.602744 
L 248.363145 54.372914 
L 248.667813 52.262199 
L 248.972482 53.693952 
L 249.581818 50.008312 
L 250.191155 55.583451 
L 250.495823 52.689281 
L 250.800491 55.60324 
L 251.10516 52.053924 
L 251.409828 54.36889 
L 251.714496 52.405366 
L 252.019165 53.508315 
L 252.323833 55.164231 
L 252.628501 54.298094 
L 252.93317 54.241187 
L 253.237838 52.889606 
L 253.542506 52.439536 
L 253.847174 54.205462 
L 254.151843 50.659568 
L 254.456511 52.456933 
L 254.761179 51.088002 
L 255.065848 52.771363 
L 255.370516 50.085219 
L 255.675184 54.361083 
L 255.979853 51.082442 
L 256.284521 55.005771 
L 256.893857 52.418957 
L 257.198526 53.807806 
L 257.807862 53.187563 
L 258.112531 54.732481 
L 258.417199 52.830324 
L 258.721867 49.538088 
L 259.026536 54.12515 
L 259.331204 51.253868 
L 259.635872 54.876092 
L 259.940541 51.255342 
L 260.245209 51.710999 
L 260.549877 54.406839 
L 260.854545 52.69423 
L 261.159214 49.880423 
L 261.463882 53.473579 
L 261.76855 51.728718 
L 262.377887 55.512522 
L 262.682555 51.399994 
L 262.987224 53.812224 
L 263.291892 52.490663 
L 263.59656 53.190465 
L 263.901229 52.858371 
L 264.205897 53.802237 
L 264.510565 52.939882 
L 264.815233 51.659001 
L 265.119902 53.618297 
L 265.42457 52.344684 
L 265.729238 54.70033 
L 266.033907 53.14247 
L 266.338575 55.127568 
L 266.643243 50.489503 
L 266.947912 50.795634 
L 267.25258 53.852728 
L 267.557248 54.913869 
L 267.861916 53.767731 
L 268.471253 50.327324 
L 268.775921 53.829411 
L 269.08059 53.231582 
L 269.385258 49.982019 
L 269.689926 52.292924 
L 269.994595 53.303201 
L 270.299263 56.028151 
L 270.603931 53.651792 
L 270.9086 52.853938 
L 271.213268 51.088871 
L 271.517936 52.498779 
L 271.822604 52.215726 
L 272.127273 52.910852 
L 272.431941 54.469528 
L 272.736609 52.906346 
L 273.041278 55.295219 
L 273.955283 48.504627 
L 274.259951 54.24571 
L 274.564619 52.151068 
L 274.869287 52.04369 
L 275.173956 52.550041 
L 275.478624 51.002164 
L 275.783292 51.507096 
L 276.087961 53.808299 
L 276.392629 54.025025 
L 276.697297 51.281594 
L 277.001966 56.698344 
L 277.611302 51.553202 
L 278.220639 53.827905 
L 278.525307 52.998883 
L 278.829975 54.696549 
L 279.134644 50.186584 
L 279.439312 52.844205 
L 279.74398 51.425515 
L 280.353317 55.294062 
L 280.657985 53.284095 
L 280.962654 52.920241 
L 281.267322 54.069285 
L 281.57199 53.194201 
L 281.876658 48.199204 
L 282.181327 52.851492 
L 282.485995 50.130816 
L 282.790663 52.438662 
L 283.095332 53.480867 
L 283.704668 49.818017 
L 284.009337 54.62623 
L 284.314005 50.836287 
L 284.618673 53.085848 
L 284.923342 49.216525 
L 285.532678 53.540633 
L 285.837346 50.413763 
L 286.142015 54.252738 
L 286.446683 52.477451 
L 286.751351 49.972943 
L 287.05602 51.819631 
L 287.360688 49.904512 
L 287.665356 54.420795 
L 287.970025 53.15692 
L 288.274693 53.657701 
L 288.579361 48.880702 
L 288.884029 50.909274 
L 289.188698 50.718055 
L 289.493366 48.676381 
L 289.798034 52.365453 
L 290.102703 50.435758 
L 290.407371 49.433683 
L 290.712039 54.464787 
L 291.016708 51.608392 
L 291.321376 53.634874 
L 291.930713 50.297791 
L 292.235381 51.881071 
L 292.540049 49.084487 
L 292.844717 48.466176 
L 293.149386 52.141947 
L 293.454054 50.995458 
L 293.758722 54.375198 
L 294.063391 50.702798 
L 294.368059 53.783364 
L 294.672727 51.482162 
L 294.977396 54.038694 
L 295.282064 53.83572 
L 295.586732 51.198234 
L 295.8914 52.397101 
L 296.196069 52.284507 
L 296.500737 49.122165 
L 297.110074 52.415014 
L 297.414742 52.623461 
L 297.71941 50.281031 
L 298.024079 51.15921 
L 298.328747 48.148803 
L 298.633415 53.047882 
L 298.938084 49.037449 
L 299.242752 51.848355 
L 299.54742 49.472523 
L 299.852088 51.047712 
L 300.156757 51.894822 
L 300.766093 48.866887 
L 301.070762 50.362792 
L 301.37543 47.801498 
L 301.680098 52.167085 
L 301.984767 51.750538 
L 302.289435 51.855045 
L 302.898771 48.776388 
L 303.20344 52.765373 
L 303.508108 47.875886 
L 303.812776 54.179557 
L 304.117445 49.985196 
L 304.422113 53.679682 
L 304.726781 53.609607 
L 305.03145 54.401254 
L 305.336118 48.505465 
L 305.945455 50.698861 
L 306.250123 50.698238 
L 306.554791 53.796014 
L 306.859459 55.377778 
L 307.468796 45.591112 
L 307.773464 50.235364 
L 308.078133 50.140046 
L 308.382801 50.632485 
L 308.687469 53.484041 
L 308.992138 52.369487 
L 309.296806 51.702384 
L 309.601474 53.040377 
L 309.906143 50.924688 
L 310.210811 49.70168 
L 310.515479 52.112391 
L 310.820147 50.79552 
L 311.124816 50.839097 
L 311.429484 50.263772 
L 311.734152 51.644114 
L 312.038821 54.356813 
L 312.343489 52.29625 
L 312.648157 48.631959 
L 312.952826 50.820529 
L 313.257494 51.47 
L 313.86683 50.57988 
L 314.171499 55.243912 
L 314.476167 49.575477 
L 314.780835 54.302048 
L 315.085504 48.333459 
L 315.69484 53.057555 
L 315.999509 49.837647 
L 316.304177 50.410778 
L 316.608845 49.700076 
L 316.913514 48.700618 
L 317.218182 50.337818 
L 317.52285 50.861194 
L 317.827518 51.137668 
L 318.132187 52.794045 
L 318.436855 51.645836 
L 318.741523 51.523245 
L 319.046192 50.065154 
L 319.35086 51.089627 
L 319.655528 48.902986 
L 319.960197 52.000315 
L 320.264865 51.19924 
L 320.569533 49.65562 
L 320.874201 53.139622 
L 321.17887 49.090642 
L 321.483538 48.915468 
L 321.788206 51.478834 
L 322.092875 49.668768 
L 322.397543 50.067758 
L 322.702211 46.618209 
L 323.00688 53.459955 
L 323.311548 50.689508 
L 323.616216 51.518181 
L 324.225553 49.002764 
L 324.530221 53.615394 
L 325.139558 50.217769 
L 325.444226 50.102418 
L 325.748894 51.104517 
L 326.053563 55.610786 
L 326.358231 48.98292 
L 326.662899 50.890697 
L 326.967568 49.336095 
L 327.272236 48.691569 
L 327.576904 46.266018 
L 327.881572 51.477215 
L 328.186241 51.532189 
L 328.490909 51.970804 
L 328.795577 49.822405 
L 329.100246 51.554926 
L 329.404914 50.639499 
L 329.709582 52.455734 
L 330.014251 52.236339 
L 330.318919 48.319747 
L 330.623587 47.051308 
L 330.928256 53.869125 
L 331.232924 50.116004 
L 331.537592 49.423399 
L 331.84226 51.579807 
L 332.146929 52.431418 
L 332.451597 51.107063 
L 332.756265 50.366959 
L 333.060934 55.658548 
L 333.365602 50.130833 
L 333.67027 50.80504 
L 333.974939 50.243377 
L 334.279607 52.709934 
L 334.584275 50.187024 
L 334.888943 49.274733 
L 335.193612 49.986987 
L 335.49828 51.643282 
L 335.802948 54.263105 
L 336.412285 48.367965 
L 336.716953 54.416021 
L 337.32629 48.181997 
L 337.630958 50.297355 
L 337.935627 50.40535 
L 338.240295 52.804266 
L 338.544963 50.844644 
L 338.849631 47.264094 
L 339.1543 50.042328 
L 339.458968 50.096003 
L 339.763636 48.835586 
L 340.068305 51.074179 
L 340.372973 49.561208 
L 340.677641 51.421024 
L 340.98231 49.603387 
L 341.286978 50.291667 
L 341.591646 48.941792 
L 341.896314 49.276416 
L 342.200983 49.107638 
L 342.505651 50.745549 
L 342.810319 51.662179 
L 343.114988 50.785784 
L 343.419656 48.920826 
L 343.724324 47.920877 
L 344.028993 46.428304 
L 344.333661 48.878906 
L 344.638329 48.831031 
L 344.942998 46.666688 
L 345.247666 51.431292 
L 345.552334 49.102661 
L 345.857002 51.146391 
L 346.161671 51.143337 
L 346.466339 52.127478 
L 346.771007 50.165487 
L 347.075676 53.466275 
L 347.380344 48.857414 
L 347.685012 50.225443 
L 347.989681 49.530811 
L 348.294349 52.401083 
L 348.599017 48.475961 
L 348.903686 52.064465 
L 349.208354 53.330091 
L 349.513022 47.231944 
L 349.81769 46.795896 
L 350.122359 51.581561 
L 350.427027 50.121328 
L 351.036364 48.301064 
L 351.341032 51.347783 
L 351.6457 48.298592 
L 351.950369 51.329979 
L 352.255037 48.129868 
L 352.559705 47.551473 
L 352.864373 49.483525 
L 353.169042 49.822287 
L 353.47371 52.491018 
L 353.778378 49.823539 
L 354.083047 52.841069 
L 354.387715 51.584846 
L 354.692383 47.828599 
L 354.997052 50.889844 
L 355.30172 50.24131 
L 355.606388 51.767338 
L 355.911057 49.243354 
L 356.215725 48.510682 
L 356.520393 50.614242 
L 356.825061 47.089646 
L 357.434398 52.312991 
L 357.739066 50.36918 
L 358.043735 50.109861 
L 358.348403 50.081272 
L 358.653071 49.468669 
L 358.95774 51.971065 
L 359.262408 51.294597 
L 359.567076 47.223337 
L 360.176413 52.516173 
L 360.481081 48.149292 
L 360.785749 48.31856 
L 361.090418 44.443636 
L 361.395086 49.986411 
L 361.699754 52.863068 
L 362.004423 49.233918 
L 362.309091 53.320779 
L 362.613759 52.443305 
L 362.918428 50.89108 
L 363.223096 50.350587 
L 363.832432 51.657875 
L 364.137101 50.958234 
L 364.441769 46.020285 
L 364.746437 47.354458 
L 365.051106 52.817646 
L 365.355774 48.384529 
L 365.660442 48.280227 
L 365.965111 47.187798 
L 366.269779 49.574044 
L 366.574447 50.724206 
L 366.879115 51.107761 
L 367.183784 46.905 
L 367.488452 50.839362 
L 367.79312 49.886345 
L 368.097789 50.748036 
L 368.402457 49.490753 
L 368.707125 47.528258 
L 369.011794 52.589052 
L 369.316462 49.81626 
L 369.62113 51.310368 
L 369.925799 53.940679 
L 370.230467 50.421487 
L 370.535135 50.236599 
L 370.839803 50.797003 
L 371.144472 52.405053 
L 371.44914 50.480159 
L 371.753808 49.660039 
L 372.058477 52.945456 
L 372.363145 46.406603 
L 372.972482 51.225111 
L 373.27715 50.522628 
L 373.581818 51.957141 
L 373.581818 51.957141 
" style="fill:none;stroke:#2ca02c;stroke-linecap:square;stroke-width:1.5;"/>
   </g>
   <g id="patch_3">
    <path d="M 54 252 
L 54 34.56 
" style="fill:none;stroke:#000000;stroke-linecap:square;stroke-linejoin:miter;stroke-width:0.8;"/>
   </g>
   <g id="patch_4">
    <path d="M 388.8 252 
L 388.8 34.56 
" style="fill:none;stroke:#000000;stroke-linecap:square;stroke-linejoin:miter;stroke-width:0.8;"/>
   </g>
   <g id="patch_5">
    <path d="M 54 252 
L 388.8 252 
" style="fill:none;stroke:#000000;stroke-linecap:square;stroke-linejoin:miter;stroke-width:0.8;"/>
   </g>
   <g id="patch_6">
    <path d="M 54 34.56 
L 388.8 34.56 
" style="fill:none;stroke:#000000;stroke-linecap:square;stroke-linejoin:miter;stroke-width:0.8;"/>
   </g>
   <g id="legend_1">
    <g id="patch_7">
     <path d="M 327.660747 247 
L 381.8 247 
Q 383.8 247 383.8 245 
L 383.8 204.188465 
Q 383.8 202.188465 381.8 202.188465 
L 327.660747 202.188465 
Q 325.660747 202.188465 325.660747 204.188465 
L 325.660747 245 
Q 325.660747 247 327.660747 247 
z
" style="fill:#ffffff;opacity:0.8;stroke:#cccccc;stroke-linejoin:miter;"/>
    </g>
    <g id="line2d_16">
     <path d="M 329.660747 209.688465 
L 349.660747 209.688465 
" style="fill:none;stroke:#1f77b4;stroke-linecap:square;stroke-width:1.5;"/>
    </g>
    <g id="line2d_17"/>
    <g id="text_13">
     <!-- e0 -->
     <defs>
      <path d="M 38.09375 23 
C 38.5 23.40625 38.5 23.609375 38.5 24.625 
C 38.5 34.96875 33.09375 44 21.703125 44 
C 11.09375 44 2.703125 33.890625 2.703125 21.609375 
C 2.703125 8.609375 12.203125 -1 22.796875 -1 
C 34 -1 38.40625 9.484375 38.40625 11.5625 
C 38.40625 12.25 37.796875 12.25 37.59375 12.25 
C 36.90625 12.25 36.796875 12.046875 36.40625 10.875 
C 34.203125 4.140625 28.703125 0.796875 23.5 0.796875 
C 19.203125 0.796875 14.90625 3.171875 12.203125 7.5 
C 9.09375 12.546875 9.09375 18.375 9.09375 23 
z
M 9.203125 24.5 
C 9.90625 39.140625 17.59375 42.40625 21.59375 42.40625 
C 28.40625 42.40625 33 35.890625 33.09375 24.5 
z
" id="CMR17-101"/>
     </defs>
     <g transform="translate(357.660747 213.188465)scale(0.1 -0.1)">
      <use transform="scale(0.996264)" xlink:href="#CMR17-101"/>
      <use transform="translate(40.48566 0)scale(0.996264)" xlink:href="#CMR17-48"/>
     </g>
    </g>
    <g id="line2d_18">
     <path d="M 329.660747 223.625643 
L 349.660747 223.625643 
" style="fill:none;stroke:#ff7f0e;stroke-linecap:square;stroke-width:1.5;"/>
    </g>
    <g id="line2d_19"/>
    <g id="text_14">
     <!-- e0.1 -->
     <defs>
      <path d="M 16.59375 4.078125 
C 16.59375 6.5625 14.59375 8.15625 12.5 8.15625 
C 10.5 8.15625 8.40625 6.5625 8.40625 4.078125 
C 8.40625 1.59375 10.40625 0 12.5 0 
C 14.5 0 16.59375 1.59375 16.59375 4.078125 
z
" id="CMR17-46"/>
     </defs>
     <g transform="translate(357.660747 227.125643)scale(0.1 -0.1)">
      <use transform="scale(0.996264)" xlink:href="#CMR17-101"/>
      <use transform="translate(40.48566 0)scale(0.996264)" xlink:href="#CMR17-48"/>
      <use transform="translate(86.176138 0)scale(0.996264)" xlink:href="#CMR17-46"/>
      <use transform="translate(111.047196 0)scale(0.996264)" xlink:href="#CMR17-49"/>
     </g>
    </g>
    <g id="line2d_20">
     <path d="M 329.660747 237.562822 
L 349.660747 237.562822 
" style="fill:none;stroke:#2ca02c;stroke-linecap:square;stroke-width:1.5;"/>
    </g>
    <g id="line2d_21"/>
    <g id="text_15">
     <!-- e0.01 -->
     <g transform="translate(357.660747 241.062822)scale(0.1 -0.1)">
      <use transform="scale(0.996264)" xlink:href="#CMR17-101"/>
      <use transform="translate(40.48566 0)scale(0.996264)" xlink:href="#CMR17-48"/>
      <use transform="translate(86.176138 0)scale(0.996264)" xlink:href="#CMR17-46"/>
      <use transform="translate(111.047196 0)scale(0.996264)" xlink:href="#CMR17-48"/>
      <use transform="translate(156.737673 0)scale(0.996264)" xlink:href="#CMR17-49"/>
     </g>
    </g>
   </g>
  </g>
 </g>
 <defs>
  <clipPath id="p741fc3970a">
   <rect height="217.44" width="334.8" x="54" y="34.56"/>
  </clipPath>
 </defs>
</svg>
